<?xml version="1.0" encoding="UTF-8" standalone="no"?>
<!DOCTYPE svg PUBLIC "-//W3C//DTD SVG 1.1//EN" "http://www.w3.org/Graphics/SVG/1.1/DTD/svg11.dtd">
<svg width="595.20" height="419.52" viewBox="0.00 0.00 2480.00 1748.00" xmlns="http://www.w3.org/2000/svg" xmlns:xlink="http://www.w3.org/1999/xlink">
<g stroke-linecap="round" id="Layer_2">
<path d="M904.69,326.44 C904.60,325.08 905.07,315.89 905.25,312.11 C905.50,301.74 907.06,289.82 907.92,283.40 C909.02,275.64 911.45,259.01 912.79,250.15 C914.39,241.49 918.33,223.95 920.27,217.34 C922.85,208.83 928.14,195.45 931.38,189.01 C934.62,182.60 942.39,170.48 946.57,165.82 C951.47,160.41 964.60,149.75 972.79,144.53 C978.03,141.21 993.00,133.51 1000.07,130.20 C1007.53,126.92 1023.63,120.44 1032.26,117.24 C1044.93,112.80 1059.06,108.52 1067.00,106.83 C1074.91,105.17 1089.02,103.78 1095.23,104.05 C1098.02,104.18 1104.40,105.00 1107.89,105.97 C1111.57,107.01 1118.28,110.13 1121.20,112.14 C1124.09,114.18 1129.06,119.20 1131.13,122.18 C1134.22,126.72 1140.75,143.39 1143.71,150.83 C1150.04,165.74 1163.04,195.73 1170.06,210.74 C1175.69,222.31 1181.23,232.74 1185.49,238.97 C1189.71,245.10 1199.08,255.46 1205.03,260.39 C1208.51,263.24 1216.50,268.09 1220.66,269.87 C1227.03,272.54 1245.27,275.99 1252.39,277.34 C1254.95,277.84 1258.55,278.53 1259.58,278.73 C1260.55,277.15 1262.89,273.37 1264.26,271.16 C1267.25,266.34 1269.39,262.19 1270.55,257.59 C1272.43,249.85 1272.84,232.11 1272.66,225.32 C1271.98,211.01 1268.21,176.07 1267.56,159.05 C1267.45,150.66 1267.71,134.67 1268.65,125.18 C1269.51,116.56 1272.30,99.81 1274.20,91.78 C1275.34,86.98 1280.40,69.30 1282.52,62.80 C1284.67,56.68 1290.03,43.63 1294.59,36.95 C1296.87,33.66 1301.77,28.54 1304.12,27.02 C1306.73,25.38 1313.22,23.66 1317.09,23.58 C1323.29,23.51 1337.06,27.18 1343.86,29.79 C1350.96,32.53 1368.67,41.06 1374.32,43.14 C1382.36,46.06 1397.76,49.13 1406.82,49.61 C1415.67,50.05 1431.13,48.71 1439.45,46.78 C1447.08,44.99 1505.15,24.18 1512.29,21.85 C1515.42,20.87 1519.69,20.54 1523.61,21.15 C1532.69,22.63 1545.77,28.03 1551.15,30.24 C1564.31,36.01 1593.80,49.33 1610.13,56.89 C1628.16,65.58 1662.20,82.32 1676.67,89.86 C1683.13,93.38 1695.28,100.16 1700.96,103.42 C1705.74,106.26 1711.06,109.87 1716.09,113.93 C1720.51,117.54 1727.28,124.40 1729.44,127.46 C1730.59,129.11 1737.75,142.07 1739.72,145.61" fill="none" stroke="rgb(255, 255, 255)" stroke-width="6.22" stroke-opacity="1.00" stroke-linejoin="round"/>
<path d="M1615.12,145.02 C1615.12,145.02 1620.62,145.61 1620.62,145.61 C1616.59,142.71 1602.52,132.61 1599.62,131.05 C1595.89,129.08 1587.33,126.21 1582.75,125.40 C1578.36,124.65 1569.87,124.15 1565.69,124.29 C1557.03,124.61 1537.73,128.29 1529.54,130.82 C1525.94,131.95 1520.84,134.07 1518.68,135.35 C1517.55,136.05 1516.34,137.29 1515.98,138.19 C1515.70,139.02 1516.13,140.76 1516.82,141.62 C1518.32,143.36 1525.26,146.85 1529.89,148.36 C1538.63,151.17 1550.46,152.23 1560.69,152.64 C1573.94,152.97 1606.04,152.93 1623.28,152.76 C1659.64,151.83 1728.87,150.04 1761.75,149.18 C1768.85,149.01 1783.47,148.67 1786.20,149.20 C1788.86,149.75 1794.82,151.99 1798.12,153.68 C1804.74,157.11 1818.32,166.92 1825.76,173.15 C1835.90,181.92 1859.27,204.93 1872.09,218.44 C1896.46,245.43 1937.01,290.43 1937.28,290.72 C1938.48,292.01 1947.63,303.34 1949.10,305.01 C1946.82,305.55 1941.24,306.92 1937.93,307.74 C1932.90,309.00 1924.71,309.79 1919.48,309.48 C1914.73,309.17 1899.94,305.93 1893.93,304.58 C1879.59,301.02 1847.82,292.80 1830.39,288.12 C1811.71,282.85 1776.74,272.73 1760.44,267.87 C1746.63,263.47 1709.75,251.19 1696.04,245.85 C1687.81,242.50 1674.58,235.47 1672.37,234.64 C1669.82,233.71 1664.03,232.55 1660.79,232.33 C1654.27,231.93 1639.56,233.86 1631.76,235.81 C1625.23,237.46 1612.11,241.87 1602.74,245.46 C1594.57,248.83 1577.10,256.72 1568.11,261.11 C1549.18,270.90 1533.06,281.69 1528.52,285.46 C1526.97,286.75 1522.03,291.27 1519.96,294.91 C1518.90,296.80 1517.52,300.66 1517.21,302.53 C1516.94,304.40 1517.16,308.06 1517.64,309.85 C1518.64,313.32 1523.70,320.17 1526.82,322.85 C1529.82,325.37 1536.74,328.72 1540.44,329.45 C1543.75,330.08 1550.69,330.17 1553.83,329.86 C1560.46,329.16 1574.14,325.02 1583.58,320.88 C1591.55,317.48 1608.24,311.08 1613.96,309.19 C1620.91,307.00 1633.27,304.12 1639.02,303.26 C1644.75,302.42 1653.36,301.95 1661.30,302.02 C1677.77,302.58 1714.72,304.54 1732.46,305.94 C1762.52,308.53 1830.47,314.65 1868.36,318.19 C1887.17,320.31 1923.07,324.70 1939.04,327.09 C1953.88,329.58 1982.65,335.45 1991.57,337.73 C1996.50,339.06 2001.75,340.88 2007.42,343.46 C2012.28,345.70 2020.48,350.54 2023.81,353.15 C2027.10,355.77 2032.14,361.38 2033.90,364.37 C2035.98,368.00 2039.97,383.47 2041.11,390.23 C2042.24,397.00 2043.43,410.94 2043.39,418.41 C2042.99,433.30 2038.71,470.09 2038.92,481.14 C2039.09,489.07 2041.21,505.37 2042.73,512.74 C2044.41,520.75 2049.87,536.61 2053.63,544.39 C2053.90,544.95 2065.10,566.85 2068.27,573.68 C2071.16,580.26 2077.03,595.69 2078.78,604.25 C2080.15,611.23 2079.90,625.58 2079.83,631.05 C2079.80,632.63 2079.85,634.31 2079.97,635.77 C2080.00,636.15 2080.06,636.71 2080.15,637.44" fill="none" stroke="rgb(23, 190, 187)" stroke-width="6.22" stroke-opacity="1.00" stroke-linejoin="round"/>
<path d="M1842.04,532.73 C1837.18,528.13 1825.63,517.22 1818.93,510.91 C1810.60,503.23 1806.07,499.45 1797.16,493.17 C1783.79,483.90 1763.97,470.02 1748.66,457.91 C1738.94,450.26 1715.83,437.12 1710.46,435.06 C1706.73,433.65 1699.13,432.13 1694.70,431.89 C1691.41,431.74 1680.35,432.09 1679.00,432.22 C1674.80,432.64 1669.33,434.24 1667.30,435.40 C1665.99,436.17 1662.47,438.80 1661.11,440.05 C1659.48,441.58 1657.75,444.03 1657.03,445.81 C1655.82,448.99 1655.23,454.67 1655.61,457.83 C1656.05,461.11 1658.34,465.93 1660.89,469.52 C1663.17,472.69 1668.20,478.36 1671.01,480.84 C1672.83,482.43 1678.53,486.47 1681.02,487.93 C1686.73,491.23 1701.27,496.73 1711.55,500.22 C1728.05,505.38 1762.00,515.71 1772.31,518.41 C1799.84,524.85 1860.28,540.33 1893.01,548.78 C1909.12,552.93 1936.50,560.12 1950.17,564.60 C1964.60,569.63 1999.69,582.77 2010.91,587.32 C2018.75,590.61 2034.36,597.60 2036.85,598.88 C2043.31,602.22 2051.41,608.04 2054.19,610.79 C2055.26,611.85 2056.51,613.34 2057.51,614.64 C2057.67,614.85 2057.81,615.03 2057.93,615.17 C2062.60,617.66 2065.86,620.18 2068.30,623.80 C2072.46,630.14 2078.96,644.08 2081.52,651.14 C2085.30,661.60 2096.24,701.92 2098.73,712.80 C2099.76,717.72 2101.10,725.45 2101.34,728.97 C2101.46,730.92 2101.40,747.92 2101.89,758.80 C2102.04,762.41 2101.99,767.99 2101.24,771.53 C2099.52,778.46 2096.52,791.54 2096.05,799.54 C2095.55,806.04 2090.94,823.44 2088.68,830.16 C2087.36,834.07 2080.76,849.64 2077.93,856.34 C2076.45,859.86 2073.39,868.07 2072.90,869.17 C2072.82,869.36 2066.16,878.80 2065.12,880.53 C2063.55,883.09 2062.77,884.07 2062.30,883.70 C2062.14,883.56 2052.60,863.90 2048.35,857.54 C2046.19,854.35 2035.23,840.57 2030.29,835.33 C2022.86,827.49 1990.20,800.08 1985.74,796.56 C1979.46,791.62 1966.35,782.95 1959.40,778.62 C1951.52,773.89 1938.39,767.03 1931.34,764.38 C1925.44,762.19 1911.22,758.62 1903.27,758.54 C1898.15,758.55 1893.33,758.90 1890.81,759.59 C1888.11,760.38 1878.76,765.59 1877.66,766.72 C1876.50,767.96 1875.84,770.40 1875.98,772.30 C1876.40,775.95 1878.40,780.36 1881.18,783.33 C1884.56,786.82 1889.52,791.26 1892.91,793.19 C1898.68,796.43 1913.47,800.29 1920.73,802.06 C1927.76,804.06 1940.71,809.30 1947.41,812.78 C1954.12,816.29 1965.40,823.17 1974.79,829.43 C1982.02,834.48 1996.86,845.53 2000.39,848.65 C2003.61,851.50 2028.29,880.32 2039.85,892.08 C2044.25,896.42 2049.75,902.14 2050.08,902.59 C2051.17,904.10 2052.47,906.70 2053.02,908.25 C2051.09,914.23 2046.28,929.13 2043.30,937.87 C2039.85,947.38 2034.31,959.80 2030.91,965.11 C2025.37,973.51 2002.37,1005.35 1996.02,1013.57 C1988.02,1023.71 1985.37,1027.51 1980.12,1036.00 C1976.11,1042.88 1967.26,1058.40 1965.34,1062.76 C1963.06,1068.00 1961.15,1077.38 1960.23,1083.22 C1959.85,1085.70 1959.52,1088.76 1959.32,1091.59 C1959.28,1092.24 1959.23,1093.14 1959.18,1094.29" fill="none" stroke="rgb(23, 190, 187)" stroke-width="6.22" stroke-opacity="1.00" stroke-linejoin="round"/>
<path d="M1754.43,1115.18 C1754.58,1115.04 1754.46,1112.88 1754.12,1111.39 C1753.99,1110.86 1738.07,1068.87 1732.24,1053.20 C1729.08,1044.00 1718.40,1004.19 1716.90,996.32 C1715.63,989.21 1713.26,972.71 1712.72,967.39 C1712.05,959.69 1710.95,940.90 1710.92,936.27 C1710.96,925.45 1711.62,913.30 1713.04,907.11 C1713.95,903.25 1717.15,895.54 1718.73,893.01 C1720.74,889.85 1728.06,882.20 1728.54,881.76 C1730.64,879.90 1733.02,879.68 1738.36,880.06 C1741.61,880.32 1746.25,882.13 1748.54,884.30 C1749.16,884.90 1754.75,892.11 1756.07,894.79 C1758.75,900.30 1762.27,918.17 1763.50,928.60 C1764.38,937.03 1766.36,957.04 1766.68,963.14 C1767.14,972.00 1765.42,997.78 1765.03,1020.12 C1764.91,1029.69 1764.74,1047.52 1764.69,1055.78 C1764.71,1067.08 1765.21,1076.48 1767.47,1081.47 C1768.46,1083.61 1772.84,1090.31 1774.43,1092.13 C1776.40,1094.35 1797.97,1110.79 1798.17,1110.95 C1799.94,1112.37 1800.87,1112.61 1802.54,1112.17 C1805.68,1111.27 1817.85,1110.94 1827.64,1111.20 C1835.83,1111.50 1845.87,1110.00 1857.11,1107.54 C1864.26,1106.09 1877.66,1103.67 1883.77,1102.09 C1887.74,1101.06 1903.07,1095.95 1909.76,1093.63 C1919.37,1090.41 1929.20,1088.27 1938.75,1087.51 C1941.71,1087.29 1948.47,1086.79 1950.60,1087.79 C1951.49,1088.22 1956.78,1091.50 1956.82,1091.52 C1958.90,1092.80 1960.18,1094.37 1960.97,1096.50 C1960.97,1096.53 1961.72,1099.55 1962.17,1100.98" fill="none" stroke="rgb(23, 190, 187)" stroke-width="6.22" stroke-opacity="1.00" stroke-linejoin="round"/>
<path d="M908.64,329.10 C910.20,327.75 911.19,326.92 911.62,326.61 C911.82,326.47 956.06,304.45 965.61,300.59 C974.10,297.17 991.08,291.72 999.53,289.68 C1007.75,287.71 1024.19,285.02 1032.45,284.30 C1040.91,283.57 1057.06,283.45 1064.55,284.10 C1072.02,284.76 1086.39,287.67 1093.38,290.16 C1097.81,291.76 1106.35,295.93 1110.20,298.37 C1115.96,302.09 1136.99,321.58 1139.60,323.99 C1113.19,325.39 1067.10,327.85 1047.43,328.90 C1035.17,329.86 1016.88,332.10 1009.44,333.50 C1000.91,335.13 985.74,339.31 979.09,341.86 C972.47,344.43 959.89,351.16 954.39,355.67 C951.18,358.34 945.71,364.15 943.46,367.30 C941.24,370.47 937.75,377.29 936.49,380.94 C935.25,384.61 933.75,392.43 933.48,396.58 C933.18,401.54 934.65,422.23 935.43,430.34 C936.34,438.17 938.53,452.98 939.81,459.96 C941.63,468.92 945.66,484.06 948.42,491.55 C951.20,499.04 957.77,511.57 961.12,517.75 C967.94,530.99 980.69,565.31 984.72,578.48 C988.72,592.86 999.65,640.62 999.89,641.67 C1003.08,630.54 1012.49,597.56 1016.40,585.16 C1019.28,576.55 1026.66,556.31 1028.60,551.77 C1031.97,544.09 1039.09,529.14 1042.85,521.87 C1048.40,511.68 1054.88,501.00 1059.47,494.90 C1064.05,488.86 1074.38,477.95 1079.79,473.54 C1085.81,468.68 1098.88,460.79 1105.96,457.75 C1112.58,454.93 1128.17,450.37 1136.09,448.87 C1143.89,447.42 1159.42,445.95 1168.73,445.98 C1177.02,446.02 1193.19,447.22 1203.33,448.53 C1213.56,450.02 1228.22,453.07 1234.69,455.05 C1242.26,457.40 1252.13,462.45 1255.81,465.51 C1257.74,467.15 1260.82,470.70 1261.82,472.45 C1262.85,474.32 1267.11,487.87 1267.77,489.92 C1267.77,489.92 1269.32,488.73 1269.32,488.73 C1244.95,497.17 1172.86,522.08 1148.51,531.62 C1140.49,534.96 1125.56,541.60 1118.65,544.90 C1112.11,548.19 1097.02,556.41 1090.11,561.10 C1085.46,564.28 1077.49,570.62 1074.17,573.77 C1070.89,576.93 1065.66,583.22 1063.70,586.35 C1061.54,589.88 1055.75,605.10 1053.54,611.36 C1051.45,617.62 1047.48,630.52 1045.87,637.96 C1044.30,645.80 1041.78,662.87 1041.18,669.71 C1040.47,677.86 1040.55,693.44 1041.33,701.09 C1042.03,707.69 1045.11,720.53 1046.95,726.37 C1048.80,732.20 1054.22,745.82 1056.20,749.51 C1059.49,755.57 1070.17,769.70 1077.54,777.72 C1085.24,786.09 1097.27,797.33 1102.37,802.05 C1113.69,812.04 1139.62,833.70 1154.24,845.37 C1182.42,867.39 1220.71,897.56 1230.83,905.70 C1238.56,912.06 1246.07,918.91 1251.51,926.74 C1253.12,929.04 1255.29,932.14 1255.86,932.94 C1255.77,910.16 1255.49,842.69 1256.36,816.61 C1257.37,798.31 1260.59,761.87 1262.75,744.07 C1265.25,726.68 1271.37,692.20 1274.99,675.11 C1279.94,654.09 1287.89,625.70 1292.80,611.93 C1298.52,597.05 1305.61,583.04 1308.82,577.61 C1310.41,574.89 1316.51,567.61 1319.92,564.46 C1323.31,561.38 1330.50,556.55 1334.31,554.80 C1338.13,553.08 1346.17,550.97 1350.35,550.58 C1354.35,550.25 1361.06,551.07 1363.76,552.22 C1366.43,553.41 1370.48,557.29 1371.85,559.97 C1373.54,563.39 1373.91,566.14 1373.72,571.01 C1373.26,579.22 1370.63,605.64 1368.87,619.24 C1366.55,634.37 1361.17,666.70 1358.11,683.88 C1349.85,724.22 1333.34,804.73 1326.45,840.98 C1320.92,873.30 1315.17,914.44 1313.94,926.19 C1313.49,931.58 1312.40,944.21 1314.30,953.56 C1315.15,957.61 1317.81,964.10 1319.62,966.55 C1321.45,968.96 1326.13,972.22 1328.84,972.99 C1330.22,973.36 1346.72,976.18 1357.92,978.94 C1370.16,982.28 1407.71,994.01 1423.75,999.55 C1459.50,1012.84 1528.30,1039.81 1528.67,1040.01 C1529.08,1040.24 1529.95,1040.81 1531.27,1041.71 C1532.18,1040.32 1534.71,1036.73 1534.87,1036.48 C1537.28,1032.55 1537.21,1027.56 1536.34,1023.28 C1534.53,1014.95 1523.49,979.57 1520.91,964.15 C1519.27,954.27 1517.62,936.32 1517.09,926.82 C1516.49,911.21 1517.26,876.43 1518.32,857.91 C1519.19,841.41 1520.53,811.80 1520.98,798.69 C1521.24,784.18 1520.34,770.00 1519.76,763.41 C1519.63,760.61 1520.05,755.34 1520.66,752.08 C1521.30,748.82 1524.49,741.62 1527.16,737.71 C1528.65,735.57 1531.66,732.02 1533.03,730.88 C1534.46,729.73 1537.38,728.67 1538.67,728.84 C1540.13,729.09 1541.62,730.10 1542.30,731.16 C1545.50,736.49 1548.42,742.76 1550.50,748.76 C1553.16,756.51 1556.45,770.05 1557.44,779.69 C1558.39,789.29 1558.48,807.77 1557.89,822.31 C1557.07,836.33 1554.07,867.30 1551.90,884.25 C1549.10,902.58 1543.73,938.80 1541.78,955.39 C1541.05,963.20 1540.04,977.84 1539.78,984.67 C1539.67,991.18 1539.98,1007.19 1540.98,1014.70 C1541.72,1020.05 1543.90,1029.29 1545.36,1033.19 C1546.84,1037.05 1550.56,1043.39 1552.72,1045.73 C1554.82,1047.97 1566.81,1057.18 1573.64,1061.96 C1585.26,1069.65 1609.75,1082.93 1627.86,1091.69 C1636.60,1095.65 1650.82,1101.19 1658.29,1103.54 C1667.29,1106.34 1683.88,1109.37 1691.42,1110.19 C1700.62,1111.16 1730.32,1111.77 1736.53,1111.99 C1739.03,1112.14 1747.49,1112.73 1751.17,1113.93 C1751.69,1114.10 1755.38,1115.47 1756.88,1116.00" fill="none" stroke="rgb(255, 255, 255)" stroke-width="6.22" stroke-opacity="1.00" stroke-linejoin="round"/>
<path d="M1297.29,331.23 C1310.61,344.43 1352.32,385.71 1367.23,399.92 C1381.81,413.29 1413.61,441.84 1430.83,457.03 C1454.56,477.30 1501.04,516.53 1523.80,535.50 C1549.16,556.26 1601.62,599.28 1628.71,621.54 C1641.62,632.79 1666.87,655.34 1679.21,666.64 C1690.98,677.97 1713.98,700.68 1725.19,712.06 C1735.84,723.47 1758.42,748.26 1771.60,763.60 C1784.28,778.98 1808.11,809.84 1819.28,825.32 C1829.94,840.84 1849.74,871.98 1858.89,887.60 C1874.54,915.33 1901.57,963.18 1912.94,983.30 C1915.11,987.14 1918.74,993.56 1920.19,996.13" fill="none" stroke="rgb(23, 190, 187)" stroke-width="6.22" stroke-opacity="1.00" stroke-linejoin="round"/>
</g>
<g stroke-linecap="round" id="Layer_3">
<path d="M1886.89,1103.37 C1887.70,1104.60 1889.86,1107.79 1890.31,1108.65 C1892.01,1111.88 1895.56,1127.74 1897.05,1134.71 C1900.22,1151.36 1906.13,1184.33 1908.58,1200.58 C1910.62,1215.43 1915.03,1245.29 1917.40,1260.30 C1920.07,1275.33 1926.20,1305.46 1929.82,1321.04 C1931.90,1328.91 1936.69,1344.74 1939.22,1352.06 C1941.93,1359.44 1949.23,1377.49 1951.26,1381.65 C1954.72,1388.68 1963.27,1401.82 1968.64,1407.61 C1974.50,1413.89 1987.41,1423.20 1993.07,1427.23 C1994.06,1427.93 1995.86,1429.22 1996.68,1429.81 C1996.68,1429.81 1997.24,1429.66 1997.24,1429.66" fill="none" stroke="rgb(255, 255, 255)" stroke-width="6.22" stroke-opacity="1.00" stroke-linejoin="round"/>
<path d="M1998.56,1429.83 C1989.50,1435.17 1986.89,1437.11 1986.48,1437.83 C1986.29,1438.17 1985.76,1439.20 1984.90,1440.93" fill="none" stroke="rgb(205, 83, 52)" stroke-width="6.22" stroke-opacity="1.00" stroke-linejoin="round"/>
<path d="M1984.37,1440.58 C1984.28,1441.83 1984.06,1445.23 1984.07,1446.14 C1984.14,1450.62 2004.15,1532.70 2012.00,1564.69 C2013.79,1571.27 2018.15,1586.01 2019.57,1592.81 C2021.92,1604.21 2025.35,1635.03 2028.45,1650.18 C2030.52,1659.88 2034.51,1672.65 2037.30,1680.01 C2039.23,1685.07 2041.74,1690.17 2043.46,1692.21 C2045.85,1694.99 2056.78,1704.41 2063.56,1708.60 C2067.43,1710.97 2073.31,1713.85 2076.57,1714.81 C2079.67,1715.69 2085.98,1716.91 2088.81,1717.44" fill="none" stroke="rgb(205, 83, 52)" stroke-width="6.22" stroke-opacity="1.00" stroke-linejoin="round"/>
<path d="M2394.36,1401.87 C2394.25,1403.36 2394.17,1404.35 2394.12,1404.84 C2394.07,1405.35 2391.06,1428.19 2390.05,1435.80" fill="none" stroke="rgb(205, 83, 52)" stroke-width="6.22" stroke-opacity="1.00" stroke-linejoin="round"/>
<path d="M2391.29,1433.69 C2391.29,1433.69 2402.07,1429.51 2402.07,1429.51 C2402.87,1430.81 2403.42,1432.23 2403.46,1433.86 C2403.57,1439.99 2395.07,1477.14 2392.69,1491.56 C2390.23,1507.83 2385.43,1539.43 2383.08,1554.76 C2380.63,1573.18 2377.61,1609.81 2376.82,1616.31 C2376.27,1620.75 2375.14,1626.54 2374.07,1629.21 C2372.80,1632.19 2369.27,1635.79 2364.82,1638.77 C2362.45,1640.37 2357.27,1643.75 2356.41,1644.23 C2356.11,1644.40 2355.81,1644.56 2355.51,1644.73" fill="none" stroke="rgb(205, 83, 52)" stroke-width="6.22" stroke-opacity="1.00" stroke-linejoin="round"/>
<path d="M2370.10,1638.81 C2369.55,1641.34 2370.54,1658.75 2368.88,1665.56 C2368.04,1668.91 2366.76,1673.01 2365.78,1675.63 C2365.69,1675.89 2365.57,1676.22 2365.46,1676.45" fill="none" stroke="rgb(205, 83, 52)" stroke-width="6.22" stroke-opacity="1.00" stroke-linejoin="round"/>
<path d="M2362.65,1678.00 C2362.52,1678.22 2362.39,1678.43 2362.26,1678.64 C2361.68,1679.59 2360.31,1681.57 2359.65,1682.29 C2356.84,1685.26 2342.76,1695.26 2337.35,1697.93 C2331.17,1700.95 2299.20,1712.06 2291.78,1714.57 C2290.47,1715.02 2286.85,1716.24 2284.53,1717.02 C2283.87,1717.25 2282.98,1717.57 2281.88,1717.98" fill="none" stroke="rgb(205, 83, 52)" stroke-width="6.22" stroke-opacity="1.00" stroke-linejoin="round"/>
<path d="M2281.46,1718.13 C2280.02,1718.59 2276.75,1719.56 2274.79,1720.08 C2273.44,1720.44 2253.77,1724.89 2246.33,1726.52 C2234.35,1728.93 2207.59,1730.58 2198.56,1731.04" fill="none" stroke="rgb(205, 83, 52)" stroke-width="6.22" stroke-opacity="1.00" stroke-linejoin="round"/>
<path d="M2088.43,1717.53 C2091.15,1718.01 2105.33,1721.57 2116.88,1723.77 C2124.55,1725.15 2142.49,1728.26 2145.67,1728.54 C2161.37,1729.55 2186.69,1730.97 2191.81,1731.05 C2193.15,1731.06 2195.51,1731.15 2196.81,1731.23 C2197.19,1731.25 2197.75,1731.29 2198.50,1731.36" fill="none" stroke="rgb(205, 83, 52)" stroke-width="6.22" stroke-opacity="1.00" stroke-linejoin="round"/>
<path d="M2357.05,1644.42 C2356.92,1644.65 2356.76,1644.90 2356.55,1645.17 C2355.43,1646.56 2353.78,1648.20 2352.67,1648.86 C2349.49,1650.74 2338.69,1654.02 2327.27,1657.04 C2311.37,1661.17 2275.48,1670.94 2268.65,1672.54 C2252.99,1675.87 2221.67,1682.36 2206.00,1685.52 C2190.90,1688.21 2162.05,1691.94 2150.57,1692.17 C2142.94,1692.31 2130.86,1691.65 2119.92,1690.60 C2109.04,1689.30 2097.58,1687.32 2087.97,1684.90 C2082.68,1683.52 2077.15,1681.93 2072.98,1680.53 C2070.44,1679.66 2065.36,1677.78 2065.18,1677.71 C2064.97,1677.63 2064.67,1677.49 2064.28,1677.32" fill="none" stroke="rgb(205, 83, 52)" stroke-width="6.22" stroke-opacity="1.00" stroke-linejoin="round"/>
<path d="M2090.81,1484.10 C2079.75,1483.29 2072.04,1481.97 2063.97,1482.90 C2057.54,1483.71 2051.86,1484.65 2048.05,1485.55 C2043.99,1486.54 2038.47,1489.05 2036.01,1491.04 C2033.49,1493.16 2030.22,1498.01 2028.58,1501.77 C2027.80,1503.61 2024.93,1511.47 2024.22,1514.76 C2022.99,1520.69 2024.83,1538.13 2025.89,1544.78 C2027.87,1557.05 2035.89,1584.96 2040.79,1603.77 C2044.51,1619.51 2052.63,1653.78 2055.03,1661.06 C2057.90,1669.53 2061.06,1673.84 2063.81,1677.06" fill="none" stroke="rgb(205, 83, 52)" stroke-width="6.22" stroke-opacity="1.00" stroke-linejoin="round"/>
<path d="M2390.16,1435.57 C2389.38,1436.17 2387.42,1437.69 2386.22,1438.61 C2383.26,1440.85 2341.14,1467.31 2334.81,1470.60 C2330.74,1472.71 2316.54,1478.27 2311.15,1480.03 C2304.38,1482.20 2288.24,1484.20 2281.63,1485.01 C2263.77,1486.95 2230.04,1490.34 2214.16,1491.79 C2204.03,1492.48 2189.70,1493.12 2182.25,1493.10 C2169.51,1492.79 2138.81,1490.91 2123.75,1489.86 C2119.57,1489.63 2113.78,1489.80 2111.00,1489.41 C2108.27,1489.02 2096.85,1486.28 2095.92,1485.99 C2095.02,1485.70 2094.04,1485.35 2093.00,1484.92 C2092.97,1484.91 2092.48,1484.69 2091.51,1484.24 C2091.39,1484.19 2091.28,1484.14 2091.19,1484.12" fill="none" stroke="rgb(205, 83, 52)" stroke-width="6.22" stroke-opacity="1.00" stroke-linejoin="round"/>
<path d="M2093.98,1510.09 C2094.11,1510.32 2094.22,1510.59 2094.30,1510.90 C2095.86,1516.37 2097.51,1527.23 2098.29,1537.64 C2099.30,1553.13 2100.94,1581.32 2101.56,1594.01 C2101.94,1597.90 2105.32,1617.08 2106.18,1622.41 C2108.15,1635.92 2109.21,1656.43 2109.33,1658.79 C2109.33,1658.79 2109.33,1658.79 2109.33,1658.79 C2109.33,1658.79 2109.23,1658.59 2109.23,1658.59" fill="none" stroke="rgb(255, 255, 255)" stroke-width="6.22" stroke-opacity="1.00" stroke-linejoin="round"/>
<path d="M2288.01,778.73 C2289.13,778.46 2289.88,778.30 2290.26,778.24 C2293.33,777.75 2311.20,776.84 2318.29,777.23 C2325.95,777.67 2338.88,781.28 2345.23,783.82 C2349.03,785.37 2354.26,788.76 2357.14,791.53 C2361.82,796.10 2370.77,809.22 2373.70,814.28 C2376.75,819.65 2380.66,828.62 2384.98,839.28 C2387.82,846.49 2393.82,861.89 2395.06,866.82 C2396.50,872.71 2397.49,887.14 2396.26,892.76 C2395.86,894.52 2384.19,938.50 2379.84,954.97 C2374.40,975.47 2369.94,988.60 2367.24,993.25 C2364.68,997.50 2362.77,1002.22 2362.11,1006.15 C2361.83,1008.01 2362.01,1010.35 2362.56,1011.57 C2362.92,1012.31 2364.70,1014.11 2365.44,1014.59 C2366.56,1015.25 2368.96,1015.66 2370.87,1015.47 C2374.40,1015.06 2379.84,1012.04 2381.83,1010.22 C2383.65,1008.52 2389.30,1001.48 2390.65,998.86 C2392.51,995.18 2396.81,982.18 2398.42,971.59 C2399.27,965.90 2404.50,915.71 2404.65,910.12 C2404.88,900.52 2402.92,891.24 2402.72,890.31 C2402.77,890.40 2402.81,890.48 2402.84,890.55 C2402.88,890.61 2402.95,890.76 2403.06,891.00" fill="none" stroke="rgb(255, 255, 255)" stroke-width="6.22" stroke-opacity="1.00" stroke-linejoin="round"/>
<path d="M2386.90,836.57 C2387.16,836.84 2387.42,837.11 2387.67,837.38 C2389.43,839.30 2390.39,840.47 2391.67,842.31 C2396.51,849.13 2406.37,862.99 2411.39,870.02 C2415.21,875.29 2424.44,885.94 2427.77,892.85 C2434.91,907.70 2453.28,946.64 2455.34,951.63 C2458.06,958.29 2459.78,964.09 2460.26,967.51 C2462.11,981.03 2463.27,1009.06 2463.85,1024.11 C2464.44,1032.30 2465.80,1051.90 2465.88,1055.23 C2466.06,1062.83 2464.67,1075.52 2463.17,1084.84 C2460.65,1099.56 2454.23,1134.43 2451.71,1145.55 C2448.28,1159.64 2439.98,1189.25 2435.41,1204.89 C2430.57,1220.32 2420.79,1250.89 2415.85,1266.04 C2409.14,1285.72 2399.71,1310.25 2394.78,1322.64 C2392.01,1329.42 2388.65,1342.07 2387.33,1349.75 C2386.82,1352.75 2382.21,1381.42 2381.49,1394.01 C2381.47,1394.26 2381.45,1394.44 2381.43,1394.55 C2381.42,1394.61 2381.41,1394.65 2381.41,1394.68" fill="none" stroke="rgb(255, 255, 255)" stroke-width="6.22" stroke-opacity="1.00" stroke-linejoin="round"/>
<path d="M2394.03,1401.38 C2392.33,1399.20 2391.16,1398.38 2389.18,1398.31 C2384.10,1398.18 2382.53,1398.57 2376.58,1401.35 C2375.48,1401.88 2352.18,1410.70 2305.50,1426.39 C2297.10,1429.01 2284.39,1431.90 2277.44,1433.27 C2270.33,1434.54 2255.36,1436.79 2247.91,1437.45 C2228.71,1438.73 2212.19,1440.17 2190.12,1440.86" fill="none" stroke="rgb(255, 255, 255)" stroke-width="6.22" stroke-opacity="1.00" stroke-linejoin="round"/>
<path d="M2190.47,1440.72 C2161.11,1441.52 2100.74,1443.07 2069.74,1443.82 C2061.18,1444.05 2046.20,1444.42 2039.79,1444.56 C2035.98,1444.66 2029.55,1444.21 2025.47,1443.30 C2019.26,1441.87 2008.77,1438.16 2004.17,1436.06 C2003.31,1435.66 2000.90,1434.56 2000.85,1434.46 C2000.73,1434.20 1999.95,1431.57 1999.52,1430.17" fill="none" stroke="rgb(255, 255, 255)" stroke-width="6.22" stroke-opacity="1.00" stroke-linejoin="round"/>
<path d="M2103.32,788.06 C2103.54,788.12 2103.82,788.19 2104.13,788.26 C2106.29,788.72 2107.82,788.95 2109.92,789.11 C2115.50,789.51 2154.95,784.49 2168.38,783.83 C2182.85,783.58 2213.52,782.54 2229.71,781.75 C2281.46,778.63 2302.60,776.63 2314.84,776.56 C2315.65,776.57 2316.46,776.58 2317.27,776.59 C2317.64,776.60 2317.97,776.61 2318.24,776.62 C2318.58,776.64 2318.91,776.66 2319.25,776.68" fill="none" stroke="rgb(255, 255, 255)" stroke-width="6.22" stroke-opacity="1.00" stroke-linejoin="round"/>
<path d="M1957.79,1094.04 C1957.69,1094.20 1957.54,1094.37 1957.32,1094.53 C1957.12,1094.69 1953.46,1097.18 1952.88,1097.56 C1951.44,1098.49 1948.76,1099.08 1947.85,1099.50 C1945.96,1100.40 1944.13,1102.84 1943.75,1105.02 C1943.55,1106.37 1943.17,1111.31 1943.13,1112.77 C1943.11,1115.52 1943.61,1118.20 1944.54,1118.67 C1945.50,1119.13 1950.16,1118.69 1950.50,1118.82 C1951.78,1119.33 1953.23,1121.88 1953.18,1123.25 C1952.00,1137.79 1950.01,1162.88 1950.48,1170.39 C1950.69,1173.57 1952.09,1181.97 1953.85,1185.93 C1954.88,1188.18 1957.86,1191.69 1959.58,1192.76 C1960.55,1193.33 1968.79,1196.61 1971.05,1197.51 C1975.76,1195.04 1979.85,1192.58 1981.99,1190.08 C1984.00,1187.66 1986.54,1181.38 1987.52,1176.57 C1988.29,1172.56 1988.00,1166.82 1987.15,1162.48 C1986.77,1160.77 1985.40,1159.12 1983.51,1158.27 C1982.37,1157.75 1981.08,1157.55 1980.02,1156.88 C1978.63,1156.00 1978.51,1150.14 1979.25,1145.79 C1980.37,1139.52 1980.04,1127.00 1980.36,1125.44 C1980.90,1123.10 1982.60,1119.28 1983.69,1118.85 C1984.14,1118.68 1985.22,1118.58 1986.92,1118.56 C1993.75,1114.64 2002.58,1110.30 2006.41,1105.44 C2007.30,1104.28 2010.35,1097.06 2012.87,1093.94 C2013.73,1092.86 2017.02,1089.19 2017.13,1088.77 C2017.20,1088.48 2017.03,1088.02 2016.63,1087.39 C2014.02,1086.63 2008.74,1086.51 2004.40,1087.07 C1997.60,1087.99 1985.18,1091.32 1982.05,1092.97 C1985.75,1092.28 1999.80,1086.94 2007.50,1083.97 C2023.46,1077.35 2050.85,1064.85 2064.74,1057.37 C2071.79,1053.42 2084.72,1045.93 2090.56,1042.57 C2097.04,1038.97 2105.35,1035.52 2108.37,1033.93 C2107.53,1032.69 2106.37,1032.14 2103.66,1031.96 C2098.37,1031.59 2094.65,1031.24 2093.43,1031.12 C2094.76,1028.93 2095.77,1027.80 2097.58,1026.73 C2104.44,1022.64 2111.95,1015.67 2113.81,1013.24 C2114.85,1011.87 2114.73,1010.48 2113.76,1008.32 C2110.59,1007.49 2107.49,1007.38 2103.80,1008.15 C2101.27,1008.65 2082.07,1011.53 2073.81,1012.79 C2062.59,1014.77 2026.92,1022.30 2016.17,1023.82 C2011.08,1024.60 2001.66,1026.70 2000.65,1026.93 C2000.65,1026.93 1987.57,1027.87 1987.57,1027.87" fill="none" stroke="rgb(255, 255, 255)" stroke-width="6.22" stroke-opacity="1.00" stroke-linejoin="round"/>
<path d="M2079.07,1095.90 C2079.19,1095.83 2079.25,1095.70 2079.26,1095.49 C2079.28,1094.38 2078.77,1092.88 2077.91,1091.65 C2076.18,1089.27 2073.32,1087.56 2069.66,1086.58 C2065.25,1085.44 2059.15,1084.45 2055.10,1084.22 C2051.68,1084.06 2046.26,1084.62 2043.93,1085.41 C2041.79,1086.15 2035.17,1089.59 2032.97,1091.19 C2028.94,1094.15 2018.36,1106.25 2014.19,1113.47 C2012.13,1117.08 2008.99,1123.94 2007.81,1127.51 C2005.53,1134.55 2003.97,1147.06 2003.94,1156.44 C2003.93,1160.16 2004.92,1165.00 2006.88,1167.39 C2008.10,1168.77 2010.49,1170.37 2012.43,1170.99 C2016.09,1172.10 2024.60,1172.01 2027.81,1171.45 C2034.77,1170.18 2044.29,1165.13 2045.82,1165.35 C2046.02,1165.39 2051.84,1170.39 2054.58,1171.81 C2056.67,1172.86 2062.93,1174.28 2066.09,1174.14 C2069.20,1173.95 2076.30,1172.36 2078.89,1170.26 C2080.13,1169.24 2083.68,1164.58 2084.33,1163.72 C2087.28,1166.45 2090.09,1168.71 2091.90,1169.20 C2094.10,1169.74 2099.01,1168.74 2102.11,1167.37 C2104.77,1166.16 2109.21,1162.45 2111.38,1160.05 C2115.24,1155.66 2121.56,1141.62 2124.55,1134.87 C2126.50,1130.62 2128.61,1126.92 2131.05,1123.24 C2126.24,1132.92 2122.41,1141.24 2121.21,1148.97 C2120.48,1153.93 2120.86,1158.65 2122.62,1160.46 C2124.77,1162.52 2129.16,1164.95 2133.31,1165.65 C2136.00,1166.07 2144.78,1165.69 2148.50,1164.75 C2152.33,1163.73 2157.62,1160.15 2160.60,1157.02 C2164.29,1152.98 2164.90,1152.28 2166.22,1150.71 C2166.22,1150.71 2167.54,1150.82 2167.54,1150.82 C2167.80,1153.84 2168.89,1159.07 2170.91,1162.07 C2172.39,1164.18 2178.26,1168.40 2181.64,1169.29 C2185.12,1170.15 2191.06,1170.08 2193.86,1169.17 C2198.48,1167.60 2207.24,1159.89 2207.78,1159.60 C2208.17,1159.39 2209.03,1159.10 2210.36,1158.72 C2212.59,1161.16 2215.94,1167.23 2217.57,1169.03 C2219.80,1171.44 2225.09,1173.59 2227.70,1173.77 C2230.39,1173.92 2238.75,1172.67 2242.31,1171.44 C2246.13,1170.10 2251.67,1167.28 2253.64,1165.85 C2257.19,1163.21 2267.89,1148.20 2271.59,1142.12 C2273.84,1138.40 2280.64,1126.34 2280.97,1125.82 C2281.08,1125.63 2280.92,1125.48 2280.89,1125.48 C2280.87,1125.48 2280.80,1125.50 2280.68,1125.54" fill="none" stroke="rgb(255, 255, 255)" stroke-width="6.22" stroke-opacity="1.00" stroke-linejoin="round"/>
<path d="M2263.76,1164.93 C2263.68,1165.18 2263.57,1165.44 2263.44,1165.72 C2262.80,1167.04 2261.16,1169.98 2260.30,1171.52 C2259.13,1173.75 2258.29,1176.28 2258.21,1177.98 C2258.14,1180.23 2259.38,1185.13 2260.77,1187.89 C2261.65,1189.58 2263.12,1191.75 2264.16,1192.76 C2265.36,1193.89 2268.00,1195.16 2269.70,1195.31 C2271.60,1195.43 2274.85,1194.81 2276.71,1194.01 C2280.57,1192.28 2285.64,1188.45 2288.29,1185.33 C2291.62,1181.32 2294.74,1174.61 2295.89,1171.90 C2296.29,1171.60 2296.65,1171.56 2296.99,1171.79 C2298.07,1172.50 2300.84,1175.16 2302.67,1175.42 C2304.68,1175.69 2307.59,1175.46 2309.41,1174.89 C2313.08,1173.65 2318.27,1170.13 2321.18,1167.22 C2326.07,1162.25 2332.71,1151.07 2334.72,1146.29 C2339.00,1135.97 2342.97,1113.54 2342.63,1111.28 C2342.40,1109.99 2341.52,1107.55 2340.93,1106.74 C2340.30,1105.93 2337.88,1104.17 2336.85,1103.79 C2334.80,1103.08 2327.18,1103.79 2325.15,1104.94 C2324.20,1105.50 2322.67,1107.12 2321.78,1108.24 C2322.64,1111.08 2325.68,1117.64 2326.29,1119.62 C2326.84,1121.40 2327.31,1128.21 2326.80,1130.45 C2326.57,1131.42 2325.94,1132.76 2325.02,1134.36 C2323.77,1136.41 2318.33,1139.33 2316.30,1139.29 C2314.57,1139.21 2311.71,1138.32 2311.03,1137.54 C2310.18,1136.48 2309.56,1134.79 2309.52,1133.32 C2309.52,1130.14 2311.69,1125.14 2314.68,1121.34 C2317.07,1118.37 2320.35,1115.76 2321.54,1114.98 C2321.59,1115.10 2321.61,1115.19 2321.62,1115.23 C2321.63,1115.28 2321.63,1115.36 2321.62,1115.47" fill="none" stroke="rgb(255, 255, 255)" stroke-width="6.22" stroke-opacity="1.00" stroke-linejoin="round"/>
<path d="M2330.93,1101.50 C2331.20,1101.31 2331.45,1101.16 2331.69,1101.03 C2333.19,1100.22 2334.84,1098.73 2335.46,1097.35 C2336.14,1095.80 2337.58,1073.89 2338.14,1065.48 C2338.33,1061.27 2337.24,1056.10 2335.23,1053.34 C2334.22,1052.03 2332.62,1050.73 2331.48,1050.35 C2330.46,1050.04 2327.84,1050.32 2325.99,1050.85 C2323.85,1051.52 2321.55,1052.84 2319.88,1054.36 C2319.06,1055.15 2316.50,1058.09 2316.24,1058.90 C2315.59,1061.19 2316.68,1069.84 2317.38,1074.59 C2318.23,1080.87 2318.59,1087.01 2317.60,1089.73 C2315.88,1094.23 2314.62,1096.39 2312.67,1098.86 C2311.64,1097.74 2311.17,1096.66 2310.77,1094.20 C2310.08,1090.12 2307.95,1084.53 2306.47,1082.56 C2305.70,1081.56 2304.48,1081.17 2302.27,1080.99 C2300.63,1082.26 2298.44,1085.18 2295.56,1089.82 C2293.51,1093.19 2289.58,1099.61 2287.69,1102.35 C2284.55,1106.84 2275.49,1114.61 2266.39,1121.79 C2259.76,1126.86 2246.08,1136.85 2240.36,1139.65 C2238.56,1140.52 2237.77,1140.82 2236.65,1141.11 C2239.24,1138.12 2252.97,1129.13 2259.35,1125.16 C2264.30,1122.18 2269.83,1119.08 2273.15,1117.23 C2276.38,1115.34 2282.67,1110.21 2283.96,1108.47 C2285.27,1106.65 2286.23,1101.18 2285.85,1098.79 C2285.72,1098.05 2284.18,1093.43 2283.71,1092.53 C2282.81,1090.90 2280.36,1088.17 2278.75,1086.96 C2275.50,1084.61 2268.39,1081.47 2264.96,1081.04 C2262.69,1080.78 2254.70,1081.17 2251.89,1081.59 C2248.53,1082.13 2244.03,1084.08 2239.89,1086.74 C2236.91,1088.68 2232.73,1092.21 2230.57,1094.70 C2226.43,1099.51 2215.92,1115.03 2214.05,1119.21 C2212.48,1122.79 2210.87,1133.27 2210.61,1134.50 C2210.20,1136.28 2208.46,1139.49 2207.23,1140.56 C2204.97,1142.44 2200.99,1143.65 2198.35,1144.18 C2197.56,1143.10 2197.49,1142.16 2198.31,1139.99 C2201.85,1130.56 2204.91,1117.47 2205.65,1109.91 C2205.97,1106.77 2206.32,1104.87 2206.95,1103.46 C2207.96,1101.28 2213.97,1095.14 2215.13,1094.75 C2216.72,1094.24 2234.98,1093.86 2235.19,1093.86 C2236.16,1093.88 2237.13,1093.89 2238.09,1093.90 C2238.43,1093.91 2238.63,1093.87 2238.84,1093.85" fill="none" stroke="rgb(255, 255, 255)" stroke-width="6.22" stroke-opacity="1.00" stroke-linejoin="round"/>
<path d="M2237.78,1118.22 C2237.55,1116.96 2237.59,1115.88 2238.02,1114.15 C2238.84,1110.85 2240.40,1106.67 2241.77,1104.87 C2242.61,1103.80 2247.34,1099.24 2249.96,1098.42 C2251.52,1097.97 2256.48,1098.12 2257.43,1098.76 C2257.85,1099.06 2258.42,1099.86 2259.13,1101.16 C2258.70,1103.75 2256.41,1107.49 2252.37,1110.64 C2248.08,1113.90 2237.40,1118.69 2235.79,1119.30 C2235.27,1119.50 2234.63,1119.72 2233.88,1119.96 C2233.71,1120.02 2233.60,1120.04 2233.57,1120.04" fill="none" stroke="rgb(255, 255, 255)" stroke-width="6.22" stroke-opacity="1.00" stroke-linejoin="round"/>
<path d="M2245.26,1078.04 C2245.32,1077.97 2245.38,1077.89 2245.45,1077.80 C2245.87,1077.29 2246.15,1076.95 2246.28,1076.79 C2247.97,1074.84 2252.62,1072.20 2255.04,1071.38 C2258.56,1070.23 2263.01,1069.37 2267.07,1069.42 C2270.71,1069.44 2273.38,1069.36 2274.59,1068.99 C2276.29,1068.44 2279.02,1066.45 2279.58,1065.36 C2280.05,1064.30 2279.83,1061.94 2279.19,1060.90 C2278.11,1059.32 2270.84,1056.92 2268.50,1056.67 C2265.73,1056.41 2260.37,1056.97 2256.03,1057.82 C2243.47,1060.39 2237.04,1062.06 2226.54,1066.26 C2224.23,1067.18 2221.77,1068.16 2221.39,1068.06 C2222.57,1066.04 2234.03,1048.04 2235.21,1044.24 C2235.37,1043.71 2235.55,1040.49 2235.54,1040.35 C2235.36,1039.09 2233.84,1037.58 2231.91,1036.74 C2231.14,1036.43 2228.22,1036.11 2227.51,1036.14 C2226.85,1036.18 2218.09,1037.65 2214.53,1038.16 C2210.70,1038.86 2205.32,1041.83 2202.87,1043.29 C2200.94,1044.37 2199.83,1045.22 2199.12,1046.28 C2197.18,1049.30 2191.96,1069.26 2191.96,1069.23" fill="none" stroke="rgb(255, 255, 255)" stroke-width="6.22" stroke-opacity="1.00" stroke-linejoin="round"/>
<path d="M2111.63,1100.46 C2111.71,1100.42 2111.78,1100.57 2111.83,1100.91 C2112.12,1103.28 2111.75,1105.09 2110.37,1107.13 C2108.62,1109.74 2101.82,1126.23 2098.94,1133.10 C2098.04,1135.21 2096.80,1138.34 2096.83,1139.17 C2096.86,1139.64 2097.23,1140.26 2097.94,1141.02 C2100.51,1140.80 2103.87,1139.05 2107.74,1135.42 C2110.88,1132.42 2121.71,1117.07 2123.57,1113.13 C2123.78,1112.67 2125.76,1106.07 2125.44,1105.73 C2122.83,1103.55 2118.25,1099.42 2116.73,1096.76 C2115.57,1094.65 2114.16,1090.00 2113.88,1087.75 C2113.62,1085.56 2114.13,1080.38 2114.99,1078.60 C2116.09,1076.42 2119.90,1073.55 2122.85,1072.41 C2125.36,1071.49 2131.23,1070.43 2134.46,1070.36 C2138.05,1070.31 2143.64,1071.61 2146.03,1073.15 C2148.46,1074.78 2152.22,1079.55 2153.36,1082.46 C2154.44,1085.37 2154.47,1090.46 2153.66,1093.86 C2153.05,1096.20 2151.15,1099.37 2148.22,1103.58 C2149.58,1104.01 2155.46,1103.92 2156.10,1103.80 C2159.07,1103.20 2171.88,1097.94 2173.09,1097.43 C2169.16,1101.96 2166.08,1105.71 2163.96,1108.80 C2162.25,1111.35 2160.64,1115.64 2159.16,1120.97 C2158.17,1124.67 2157.81,1128.08 2158.00,1131.30 C2158.11,1132.82 2158.93,1135.78 2159.62,1137.09 C2159.98,1137.73 2161.88,1137.93 2162.47,1137.72 C2164.26,1136.93 2167.90,1132.16 2169.40,1127.85 C2171.37,1122.02 2172.69,1113.32 2175.41,1103.61 C2179.75,1088.59 2179.96,1087.79 2180.25,1086.49 C2179.66,1085.88 2179.17,1085.70 2178.04,1085.92 C2171.49,1087.06 2157.83,1089.36 2156.25,1089.14 C2156.23,1089.13 2156.21,1089.11 2156.19,1089.08" fill="none" stroke="rgb(255, 255, 255)" stroke-width="6.22" stroke-opacity="1.00" stroke-linejoin="round"/>
<path d="M2191.06,1068.69 C2190.93,1068.63 2190.79,1068.58 2190.64,1068.53 C2189.51,1068.22 2188.44,1068.12 2186.24,1068.18 C2174.04,1068.46 2153.87,1070.21 2147.18,1070.55 C2146.97,1070.56 2146.81,1070.58 2146.69,1070.59" fill="none" stroke="rgb(255, 255, 255)" stroke-width="6.22" stroke-opacity="1.00" stroke-linejoin="round"/>
<path d="M2119.10,1070.56 C2119.13,1070.53 2119.21,1070.46 2119.34,1070.34 C2119.67,1069.97 2119.92,1069.59 2120.09,1069.20 C2120.79,1067.48 2121.22,1064.19 2120.88,1062.25 C2120.34,1059.32 2117.32,1052.62 2114.98,1049.16 C2112.84,1046.09 2109.29,1042.63 2107.12,1041.81 C2105.68,1041.29 2103.80,1040.97 2102.18,1040.95 C2101.84,1040.95 2101.54,1040.99 2101.27,1041.09 C2101.18,1041.13 2101.08,1041.16 2100.99,1041.20 C2100.94,1041.24 2100.88,1041.28 2100.83,1041.32" fill="none" stroke="rgb(255, 255, 255)" stroke-width="6.22" stroke-opacity="1.00" stroke-linejoin="round"/>
<path d="M2090.14,1050.00 C2090.09,1050.23 2089.83,1050.90 2089.24,1052.32 C2088.07,1055.21 2087.08,1060.61 2087.76,1063.67 C2088.87,1068.37 2097.27,1077.97 2099.36,1079.24 C2100.78,1080.11 2105.75,1082.60 2106.08,1082.82 C2106.88,1083.40 2107.01,1085.26 2106.70,1087.30 C2106.47,1088.60 2105.93,1091.87 2106.02,1092.47 C2106.74,1091.72 2108.74,1089.67 2109.11,1089.14 C2109.66,1088.36 2110.56,1086.46 2110.71,1085.97 C2110.77,1085.76 2110.84,1085.53 2110.90,1085.30" fill="none" stroke="rgb(255, 255, 255)" stroke-width="6.22" stroke-opacity="1.00" stroke-linejoin="round"/>
<path d="M2107.89,1099.53 C2106.11,1098.79 2104.97,1098.33 2104.45,1098.15 C2103.73,1097.89 2087.61,1093.63 2084.89,1092.92 C2084.12,1096.25 2077.92,1113.23 2075.23,1120.57 C2072.54,1128.27 2069.41,1145.46 2068.15,1147.57 C2067.61,1148.45 2066.79,1148.88 2066.06,1148.95 C2065.12,1146.99 2064.71,1145.40 2064.84,1143.48 C2065.09,1140.10 2066.55,1134.49 2067.61,1132.21 C2068.53,1130.28 2071.75,1125.26 2071.91,1125.03 C2072.12,1124.74 2072.38,1124.42 2072.70,1124.06 C2072.76,1123.99 2072.82,1123.94 2072.88,1123.89 C2072.90,1123.88 2072.95,1123.83 2073.02,1123.77" fill="none" stroke="rgb(255, 255, 255)" stroke-width="6.22" stroke-opacity="1.00" stroke-linejoin="round"/>
<path d="M2078.92,1104.20 C2079.00,1104.19 2078.79,1104.29 2078.71,1104.32 C2078.19,1104.49 2074.30,1105.73 2072.94,1106.17 C2065.04,1108.69 2052.46,1112.70 2051.19,1114.15 C2051.23,1117.75 2050.68,1122.18 2049.30,1125.98 C2048.65,1127.72 2045.58,1134.01 2044.14,1136.25 C2042.58,1138.66 2036.34,1144.99 2034.45,1145.59 C2033.55,1145.83 2032.24,1145.41 2031.72,1144.74 C2030.42,1142.88 2029.29,1136.57 2029.63,1133.44 C2030.05,1129.91 2032.53,1123.17 2033.53,1121.32 C2035.35,1118.04 2039.47,1113.40 2041.15,1112.08 C2042.95,1110.70 2044.90,1109.67 2047.08,1109.00 C2049.20,1108.39 2051.15,1108.94 2053.26,1110.61 C2053.57,1110.87 2053.90,1111.22 2054.24,1111.66 C2054.31,1111.75 2054.42,1111.88 2054.57,1112.05 C2054.60,1112.09 2054.64,1112.13 2054.68,1112.18" fill="none" stroke="rgb(255, 255, 255)" stroke-width="6.22" stroke-opacity="1.00" stroke-linejoin="round"/>
</g>
<g stroke-linecap="round" id="Layer_5">
<path d="M1186.56,1121.57 C1181.49,1122.66 1167.66,1125.55 1158.91,1127.35 C1127.03,1133.04 1084.72,1140.68 1076.89,1142.27 C1073.39,1142.94 1068.09,1142.53 1066.50,1141.51 C1065.41,1140.76 1063.72,1138.40 1063.22,1136.85 C1062.42,1134.21 1062.18,1124.81 1062.60,1122.26 C1062.96,1120.21 1065.75,1113.22 1067.00,1111.56 C1069.00,1108.99 1076.71,1104.17 1080.30,1102.58 C1086.73,1099.81 1098.09,1095.92 1109.35,1092.63 C1117.61,1090.39 1134.87,1086.69 1142.23,1085.75 C1146.66,1085.20 1155.47,1084.54 1159.07,1084.49 C1163.20,1084.45 1170.07,1085.37 1173.14,1086.38 C1176.46,1087.51 1182.28,1091.19 1184.85,1094.17 C1187.45,1097.28 1191.15,1105.49 1191.80,1109.30 C1192.08,1111.12 1191.98,1114.33 1191.61,1115.83 C1191.19,1117.35 1189.61,1119.86 1188.29,1121.05 C1185.60,1123.37 1178.92,1125.29 1171.99,1126.27 C1168.39,1126.78 1163.56,1127.48 1162.32,1127.66 C1162.32,1127.66 1163.71,1138.01 1163.71,1138.01 C1169.59,1137.53 1188.90,1135.92 1193.54,1136.03 C1198.10,1136.16 1206.66,1137.42 1210.79,1138.58 C1214.48,1139.63 1221.60,1142.68 1224.92,1144.62 C1230.52,1147.94 1242.79,1158.93 1247.47,1164.28 C1253.44,1171.18 1259.14,1181.47 1264.05,1192.78 C1264.58,1194.00 1265.53,1196.17 1265.95,1197.12 C1265.95,1197.12 1298.70,1182.20 1298.70,1182.20 C1292.23,1180.69 1275.88,1176.76 1271.23,1173.61 C1269.56,1172.43 1266.98,1169.76 1266.17,1168.30 C1265.04,1166.14 1263.77,1157.92 1263.75,1155.76 C1263.76,1153.42 1265.13,1146.30 1266.64,1144.29 C1268.69,1141.67 1274.45,1138.25 1278.97,1136.22 C1284.87,1133.68 1301.54,1128.20 1310.00,1125.64 C1317.81,1123.40 1333.16,1119.38 1341.43,1118.17 C1347.31,1117.33 1361.93,1117.08 1368.02,1117.65 C1371.69,1118.01 1380.95,1119.32 1383.72,1120.07 C1387.23,1121.05 1393.75,1124.59 1396.44,1127.35 C1397.80,1128.78 1400.20,1132.05 1401.29,1133.94 C1402.53,1136.19 1403.75,1139.72 1403.85,1141.58 C1403.90,1143.45 1402.84,1146.85 1401.74,1148.54 C1400.13,1150.90 1393.38,1155.79 1388.82,1157.86 C1387.71,1158.36 1371.74,1164.89 1370.55,1165.38 C1371.36,1167.18 1373.30,1169.29 1375.09,1169.95 C1376.70,1170.53 1396.48,1167.74 1403.82,1168.15 C1407.55,1168.37 1414.40,1169.53 1417.90,1170.48 C1425.36,1172.56 1437.22,1178.86 1444.49,1183.58 C1449.21,1186.66 1454.04,1190.43 1456.40,1193.34 C1457.45,1194.64 1463.18,1202.44 1463.57,1203.15 C1465.20,1206.18 1472.69,1224.02 1474.81,1229.13 C1474.81,1229.13 1474.81,1229.13 1474.81,1229.13 C1474.80,1229.09 1474.86,1229.21 1474.88,1229.25" fill="none" stroke="rgb(255, 255, 255)" stroke-width="5.00" stroke-opacity="1.00" stroke-linejoin="round"/>
<path d="M1096.07,1152.47 C1090.02,1153.71 1074.92,1156.79 1065.70,1158.51 C1045.88,1161.77 1025.51,1161.91 1020.13,1161.95" fill="none" stroke="rgb(23, 190, 187)" stroke-width="5.00" stroke-opacity="1.00" stroke-linejoin="round"/>
<path d="M1096.75,1152.41 C1091.26,1154.52 1072.16,1161.87 1068.85,1163.27 C1064.60,1165.08 1057.12,1168.73 1053.48,1170.77 C1049.55,1173.00 1041.76,1178.43 1038.44,1181.51 C1036.07,1183.74 1030.67,1190.26 1028.48,1192.89 C1025.62,1196.19 1022.51,1199.46 1019.93,1200.95 C1014.57,1203.98 998.83,1208.33 993.30,1210.22 C965.43,1219.74 900.14,1242.12 862.71,1254.98 C848.99,1259.70 814.78,1271.49 811.65,1272.87 C809.56,1273.80 801.81,1277.34 798.33,1277.95 C793.02,1278.81 779.66,1276.06 768.34,1272.86 C762.66,1271.19 757.20,1269.23 753.44,1267.37 C751.79,1266.53 749.71,1264.10 749.68,1262.47 C749.68,1261.59 751.66,1257.76 752.30,1256.40" fill="none" stroke="rgb(23, 190, 187)" stroke-width="5.00" stroke-opacity="1.00" stroke-linejoin="round"/>
<path d="M867.10,1198.79 C864.16,1198.69 854.58,1198.46 853.40,1198.38 C851.26,1198.25 850.71,1198.46 848.00,1200.27 C847.28,1200.76 809.24,1221.48 793.64,1230.00 C786.38,1234.16 767.78,1245.22 763.89,1247.91 C759.43,1251.00 748.29,1259.70 745.48,1264.82 C744.65,1266.44 744.03,1268.86 743.97,1270.87 C743.89,1274.96 746.51,1289.26 747.05,1292.22" fill="none" stroke="rgb(23, 190, 187)" stroke-width="5.00" stroke-opacity="1.00" stroke-linejoin="round"/>
<path d="M751.84,1290.57 C751.83,1290.50 751.81,1290.33 751.76,1290.08 C751.49,1288.46 750.61,1283.96 750.78,1283.10 C751.06,1281.80 751.74,1280.89 752.83,1280.35 C753.97,1279.85 775.55,1285.44 783.30,1288.31 C787.71,1289.97 794.94,1293.54 797.97,1295.56 C801.01,1297.62 805.93,1302.76 807.45,1305.71 C808.92,1308.67 809.65,1316.39 809.81,1318.47 C810.13,1323.06 812.25,1340.97 813.11,1347.28 C814.24,1354.39 816.77,1369.90 819.23,1377.12 C822.08,1385.36 830.25,1401.02 834.44,1407.64 C838.52,1414.05 847.77,1426.56 854.24,1434.41 C860.07,1441.16 871.09,1453.67 876.28,1459.42 C880.95,1464.40 892.31,1476.06 899.32,1481.13 C899.39,1481.19 912.79,1489.10 913.30,1489.50 C915.15,1491.02 916.13,1493.28 915.32,1494.75 C914.78,1495.69 908.98,1499.44 907.91,1500.12 C907.91,1500.12 907.90,1500.12 907.90,1500.12" fill="none" stroke="rgb(23, 190, 187)" stroke-width="5.00" stroke-opacity="1.00" stroke-linejoin="round"/>
<path d="M758.68,1287.16 C756.35,1288.32 747.80,1292.51 746.83,1293.11 C745.04,1294.27 741.91,1297.47 740.77,1299.37 C738.74,1302.87 737.32,1309.78 737.13,1312.41 C736.74,1318.38 738.94,1335.41 740.20,1343.55 C741.61,1351.68 744.64,1366.77 746.36,1374.31 C747.57,1379.44 749.58,1385.28 751.51,1388.65 C753.43,1391.92 758.54,1397.84 761.72,1400.47 C764.35,1402.61 771.20,1406.82 774.99,1408.61 C782.71,1412.22 813.92,1420.75 819.29,1422.23" fill="none" stroke="rgb(255, 255, 255)" stroke-width="5.00" stroke-opacity="1.00" stroke-linejoin="round"/>
<path d="M773.48,1407.83 C773.48,1407.83 773.63,1407.69 773.63,1407.69 C769.92,1412.09 767.93,1415.16 767.67,1418.15 C767.34,1423.57 769.57,1435.94 772.35,1444.68 C777.33,1459.73 790.54,1498.79 795.39,1511.58 C798.50,1519.30 803.85,1531.38 807.20,1537.92 C808.88,1541.18 814.95,1548.05 818.37,1549.71 C821.25,1551.02 828.51,1550.65 831.63,1549.79 C835.16,1548.75 840.45,1545.69 843.61,1542.88 C846.42,1540.34 851.79,1533.78 853.84,1530.45 C855.67,1527.41 858.26,1520.81 858.49,1517.09 C858.68,1513.22 857.17,1508.58 854.70,1503.04 C851.90,1496.91 843.98,1481.63 841.57,1476.65 C838.90,1471.35 831.80,1455.61 828.49,1448.67 C822.74,1436.77 818.21,1429.57 817.73,1429.26 C816.41,1428.48 813.85,1429.51 812.78,1431.31 C811.89,1432.89 811.67,1435.05 812.04,1436.84 C813.73,1445.08 824.27,1481.52 829.03,1498.11 C831.31,1506.41 835.60,1522.54 836.50,1528.64 C837.08,1533.24 837.01,1540.06 835.35,1543.20 C835.01,1543.81 831.10,1548.91 830.29,1549.98" fill="none" stroke="rgb(255, 255, 255)" stroke-width="5.00" stroke-opacity="1.00" stroke-linejoin="round"/>
<path d="M739.12,1303.43 C740.07,1301.94 742.64,1299.68 744.59,1298.95 C745.30,1298.69 755.86,1299.41 758.90,1300.50 C762.69,1301.91 768.79,1307.34 771.33,1310.67 C774.99,1315.59 783.26,1332.74 786.49,1340.02 C791.14,1351.28 810.32,1407.84 812.53,1412.98 C814.56,1417.50 817.46,1422.09 820.12,1423.22 C821.39,1423.71 824.78,1423.81 826.28,1423.41 C828.88,1422.64 836.70,1417.55 839.64,1415.60" fill="none" stroke="rgb(255, 255, 255)" stroke-width="5.00" stroke-opacity="1.00" stroke-linejoin="round"/>
<path d="M858.11,1516.88 C870.47,1514.81 880.75,1512.84 889.10,1509.53 C894.37,1507.41 906.49,1500.72 908.75,1499.47" fill="none" stroke="rgb(255, 255, 255)" stroke-width="5.00" stroke-opacity="1.00" stroke-linejoin="round"/>
<path d="M899.39,1504.42 C900.69,1504.55 909.81,1505.50 910.16,1505.52 C913.38,1505.64 919.66,1503.91 923.07,1502.38 C926.53,1500.79 932.77,1496.97 935.74,1494.56 C940.18,1490.89 947.96,1481.53 949.55,1479.63" fill="none" stroke="rgb(255, 255, 255)" stroke-width="5.00" stroke-opacity="1.00" stroke-linejoin="round"/>
<path d="M885.24,1468.10 C885.24,1468.10 887.20,1466.05 887.20,1466.05 C899.17,1468.40 930.25,1474.81 949.36,1478.86 C982.40,1486.68 1042.92,1501.16 1070.42,1507.83 C1084.55,1511.30 1110.79,1517.91 1117.71,1519.57 C1117.71,1519.57 1117.72,1519.58 1117.72,1519.58" fill="none" stroke="rgb(255, 255, 255)" stroke-width="5.00" stroke-opacity="1.00" stroke-linejoin="round"/>
<path d="M1136.79,1505.57 C1135.77,1505.26 1132.42,1504.24 1131.59,1503.96 C1128.16,1502.82 1119.28,1498.73 1118.23,1498.30 C1114.29,1496.66 1111.62,1494.84 1108.89,1492.12 C1106.59,1489.79 1102.55,1483.83 1100.94,1480.40 C1099.99,1478.37 1093.03,1460.31 1092.00,1457.30 C1090.37,1452.45 1086.23,1436.56 1085.63,1430.40 C1085.31,1427.01 1084.87,1418.39 1084.82,1416.46 C1084.70,1411.95 1085.16,1406.28 1086.24,1403.34 C1087.31,1400.52 1091.58,1393.49 1094.26,1391.78 C1097.78,1389.62 1114.01,1388.64 1121.08,1389.17 C1126.56,1389.61 1142.49,1392.84 1149.27,1394.35 C1155.33,1395.79 1172.02,1403.50 1174.72,1405.48 C1176.80,1407.04 1182.73,1413.10 1184.88,1415.50 C1188.47,1419.59 1195.57,1433.36 1199.34,1441.11 C1204.10,1451.16 1206.71,1457.45 1209.75,1467.40 C1213.62,1480.41 1215.79,1492.83 1217.89,1496.71 C1218.71,1498.19 1221.31,1501.34 1222.47,1502.33 C1223.43,1503.12 1243.10,1511.17 1243.19,1510.90 C1243.06,1510.79 1242.92,1510.68 1242.79,1510.57 C1242.72,1510.52 1242.65,1510.46 1242.59,1510.41 C1227.12,1511.64 1196.51,1514.24 1184.49,1514.04 C1174.90,1513.82 1165.76,1512.51 1154.20,1509.74 C1146.66,1507.82 1137.99,1505.62 1136.86,1505.34" fill="none" stroke="rgb(255, 255, 255)" stroke-width="5.00" stroke-opacity="1.00" stroke-linejoin="round"/>
<path d="M1128.64,1490.93 C1128.64,1490.93 1127.48,1491.02 1127.48,1491.02 C1134.68,1492.66 1149.81,1496.02 1157.74,1497.74 C1162.48,1498.68 1191.78,1499.97 1194.71,1500.09 C1194.68,1500.10 1194.64,1500.10 1194.59,1500.09 C1194.48,1500.09 1194.37,1500.09 1194.26,1500.09" fill="none" stroke="rgb(255, 255, 255)" stroke-width="5.00" stroke-opacity="1.00" stroke-linejoin="round"/>
<path d="M1127.50,1503.45 C1125.67,1503.46 1123.04,1504.30 1121.85,1505.47 C1121.62,1505.71 1119.81,1511.52 1119.04,1514.93 C1118.18,1518.91 1118.55,1527.29 1119.90,1533.27 C1121.23,1538.99 1127.10,1555.60 1129.96,1562.87 C1136.79,1579.38 1161.49,1633.09 1165.24,1639.92 C1167.64,1644.24 1170.53,1648.36 1172.78,1650.16 C1175.44,1652.22 1180.60,1654.54 1184.85,1655.70 C1188.19,1656.58 1198.03,1658.27 1201.08,1657.50 C1202.92,1656.98 1206.28,1654.79 1207.58,1653.23 C1209.88,1650.38 1212.31,1643.70 1212.89,1641.34 C1214.39,1635.12 1215.24,1622.51 1215.38,1608.68 C1215.59,1592.28 1216.26,1553.56 1216.92,1547.88 C1217.38,1544.23 1219.39,1540.52 1221.24,1539.04 C1227.69,1533.95 1243.09,1513.56 1244.81,1511.29" fill="none" stroke="rgb(255, 255, 255)" stroke-width="5.00" stroke-opacity="1.00" stroke-linejoin="round"/>
<path d="M1133.19,1531.91 C1134.15,1531.94 1134.80,1531.98 1135.14,1532.05 C1135.40,1532.10 1154.43,1538.80 1161.61,1540.46 C1169.15,1542.18 1181.49,1543.96 1186.91,1544.68 C1187.35,1544.74 1187.79,1544.87 1187.79,1544.87" fill="none" stroke="rgb(255, 255, 255)" stroke-width="5.00" stroke-opacity="1.00" stroke-linejoin="round"/>
<path d="M776.89,1430.60 C777.91,1430.72 778.61,1430.82 778.99,1430.92 C779.58,1431.07 794.73,1436.92 795.16,1437.08 C795.53,1437.21 796.20,1437.45 797.16,1437.79" fill="none" stroke="rgb(255, 255, 255)" stroke-width="5.00" stroke-opacity="1.00" stroke-linejoin="round"/>
<path d="M1218.57,1546.71 C1218.57,1546.71 1219.14,1546.42 1219.14,1546.42" fill="none" stroke="rgb(255, 255, 255)" stroke-width="5.00" stroke-opacity="1.00" stroke-linejoin="round"/>
<path d="M1223.12,1537.60 C1223.28,1537.56 1223.44,1537.50 1223.60,1537.43 C1224.57,1537.03 1225.10,1536.82 1225.19,1536.79 C1227.11,1536.14 1229.57,1535.98 1231.33,1536.45 C1231.72,1536.56 1234.92,1538.06 1235.29,1538.33 C1236.77,1539.46 1237.86,1541.69 1237.99,1543.75 C1238.01,1544.18 1233.81,1592.48 1232.49,1604.26 C1231.20,1613.89 1228.25,1630.93 1225.62,1637.60 C1224.39,1640.65 1220.87,1645.59 1219.21,1647.43 C1217.19,1649.61 1211.93,1653.74 1208.56,1655.15 C1208.42,1655.21 1200.92,1657.80 1199.90,1658.15" fill="none" stroke="rgb(255, 255, 255)" stroke-width="5.00" stroke-opacity="1.00" stroke-linejoin="round"/>
<path d="M1230.18,1628.98 C1232.33,1628.43 1235.58,1627.50 1237.18,1626.94 C1243.24,1624.33 1256.73,1621.27 1264.29,1619.57 C1273.72,1617.52 1289.32,1614.15 1295.50,1612.81" fill="none" stroke="rgb(255, 255, 255)" stroke-width="5.00" stroke-opacity="1.00" stroke-linejoin="round"/>
<path d="M1093.52,1391.01 C1100.19,1383.77 1105.53,1378.62 1111.58,1374.09 C1115.45,1371.22 1118.33,1369.42 1122.46,1367.77 C1125.63,1366.53 1130.77,1365.12 1136.50,1365.39 C1141.48,1365.66 1163.92,1370.15 1166.70,1370.84 C1172.32,1372.25 1177.13,1374.18 1180.28,1375.93 C1184.59,1378.36 1196.29,1386.47 1202.02,1391.54 C1205.76,1394.92 1209.45,1398.64 1211.95,1401.64 C1214.47,1404.71 1217.40,1410.08 1218.48,1412.99 C1219.67,1416.31 1232.67,1463.22 1233.87,1468.55 C1234.43,1470.97 1238.82,1487.68 1240.54,1494.85 C1242.68,1504.20 1244.90,1510.69 1249.75,1519.43 C1253.09,1525.40 1258.73,1536.46 1264.28,1544.79 C1268.58,1551.12 1277.98,1562.68 1280.39,1566.31 C1283.15,1570.50 1290.85,1585.95 1292.41,1591.06 C1293.52,1594.74 1294.91,1602.18 1295.35,1606.09 C1295.86,1610.85 1295.84,1617.26 1295.17,1620.30 C1294.80,1621.76 1293.36,1624.40 1292.27,1625.38 C1291.09,1626.40 1288.18,1627.09 1285.81,1627.09 C1281.75,1627.00 1275.12,1625.27 1271.08,1622.98 C1270.84,1622.85 1267.28,1620.70 1265.96,1619.92" fill="none" stroke="rgb(255, 255, 255)" stroke-width="5.00" stroke-opacity="1.00" stroke-linejoin="round"/>
<path d="M1277.76,1626.39 C1277.89,1626.39 1278.06,1626.40 1278.29,1626.42 C1281.01,1626.68 1291.38,1627.67 1291.93,1627.72 C1297.07,1628.11 1304.66,1626.96 1307.91,1625.32 C1311.18,1623.59 1315.93,1618.40 1318.00,1614.28 C1320.42,1609.28 1323.98,1602.95 1325.87,1600.24 C1327.89,1597.38 1333.23,1591.38 1336.05,1588.81 C1338.84,1586.31 1345.23,1581.63 1348.03,1580.04 C1353.55,1576.95 1367.69,1572.70 1375.76,1571.23 C1381.25,1570.24 1395.84,1569.11 1401.67,1569.10 C1411.22,1569.11 1451.81,1572.97 1467.36,1574.66 C1500.99,1578.62 1574.81,1587.04 1596.64,1588.77 C1612.73,1589.77 1644.79,1590.98 1661.44,1591.46 C1676.95,1591.62 1707.57,1591.66 1725.36,1591.09 C1732.99,1590.65 1747.03,1589.43 1754.06,1588.62 C1767.01,1586.94 1809.28,1577.96 1815.04,1576.57 C1825.10,1574.10 1834.30,1570.94 1841.93,1566.57 C1848.86,1562.56 1860.37,1552.20 1865.54,1546.75 C1871.58,1540.31 1876.99,1533.23 1883.13,1524.08 C1887.23,1518.02 1896.91,1503.85 1899.23,1500.05 C1903.51,1492.99 1923.64,1451.08 1925.17,1447.24 C1926.33,1444.28 1927.22,1440.26 1928.28,1434.38 C1929.04,1429.57 1929.04,1426.16 1928.31,1420.20 C1927.77,1415.58 1926.05,1407.86 1925.62,1406.65 C1924.33,1403.05 1920.39,1397.16 1917.17,1393.14 C1913.82,1389.08 1901.66,1375.56 1895.45,1369.10 C1887.94,1361.69 1878.84,1353.38 1870.62,1346.61 C1864.51,1341.79 1851.23,1332.39 1845.41,1328.80 C1839.89,1325.47 1825.47,1317.62 1816.55,1313.27 C1781.02,1296.84 1754.50,1288.25 1748.96,1286.47 C1720.26,1279.30 1658.41,1263.99 1625.26,1255.85 C1603.93,1250.95 1577.21,1245.68 1565.41,1243.55 C1551.64,1241.21 1519.50,1235.98 1506.96,1234.50 C1486.71,1232.44 1439.57,1230.79 1437.29,1230.71 C1437.29,1230.71 1380.79,1228.59 1380.79,1228.59" fill="none" stroke="rgb(23, 190, 187)" stroke-width="5.00" stroke-opacity="1.00" stroke-linejoin="round"/>
<path d="M1332.47,1242.09 C1331.47,1242.81 1327.33,1246.29 1327.30,1246.84 C1327.33,1247.07 1327.30,1248.89 1327.69,1249.58 C1328.47,1250.86 1330.78,1251.73 1332.92,1251.51 C1333.99,1251.39 1338.26,1250.69 1339.59,1250.47 C1348.52,1249.38 1356.63,1247.87 1367.48,1244.56 C1376.02,1241.75 1388.89,1237.25 1393.15,1235.75 C1390.91,1234.51 1381.84,1229.48 1381.83,1229.47 C1377.44,1227.19 1369.55,1225.53 1364.98,1225.92 C1361.62,1226.25 1353.98,1228.77 1350.28,1230.78 C1348.13,1231.96 1332.54,1242.04 1332.47,1242.09 Z" fill="none" stroke="rgb(255, 255, 255)" stroke-width="5.00" stroke-opacity="1.00" stroke-linejoin="round"/>
<path d="M1374.39,1262.50 C1373.77,1261.21 1372.32,1257.82 1372.06,1257.38 C1370.80,1255.34 1367.48,1253.87 1364.05,1253.64 C1358.27,1253.36 1323.29,1263.16 1313.45,1265.95 C1321.41,1269.30 1334.00,1272.62 1340.33,1273.05 C1343.97,1273.27 1351.94,1272.25 1355.48,1271.12 C1358.43,1270.17 1367.59,1265.92 1368.07,1265.55 C1369.44,1264.52 1370.61,1263.22 1372.07,1262.32 C1373.48,1261.49 1374.66,1262.57 1374.98,1264.37 C1375.50,1267.88 1376.03,1273.00 1376.16,1274.23" fill="none" stroke="rgb(255, 255, 255)" stroke-width="5.00" stroke-opacity="1.00" stroke-linejoin="round"/>
<path d="M1263.47,1268.76 C1278.51,1266.47 1284.34,1266.17 1284.46,1267.03 C1284.40,1268.36 1266.53,1276.68 1258.67,1279.45 C1254.73,1280.83 1246.45,1283.25 1243.34,1283.75 C1239.58,1284.31 1231.84,1283.85 1228.42,1282.43 C1227.47,1282.02 1221.37,1278.76 1220.44,1278.26 C1237.96,1273.61 1255.99,1270.03 1263.47,1268.76 Z" fill="none" stroke="rgb(255, 255, 255)" stroke-width="5.00" stroke-opacity="1.00" stroke-linejoin="round"/>
<path d="M1254.37,1256.30 C1254.88,1256.20 1302.48,1247.24 1302.74,1246.96 C1303.06,1246.54 1300.22,1245.28 1296.78,1244.17 C1294.24,1243.38 1285.53,1240.61 1285.27,1240.53 C1281.34,1239.37 1273.72,1238.84 1268.96,1239.39 C1261.57,1240.31 1250.39,1244.33 1237.04,1249.75 C1235.70,1250.29 1233.29,1251.27 1232.21,1251.71 C1235.74,1252.83 1245.97,1256.02 1247.05,1256.29 C1249.47,1256.86 1251.59,1256.84 1254.37,1256.30 Z" fill="none" stroke="rgb(255, 255, 255)" stroke-width="5.00" stroke-opacity="1.00" stroke-linejoin="round"/>
<path d="M1309.51,1278.08 C1309.51,1278.08 1309.65,1278.46 1309.65,1278.46 C1309.65,1278.46 1309.73,1278.38 1309.73,1278.38" fill="none" stroke="rgb(255, 255, 255)" stroke-width="5.00" stroke-opacity="1.00" stroke-linejoin="round"/>
<path d="M1313.05,1265.54 C1313.18,1265.91 1313.24,1266.25 1313.24,1266.53 C1313.22,1267.00 1310.93,1282.77 1310.74,1284.08 C1310.80,1284.01 1310.83,1283.96 1310.84,1283.93 C1310.85,1283.90 1310.85,1283.84 1310.84,1283.75" fill="none" stroke="rgb(255, 255, 255)" stroke-width="5.00" stroke-opacity="1.00" stroke-linejoin="round"/>
<path d="M1308.50,1279.20 C1308.39,1281.07 1308.11,1285.07 1308.10,1285.52 C1308.08,1287.03 1308.90,1288.90 1309.84,1289.60 C1309.98,1289.70 1317.11,1292.51 1320.08,1293.63 C1326.16,1295.85 1331.53,1297.49 1335.74,1297.97 C1339.95,1298.42 1348.27,1297.80 1352.23,1296.88 C1359.81,1295.05 1373.56,1288.16 1382.30,1282.48 C1385.32,1280.50 1391.27,1276.05 1391.41,1275.80 C1392.10,1274.37 1391.31,1271.77 1389.70,1270.29 C1388.73,1269.45 1387.75,1268.77 1386.76,1268.25 C1384.33,1267.03 1377.26,1265.30 1375.91,1264.97" fill="none" stroke="rgb(255, 255, 255)" stroke-width="5.00" stroke-opacity="1.00" stroke-linejoin="round"/>
<path d="M1377.93,1283.74 C1377.90,1283.63 1377.88,1283.47 1377.86,1283.24 C1377.83,1282.87 1377.59,1278.82 1377.60,1277.87 C1377.61,1277.25 1377.66,1275.94 1377.75,1273.95" fill="none" stroke="rgb(255, 255, 255)" stroke-width="5.00" stroke-opacity="1.00" stroke-linejoin="round"/>
<path d="M1393.87,1239.35 C1393.82,1239.59 1393.83,1239.87 1393.88,1240.17 C1393.96,1240.64 1394.85,1244.34 1395.17,1245.68 C1395.17,1245.68 1396.27,1251.30 1396.27,1251.30" fill="none" stroke="rgb(255, 255, 255)" stroke-width="5.00" stroke-opacity="1.00" stroke-linejoin="round"/>
<path d="M1373.38,1256.43 C1373.45,1256.56 1373.61,1256.62 1373.86,1256.60 C1374.06,1256.59 1402.61,1252.04 1407.19,1250.47 C1408.34,1250.06 1410.80,1248.85 1411.23,1248.35 C1411.99,1247.33 1411.43,1245.52 1409.72,1244.51 C1407.69,1243.34 1396.19,1239.24 1392.59,1237.95 C1392.59,1237.95 1392.75,1238.04 1392.75,1238.04" fill="none" stroke="rgb(255, 255, 255)" stroke-width="5.00" stroke-opacity="1.00" stroke-linejoin="round"/>
<path d="M1219.72,1278.44 C1220.00,1281.16 1220.61,1287.20 1220.93,1290.52 C1221.12,1292.76 1221.37,1295.91 1221.46,1297.41" fill="none" stroke="rgb(255, 255, 255)" stroke-width="5.00" stroke-opacity="1.00" stroke-linejoin="round"/>
<path d="M1220.26,1284.22 C1215.36,1285.37 1211.29,1286.46 1207.63,1287.95 C1205.23,1288.96 1204.01,1290.51 1204.46,1291.93 C1204.63,1292.37 1210.46,1297.02 1213.08,1298.53 C1215.03,1299.63 1218.55,1300.92 1220.83,1301.33 C1224.87,1302.00 1233.38,1301.30 1237.32,1300.49 C1244.37,1298.98 1256.52,1294.37 1268.64,1289.20 C1278.83,1284.65 1286.02,1280.80 1292.54,1275.32 C1293.20,1274.72 1293.59,1274.38 1293.70,1274.31 C1293.93,1274.17 1292.16,1274.31 1289.15,1273.34 C1289.15,1273.34 1286.32,1264.20 1286.32,1264.20 C1286.22,1264.04 1286.12,1263.88 1286.03,1263.73 C1285.93,1263.57 1285.83,1263.42 1285.73,1263.26" fill="none" stroke="rgb(255, 255, 255)" stroke-width="5.00" stroke-opacity="1.00" stroke-linejoin="round"/>
<path d="M1305.08,1247.32 C1305.34,1247.74 1305.50,1248.07 1305.57,1248.34 C1305.68,1248.72 1306.81,1257.72 1306.04,1258.80 C1305.47,1259.54 1285.56,1264.09 1280.12,1265.04 C1272.17,1266.32 1251.65,1269.24 1251.40,1269.26 C1250.77,1269.28 1250.05,1269.22 1249.22,1269.09 C1248.48,1268.97 1240.22,1267.27 1237.38,1266.64 C1234.40,1265.99 1232.58,1264.96 1232.01,1263.37 C1231.65,1262.30 1231.60,1259.43 1231.70,1256.37 C1231.81,1253.85 1231.89,1253.28 1232.06,1253.02" fill="none" stroke="rgb(255, 255, 255)" stroke-width="5.00" stroke-opacity="1.00" stroke-linejoin="round"/>
<path d="M861.10,1200.89 C858.88,1201.64 851.69,1204.05 849.62,1204.80 C843.44,1207.05 826.93,1214.51 819.81,1217.86 C816.89,1219.22 815.60,1221.06 815.61,1221.56 C816.42,1222.33 821.48,1222.17 824.10,1222.10 C828.00,1221.97 842.23,1216.71 850.86,1212.90 C862.47,1207.45 868.40,1203.96 868.69,1203.17 C868.99,1202.07 867.32,1201.37 863.86,1201.06 C862.99,1200.98 862.01,1200.89 860.93,1200.78" fill="none" stroke="rgb(255, 255, 255)" stroke-width="5.00" stroke-opacity="1.00" stroke-linejoin="round"/>
<path d="M909.06,1177.55 C908.92,1175.49 908.75,1174.30 908.55,1173.99 C908.24,1173.51 905.67,1175.02 904.74,1175.57 C899.19,1177.74 883.28,1183.97 877.66,1185.69 C873.56,1186.93 864.75,1188.87 860.94,1189.06 C858.47,1189.17 851.22,1188.61 848.93,1188.44 C850.96,1186.76 856.89,1181.88 859.91,1180.28 C866.10,1177.04 878.65,1173.99 889.67,1171.97 C898.35,1170.49 906.57,1170.52 907.06,1170.78 C907.46,1171.01 908.33,1171.75 909.67,1172.99" fill="none" stroke="rgb(255, 255, 255)" stroke-width="5.00" stroke-opacity="1.00" stroke-linejoin="round"/>
<path d="M953.96,1201.66 C948.76,1202.39 939.19,1202.82 934.61,1202.53 C929.90,1202.21 924.60,1200.54 923.86,1199.15 C923.54,1198.44 923.85,1196.77 924.48,1195.81 C925.86,1193.83 932.52,1188.92 936.59,1187.02 C940.55,1185.22 949.23,1182.78 953.60,1182.02 C961.49,1180.69 977.86,1180.25 986.31,1180.79 C988.33,1180.92 990.48,1182.02 991.30,1183.59 C992.07,1185.17 991.02,1188.76 989.59,1190.22 C984.47,1195.14 957.84,1201.10 953.96,1201.66 Z" fill="none" stroke="rgb(255, 255, 255)" stroke-width="5.00" stroke-opacity="1.00" stroke-linejoin="round"/>
<path d="M958.55,1172.06 C956.64,1171.86 951.05,1171.35 950.25,1171.10 C948.89,1170.64 948.82,1169.19 949.70,1168.49 C954.51,1165.02 970.09,1160.33 980.07,1158.18 C991.63,1155.92 1002.64,1154.19 1010.79,1153.55 C1012.79,1153.38 1015.05,1153.98 1016.56,1155.27 C1018.15,1156.69 1018.78,1159.58 1017.77,1160.47 C1016.99,1161.09 998.07,1165.04 988.40,1166.75 C979.49,1168.26 958.93,1171.73 958.85,1171.74 C958.65,1171.76 958.58,1171.74 958.63,1171.68" fill="none" stroke="rgb(255, 255, 255)" stroke-width="5.00" stroke-opacity="1.00" stroke-linejoin="round"/>
<path d="M825.84,1247.32 C826.00,1247.18 826.16,1247.16 826.31,1247.28 C826.77,1247.58 829.84,1250.96 830.88,1251.27 C832.66,1251.80 837.21,1251.32 839.19,1250.68 C848.91,1247.31 870.35,1237.80 871.47,1237.30 C870.95,1236.01 869.76,1232.54 869.55,1232.11 C868.53,1230.09 865.82,1228.74 863.15,1228.80 C855.84,1229.13 826.64,1245.21 826.56,1245.77 C826.37,1247.21 828.85,1249.45 831.44,1250.60" fill="none" stroke="rgb(255, 255, 255)" stroke-width="5.00" stroke-opacity="1.00" stroke-linejoin="round"/>
<path d="M1120.68,1309.76 C1120.13,1310.66 1120.08,1311.46 1120.55,1312.15 C1121.47,1313.41 1125.88,1313.77 1128.97,1313.03 C1133.43,1311.88 1162.76,1295.02 1168.08,1291.95 C1167.06,1291.64 1164.53,1290.73 1164.15,1290.64 C1161.03,1289.95 1154.09,1292.04 1148.88,1294.23 C1141.24,1297.60 1121.70,1308.24 1120.68,1309.76 Z" fill="none" stroke="rgb(255, 255, 255)" stroke-width="5.00" stroke-opacity="1.00" stroke-linejoin="round"/>
<path d="M858.97,1256.37 C856.31,1257.27 849.53,1259.59 845.41,1260.99 C842.50,1262.02 832.88,1265.78 829.70,1267.90 C828.78,1268.53 825.79,1271.80 825.46,1272.36 C823.91,1275.10 823.49,1279.57 823.66,1285.30 C823.89,1291.42 824.37,1295.24 825.56,1300.38 C826.40,1303.70 828.42,1311.49 830.18,1314.11 C832.56,1317.54 840.47,1323.31 843.58,1324.31 C855.66,1328.21 882.75,1336.36 899.71,1340.85 C919.37,1345.64 957.08,1354.57 975.14,1358.72 C989.45,1361.79 1014.95,1367.05 1015.27,1367.12 C1018.17,1367.76 1027.91,1367.42 1031.68,1366.63 C1034.68,1365.99 1042.57,1363.04 1043.13,1362.61 C1044.86,1361.22 1046.29,1359.03 1047.14,1356.50 C1048.21,1353.33 1050.33,1347.16 1051.79,1344.15 C1054.81,1338.03 1065.06,1325.74 1071.45,1319.57 C1076.06,1315.12 1087.42,1306.09 1093.22,1302.35 C1101.97,1296.88 1113.38,1290.41 1119.62,1287.52 C1126.11,1284.53 1163.88,1270.95 1178.79,1265.67 C1186.28,1262.92 1203.33,1256.17 1208.88,1253.30 C1212.44,1251.45 1218.92,1246.61 1219.57,1246.13 C1220.78,1245.17 1221.61,1242.85 1220.99,1241.23 C1220.40,1239.81 1217.74,1237.77 1216.11,1237.12 C1210.51,1235.09 1170.47,1228.27 1152.88,1225.32 C1137.30,1222.66 1083.29,1210.81 1066.48,1207.19 C1057.01,1205.22 1047.48,1204.37 1041.82,1203.92 C1035.34,1203.46 1025.52,1202.99 1022.81,1203.24 C1019.40,1203.57 1012.67,1204.95 1011.27,1205.23" fill="none" stroke="rgb(23, 190, 187)" stroke-width="5.00" stroke-opacity="1.00" stroke-linejoin="round"/>
<path d="M1370.76,1164.88 C1365.30,1166.38 1351.53,1170.12 1343.22,1172.35 C1325.46,1176.76 1303.48,1180.78 1297.86,1181.78" fill="none" stroke="rgb(255, 255, 255)" stroke-width="5.00" stroke-opacity="1.00" stroke-linejoin="round"/>
<path d="M1163.77,1139.04 C1163.77,1139.04 1166.81,1153.22 1166.81,1153.22 C1160.73,1154.85 1145.78,1158.81 1136.20,1160.48 C1126.99,1162.08 1101.98,1164.60 1099.63,1164.83 C1099.98,1159.40 1100.15,1155.13 1099.56,1151.64 C1099.21,1149.61 1098.19,1146.18 1097.32,1143.92 C1097.12,1143.41 1095.53,1139.55 1095.09,1138.47" fill="none" stroke="rgb(255, 255, 255)" stroke-width="5.00" stroke-opacity="1.00" stroke-linejoin="round"/>
<path d="M1370.46,1165.63 C1371.34,1168.38 1373.56,1175.34 1374.45,1178.82 C1374.94,1180.85 1375.09,1184.08 1374.68,1185.55 C1374.08,1187.47 1368.59,1190.49 1364.56,1192.13 C1357.86,1194.73 1343.91,1198.64 1334.77,1200.40 C1323.33,1202.39 1308.93,1204.21 1306.54,1203.71 C1304.24,1203.18 1302.31,1201.59 1301.52,1199.48 C1300.75,1197.31 1300.20,1194.82 1299.77,1191.81 C1299.47,1189.57 1298.96,1185.87 1298.76,1184.42" fill="none" stroke="rgb(255, 255, 255)" stroke-width="5.00" stroke-opacity="1.00" stroke-linejoin="round"/>
<path d="M1374.53,1176.74 C1387.02,1177.20 1395.45,1178.08 1397.70,1179.40 C1398.61,1179.96 1399.57,1182.25 1399.51,1183.20 C1399.39,1184.26 1398.16,1186.64 1397.09,1187.96 C1395.99,1189.27 1393.69,1191.04 1391.90,1191.98 C1388.69,1193.62 1373.22,1199.58 1365.46,1202.29 C1358.67,1204.42 1342.92,1209.24 1336.20,1210.64 C1328.01,1212.32 1312.54,1213.32 1304.04,1213.06 C1300.00,1212.92 1290.19,1211.75 1287.73,1210.87 C1286.26,1210.31 1285.07,1208.71 1285.26,1207.67 C1285.91,1205.10 1298.10,1196.65 1300.53,1194.96" fill="none" stroke="rgb(255, 255, 255)" stroke-width="5.00" stroke-opacity="1.00" stroke-linejoin="round"/>
<path d="M1166.43,1147.49 C1166.43,1147.49 1183.82,1148.31 1183.82,1148.31 C1188.28,1148.87 1194.41,1149.98 1195.97,1152.50 C1196.74,1153.84 1195.90,1155.65 1194.53,1156.30 C1190.61,1158.16 1175.98,1162.56 1167.28,1164.83 C1159.89,1166.68 1142.20,1170.59 1136.36,1171.61 C1128.44,1172.86 1112.57,1174.82 1104.78,1175.58 C1098.48,1176.10 1077.27,1177.03 1072.45,1176.25 C1071.12,1175.99 1069.23,1174.80 1069.16,1173.89 C1069.15,1172.94 1071.97,1169.97 1074.04,1168.56 C1079.88,1164.70 1095.35,1160.33 1100.22,1158.99" fill="none" stroke="rgb(255, 255, 255)" stroke-width="5.00" stroke-opacity="1.00" stroke-linejoin="round"/>
<path d="M1238.82,1202.10 C1235.89,1202.28 1230.68,1202.27 1229.81,1202.27 C1229.69,1202.27 1225.74,1203.83 1222.19,1204.69 C1216.40,1206.07 1211.81,1206.83 1209.83,1206.46 C1206.88,1205.81 1205.26,1204.63 1203.36,1202.84 C1204.31,1200.34 1205.25,1199.04 1207.10,1198.07 C1208.59,1197.30 1211.55,1195.81 1212.10,1195.52 C1214.38,1194.36 1220.04,1194.89 1225.47,1195.91 C1229.88,1196.79 1247.24,1200.84 1251.71,1201.88 C1248.54,1201.93 1239.14,1202.09 1238.82,1202.10 Z" fill="none" stroke="rgb(255, 255, 255)" stroke-width="5.00" stroke-opacity="1.00" stroke-linejoin="round"/>
<path d="M1126.36,1206.34 C1127.01,1205.62 1127.47,1205.18 1127.73,1204.99 C1133.67,1200.87 1160.80,1197.22 1167.26,1196.39 C1167.49,1196.37 1167.74,1196.36 1167.92,1196.34 C1167.99,1196.33 1168.07,1196.33 1168.14,1196.32" fill="none" stroke="rgb(255, 255, 255)" stroke-width="5.00" stroke-opacity="1.00" stroke-linejoin="round"/>
<path d="M1259.55,1212.03 C1259.50,1212.29 1259.46,1212.46 1259.44,1212.55 C1259.23,1213.30 1258.98,1213.94 1258.68,1214.46 C1257.33,1216.78 1242.80,1233.73 1242.60,1233.98 C1242.58,1234.00 1242.57,1233.93 1242.58,1233.91 C1242.61,1233.83 1242.61,1233.75 1242.59,1233.67" fill="none" stroke="rgb(255, 255, 255)" stroke-width="5.00" stroke-opacity="1.00" stroke-linejoin="round"/>
<path d="M912.35,1177.88 C913.85,1177.52 914.82,1177.28 915.28,1177.18 C930.64,1174.13 947.23,1170.80 948.46,1170.51" fill="none" stroke="rgb(255, 255, 255)" stroke-width="5.00" stroke-opacity="1.00" stroke-linejoin="round"/>
<path d="M909.59,1172.90 C910.78,1179.25 911.30,1184.43 909.59,1186.13 C905.69,1189.71 880.03,1196.27 867.09,1198.77" fill="none" stroke="rgb(255, 255, 255)" stroke-width="5.00" stroke-opacity="1.00" stroke-linejoin="round"/>
<path d="M869.56,1203.41 C870.42,1204.79 871.36,1207.04 871.41,1208.26 C871.44,1210.08 867.13,1214.13 863.58,1216.14 C856.80,1219.91 843.28,1225.56 835.25,1227.76 C831.46,1228.79 824.67,1230.20 822.49,1230.04 C819.99,1229.82 815.43,1227.42 815.18,1226.90 C814.92,1226.32 814.48,1223.49 814.47,1223.45" fill="none" stroke="rgb(255, 255, 255)" stroke-width="5.00" stroke-opacity="1.00" stroke-linejoin="round"/>
<path d="M923.96,1199.02 C924.16,1200.25 924.59,1203.64 924.95,1204.34 C925.72,1205.75 928.01,1207.31 929.57,1207.71 C932.93,1208.55 938.99,1209.40 942.63,1209.51 C950.24,1209.69 966.50,1206.73 974.59,1204.21 C978.75,1202.89 984.22,1200.70 987.62,1198.99 C989.14,1198.19 991.82,1195.94 992.65,1194.51 C993.56,1192.90 992.80,1185.93 992.73,1185.71 C992.55,1185.18 992.06,1184.13 991.27,1182.54 C991.22,1182.46 991.08,1182.20 991.12,1182.29" fill="none" stroke="rgb(255, 255, 255)" stroke-width="5.00" stroke-opacity="1.00" stroke-linejoin="round"/>
<path d="M1018.76,1158.31 C1018.98,1159.69 1019.47,1162.89 1019.73,1164.70 C1020.04,1166.98 1019.34,1169.13 1017.81,1170.56 C1016.63,1171.61 1008.37,1174.89 1004.51,1176.07 C1001.58,1176.96 992.77,1179.03 991.64,1179.35 C989.55,1179.94 987.58,1180.62 986.62,1181.04" fill="none" stroke="rgb(255, 255, 255)" stroke-width="5.00" stroke-opacity="1.00" stroke-linejoin="round"/>
<path d="M949.21,1170.83 C949.41,1171.84 949.93,1174.64 950.12,1175.91 C950.31,1177.19 950.73,1180.79 950.88,1182.13" fill="none" stroke="rgb(255, 255, 255)" stroke-width="5.00" stroke-opacity="1.00" stroke-linejoin="round"/>
<path d="M956.91,1400.01 C957.71,1401.21 958.39,1404.47 958.31,1406.42 C958.18,1408.33 957.22,1411.27 956.40,1412.10 C955.51,1412.91 953.23,1413.28 951.45,1412.99 C950.32,1412.79 933.21,1409.32 930.90,1408.16 C929.37,1407.34 926.80,1404.89 925.81,1403.20 C924.88,1401.54 923.69,1397.38 923.51,1395.43 C923.43,1393.69 924.73,1391.68 926.24,1391.51 C926.83,1391.46 937.62,1393.50 941.15,1394.18 C943.99,1394.74 953.16,1397.01 954.70,1397.93 C955.58,1398.49 956.32,1399.18 956.91,1400.01 Z" fill="none" stroke="rgb(255, 255, 255)" stroke-width="5.00" stroke-opacity="1.00" stroke-linejoin="round"/>
<path d="M848.82,1188.38 C848.82,1188.38 850.80,1198.92 850.80,1198.92" fill="none" stroke="rgb(255, 255, 255)" stroke-width="5.00" stroke-opacity="1.00" stroke-linejoin="round"/>
<path d="M1351.75,1231.38 C1350.64,1231.02 1348.41,1230.36 1347.54,1230.19 C1347.01,1230.08 1323.38,1227.61 1318.39,1227.43 C1314.65,1227.30 1306.10,1227.50 1301.57,1228.07 C1295.19,1228.89 1282.48,1233.46 1280.14,1234.30" fill="none" stroke="rgb(255, 255, 255)" stroke-width="5.00" stroke-opacity="1.00" stroke-linejoin="round"/>
<path d="M1220.97,1244.32" fill="none" stroke="rgb(255, 255, 255)" stroke-width="5.00" stroke-opacity="1.00" stroke-linejoin="round"/>
<path d="M1232.81,1458.45 C1239.17,1455.21 1249.93,1449.78 1258.54,1446.14 C1279.81,1437.43 1307.55,1427.21 1317.25,1423.99 C1325.61,1421.46 1338.86,1417.88 1347.67,1415.99 C1353.88,1414.77 1366.83,1412.56 1373.41,1411.50 C1382.14,1410.26 1394.43,1409.31 1404.70,1409.15 C1423.38,1409.26 1455.35,1411.63 1469.45,1413.01 C1500.26,1416.65 1567.44,1426.30 1600.53,1431.18 C1634.90,1436.47 1701.57,1446.72 1733.88,1451.68 C1747.71,1453.46 1780.05,1457.25 1794.02,1458.38 C1803.03,1458.94 1819.16,1459.40 1826.36,1459.32 C1840.56,1458.90 1868.13,1456.61 1887.88,1453.46 C1903.42,1450.56 1922.47,1447.00 1925.97,1446.34" fill="none" stroke="rgb(255, 255, 255)" stroke-width="5.00" stroke-opacity="1.00" stroke-linejoin="round"/>
<path d="M1231.32,1249.49 C1230.32,1249.78 1225.76,1250.87 1223.40,1251.71 C1221.75,1252.30 1215.97,1255.01 1212.18,1256.02 C1205.32,1257.79 1193.64,1260.88 1187.21,1263.47 C1177.87,1267.41 1139.03,1285.19 1136.08,1286.72 C1133.04,1288.32 1115.64,1298.36 1112.75,1300.61 C1108.67,1303.78 1098.68,1309.11 1095.03,1312.02 C1092.91,1313.73 1088.22,1317.34 1085.50,1319.89 C1082.94,1322.32 1078.92,1328.93 1079.21,1330.81 C1079.58,1332.76 1081.63,1335.29 1083.56,1336.33 C1088.03,1338.60 1096.59,1342.10 1098.15,1342.64 C1106.80,1345.54 1140.79,1349.99 1155.49,1353.20 C1167.08,1355.58 1170.94,1356.56 1180.53,1359.50 C1184.63,1360.80 1188.89,1362.68 1192.43,1364.80 C1196.25,1367.14 1200.95,1370.32 1203.78,1372.54 C1207.60,1375.58 1218.29,1390.40 1220.07,1393.28 C1222.58,1397.37 1227.33,1410.49 1228.01,1416.40 C1229.04,1426.52 1231.15,1437.01 1231.56,1440.28 C1232.86,1450.85 1233.92,1456.73 1232.84,1460.48" fill="none" stroke="rgb(23, 190, 187)" stroke-width="5.00" stroke-opacity="1.00" stroke-linejoin="round"/>
<path d="M1079.42,1332.78 C1080.75,1335.64 1083.73,1342.02 1085.53,1345.54 C1087.90,1350.10 1091.39,1354.46 1094.85,1357.12 C1096.83,1358.60 1103.27,1361.13 1106.10,1361.74 C1111.17,1362.43 1119.77,1363.84 1131.24,1365.44" fill="none" stroke="rgb(23, 190, 187)" stroke-width="5.00" stroke-opacity="1.00" stroke-linejoin="round"/>
<path d="M1082.71,1341.28 C1081.80,1342.46 1078.74,1346.43 1078.15,1347.22 C1075.08,1351.31 1064.15,1366.48 1061.34,1369.95 C1058.52,1373.37 1051.80,1377.44 1048.25,1378.18 C1044.74,1378.84 1038.28,1378.65 1033.25,1377.78 C996.51,1371.14 943.29,1358.48 913.51,1351.34 C897.35,1347.09 860.61,1337.10 854.55,1335.11 C848.11,1332.98 840.52,1329.88 838.76,1328.63 C836.49,1326.93 832.32,1321.12 830.65,1317.54 C827.93,1311.56 822.37,1294.77 820.25,1288.35" fill="none" stroke="rgb(255, 255, 255)" stroke-width="5.00" stroke-opacity="1.00" stroke-linejoin="round"/>
<path d="M817.92,1288.31 C817.50,1288.32 817.15,1288.38 816.85,1288.51 C816.26,1288.75 806.00,1293.49 805.24,1293.82 C804.17,1294.28 803.44,1294.50 803.06,1294.46 C801.83,1294.31 800.69,1293.60 799.46,1293.60 C798.86,1293.59 798.43,1294.31 797.83,1294.34 C797.47,1294.34 797.88,1293.52 797.60,1293.28 C797.24,1292.96 793.12,1291.69 791.62,1291.23" fill="none" stroke="rgb(255, 255, 255)" stroke-width="5.00" stroke-opacity="1.00" stroke-linejoin="round"/>
</g>
</svg>
