<?xml version="1.0" encoding="UTF-8" standalone="no"?>
<!DOCTYPE svg PUBLIC "-//W3C//DTD SVG 1.1//EN" "http://www.w3.org/Graphics/SVG/1.1/DTD/svg11.dtd">
<svg width="456.00" height="72.00" viewBox="0.00 0.00 1900.00 300.00" xmlns="http://www.w3.org/2000/svg" xmlns:xlink="http://www.w3.org/1999/xlink">
<g stroke-linecap="round" id="Layer_2">
<path d="M109.62,151.41 L1798.90,152.41" fill="none" stroke="rgb(255, 255, 255)" stroke-width="5.00" stroke-opacity="1.00" stroke-linejoin="round"/>
<path d="M1798.08,152.63 L1744.69,131.39 L1687.00,192.86 L1536.77,88.48 L1437.46,237.98 L1307.70,114.35 L1265.27,152.45" fill="none" stroke="rgb(255, 255, 255)" stroke-width="5.00" stroke-opacity="1.00" stroke-linejoin="miter"/>
</g>
<g stroke-linecap="round" id="Layer_1">
<path d="M137.72,134.12 C140.51,135.55 145.52,140.74 146.86,143.89 C148.27,147.40 148.63,153.66 147.62,157.30 C146.65,160.59 142.26,166.30 139.65,168.05 C137.01,169.74 130.02,171.49 126.62,171.07 C122.87,170.55 117.27,167.72 114.62,165.03 C112.26,162.54 109.51,155.88 109.30,152.75 C109.15,149.62 111.14,142.69 113.20,139.95 C115.52,136.97 120.77,133.53 124.43,132.59 C127.76,131.79 134.91,132.73 137.72,134.12 Z" fill="none" stroke="rgb(255, 255, 255)" stroke-width="3.00" stroke-opacity="1.00" stroke-linejoin="round"/>
<path d="M658.48,128.56 Q679.80,128.56 701.12,128.56 Q703.62,128.56 703.62,131.06 Q703.62,151.64 703.62,172.22 Q703.62,174.72 701.12,174.72 Q679.80,174.72 658.48,174.72 Q655.98,174.72 655.98,172.22 Q655.98,151.64 655.98,131.06 Q655.98,128.56 658.48,128.56 Z" fill="none" stroke="rgb(255, 255, 255)" stroke-width="3.00" stroke-opacity="1.00" stroke-linejoin="round"/>
</g>
<g stroke-linecap="round" id="Layer_1_Copy">
<path d="M188.32,117.95 C191.39,119.52 197.73,124.66 200.29,127.66 C202.76,130.60 206.20,137.58 207.26,141.31 C208.38,145.44 208.78,152.31 208.12,156.54 C207.49,160.37 204.87,167.70 202.75,170.90 C200.54,174.17 194.82,179.99 191.96,181.90 C189.07,183.77 181.45,186.69 177.57,187.41 C173.79,188.07 166.03,187.56 162.26,186.61 C158.12,185.52 151.98,182.43 148.64,179.75 C145.64,177.29 140.61,171.35 138.89,167.92 C137.17,164.37 134.98,156.50 134.76,153.07 C134.59,149.64 135.87,141.57 137.18,137.85 C138.50,134.25 142.82,127.78 145.53,124.99 C148.54,121.95 154.29,118.18 158.28,116.63 C161.92,115.26 169.57,113.87 173.40,114.11 C177.34,114.38 185.24,116.42 188.32,117.95 Z" fill="none" stroke="rgb(255, 255, 255)" stroke-width="5.65" stroke-opacity="1.00" stroke-linejoin="round"/>
</g>
</svg>
