<?xml version="1.0" encoding="UTF-8" standalone="no"?>
<svg
   xmlns:dc="http://purl.org/dc/elements/1.1/"
   xmlns:cc="http://creativecommons.org/ns#"
   xmlns:rdf="http://www.w3.org/1999/02/22-rdf-syntax-ns#"
   xmlns:svg="http://www.w3.org/2000/svg"
   xmlns="http://www.w3.org/2000/svg"
   xmlns:sodipodi="http://sodipodi.sourceforge.net/DTD/sodipodi-0.dtd"
   xmlns:inkscape="http://www.inkscape.org/namespaces/inkscape"
   inkscape:version="1.0 (4035a4f, 2020-05-01)"
   sodipodi:docname="books.svg"
   id="svg3417"
   height="104.18009"
   width="109.33705"
   version="1.1"
   xml:space="preserve"><metadata
     id="metadata3423"><rdf:RDF><cc:Work
         rdf:about=""><dc:format>image/svg+xml</dc:format><dc:type
           rdf:resource="http://purl.org/dc/dcmitype/StillImage" /><dc:title></dc:title></cc:Work></rdf:RDF></metadata><defs
     id="defs3421" /><sodipodi:namedview
     inkscape:current-layer="svg3417"
     inkscape:window-maximized="0"
     inkscape:window-y="23"
     inkscape:window-x="0"
     inkscape:cy="304.08009"
     inkscape:cx="-321.26657"
     inkscape:zoom="0.85069444"
     fit-margin-bottom="0"
     fit-margin-right="0"
     fit-margin-left="0"
     fit-margin-top="0"
     showgrid="false"
     id="namedview3419"
     inkscape:window-height="480"
     inkscape:window-width="697"
     inkscape:pageshadow="2"
     inkscape:pageopacity="0"
     guidetolerance="10"
     gridtolerance="10"
     objecttolerance="10"
     borderopacity="1"
     bordercolor="#666666"
     pagecolor="#ffffff" /><g
     transform="translate(-915.26657,-127.91991)"
     id="g3415"><path
       id="path3105"
       d="m 942.5,128.7 c 0,0 0,0 0,0 m 0.1,-0.01 c 0,0 2.61,-0.07 3.9,-0.29 3.02,-0.52 5.86,-0.86 8.8,0.3 7.11,2.8 13.07,9.32 17.57,15.18 3.66,4.78 4.91,6.33 7.8,10.81 1,1.55 3,3.76 3.23,4.91 0.08,0.39 -0.54,0.83 -0.8,0.4 0,-0.1 -0.3,-0.5 -0.44,-0.7 -0.83,-1.24 -1.69,-2.46 -2.49,-3.72 -2.99,-4.73 -4.15,-6.21 -7.91,-11.2 -4.08,-5.41 -11.1,-13.26 -18.06,-15.18 -3.81,-1.05 -7.76,0.14 -11.6,0.39 -0.1,0.01 -1.6,1.4 -2.35,2.09 -1.28,1.19 -2.5,2.45 -3.8,3.62 -5.32,4.83 -9.48,9.55 -13.59,15.52 -0.06,0.08 0.47,0.17 0.72,0.24 1.24,0.33 2.49,0.61 3.69,1.05 3.46,1.27 6.81,2.34 9.82,4.55 6.03,4.44 12.42,9.09 15.61,16.14 1.19,2.63 1.01,5.92 2.25,8.4 0.05,0.1 -0.55,0.72 -0.75,0.5 -1.09,-1.23 -1.41,-5.42 -1.58,-6.3 -0.02,-0.1 -0.19,-0.46 -0.28,-0.64 -0.59,-1.26 -1.55,-4.11 -2.83,-5.62 -3.96,-4.67 -8.18,-8.85 -13.41,-12.14 -2.87,-1.81 -6.4,-3.31 -9.6,-4.3 -0.91,-0.28 -5.04,-0.83 -4.92,-1.3 0.02,-0.1 -0.08,-0.1 -0.08,-0.1 0.1,0 0.3,-0.48 0.45,-0.69 1.36,-1.97 2.94,-4.54 4.64,-6.57 4.55,-5.47 9.86,-10.1 15.13,-14.87 0.08,-0.07 0.41,-0.74 0.58,-0.57 0.1,0.1 0.1,0.1 0.1,0.1 0.1,0 0.13,0.07 0.15,0.1 0.05,0.1 0.04,0.03 0.02,0"
       fill="#000000" /><path
       id="path3107"
       d="m 983.24,158.69 c 0,0 -0.5,0.38 -0.34,0.51 0.13,0.11 -1.52,1.6 -2.1,2.13 -1.79,1.64 -3.11,3.79 -4.56,5.76 -5.12,6.98 -10.44,13.11 -17.35,18.05 -0.09,0.06 -1.04,0.73 -1.59,0.84 -0.1,0.02 -0.37,0.13 -0.5,0.18 -0.1,0.04 -0.87,0.07 -1.13,-0.16 -0.84,-0.74 -1.36,-1.17 -1.8,-1.72 -0.07,-0.08 -0.07,-0.88 -0.03,-1.28 0.07,-0.8 0.14,-1.6 0.21,-2.4 0.02,-0.28 0.04,-1.14 0.55,-0.9 1.01,0.47 -0.56,3.27 -0.05,4.3 0.05,0.1 1.85,0.82 1.85,1.6 0,0.48 0.8,-0.37 0.8,-0.3 0,0.41 1.61,-0.2 1.2,-0.2 -0.84,0 1.87,-2.09 2.6,-2.45 0.1,-0.05 1.05,-0.59 1.47,-0.94 0.84,-0.68 1.67,-1.44 2.43,-2.21 2.25,-2.28 4.48,-4.83 6.5,-7.3 2.96,-3.61 5.35,-7.63 8.54,-11.07 0.65,-0.69 2.64,-3.06 3.16,-2.83 0.54,0.24 -0.3,0.82 -0.2,0.9 m -29.1,25 c 0,0 0,0 0,0 0,0 0,0 0,0 m 2.8,2.05 c 0,0 0,0 0,0"
       fill="#000000" /><path
       id="path3109"
       d="m 982.6,158 c 0,0 0,0 0,0 m -0.6,0.5 c 0,0 0,0 0,0 0,0 0.1,0 0.1,0 m -0.1,0 c 0,0 0,-0.07 0,-0.1 m 0.03,-0.1 c 0,0 0.88,-0.14 0.67,-0.25 -0.1,-0.05 0.89,0.15 1.4,0.18 2.71,0.14 5.9,0.09 8.59,0.88 7.09,2.09 13.22,4.51 19.19,9.05 2.11,1.61 4.56,3.32 6.68,5.14 1.79,1.53 3.59,3.07 5.38,4.6 0.23,0.2 0.71,0.53 0.66,0.9 -0.05,0.35 -0.86,0.58 -1,0.2 0,-0.2 -0.31,-0.46 -0.46,-0.6 -1.73,-1.5 -3.45,-3 -5.18,-4.5 -2.35,-2.04 -4.86,-3.93 -7.46,-5.63 -5.78,-3.76 -10.98,-6.45 -17.7,-8.17 -3.42,-0.88 -7.59,-0.1 -10.7,-1.65"
       fill="#000000" /><path
       id="path3111"
       d="m 1023.53,178.1 c 0,0 -1.43,1.47 -1.93,2.35 -1.11,1.94 -2.51,3.44 -4.02,5.11 -4.74,5.27 -10.25,8.95 -16.5,12.25 -1.43,0.75 -3.02,1.17 -4.4,2 -0.99,0.59 -1.97,1.19 -2.96,1.78 -0.24,0.14 -0.83,0.64 -1.02,0.21 -0.17,-0.39 0.24,-0.56 0.5,-0.73 1.03,-0.68 2.07,-1.36 3.1,-2.04 3.13,-2.06 7.07,-3.24 10.37,-5.13 4.71,-2.69 10.24,-7.9 13.33,-12.1 1.01,-1.37 1.53,-2.79 2.83,-3.93 0.07,-0.07 0.4,-0.46 0.57,-0.37 0.31,0.16 0.21,0.48 0.07,0.7 m -0.57,-0.4 c 0,0 0,0 0,0"
       fill="#000000" /><path
       id="path3113"
       d="m 994.73,201.7 c 0,0 -0.62,0.77 -1.03,0.7 -1.47,-0.24 -2.85,-3.72 -3.78,-4.46 -3.25,-2.61 -6.64,-4.18 -10.13,-6.47 -4.57,-3.01 -9.07,-5.14 -14.49,-6.17 -2.68,-0.51 -5.48,-0.44 -8.2,-0.65 -0.69,-0.05 -2.25,0.17 -2.8,-0.1 -0.1,-0.05 -0.1,-0.05 -0.1,-0.05 -0.1,0 -0.1,0 -0.1,0 0,0 -0.07,0 -0.1,0 0,0 -0.44,-0.36 -0.3,-0.5 0.1,-0.1 0.1,-0.1 0.1,-0.1 0.1,0 0.23,-0.08 0.3,-0.1 0.1,0 1.23,-0.04 1.8,-0.08 1.03,-0.06 2.26,0.22 3.3,0.32 3.32,0.33 6.31,0.27 9.6,1.16 4.47,1.21 7.91,3.3 11.8,5.7 5.39,3.32 9.14,5.46 13.24,10.42 0.06,0.08 0.96,-0.03 0.96,0.28 0,0.32 -0.69,0.57 -0.92,0.7"
       fill="#000000" /><path
       id="path3115"
       d="m 1022.69,185.7 c 0,0 -0.13,0.71 -0.32,1 -0.38,0.56 -0.91,0.94 -1.38,1.41 -1.22,1.22 -3.25,2.37 -4.54,3.31 -4.7,3.41 -8.59,7.54 -13.27,10.92 -0.08,0.06 -0.75,0.56 -1.11,0.77 -0.74,0.44 -1.45,0.89 -2.23,1.25 -2.32,1.08 -4.39,2.09 -6.67,3.33 -0.25,0.13 -3.89,2.55 -4.07,2.11 -0.18,-0.45 1.32,-1.46 1.4,-1.53 1.71,-1.51 4.39,-1.76 6.02,-3.39 0.08,-0.08 0.79,-0.28 1.13,-0.43 0.72,-0.34 1.45,-0.68 2.18,-1.02 2.12,-0.99 3.92,-2.48 5.78,-3.87 2.28,-1.69 3.94,-4.24 6.29,-5.96 3.07,-2.25 6.36,-4.21 9.3,-6.6 0,0 0.56,-0.63 0.75,-1 0.05,-0.1 -1.15,-2.03 -1.75,-3 0,0 0.38,-0.64 0.6,-0.5 0.92,0.59 1.45,2.06 1.86,3.01 M 996.6,204.8 c 0,0 0,0 0,0 m 26.1,-19.2 c 0,0 0,0.1 0,0.1"
       fill="#000000" /><path
       id="path3117"
       d="m 957,185.1 c 0,0 0,0 0,0 m 0.3,0.1 c 0,0 0,0 0,0 m 1.4,-0.1 c 0,0 0,0 0,0 m -1.6,0.1 c 0,0 0.09,-0.76 0.3,-0.65 0.1,0.05 0.8,0.47 1.2,0.53 0.1,0.02 2.18,0.77 3.23,1.15 1.96,0.71 4.26,1.3 6.16,2.16 6.05,2.72 10.45,6.65 15.14,11.34 2.43,2.43 4.19,4.73 5.87,7.73 0.34,0.61 1.59,1.86 1.3,2.64 -0.26,0.71 -0.8,-0.21 -0.88,-0.5 -0.02,-0.1 -0.66,-0.96 -0.92,-1.43 -0.58,-1.03 -1.24,-2.47 -2.01,-3.47 -2.33,-3 -5.03,-5.69 -7.79,-8.3 -3.19,-3.02 -7.09,-5.91 -11.3,-7.4 -1.97,-0.7 -4.01,-1.45 -5.98,-2.09 -0.95,-0.31 -2.97,-0.66 -3.84,-1.53 -0.08,-0.08 -0.35,-0.08 -0.41,-0.18"
       fill="#000000" /><path
       id="path3119"
       d="m 954,183.95 c 0,0 -0.77,-0.57 -1,-0.97 -0.66,-1.16 -1.26,-2.39 -2.06,-3.47 -2.66,-3.61 -5.55,-7.26 -9.04,-10.11 -4.54,-3.7 -9.92,-5.8 -14.96,-8.6 -1.22,-0.68 -2.4,-1.25 -3.68,-1.84 -0.14,-0.07 -0.76,-0.27 -0.76,-0.46 0.1,-0.1 0.34,-0.53 0.5,-0.45 0.1,0.05 0.07,-0.05 0.1,-0.05 0.1,0.1 0.17,0.1 0.2,0.1 0,0 2.5,1.22 3.75,1.83 2.12,1.04 4.21,2.11 6.31,3.19 6.59,3.39 10.73,7.29 15.73,12.64 1.59,1.7 4.13,5.06 4.91,7.34 0.09,0.25 0.21,1.12 -0.3,1 -0.07,-0.02 -0.24,-0.36 -0.29,-0.43 M 923,158.1 c 0,0 0,0 0,0 0.1,0 0.1,0 0.1,0"
       fill="#000000" /><path
       id="path3121"
       d="m 928.8,152.6 c 0,0 0.07,0.2 0,0.2 -0.1,0 -0.53,0.4 -0.8,0.4 -0.1,0 -0.38,0.22 -0.52,0.33 -0.08,0.07 -0.46,0.77 -0.78,0.97 -0.52,0.33 -1.5,0.8 -1.7,1 -0.1,0.1 -1.43,1.13 -2.02,1.72 -0.08,0.08 -0.15,0.15 -0.18,0.18 0,0 -0.98,0.16 -0.85,-0.1 0.05,-0.1 0.17,-0.15 0.2,-0.2 0.05,-0.1 0.1,-0.2 0.15,-0.23 0.1,-0.07 1.04,-1.29 1.7,-1.62 0.1,-0.05 0.86,-0.83 1.3,-1.15 0.55,-0.4 2.4,-2 2.95,-2 0.15,0 0.73,0.25 0.61,0.42 m -6.06,4.88 c 0,0 0,0 0,0 0,0 0,0 0,0 m 2.1,-2.7 c 0,0 0,0 0,0 0,0 0.1,0 0.1,0"
       fill="#000000" /><path
       id="path3123"
       d="m 923.65,170.1 c 0,0 -0.81,0.69 -1.05,0.4 -0.1,-0.1 -0.1,-0.1 -0.1,-0.1 0,0 -0.1,-1.87 -0.1,-2.8 0,-1.87 0,-3.74 0,-5.61 0,0 -0.39,-3.13 0.3,-3.19 0.54,-0.05 0.5,1.42 0.51,1.8 0.03,3.03 0.06,6.07 0.09,9.1 0,0.1 0.34,0.47 0.2,0.57"
       fill="#000000" /><path
       id="path3125"
       d="m 952.5,186.93 c 0,0 -0.23,0.51 -0.4,0.42 -0.1,-0.05 -0.41,-0.21 -0.5,-0.35 0,0 -0.57,-0.86 -0.86,-1.29 -0.37,-0.56 -0.45,-0.54 -1.07,-1.33 -0.07,-0.08 -0.68,-0.59 -0.99,-0.83 -0.57,-0.45 -1.19,-0.89 -1.73,-1.39 -1.65,-1.54 -3.35,-2.93 -5.16,-4.29 -4.88,-3.66 -12.33,-7.57 -18.49,-7.57 -0.1,0 -0.57,0.07 -0.65,-0.1 -0.05,-0.1 -0.05,-0.17 -0.05,-0.2 0,0 -0.01,-0.07 0,-0.1 0.1,-0.1 0.17,-0.13 0.2,-0.15 0.1,-0.05 0.17,-0.08 0.2,-0.1 0.1,-0.05 0.7,-0.15 1,-0.15 0.1,0 1.64,0.1 2.4,0.2 1.37,0.17 3.33,0.65 4.7,1.3 4.72,2.24 9.73,4.96 13.82,8.23 0.08,0.07 1.35,1.33 1.08,0.97 -0.05,-0.06 0.96,0.83 1.27,1.1 0.89,0.78 1.83,1.5 2.75,2.23 0.08,0.07 0.59,0.75 0.88,1.07 0.56,0.61 1,1.42 1.5,2.1 0,0 0.16,0.46 0,0.57 M 923.1,169.6 c 0,0 0,0 0,0 m 1,-0.1 c 0,0 0,0 0,0 m 26,14.1 c 0,0 0,0 0,0 m 1.6,3.6 c 0,0 0,0 0,0"
       fill="#000000" /><path
       id="path3127"
       d="m 951.6,186.4 c 0,0 -0.1,0 -0.1,0 m 0.1,0.1 c 0,0 0,0 0,0 0,-0.1 0,-0.03 0,0 m 7.3,2.1 c 0,0 0,0 0,0 m 0.3,0.8 c 0,0 0,0 0,0 0,0 0.1,-0.1 0.1,-0.1 m 0,-0.1 c 0,0 0,0 0,0 0,0 0.1,0 0.1,0 m -7.8,-2.9 c 0,0 0.78,0.03 1,0.3 0.81,0.97 1.8,2.07 3,2.47 0.1,0.03 2.33,0.18 3.2,-0.4 0.1,-0.07 0.23,-0.11 0.3,-0.14 0.1,-0.03 0.1,-0.03 0.1,-0.03 0,0 0.13,0 0.2,0 -0.1,0 0.07,0.63 -0.12,0.82 -0.08,0.08 -2.06,0.72 -3.08,0.68 -1.84,-0.07 -4.04,-2.21 -4.56,-3.5"
       fill="#000000" /><path
       id="path3129"
       d="m 979.23,211.6 c 0,0 -0.65,0.21 -0.83,0 -0.98,-1.18 -2.05,-2.88 -2.79,-4.24 -2.54,-4.68 -5.32,-8.93 -9.47,-12.45 -1.56,-1.33 -3.12,-2.65 -4.69,-3.98 -0.19,-0.16 -2.96,-2.03 -1.85,-2.03 0.1,0 1.12,0.52 1.57,0.88 2.91,2.36 4.43,3.52 6.79,5.88 2.65,2.65 4.83,5.17 6.74,8.34 1.45,2.4 2.54,4.99 4.2,7 0.1,0.1 0.17,0.09 0.2,0.1 0.1,0.1 0.1,0.1 0.1,0.1 0,0.1 -0.02,0.57 -0.2,0.63 M 959.7,188.9 c 0,0 0.1,0.1 0.1,0.1 m 18.7,22.5 c 0,0 0,0.13 0,0.1"
       fill="#000000" /><path
       id="path3131"
       d="m 981,215.3 c 0,0 0.07,0.07 0.1,0.1 0,0 0,0 0,0 m -1.2,-4.5 c 0,0 0,0 0,0 m 1.07,4.3 c 0,0 -0.27,-0.7 -0.44,-1.04 -0.53,-1.07 -1.05,-2.22 -1.67,-3.26 -0.06,-0.1 -0.16,-0.2 -0.16,-0.2 0,0 -0.79,-1.26 -1.18,-1.89 -0.38,-0.61 -0.83,-1.14 -1.3,-1.71 -1.78,-2.2 -3.5,-4.77 -5.06,-6.91 -0.11,-0.14 -0.54,-0.59 -0.46,-0.79 0.24,-0.59 0.82,0.19 0.96,0.39 2.64,3.56 5.39,7 7.79,10.73 0.05,0.08 0.23,0.27 0.35,0.33 0.1,0.05 0.56,0.77 0.75,1.15 0.35,0.71 0.66,1.53 0.85,2.3 0,0.1 0.2,0.35 0.2,0.5 0,0.1 0.07,0.31 0,0.35 -0.1,0.05 -0.21,0.43 -0.3,0.35 -0.1,-0.1 -0.23,-0.06 -0.25,-0.1 C 981,215.3 981,215.3 981,215.3"
       fill="#000000" /><path
       id="path3133"
       d="m 1014.87,204.6 c 0,0 -0.73,0.56 -1.16,0.68 -0.94,0.25 -1.88,0.51 -2.83,0.76 -1.43,0.39 -2.83,1.02 -4.21,1.54 -5.32,2.03 -10.6,4.17 -15.87,6.28 -0.1,0.04 -0.91,0.58 -1.37,0.75 -1.3,0.48 -2.49,0.82 -3.73,1.44 -0.1,0.05 -1.72,0.71 -2.5,1.1 -0.1,0.05 -0.85,0.12 -1,-0.15 0,-0.1 -2.58,-2.71 -1.7,-3.7 0.42,-0.47 2.4,2.69 2.4,3.1 0,0.1 1.73,-0.68 2.6,-1.06 1.72,-0.73 3.45,-1.42 5.19,-2.23 5.03,-2.32 10.48,-4.42 15.68,-6.32 2.69,-0.98 4.19,-1.46 6.94,-2.14 0.26,-0.07 1.17,-0.55 1.39,-0.45 0.66,0.3 -0.28,0.79 -0.5,0.9 m -31.5,11.4 c 0,0 -0.1,0.05 -0.1,0.1 m 0.5,0.6 c 0,0 0,0 0,0 0,0 0,0 0,0"
       fill="#000000" /><path
       id="path3135"
       d="m 1021.1,201.5 c 0,0 0,0 0,0 m -7.9,2.7 c 0,0 0,0 0,0 0,0 0,0 0,0 0,0.1 0,0.1 0,0.1 m 7.6,-2.4 c 0,0 0,0 0,0 0,0 0,0 0,0 m 0,0 c 0,0 -1.34,0.61 -2.02,0.92 -1.32,0.6 -2.68,1.16 -4.08,1.54 -0.51,0.14 -1.72,0.7 -2.1,0.34 -0.35,-0.32 0.09,-0.7 0.4,-0.7 0.1,0 1.3,-0.3 1.88,-0.52 1.61,-0.62 3.73,-1.85 5.32,-2.18 0.1,0 0.1,0 0.1,0 0,-0.1 -0.11,-2.17 -0.17,-3.2 -0.07,-1.37 -0.4,-2.74 -1.02,-3.98 -0.62,-1.24 -1.39,-2.16 -2.25,-3.33 -0.17,-0.24 -0.67,-0.68 -0.26,-0.89 0.5,-0.25 1.81,1.52 2.12,2.03 1.84,3.02 2.38,5.93 2.38,9.47"
       fill="#000000" /><path
       id="path3137"
       d="m 922.8,165.3 c 0,0 -1.39,0.71 -2.12,0.99 -1.35,0.53 -3.97,1.94 -4.28,3.51 -0.37,1.89 0.2,4.15 0.92,5.88 0.14,0.35 1.33,2.23 1.08,2.62 -0.1,0 -0.55,0.25 -0.8,0.3 -0.82,0.15 -0.59,-1.56 -0.89,-2.34 -0.89,-2.35 -1.12,-4.29 -1.01,-6.76 0,-0.1 0.23,-0.76 0.48,-0.97 0.58,-0.48 1.16,-0.96 1.74,-1.44 1.18,-0.97 2.54,-1.68 3.98,-2.16 0.1,-0.03 0.17,-0.03 0.2,-0.03 0,0 0.67,-0.33 0.8,-0.1 0.18,0.32 -0.34,0.66 -0.53,0.79 m -6.67,3.81 c 0,0 0,0 0,0 m 7.1,-4.1 c 0,0 0,0 0,0 0,0 0,0 0,0"
       fill="#000000" /><path
       id="path3139"
       d="m 949.83,193.6 c 0,0 -0.36,0.11 -0.53,0.04 -0.1,-0.04 -1.22,-1.89 -1.78,-2.82 -0.98,-1.61 -1.85,-2.79 -3.06,-4.43 -2.68,-3.64 -6.47,-6.48 -10.56,-8.39 -4.79,-2.24 -10.2,-3.51 -14.76,-6.17 -0.88,-0.51 -2.36,-1.29 -2.71,-1.47 -0.34,-0.16 -1.36,-0.42 -1.13,-0.96 0.1,-0.24 2.04,0.67 2.53,0.92 2.65,1.32 5.4,2.48 8.12,3.73 3.9,1.78 8.22,2.66 11.85,5.05 5.24,3.45 9.11,8.33 11.9,13.9 0.1,0.1 0.1,0.1 0.1,0.1 0,0 0,0 0,0 0,0 -0.18,0.67 -0.4,0.58 m -0.3,-0.08 c 0,0 0,0 0,0 0.1,0 0.1,0 0.1,0 m 0.6,-0.5 c 0,0 0.03,0.13 0.03,0.1"
       fill="#000000" /><path
       id="path3141"
       d="m 980.1,225.4 c 0,0 -0.26,0.32 -0.4,0.25 -0.1,-0.05 -0.62,-0.57 -0.79,-0.89 -0.72,-1.32 -1.44,-2.65 -2.16,-3.97 -1.79,-3.28 -3.76,-6.46 -5.95,-9.49 -3.24,-4.47 -6.62,-8.41 -10.57,-12.28 -0.87,-0.85 -1.65,-2.23 -2.63,-2.92 -1.6,-1.13 -3.38,0.04 -5.1,-0.4 -1.16,-0.3 -2.13,-1.21 -3.02,-1.94 -0.08,-0.06 -1.65,-2.39 -0.88,-2.26 0.51,0.08 0.77,1.16 1.1,1.5 1.16,1.19 2.55,2 4.2,2.1 0.1,0 0.77,-0.22 1.1,-0.33 0.4,-0.14 1.6,0.05 2,0.21 1.71,0.72 2.81,2.43 4.13,3.75 4.99,4.99 9.93,10.65 13.47,16.79 1.33,2.3 2.64,4.58 3.99,6.86 0.31,0.52 2.05,3.04 1.41,3.25 M 949.4,193.7 c 0,0 0,0 0,0 0,0 0,0 0,0"
       fill="#000000" /><path
       id="path3143"
       d="m 940.2,188.8 c 0,0 0,0 0,0 m -23.9,-13.4 c 0,0 0,0 0,0 m 23.9,13.4 c 0,0 -1.12,-0.93 -1.67,-1.4 -1.19,-1.02 -2.49,-2.1 -3.46,-3.32 -0.07,-0.08 -0.44,-0.26 -0.62,-0.35 -1.1,-0.53 -2.2,-1.05 -3.29,-1.6 -3.65,-1.82 -7.08,-3.46 -11.08,-4.48 -1.54,-0.4 -5.05,-1.63 -3.88,-2.15 0.1,-0.1 0.84,-0.01 1.2,0.1 0.7,0.22 1.35,0.61 2.02,0.92 1.99,0.9 4.13,1.16 6.12,2.11 2.37,1.14 4.72,2.05 7.12,3.25 0.41,0.2 2.24,0.68 2.64,1.32 1.25,2.01 4,3.6 5.7,5.3 0,0 0.82,0.67 1.16,1.08 0.71,0.83 1.8,1.64 2.24,2.62 0.21,0.48 -0.52,0.78 -0.8,0.5 0,-0.1 -1.01,-1.38 -1.52,-2.02 -0.53,-0.67 -1.14,-1.26 -1.79,-1.81"
       fill="#000000" /><path
       id="path3145"
       d="m 954.9,201.2 c 0,0 0,0 0,0 m -11.2,-8.8 c 0,0 0,0.13 0,0.2 m 5.4,8.4 c 0,0 0.13,0 0.1,0 m 2.1,1.2 c 0,0 0,0 0,0 0,0 0,0 0,0 m 2.8,-0.8 c 0,0 0,0 0,0 m 0.1,0.3 c 0,0 -0.03,0.1 0,0.1 m 19,28.4 c 0,0 -0.1,-0.03 -0.1,0 m 0.1,0.1 c 0,0 -0.73,-2.03 -1.2,-3 -0.93,-1.94 -2.16,-3.74 -3.19,-5.63 -3.99,-7.34 -7.58,-14.13 -14.13,-19.51 -0.08,-0.06 -0.2,-0.11 -0.23,-0.16 -0.05,-0.1 -0.71,0.1 -1.05,0.11 -0.67,0.03 -1.33,0.06 -2,0.09 -0.1,0 -0.89,-0.29 -1.3,-0.32 -1.04,-0.08 -1.69,-0.37 -2.44,-1.12 -2.19,-2.19 -3.66,-4.89 -3.95,-8.06 -0.01,-0.1 0.32,-0.77 0.49,-0.6 0.53,0.53 0.56,2.1 0.9,3 1.11,2.94 1.82,3.83 3.93,5.73 0.07,0.07 0.94,0.19 1.37,0.26 0.88,0.12 1.7,0.25 2.6,0.3 0.1,0.01 0.7,-0.17 1,-0.26 0.1,-0.03 0.65,-0.18 0.83,0 0.07,0.07 0.07,0.07 0.07,0.07 0,0.1 0.52,0.48 0.77,0.68 0.75,0.62 1.5,1.24 2.25,1.86 1.83,1.5 3.52,3.91 5.01,5.79 2.89,3.65 4.87,8.76 7.17,12.8 0.84,1.47 4.3,6.52 4.3,8.97 0,0.1 0.1,0.15 0.1,0.2 -0.1,0.1 -0.15,0.22 -0.2,0.25 -0.1,0.05 -0.17,0.12 -0.2,0.15 0,0 -0.24,-0.1 -0.3,-0.2 0,-0.1 -0.41,-0.88 -0.56,-1.3"
       fill="#000000" /><path
       id="path3147"
       d="m 981.55,226.8 c 0,0 -0.42,0.21 -0.65,0.27 -0.1,0.03 -0.64,0.39 -0.91,0.57 -0.09,0.06 -0.95,0.7 -1.38,1 -1.21,0.84 -2.42,1.67 -3.63,2.5 -0.08,0.06 -0.66,0.82 -0.98,0.66 -0.27,-0.13 -0.16,-0.49 -0.12,-0.7 0.02,-0.1 0.37,-0.45 0.54,-0.62 0.08,-0.08 0.85,-1.15 1.22,-1.7 0.71,-1.03 1.38,-2.4 2.26,-3.28 0.1,-0.1 -0.08,-0.61 0.1,-0.7 0.51,-0.26 0.9,0.19 0.82,0.6 -0.02,0.1 -0.57,0.73 -0.77,1.09 -0.4,0.73 -0.84,1.42 -1.29,2.12 -0.06,0.09 0.72,-0.39 1.12,-0.61 0.78,-0.42 1.43,-0.95 2.22,-1.35 0.1,-0.05 0.71,-0.38 1,-0.28 0.1,0.03 0.12,0.61 -0.1,0.67 m -7.1,3.96 c 0,0 0,0 0,0 m 4.9,-5.5 c 0,0 0,0 0,0 0,0 0,0 0,0"
       fill="#000000" /><path
       id="path3149"
       d="m 981.8,225.7 c 0,0 -0.93,0.8 -1.5,0.8 -1.39,0 -2.71,1.46 -3.9,2.05 -0.1,0.05 -0.9,-0.02 -0.8,-0.25 0.1,-0.1 1.36,-1.53 1.99,-2.24 0.52,-0.58 1.18,-0.93 1.74,-1.49 0.07,-0.07 0.07,-0.07 0.07,-0.07 0,0 0,0 0,0 0,0 0.19,-0.16 0.3,-0.2 0.1,0 0.1,0 0.1,0 0.1,0 0.17,0.07 0.2,0.1 0,0 0.1,-0.03 0.1,0 -0.1,0.1 0.01,0.43 -0.1,0.5 -0.1,0 -1.13,0.93 -1.62,1.43 -0.08,0.07 0.91,-0.36 1.42,-0.53 0.28,-0.09 0.56,-0.13 1.41,-0.55 0.09,-0.05 0.75,0.6 0.49,0.68 m -0.4,-0.73 c 0,0 0,0 0,0"
       fill="#000000" /><path
       id="path3151"
       d="m 1016.4,206.3 c 0,0 0,0 0,0 0,-0.1 0,-0.1 0,-0.1 m 0,0 c 0,0 -0.38,-0.48 -0.2,-0.6 0.42,-0.28 0.31,0.64 0.1,0.57 m -2.7,7.03 c 0,0 0,0 0,0 m -33,11.7 c 0,0 -0.03,-0.1 0,-0.1 m 33.1,-10.7 c 0,0 0,0 0,0 m -0.09,0.05 c 0,0 -1.56,0.81 -2.36,1.19 -1.43,0.68 -2.84,1.4 -4.15,2.3 -5.67,3.93 -10.82,5.36 -17.5,6.82 -2.31,0.5 -4.55,0.97 -6.9,1.27 -0.57,0.07 -3.33,-0.52 -2.2,-0.8 0.1,-0.03 0.1,-0.03 0.1,-0.03 0.1,0 0.1,0 0.1,0 0,0 0,0 0,0 0,0 1,0.14 1.5,0.08 1.06,-0.14 2.15,-0.21 3.2,-0.42 3.12,-0.62 6.17,-1.41 9.3,-2.04 6.84,-1.37 12.96,-5.96 19,-9.32 0,0 0,0 0,0 0.1,0 0.8,0.04 0.8,-0.2 0,-0.57 2.39,-1.62 2.81,-1.85 0.09,-0.05 0.13,-1.81 -0.11,-2.65 -0.06,-0.2 -0.75,-2.15 -0.7,-2.2 0.1,0 0.03,-0.03 0,-0.05 -0.1,-0.05 0.69,-0.33 0.8,-0.05 0.46,1.16 1.42,4.09 0.9,5.3 -0.26,0.6 -2.9,2.12 -3.7,2.28 -0.1,0.02 -0.23,0.12 -0.3,0.12 -0.1,0 -0.6,0.02 -0.6,0.2"
       fill="#000000" /><path
       id="path3153"
       d="m 976.9,231.5 c 0,0 0,0 0,0 m -2.1,0.6 c 0,0 0,0 0,0 0,0 0,0 0,0 m 0.5,-0.1 c 0,0 0,0 0,0 0.1,0 0.1,0 0.1,0 m 0.8,-0.3 c 0,0 0,0 0,0 0,0 0,0 0,0 m 0.2,-0.7 c 0,0 0.1,-0.15 0.1,-0.1 m 1.3,0.5 c 0,0 0,0 0,0 0.1,0 0.1,0 0.1,0 m -0.3,0.1 c 0,0 -0.07,0 -0.1,0 m -1.9,0.5 c 0,0 0,0 0,0 m 0.6,-0.3 c 0,0 0,0 0,0 m 1.08,-0.2 c 0,0 -0.64,0 -0.48,0 0.1,0 -0.29,0.17 -0.5,0.2 -0.1,0 -0.1,0 -0.1,0 0,0 -0.46,0.21 -0.7,0.28 -0.1,0.02 -0.55,-0.11 -0.7,0.02 0,0.1 -0.62,-0.76 -0.3,-0.9 0.34,-0.14 0.5,0.2 0.6,0.25 0.1,0.05 0.82,-0.23 1.2,-0.33 0.1,-0.02 1.4,0.22 1.4,-0.22 0,-0.06 2.86,-1.08 3.9,-1.17 3.87,-0.35 7.82,-1.12 11.7,-1.61 3.5,-0.43 7.02,-1.35 10.5,-2 1.35,-0.25 3,0.08 4.1,-0.92 1.94,-1.76 3.25,-5.3 4.8,-7.2 1.3,-1.59 2.96,-2.76 4.4,-4.2 0.1,-0.1 0.15,-0.22 0.2,-0.25 0.1,-0.05 0.17,-0.05 0.2,-0.05 0,0 -0.04,0.7 0.2,0.7 0.58,0 -0.92,0.72 -1.32,1.13 -1,0.99 -2.15,1.84 -2.98,2.97 -1.85,2.51 -3.22,6.45 -6.03,8.08 -1.5,0.88 -5.51,0.89 -7.37,1.22 -6.58,1.17 -13.11,2.09 -19.7,3.18 -0.1,0.02 -1.62,0.54 -2.4,0.72 0,0 -0.6,-0.1 -0.6,0.1"
       fill="#000000" /><path
       id="path3155"
       d="m 1017.47,211.7 c 0,0 -0.12,0.41 -0.22,0.6 -0.05,0.1 -0.95,1.8 -0.95,1.3 0.1,-0.1 0.1,-0.1 0.1,-0.1 -0.2,0 -0.23,0.13 -0.25,0.1 -0.05,-0.1 -0.53,0.39 -0.65,0.2 -0.17,-0.25 0.07,-0.67 0.22,-0.82 0.08,-0.08 0.13,-0.48 0.28,-0.48 0.1,0.1 0.36,-0.22 0.45,-0.4 0.05,-0.1 0.73,-0.82 0.97,-0.58 m 0.08,0.08 c 0,0 0,0 0,0"
       fill="#000000" /><path
       id="path3157"
       d="m 939.23,187.9 c 0,0 -0.96,-0.38 -1.29,-0.75 -0.67,-0.74 -1.52,-1.5 -1.84,-1.69 -0.1,-0.06 -1.05,-0.81 -1.52,-1.18 -0.71,-0.57 -1.37,-1.12 -2.18,-1.53 -0.1,-0.05 -0.89,-0.5 -1.3,-0.7 -0.78,-0.39 -1.56,-0.78 -2.35,-1.17 -1.09,-0.55 -3.09,-1 -4.55,-1.73 -0.1,-0.05 -1.5,-0.38 -2.2,-0.55 -1.46,-0.35 -3.06,0.17 -4.5,-0.55 -0.1,-0.05 -0.17,-0.05 -0.2,-0.05 0,0 0,0 0,0 -0.1,0 -0.23,0.04 -0.3,0.07 -0.1,0.03 -0.23,-0.01 -0.3,-0.04 -0.1,-0.03 -0.1,-0.03 -0.1,-0.03 0,0 -0.28,-0.51 -0.1,-0.63 0.1,-0.07 0.37,-0.12 0.5,-0.15 0.1,-0.02 0.11,-0.62 -0.1,-0.62 -1,0 -0.51,-1.94 -0.75,-2.92 -0.27,-1.07 -0.26,-2.18 -0.34,-3.28 -0.01,-0.1 -0.07,-0.54 0.09,-0.6 0.19,-0.08 0.57,0.17 0.6,0.5 0.2,1.96 0.55,5.4 1.15,6.6 0.05,0.1 0.12,0.07 0.15,0.05 0.1,-0.05 0.17,-0.05 0.2,-0.05 0.1,0 0.4,-0.2 0.52,-0.32 0.08,-0.08 1.38,-0.28 1.98,-0.08 1.46,0.49 3.18,0.95 4.7,1.2 0.1,0 0.1,0 0.1,0 0.1,0 0.3,0.03 0.3,0.1 -0.1,0 0,0.32 -0.1,0.4 -0.1,0 -0.13,0.2 -0.2,0.2 -0.1,0 -0.43,0.03 -0.6,0.01 -0.1,-0.01 -0.23,0.03 -0.3,0.06 -0.1,0.03 0.57,0.2 0.9,0.28 0.86,0.22 1.67,0.49 2.51,0.78 2.54,0.9 4.69,2.1 6.7,3.72 0.8,0.65 1.95,1.48 1.89,1.65 -0.06,0.18 1.36,0.94 1.6,1.2 0.12,0.13 2.03,2.23 0.9,1.95 M 916.6,177.3 c 0,0 0.1,0 0.1,0 m 0.1,0.1 c 0,0 0,0 0,0 0.1,0 0.1,0 0.1,0 m -0.1,0.7 c 0,0 0,0 0,0 0.1,0 0.1,0 0.1,0 m 1.7,-1.6 c 0,0 0,0 0,0 m 5.4,2.6 c 0,0 0,0 0,0 m 12,6.3 c 0,0 0,0 0,0 0,0 0,0.1 0,0.1"
       fill="#000000" /><path
       id="path3159"
       d="m 920.6,177.9 c 0,0 -0.02,0.54 -0.2,0.5 -2.11,-0.44 -5.19,-4.6 -3.5,-4.6 0.1,0.1 0.1,0.1 0.1,0.1 0,0 0.44,0.73 0.74,1.03 0.95,0.91 2.7,2.31 2.91,3.17"
       fill="#000000" /><path
       id="path3161"
       d="m 922.33,177.77 c 0,0 -0.35,0.11 -0.45,0 -0.08,-0.07 -2.92,-3.33 -4.3,-5 -0.27,-0.34 -1.61,-1.5 -1.28,-1.87 0.46,-0.52 1.85,1.42 2.13,1.76 1.13,1.39 2.26,2.78 3.39,4.17 0.23,0.29 0.67,1.56 0.13,1.02"
       fill="#000000" /><path
       id="path3163"
       d="m 923.58,177.6 c 0,0 -0.58,0.62 -0.78,0.4 -1.93,-2.15 -3.86,-4.3 -5.8,-6.45 -0.12,-0.13 -0.59,-0.53 -0.5,-0.75 0.36,-0.89 2.17,1.37 2.54,1.77 1.4,1.56 2.79,3.11 4.19,4.66 0.07,0.07 0.38,0.69 0.17,0.84"
       fill="#000000" /><path
       id="path3165"
       d="m 926.25,179 c 0,0 -0.47,0.46 -0.65,0.3 -0.88,-0.8 -1.76,-1.59 -2.65,-2.39 -1.1,-1 -1.89,-2.46 -2.7,-3.62 -0.18,-0.25 -0.79,-0.78 -0.25,-0.99 0.49,-0.2 1.4,1.23 1.66,1.6 1.26,1.74 2.94,3.83 4.54,4.7 0.44,0.24 -0.24,0.58 -0.4,0.63"
       fill="#000000" /><path
       id="path3167"
       d="m 929.17,180.9 c 0,0 -0.38,0.15 -0.57,0.12 -0.1,-0.02 -0.36,-0.32 -0.5,-0.47 -1.17,-1.33 -2.33,-2.67 -3.5,-4 -0.21,-0.23 -1.21,-1.25 -0.7,-1.45 0.48,-0.19 1.32,0.95 1.59,1.26 0.97,1.16 1.95,2.32 2.92,3.48 0.29,0.34 1.34,1.37 0.29,1.19 M 928.5,181 c 0,0 0,0 0,0 0,0 0,0 0,0"
       fill="#000000" /><path
       id="path3169"
       d="m 931.77,181.2 c 0,0 -0.37,0.6 -0.67,0.6 -0.4,0 -0.96,-0.69 -1.18,-0.97 -0.98,-1.19 -1.96,-2.37 -2.94,-3.56 -0.13,-0.17 -0.54,-0.53 -0.48,-0.77 0.16,-0.69 0.81,0.05 1,0.27 1.21,1.43 2.36,2.79 3.63,4.16 0.07,0.07 0.67,0.18 0.6,0.37"
       fill="#000000" /><path
       id="path3171"
       d="m 934.95,183.8 c 0,0 -0.85,-0.04 -1.15,-0.3 -0.84,-0.72 -1.35,-1.75 -2.03,-2.62 -1.11,-1.44 -2.15,-2.93 -3.21,-4.4 -0.06,-0.08 0.42,-0.76 0.64,-0.58 1.63,1.36 2.47,3.68 3.8,5.4 0.2,0.25 2.3,2.2 1.9,2.6"
       fill="#000000" /><path
       id="path3173"
       d="m 937.17,184.6 c 0,0 -0.9,0.02 -1.12,-0.29 -1.23,-1.71 -2.47,-3.41 -3.7,-5.12 -0.17,-0.24 -0.66,-0.77 -0.15,-0.99 0.39,-0.17 0.58,0.24 0.76,0.49 1.34,1.84 2.61,3.65 3.88,5.53 0.06,0.08 0.32,0.54 0.16,0.65"
       fill="#000000" /><path
       id="path3175"
       d="m 938.83,185.18 c 0,0 -1.21,-1 -1.61,-1.65 -0.59,-0.98 -1.2,-1.95 -1.8,-2.92 -0.19,-0.3 -1.36,-1.37 -0.72,-1.61 0.37,-0.14 0.69,0.57 0.84,0.8 1.04,1.51 2.07,3.01 3.1,4.52 0.06,0.08 0.05,0.15 0.06,0.18 0.1,0.1 0.23,0.23 0.2,0.3 -0.1,0 -0.2,0.63 -0.4,0.57"
       fill="#000000" /><path
       id="path3177"
       d="m 941.7,187 c 0,0 -0.08,0.57 -0.3,0.6 -0.21,0.03 -0.62,-0.77 -0.71,-0.92 -1.21,-2.07 -2.43,-4.13 -3.64,-6.19 -0.05,-0.09 0.02,-0.9 0.25,-0.79 0.54,0.27 1.09,1.38 1.4,1.93 0.95,1.66 1.9,3.32 2.85,4.98 0.05,0.09 0.12,0.16 0.15,0.19 0,0 -0.11,0.41 -0.2,0.6"
       fill="#000000" /><path
       id="path3179"
       d="m 946.1,194.37 c 0,0 -0.92,-0.71 -1.17,-1.22 -1.4,-2.86 -2.78,-5.7 -4.15,-8.58 -0.36,-0.74 -2.14,-3.64 -1.38,-3.77 0.63,-0.11 1.39,1.87 1.65,2.45 1.6,3.45 3.2,6.91 4.81,10.36 0.04,0.09 0.24,0.27 0.24,0.39 0,0.2 0,0.2 0,0.2 0.1,0 -0.22,0.3 -0.4,0.25 m 0.5,-0.25 c 0,0 0,0 0,0"
       fill="#000000" /><path
       id="path3181"
       d="m 948.95,198.4 c 0,0 -0.76,-0.14 -0.91,-0.45 -0.8,-1.69 -1.58,-3.41 -2.41,-5.09 -1.35,-2.77 -2.71,-5.55 -4.06,-8.32 -0.09,-0.18 -0.41,-0.63 -0.27,-0.84 0.4,-0.6 1.83,2.36 2.16,3.04 1.76,3.64 3.52,7.28 5.28,10.92 0.19,0.39 0.45,0.64 0.06,0.91"
       fill="#000000" /><path
       id="path3183"
       d="m 951.4,201.8 c 0,0 -0.15,-0.1 -0.1,-0.1 m 0,-0.1 c 0,0 -0.49,-1.17 -0.75,-1.74 -1.37,-2.94 -2.73,-5.88 -4.1,-8.82 -0.29,-0.63 -1.86,-3.27 -1.05,-3.34 0.47,-0.04 0.88,1.38 1.06,1.74 1.36,2.87 2.72,5.75 4.08,8.62 0.52,1.08 1.31,2.29 1.46,3.44 0,0.2 0,0.2 0,0.2 0,0.1 -0.06,0.18 -0.1,0.2 -0.1,0 -0.08,0.08 -0.1,0.1 -0.1,0 -0.17,0 -0.2,0 -0.1,0 -0.13,-0.07 -0.15,-0.1 -0.05,-0.1 -0.05,-0.1 -0.05,-0.1 0,0 -0.35,-0.8 -0.52,-1.2"
       fill="#000000" /><path
       id="path3185"
       d="m 951.87,199.9 c 0,0 -0.7,-0.08 -0.82,-0.35 -1.2,-2.7 -2.4,-5.4 -3.6,-8.1 -0.08,-0.17 -0.54,-1.15 0.05,-1.05 0.22,0.04 0.37,0.58 0.45,0.75 1.23,2.67 2.47,5.33 3.7,8 0.12,0.27 0.4,0.67 0.15,0.95"
       fill="#000000" /><path
       id="path3187"
       d="m 950.08,200.6 c 0,0 -0.81,0.18 -0.88,-0.1 0,-0.2 -0.97,-2.67 -1.48,-3.9 -0.12,-0.29 -0.76,-1.36 -0.02,-1.3 0.27,0.02 0.72,1.18 0.81,1.35 0.55,1.02 0.95,2.25 1.36,3.28 0.1,0.25 0.42,0.87 0.03,1"
       fill="#000000" /><path
       id="path3189"
       d="m 947.3,199.8 c 0,0 0.03,-0.1 0,-0.1 m -0.1,-0.1 c 0,0 0,0 0,0 0,-0.1 -0.15,-0.47 -0.23,-0.66 -0.49,-1.18 -1.23,-2.28 -1.47,-3.54 -0.09,-0.47 0.28,-1.85 0.6,-0.9 0,0 0.36,1.41 0.6,2.1 0.24,0.69 1.73,2.94 1.2,3.3 -0.1,0 -0.1,0 -0.1,0 0,0 -0.13,0.08 -0.2,0.1 -0.1,0 -0.17,-0.07 -0.2,-0.1 -0.1,-0.1 -0.1,-0.1 -0.1,-0.1 0,0 0.01,-0.07 0,-0.1"
       fill="#000000" /><path
       id="path3191"
       d="m 940.4,187.98 c 0,0 -3.56,-1.61 -2.9,-2.78 0.24,-0.43 0.87,0.29 1.02,0.44 0.69,0.72 2.17,1.27 1.98,2.26 -0.1,0.55 -0.73,0.07 -0.92,-0.08"
       fill="#000000" /><path
       id="path3193"
       d="m 953.8,200.9 c 0,0 -0.43,0.1 -0.6,0 -0.71,-0.4 -0.85,-1.39 -1.28,-2.08 -0.68,-1.1 -1.4,-2.22 -1.88,-3.42 -0.04,-0.1 -0.24,-0.21 -0.24,-0.3 0.1,0 0.42,-0.66 0.6,-0.5 1.51,1.36 2.33,4 3.25,5.61 0.05,0.09 0.15,0.14 0.15,0.19 0,0.1 0,0.1 0,0.1 0,0 -0.21,0.4 -0.4,0.4 m 0.4,-0.4 c 0,0 0.07,0.13 0.05,0.1"
       fill="#000000" /><path
       id="path3195"
       d="m 955.5,201.1 c 0,0 -0.17,0.66 -0.4,0.6 -1.24,-0.31 -2.56,-4.06 -2.75,-4.41 -0.2,-0.36 -1.08,-1.7 -0.75,-1.99 0.42,-0.37 0.84,0.55 0.99,0.83 0.86,1.53 1.71,3.05 2.56,4.58 0.05,0.09 0.33,0.48 0.29,0.69"
       fill="#000000" /><path
       id="path3197"
       d="m 957.78,201.8 c 0,0 -0.37,0.51 -0.58,0.4 -1.5,-0.76 -2.14,-3.95 -3.15,-5.71 -0.05,-0.09 0.22,-0.7 0.45,-0.62 0.1,0.03 0.29,0.38 0.39,0.56 0.97,1.75 1.94,3.51 2.91,5.27 0,0 -0.15,0.5 -0.35,0.5 m -2.85,-6.3 c 0,0 0,0 0,0"
       fill="#000000" /><path
       id="path3199"
       d="m 959.9,205.2 c 0,0 -0.66,-0.07 -0.81,-0.32 -0.83,-1.4 -2.68,-3.9 -3.39,-5.96 -0.33,-0.97 -1.6,-2.77 -0.6,-3.02 0.27,-0.07 0.76,1.21 0.87,1.44 1.22,2.41 2.44,4.81 3.66,7.22 0.09,0.19 0.48,0.77 0.17,0.87"
       fill="#000000" /><path
       id="path3201"
       d="m 963.58,210.2 c 0,0 -0.21,0.46 -0.38,0.4 -0.1,-0.1 -0.24,-0.22 -0.27,-0.3 -0.03,-0.1 -0.92,-2.24 -1.42,-3.28 -1,-2.14 -1.95,-4.29 -3,-6.4 -0.48,-0.96 -0.96,-1.92 -1.44,-2.88 -0.13,-0.25 -0.54,-0.88 -0.07,-1.04 0.56,-0.19 1.49,1.99 1.75,2.55 0.87,1.93 1.73,3.87 2.6,5.8 0.67,1.5 1.34,3 2.01,4.5 0.1,0.23 0.45,0.85 0.04,0.98"
       fill="#000000" /><path
       id="path3203"
       d="m 968.53,219 c 0,0 -0.58,-0.12 -0.68,-0.35 -0.67,-1.43 -1.33,-2.87 -2,-4.3 -1.56,-3.37 -3.25,-6.68 -4.68,-10.11 -0.95,-2.26 -1.89,-4.52 -2.84,-6.78 -0.07,-0.17 -0.37,-0.67 -0.23,-0.86 0.34,-0.45 0.66,0.35 0.75,0.55 1.3,2.83 2.6,5.67 3.9,8.5 1.32,2.89 2.64,5.78 3.89,8.7 0.54,1.27 1.08,2.53 1.62,3.8 0.1,0.23 0.58,1.05 0.04,1.05"
       fill="#000000" /><path
       id="path3205"
       d="m 971.8,224.03 c 0,0 -0.78,-0.48 -0.98,-0.87 -0.44,-0.86 -1.08,-1.96 -1.5,-2.94 -1.22,-2.93 -2.44,-5.85 -3.65,-8.78 -1.31,-3.19 -2.63,-6.39 -3.94,-9.58 -0.07,-0.17 -0.37,-0.68 -0.23,-0.86 0.47,-0.63 1.78,2.71 2.13,3.56 2.99,7.22 4.96,11.99 8.03,18.65 0.04,0.09 0.37,0.59 0.24,0.79 -0.17,0.26 -0.5,-0.06 -0.63,-0.17"
       fill="#000000" /><path
       id="path3207"
       d="m 973.83,228.5 c 0,0 -0.54,0.19 -0.63,0 -0.53,-1.13 -1.16,-2.23 -1.6,-3.4 -0.97,-2.58 -1.36,-5.37 -2.31,-7.97 -1.53,-4.22 -3.05,-8.44 -4.58,-12.66 -0.15,-0.4 -1.3,-2.17 -0.71,-2.37 0.48,-0.16 1.18,1.52 1.31,1.87 1.06,2.85 2.12,5.71 3.18,8.56 1.84,4.95 2.95,10.15 5.07,14.98 0.04,0.09 0.15,1.19 -0.16,1.07"
       fill="#000000" /><path
       id="path3209"
       d="m 974.35,227.4 c 0,0 -0.26,0.47 -0.45,0.4 -0.19,-0.07 -0.53,-0.73 -0.45,-0.9 0.05,-0.1 -0.08,-0.48 -0.14,-0.67 -1.74,-5.22 -3.48,-10.44 -5.22,-15.66 -0.19,-0.58 -1.53,-3.01 -0.79,-3.07 0.56,-0.05 1.06,1.36 1.2,1.77 1.67,4.79 3.33,9.57 5,14.36 0.32,0.91 1.53,3.79 0.6,4.1"
       fill="#000000" /><path
       id="path3211"
       d="m 975.67,227.7 c 0,0 -0.77,-0.23 -0.91,-0.56 -0.61,-1.43 -1.21,-2.85 -1.82,-4.28 -1.06,-2.48 -1.57,-5.18 -2.31,-7.76 -0.36,-1.24 -0.77,-2.5 -1.15,-3.71 -0.06,-0.19 -0.42,-1.18 0.12,-1.09 0.59,0.1 1.09,2.07 1.27,2.68 2.02,7.12 2.3,8.35 4.79,14.43 0.04,0.09 -0.01,0.47 -0.16,0.52"
       fill="#000000" /><path
       id="path3213"
       d="m 976.2,225 c 0,0 -0.71,0.35 -0.8,0.1 -0.86,-2.44 -1.71,-4.87 -2.57,-7.31 -0.15,-0.43 -1.54,-2.85 -0.83,-3.09 0.46,-0.15 0.99,1.36 1.1,1.67 0.95,2.74 1.91,5.49 2.87,8.24 0.03,0.09 0.03,0.59 -0.13,0.75"
       fill="#000000" /><path
       id="path3215"
       d="m 978.27,223.9 c 0,0 -0.43,0.34 -0.57,0.2 -0.38,-0.37 -2.62,-4.33 -1.6,-4.5 0.94,-0.16 2.73,4.29 2,4.53"
       fill="#000000" /><path
       id="path3217"
       d="m 977.9,227.5 c 0,0 0,0 0,0 0,0 0,0 0,0 m 0,-0.1 c 0,0 -0.03,-0.07 -0.05,-0.1 -0.05,-0.1 -0.18,-0.23 -0.15,-0.3 0.1,0 0.42,-0.28 0.52,-0.17 0.08,0.07 0.08,0.07 0.08,0.07 0.1,0 2.01,1.71 1.3,2.1 -0.37,0.2 -1.02,-0.79 -1.23,-1.02 -0.07,-0.08 -0.42,-0.14 -0.47,-0.28 0,-0.2 0,-0.2 0,-0.2"
       fill="#000000" /><path
       id="path3219"
       d="m 980.5,227.77 c 0,0 -0.23,0.1 -0.3,0.03 -0.1,-0.1 -1.76,-1.64 -1.2,-2.2 0.63,-0.63 2.07,2.43 1.3,2.3"
       fill="#000000" /><path
       id="path3221"
       d="m 982.26,229.1 c 0,0 -0.39,0.42 -0.56,0.3 -0.56,-0.41 -2.4,-2.76 -2.1,-3.5 0.24,-0.61 0.8,0.21 0.94,0.41 0.5,0.77 1,1.54 1.5,2.3 0.06,0.09 0.11,0.9 -0.14,0.84"
       fill="#000000" /><path
       id="path3223"
       d="m 983.78,228.7 c 0,0 -0.18,0.55 -0.38,0.5 -0.69,-0.16 -2.32,-2.96 -1.5,-3.1 0.69,-0.11 2.39,2.8 1.7,3.03"
       fill="#000000" /><path
       id="path3225"
       d="m 985.64,229 c 0,0 -0.34,0.5 -0.54,0.4 -0.44,-0.23 -2.24,-2.31 -2,-2.9 0.35,-0.89 2.32,2.1 2.34,2.12 0.06,0.08 0.1,0.78 -0.14,0.78"
       fill="#000000" /><path
       id="path3227"
       d="m 987.2,229.05 c 0,0 -3.22,-2.5 -2.1,-2.95 0.57,-0.23 1.8,2.18 2.04,2.52 0.06,0.08 -0.05,0.61 -0.24,0.58 -0.12,-0.02 -0.38,-0.45 -0.47,-0.54"
       fill="#000000" /><path
       id="path3229"
       d="m 989.47,229.5 c 0,0 -0.49,0.35 -0.67,0.2 -0.77,-0.65 -2.8,-2.81 -2.4,-3.8 0.32,-0.81 2.55,2.79 2.64,2.92 0.06,0.08 0.52,0.64 0.36,0.88"
       fill="#000000" /><path
       id="path3231"
       d="m 990.7,229 c 0,0 -3.56,-2.46 -2.4,-3 0.58,-0.27 1.96,1.86 2.24,2.22 0.06,0.08 0.08,0.89 -0.14,0.78 m -0.2,-0.5 c 0,0 0,0.1 0,0.1"
       fill="#000000" /><path
       id="path3233"
       d="m 992.2,228.13 c 0,0 -3.29,-2.04 -2.4,-2.93 0.5,-0.5 2,1.92 2.33,2.32 0.07,0.08 0.14,0.08 0.17,0.08 0,0 0,0.07 0,0.1 0,0 -0.2,0.57 -0.4,0.5 -0.29,-0.1 -0.67,-0.81 -0.87,-1.04"
       fill="#000000" /><path
       id="path3235"
       d="m 994.2,227.6 c 0,0 -0.06,0.08 -0.1,0.1 -0.1,0 -0.32,-0.17 -0.37,-0.3 -0.03,-0.1 -3.41,-2.81 -2.23,-3.4 0.7,-0.35 2.05,2.23 2.44,2.72 0.06,0.08 0.31,0.32 0.36,0.48 0,0 0,0 0,0 0,0 0,0.3 -0.1,0.4 m 0.1,-0.4 c 0,0 0,0 0,0"
       fill="#000000" /><path
       id="path3237"
       d="m 996,226.27 c 0,0 -0.49,0.03 -0.7,-0.07 -0.76,-0.36 -1.08,-1.29 -1.61,-1.94 -0.12,-0.14 -0.76,-0.76 -0.39,-0.96 0.58,-0.32 1.9,1.68 2.23,2.03 0.07,0.07 0.32,0.16 0.37,0.27 0,0.1 0.07,0.17 0.1,0.2 0,0 -0.21,0.6 -0.4,0.5"
       fill="#000000" /><path
       id="path3239"
       d="m 998.4,227 c 0,0 -0.31,0.63 -0.5,0.5 -0.48,-0.34 -3.09,-3.51 -2.3,-4.1 0.69,-0.52 2.43,3.04 2.54,3.22 0.06,0.08 0.22,0.12 0.26,0.18 0,0.1 -0.04,0.43 -0.07,0.6"
       fill="#000000" /><path
       id="path3241"
       d="m 1000.53,227.1 c 0,0 -2.32,-1.31 -2.23,-2.4 0.09,-1.11 1.69,1.43 1.74,1.52 0.06,0.08 0.6,1.08 0.26,1.08"
       fill="#000000" /><path
       id="path3243"
       d="m 1001.95,226.7 c 0,0 -0.45,0.2 -0.65,0.1 -0.39,-0.2 -2.44,-3.55 -2.4,-3.7 0.17,-0.72 0.78,0.08 0.94,0.31 0.6,0.9 1.2,1.8 1.8,2.71 0.06,0.08 0.11,0.68 -0.1,0.68"
       fill="#000000" /><path
       id="path3245"
       d="m 1003.3,225 c 0,0 0,0 0,0 -0.1,0.1 -0.17,0.17 -0.2,0.2 0,0 -0.3,0 -0.4,-0.1 -0.1,-0.1 -0.1,-0.1 -0.1,-0.1 0,-0.1 -1.53,-1.3 -1.4,-2.1 0.15,-0.9 1.16,0.5 1.33,0.72 0.07,0.08 0.55,0.73 0.77,1.08 0,0 0,0 0,0 0,0 0,0.2 0,0.3 m 0,-0.3 c 0,0 0,0 0,0"
       fill="#000000" /><path
       id="path3247"
       d="m 1004.5,225.27 c 0,0 -0.45,0.07 -0.6,-0.07 -0.56,-0.52 -0.96,-1.64 -1.35,-2.31 -0.09,-0.16 -0.83,-0.74 -0.45,-0.99 0.72,-0.48 2.08,2.22 2.14,2.32 0.06,0.08 0.16,1.23 -0.14,1.08"
       fill="#000000" /><path
       id="path3249"
       d="m 1005.76,224.5 c 0,0 -0.41,0.45 -0.56,0.3 -0.1,-0.1 -0.1,-0.1 -0.1,-0.1 0,0 0,-0.07 0,-0.1 0,0 -0.36,-0.82 -0.55,-1.23 -0.23,-0.52 -2.08,-2.72 -1.15,-2.87 0.84,-0.14 2.88,4.04 2.2,4.4 m -0.45,-0.2 c 0,0 -0.01,-0.1 -0.05,-0.1 0,0.1 0.06,0.11 0.05,0.1"
       fill="#000000" /><path
       id="path3251"
       d="m 1006.4,223.5 c 0,0 -0.41,0.18 -0.6,0.3 -0.41,0.25 -0.36,-0.91 -0.66,-1.28 -0.24,-0.28 -1.6,-1.44 -1.44,-1.92 0.21,-0.63 0.94,0.19 1.14,0.36 0.59,0.52 0.91,1.39 1.31,2.05 0.05,0.09 0.2,0.28 0.25,0.39 0,0.1 0,0.1 0,0.1"
       fill="#000000" /><path
       id="path3253"
       d="m 1007.3,221.6 c 0,0 -0.35,0.7 -0.45,0.5 -0.05,-0.1 -2.67,-3.4 -1.45,-3.5 0.8,-0.07 2.46,3.51 1.8,3.73"
       fill="#000000" /><path
       id="path3255"
       d="m 1009.08,221.8 c 0,0 -0.34,0.14 -0.48,0.06 -0.1,-0.06 -0.29,0 -0.33,-0.06 -0.07,-0.1 -0.07,-0.1 -0.07,-0.1 0,0 -1.02,-2.11 -1.54,-3.16 -0.14,-0.29 -0.64,-0.91 -0.26,-1.14 0.97,-0.58 3.48,5.23 2.3,4.52"
       fill="#000000" /><path
       id="path3257"
       d="m 1010.6,221.83 c 0,0 -0.46,-0.05 -0.55,-0.23 -0.05,-0.1 -3.13,-4.05 -1.65,-4.3 1.68,-0.28 2.29,4.75 1.9,4.6"
       fill="#000000" /><path
       id="path3259"
       d="m 1011.6,218.43 c 0,0 -0.35,0 -0.43,-0.13 -0.07,-0.1 -1.87,-2.55 -0.97,-2.7 1.57,-0.26 1.39,3.33 1.03,2.8"
       fill="#000000" /><path
       id="path3261"
       d="m 1011.7,216.4 c 0,0 -0.37,0.32 -0.5,0.2 -0.21,-0.19 -0.83,-1.18 -0.5,-1.4 0.54,-0.36 1.22,1.33 0.9,1.43"
       fill="#000000" /><path
       id="path3263"
       d="m 1005.2,226.05 c 0,0 -1.56,-0.24 -2.3,-0.05 -1.74,0.43 -3.26,0.69 -5.02,1.22 -3.36,1.02 -9.51,1.9 -12.78,1.49 -0.1,-0.01 -0.76,0.16 -1.09,0.25 -1.27,0.33 -2.55,0.67 -3.82,1.01 -0.58,0.15 -2.26,0.59 -2.39,0.33 -0.12,-0.23 0.19,-0.98 0.4,-1.1 0.32,-0.18 1.04,0.05 1.4,0 1.42,-0.21 2.84,-1.31 4.3,-1.02 0.1,0.02 2.9,-0.66 4.31,-0.96 2.18,-0.45 4.25,0.23 6.39,-0.12 1.25,-0.2 2.92,-2.06 4,-1.7 0.66,0.22 -0.53,0.99 -0.72,1.14 -0.08,0.06 1.39,-0.36 2.12,-0.61 1.42,-0.47 3.42,-0.97 4.8,-0.28 0.1,0.05 0.48,0.52 0.3,0.58 m -20.4,2.47 c 0,0 0,0 0,0 m 5.3,-1.1 c 0,0 -0.33,0.06 -0.5,0.08 -0.1,0.02 0.46,0.14 0.7,0.02"
       fill="#000000" /><path
       id="path3265"
       d="m 1010.8,218.1 c 0,0 -0.18,0.49 -0.32,0.71 -1.15,1.86 -2.31,3.72 -3.46,5.58 -0.26,0.41 -0.92,1.15 -0.92,0.21 0,0 0.21,-0.34 0.32,-0.51 1.19,-1.89 2.37,-3.79 3.56,-5.68 0.1,-0.16 0.29,-0.63 0.52,-0.61 0.62,0.05 0.13,0.78 -0.02,1.01 -1.22,1.98 -2.45,3.95 -3.67,5.92"
       fill="#000000" /><path
       id="path3267"
       d="m 1014.2,214.6 c 0,0 -0.9,1.7 -1.46,2.48 -1.13,1.57 -2.18,3.21 -3.43,4.68 -1.14,1.33 -2.28,2.65 -3.42,3.98 -0.19,0.23 -0.9,1.04 -1.19,0.46 -0.33,-0.65 1.19,-3.2 1.8,-3.3 1.05,-0.17 -2.5,3.85 -1.21,2.34 1.11,-1.29 2.21,-2.59 3.32,-3.88 0.26,-0.31 0.51,-0.62 0.75,-0.94 1.03,-1.4 2.12,-2.78 3.08,-4.23 0.3,-0.46 0.8,-1.49 1.26,-1.89 0.53,-0.45 0.42,0.59 0.36,0.8"
       fill="#000000" /><path
       id="path3269"
       d="m 1014.46,212 c 0,0 -0.45,1.18 -0.81,1.69 -0.9,1.24 -1.8,2.48 -2.7,3.72 -1.67,2.32 -4.01,4.72 -5.66,6.63 -0.37,0.44 -2.56,2.31 -2.14,1.46 0.05,-0.1 0.31,-0.41 0.44,-0.56 1.97,-2.33 3.95,-4.65 5.92,-6.98 1.27,-1.5 2.41,-3.12 3.49,-4.76 0.26,-0.39 0.63,-1.54 1.1,-1.7 0.85,-0.28 -0.3,1.97 -0.45,2.19 -0.98,1.35 -1.96,2.7 -2.93,4.05 m -7.52,7.66 c 0,0 0,0 0,0"
       fill="#000000" /><path
       id="path3271"
       d="m 1012.07,214.7 c 0,0 -0.32,0.43 -0.51,0.6 -1.07,0.98 -2.29,1.98 -3.3,3.07 -2.15,2.29 -4.3,4.59 -6.45,6.89 -0.16,0.18 -0.42,0.59 -0.71,0.44 -0.51,-0.25 -0.01,-0.71 0.21,-0.94 2.46,-2.64 4.92,-5.28 7.38,-7.92 0.67,-0.72 2.47,-2.84 3.21,-2.54 0.56,0.22 -0.16,0.84 -0.34,1 -0.94,0.86 -1.88,1.71 -2.81,2.57"
       fill="#000000" /><path
       id="path3273"
       d="m 1008.15,216.6 c 0,0 -0.44,0.81 -0.74,1.16 -2.21,2.59 -4.41,5.19 -6.62,7.78 -0.24,0.29 -1.08,1.27 -1.49,1.26 -0.41,-0.01 -0.58,-0.51 -0.2,-0.7 0,0 0.27,-0.3 0.4,-0.45 2.37,-2.67 4.73,-5.33 7.1,-8 0.24,-0.27 1.02,-1.54 1.4,-1.35 0.48,0.24 -0.36,1.19 -0.59,1.46 -2.29,2.69 -4.59,5.39 -6.88,8.09"
       fill="#000000" /><path
       id="path3275"
       d="m 1004.25,220.4 c 0,0 -0.4,0.66 -0.67,0.93 -1.11,1.14 -2.43,2.81 -3.88,3.82 -0.12,0.09 -1.35,1.25 -1.8,0.95 -0.43,-0.29 0.21,-0.68 0.46,-0.89 2.06,-1.73 3.33,-2.96 5.17,-4.94 0.07,-0.07 0.75,-0.2 0.77,0.03 0.12,1.43 -3.81,4.2 -3.96,4.36"
       fill="#000000" /><path
       id="path3277"
       d="m 1001.1,221.3 c 0,0 -1.17,1.59 -1.81,2.34 -0.85,1 -2.77,3.82 -3.69,3.36 -0.47,-0.24 0.11,-0.73 0.31,-0.94 1.53,-1.66 2.69,-3.75 4.59,-4.96 0.29,-0.18 0.74,0.03 0.6,0.4 -0.06,0.15 -0.28,0.33 -0.39,0.46 -0.56,0.66 -1.12,1.32 -1.68,1.99"
       fill="#000000" /><path
       id="path3279"
       d="m 997.44,223.28 c 0,0 -1.9,2.24 -2.85,3.36 -0.13,0.15 -0.43,0.65 -0.69,0.56 -0.5,-0.17 0.13,-0.77 0.29,-0.96 0.98,-1.17 1.56,-2.96 3.01,-3.44 0.64,-0.21 0.03,0.72 -0.09,0.86 -0.84,0.99 -1.68,1.99 -2.52,2.98 -0.14,0.16 -0.29,0.43 -0.49,0.49"
       fill="#000000" /><path
       id="path3281"
       d="m 995,224.05 c 0,0 -1.72,3.51 -3.1,3.05 -0.52,-0.17 0.16,-0.76 0.33,-0.93 0.84,-0.84 1.4,-2.67 2.57,-2.47 0.6,0.1 -0.08,0.78 -0.23,0.93 -0.74,0.74 -1.48,1.48 -2.23,2.23"
       fill="#000000" /><path
       id="path3283"
       d="m 992.94,223.88 c 0,0 -1.39,3.04 -2.44,2.52 -1.48,-0.74 3.78,-4.11 2.11,-2.14 -0.62,0.73 -0.95,2.14 -1.91,2.14"
       fill="#000000" /><path
       id="path3285"
       d="m 990.73,224.48 c 0,0 -1.32,2.89 -2.43,2.52 -0.5,-0.17 0.13,-0.78 0.29,-0.96 0.59,-0.72 0.89,-1.99 1.81,-2.14 0.7,-0.12 0.14,0.8 0,0.95 -0.47,0.53 -0.93,1.07 -1.4,1.6 -0.14,0.16 -0.3,0.42 -0.5,0.48"
       fill="#000000" /><path
       id="path3287"
       d="m 988.7,224.05 c 0,0 -0.24,0.42 -0.4,0.59 -0.95,1.04 -1.7,3.48 -3,2.96 -0.49,-0.2 0.13,-0.76 0.3,-0.96 0.9,-1.02 1.47,-3.16 2.8,-2.94 0.65,0.11 0.1,0.71 -0.1,0.94 -0.86,0.94 -1.71,1.88 -2.57,2.81"
       fill="#000000" /><path
       id="path3289"
       d="m 985.8,225.6 c 0,0 -1.17,2.13 -2,1.8 -0.45,-0.18 0.09,-0.59 0.26,-0.76 0.28,-0.28 0.81,-0.98 1.24,-1.24 0.28,-0.17 0.65,0.06 0.5,0.4 -0.06,0.14 -0.33,0.31 -0.44,0.42 -0.37,0.35 -0.74,0.69 -1.11,1.04"
       fill="#000000" /><path
       id="path3291"
       d="m 984.73,225.6 c 0,0 -2.73,3.65 -3.23,2.4 -0.59,-1.49 4.75,-3.66 2.64,-1.79 -0.66,0.58 -1.32,1.17 -1.99,1.75"
       fill="#000000" /><path
       id="path3293"
       d="m 983.74,226.28 c 0,0 -0.84,2.19 -1.64,1.92 -0.46,-0.15 -0.04,-0.61 0.11,-0.8 0.15,-0.2 0.8,-1.3 1.19,-1.5 0.64,-0.32 0.16,0.63 0.03,0.8 -0.22,0.3 -0.44,0.6 -0.66,0.9 -0.13,0.17 -0.27,0.47 -0.47,0.53"
       fill="#000000" /><path
       id="path3295"
       d="m 990.87,224.9 c 0,0 -0.89,0.81 -1.44,0.99 -3.42,1.14 -4.01,1.32 -7.43,1.82 -0.16,0.03 -0.7,0.19 -0.8,-0.01 -0.4,-0.8 2.92,-0.82 3.3,-0.9 0.38,-0.08 4.88,-2.4 6.1,-2.2 0.77,0.13 -0.21,0.81 -0.42,0.97"
       fill="#000000" /><path
       id="path3297"
       d="m 988.8,226.57 c 0,0 -0.52,0.19 -0.79,0.25 -0.32,0.06 -5.03,1.38 -7.23,1.38 -0.83,0 -2.22,0.59 -2.48,-0.2 -0.14,-0.43 0.67,-0.46 0.89,-0.49 2.91,-0.44 5.81,-0.88 8.72,-1.32 0.18,-0.03 1.2,-0.21 0.99,0.31 -0.1,0.24 -0.68,0.28 -0.89,0.32 -2.21,0.45 -4.41,0.89 -6.61,1.34"
       fill="#000000" /><path
       id="path3299"
       d="m 985.65,227.4 c 0,0 -0.35,0.54 -0.62,0.65 -0.69,0.28 -1.38,0.55 -2.07,0.83 -1.52,0.6 -3.12,1.02 -4.76,1.02 -0.58,0 -2.2,0.06 -2.2,-0.3 0,-0.86 2.02,-0.37 2.5,-0.4 2.41,-0.17 4.75,-2.12 6.9,-2.3 0.5,-0.04 0.17,0.84 0,1 -0.66,0.64 -1.95,0.78 -2.81,1.13"
       fill="#000000" /><path
       id="path3301"
       d="m 977.28,227.1 c 0,0 -0.2,2.27 -0.88,2 -0.46,-0.18 0.75,-1.84 0.85,-2.01 m 0.92,1.01 c 0,0 -0.7,1 -0.97,0.7 -0.3,-0.33 0.03,-1.32 0.08,-1.7 0.02,-0.1 0.45,-0.67 0.62,-0.5 0.24,0.24 -0.02,0.83 -0.08,1.1 -0.02,0.1 0.27,0.61 0.13,0.8 m -0.62,-1.6 c 0,0 0,0 0,0 -0.03,0.1 -0.03,0.1 -0.03,0.1"
       fill="#000000" /><path
       id="path3303"
       d="m 976.8,229.1 c 0,0 -0.54,0.22 -0.8,0.13 -0.1,-0.03 -0.1,0.37 -0.1,0.57 0,0.1 -0.28,0.69 -0.5,0.6 -0.24,-0.1 -0.54,-0.46 -0.3,-0.7 0.1,-0.1 0.1,-0.43 0.1,-0.6 0,-0.1 -0.45,-3.56 0.6,-3.3 0.54,0.13 0.2,2.7 0.2,2.9 0,0.1 0.98,0.54 0.7,0.63 m -0.8,0.57 c 0,0 0,0 0,0 0,0 0,0 0,0"
       fill="#000000" /><path
       id="path3305"
       d="m 980.6,228.3 c 0,0 -0.44,0.22 -0.67,0.3 -1.7,0.6 -3.52,2.51 -5.13,1.7 -0.5,-0.25 0.72,-0.84 0.88,-0.89 1.6,-0.54 3.38,-2.38 4.82,-1.51 0.57,0.34 -0.31,0.61 -0.57,0.7 -1.55,0.54 -3.09,1.09 -4.64,1.63"
       fill="#000000" /><path
       id="path3307"
       d="m 981.23,229 c 0,0 -3.96,1.6 -4.43,0.2 -0.18,-0.55 1.62,-0.17 1.7,-0.16 0.86,0.09 1.58,-0.27 2.4,-0.54 0,0 0.39,0.55 0.2,0.7 -0.4,0.31 -1.22,0.32 -1.7,0.45"
       fill="#000000" /><path
       id="path3309"
       d="m 975.5,225.4 c 0,0 0.41,1.79 -0.2,2.2 -0.43,0.29 -0.49,-0.5 -0.48,-0.7 0.02,-0.42 -0.08,-1.16 0.08,-1.6 0.13,-0.37 0.48,-0.4 0.6,0 0.05,0.16 -0.02,0.44 -0.03,0.6 -0.01,0.3 -0.03,0.6 -0.04,0.9 -0.01,0.18 0.02,0.42 -0.03,0.6"
       fill="#000000" /><path
       id="path3311"
       d="m 975.3,224.4 c 0,0 -0.26,1.53 -0.38,2.3 -0.02,0.1 -0.32,1.04 -0.62,0.9 -0.39,-0.19 -0.23,-0.72 -0.13,-1 0.03,-0.1 -0.17,-3.1 0.63,-2.7 0.1,0.1 0.28,1.85 0.13,2.7"
       fill="#000000" /><path
       id="path3313"
       d="m 975.8,231.47 c 0,0 -0.55,0.03 -0.6,-0.17 -0.22,-0.87 -0.45,-1.73 -0.67,-2.6 -0.03,-0.1 -0.63,-0.9 -0.33,-1 0.2,0 -0.6,-2.1 0,-1.9 0.56,0.19 0.65,1.94 0.77,2.4 0.03,0.1 0.23,0.35 0.23,0.5 0,0.1 0.18,0.77 0.27,1.1 0.03,0.1 0.37,1.16 0.27,0.9 -0.04,-0.1 -0.1,0.93 -0.34,0.75"
       fill="#000000" /><path
       id="path3315"
       d="m 978.2,226.9 c 0,0 -0.72,-0.16 -0.85,-0.45 -0.82,-1.77 -1.61,-3.64 -2.53,-5.38 -0.81,-1.55 -1.63,-3.09 -2.44,-4.64 -0.09,-0.16 -0.43,-0.63 -0.28,-0.83 0.33,-0.44 0.67,0.34 0.77,0.54 1.69,3.37 3.37,6.75 5.06,10.12 0.09,0.18 0.41,0.63 0.27,0.84"
       fill="#000000" /><path
       id="path3317"
       d="m 977.77,225.7 c 0,0 -0.3,0.38 -0.47,0.3 -0.82,-0.37 -1.03,-2.54 -1.46,-3.44 -1.23,-2.54 -2.45,-5.08 -3.68,-7.62 -0.1,-0.2 -0.53,-0.9 -0.06,-0.94 0.34,-0.03 0.45,0.4 0.56,0.64 1.43,2.91 2.85,5.81 4.28,8.72 0.25,0.51 1.28,2.41 0.56,2.59"
       fill="#000000" /><path
       id="path3319"
       d="m 977.1,228.1 c 0,0 -0.71,-0.32 -0.87,-0.64 -1.49,-2.97 -2.97,-5.95 -4.46,-8.92 -0.08,-0.16 -0.57,-1.14 0.03,-1.04 0.21,0.03 0.39,0.57 0.48,0.74 1.55,2.97 3.09,5.95 4.64,8.92 0.13,0.25 0.59,1.04 -0.02,1.04"
       fill="#000000" /><path
       id="path3321"
       d="m 975.1,226.53 c 0,0 -0.23,0.43 -0.4,0.37 -2.18,-0.82 -1.82,-4.28 -2.68,-6.44 -0.09,-0.23 -0.35,-0.63 -0.12,-0.86 0.42,-0.42 0.72,0.4 0.82,0.67 0.72,1.85 1.44,3.71 2.16,5.56 0.12,0.31 0.45,0.91 0.02,1.02"
       fill="#000000" /><path
       id="path3323"
       d="m 932.4,177 c 0,0 0,0 0,0 m -14.9,-3.46 c 0,0 -0.27,-0.16 -0.4,-0.24 0,0 0.05,0.2 0.07,0.3 0.03,0.1 0.23,0.05 0.33,0.03 m 1.4,0.87 c 0,0 -0.93,-0.06 -1.4,-0.09 -0.1,-0.01 -0.1,-0.01 -0.1,-0.01 0,0.1 1.2,0.23 1.8,0.29 m 0.2,1.41 c 0,0 0.33,0.11 0.5,0.17 m 1.2,-0.57 c 0,0 0,0 0,0 m 0.8,0.5 c 0,0 0,0 0,0 0,0 0,0 0,0 m 5.4,0.9 c 0,0 0,0 0,0 0,0 0,0 0,0 m 5.2,-0.05 c 0,0 0.1,0.01 0.1,0.05 -0.1,0 0.03,0.38 -0.1,0.45 -0.1,0.05 0.33,0.22 0.53,0.33 1.78,0.91 3.56,1.83 5.34,2.75 0.37,0.19 1.32,0.73 1.43,1.17 0.19,0.8 -1.47,-0.06 -1.7,-0.16 -0.1,-0.04 0.95,0.72 1.42,1.17 1.01,0.98 2.45,1.92 3.19,3.17 0.15,0.27 1.15,1.46 0.79,1.82 -0.32,0.32 -0.71,-0.34 -0.9,-0.55 -1.01,-1.14 -2.1,-2.62 -3.37,-3.62 -3.62,-2.87 -7.83,-4.22 -11.84,-6.48 -0.09,-0.05 -0.17,-0.38 -0.19,-0.55 0,-0.1 -0.62,-0.43 -0.92,-0.61 -0.4,-0.24 -3.42,-1.57 -3.83,-2.39 -0.05,-0.1 -0.73,-0.39 -1.06,-0.55 -0.09,-0.05 1.13,0.9 1.73,1.38 0.94,0.73 3.52,1.81 3.48,2.97 -0.02,0.64 -0.77,0.24 -1.02,0.1 -1.12,-0.64 -2.6,-1.71 -3.98,-2.17 -0.1,-0.03 -0.3,0.55 -0.5,0.47 -0.1,-0.1 -0.63,-0.23 -0.9,-0.28 -0.1,-0.02 2.46,0.92 1.8,1.32 -0.1,0.06 -0.1,0.06 -0.1,0.06 0,0 -1,0.2 -1.5,0.2 -0.96,0 -1.63,-0.44 -2.51,-0.86 -0.09,-0.04 -0.42,0.63 -0.59,0.46 -0.1,-0.1 -0.17,-0.1 -0.2,-0.1 0,0 -0.25,-1 -0.38,-1.5 -0.02,-0.1 -0.02,-0.1 -0.02,-0.1 -0.1,0 -1.42,-2.03 -1.2,-3.1 0.09,-0.43 0.58,-0.5 0.67,-0.1 0.03,0.1 0.03,0.1 0.03,0.1 0,0 0,-0.13 0,-0.2 0,-0.1 0,-0.17 0,-0.2 0,0 0.46,-0.49 0.55,-0.3 0.05,0.1 0.15,0.23 0.15,0.3 0,0.1 0,0.1 0,0.1 0,0 0,0.47 0,0.7 0,0.1 1.56,0.97 2.31,1.45 0.09,0.05 0.97,0.11 1.39,0.25 0.95,0.32 1.82,0.97 2.71,1.45 0.09,0.05 -0.23,-0.2 -0.38,-0.32 -1.45,-1.12 -2.9,-2.25 -4.35,-3.37 -0.08,-0.06 -0.28,-0.26 -0.38,-0.36 -0.1,-0.1 -0.17,-0.1 -0.2,-0.1 0,0 0,0 0,0 0,-0.1 -0.16,-0.38 -0.1,-0.5 0.1,0 0.08,-0.08 0.1,-0.1 0.1,0 0.17,0 0.2,0 0.1,0 0.54,0.17 0.75,0.27 1.22,0.59 2.44,1.19 3.66,1.79 0.09,0.04 0.89,0.17 1.29,0.24 0.69,0.11 1.27,0.39 1.91,0.66 0.09,0.04 4.17,0.87 3.46,1.94 -0.07,0.1 2.04,0.85 3.04,1.35 0.09,0.05 0.16,0.08 0.19,0.1"
       fill="#000000" /><path
       id="path3325"
       d="m 945.2,193.1 c 0,0 -0.68,0.04 -0.84,-0.19 -1.37,-1.97 -2.75,-3.95 -4.12,-5.92 -1.06,-1.52 -2.4,-2.96 -3.55,-4.33 -0.55,-0.65 -3.5,-2.53 -2.79,-2.96 0.9,-0.54 5.37,4.83 5.4,4.86 0.27,0.3 0.51,0.6 0.74,0.93 1.61,2.34 3.21,4.68 4.82,7.02 0.13,0.19 0.47,0.53 0.34,0.79"
       fill="#000000" /><path
       id="path3327"
       d="m 947.7,192.67 c 0,0 -0.69,-0.15 -0.95,-0.37 -1.56,-1.41 -3.12,-2.82 -4.68,-4.23 -0.07,-0.07 0.44,0.59 0.67,0.93 0.5,0.74 1.54,1.95 1.89,3 0.06,0.18 0.57,1.22 0.27,1.4 -0.66,0.4 -1.02,-1.37 -1.2,-1.7 -0.52,-0.97 -2.01,-2.89 -2.15,-3.1 -1.66,-2.38 -3.79,-3.91 -6.07,-5.64 -0.08,-0.06 -0.41,-0.28 -0.58,-0.4 -1.28,-0.86 -2.76,-1.71 -3.96,-2.76 -0.05,-0.05 -1.42,-1 -1.24,-1.4 0.31,-0.68 1.78,0.55 2.12,0.78 2.39,1.54 3.58,2.46 5.7,4.35 0.08,0.07 1.74,1.15 2.52,1.75 1.55,1.21 3.32,2.3 4.67,3.76 0.86,0.94 1.72,1.88 2.58,2.82 0.16,0.16 0.86,1.16 0.11,0.91"
       fill="#000000" /><path
       id="path3329"
       d="m 920.1,173.1 c 0,0 -1.53,-2.1 -2.12,-3.26 -0.08,-0.16 -0.59,-1.14 0.02,-1.04 0.96,0.16 2.61,4.4 1.9,4.4"
       fill="#000000" /><path
       id="path3331"
       d="m 921.1,172.2 c 0,0 -0.38,0.33 -0.5,0.2 -1.01,-1.13 -0.94,-2.88 -1.41,-4.32 -0.12,-0.35 -0.62,-1.7 -0.29,-1.98 0.62,-0.52 1.97,5.24 2.02,5.42 0.06,0.2 0.35,0.82 0.08,0.91"
       fill="#000000" /><path
       id="path3333"
       d="m 923.77,172.3 c 0,0 -0.66,-0.2 -0.74,-0.48 -0.55,-1.88 -1.11,-3.76 -1.66,-5.64 -0.07,-0.25 -0.38,-1.18 0.23,-1.08 0.35,0.06 0.39,0.51 0.46,0.78 0.53,1.91 1.05,3.83 1.58,5.74 0.07,0.24 0.31,0.8 -0.04,0.91"
       fill="#000000" /><path
       id="path3335"
       d="m 928,174.93 c 0,0 -0.47,0.33 -0.6,0.17 -1.1,-1.34 -1.14,-3.29 -1.7,-4.93 -0.23,-0.65 0.34,-1.35 0.57,-0.67 0.03,0.1 0.03,0.1 0.03,0.1 0,0 0.13,0.39 0.19,0.58 0.44,1.35 0.88,2.69 1.32,4.04 0.07,0.22 0.38,0.92 0.09,1.01"
       fill="#000000" /><path
       id="path3337"
       d="m 931.27,176.1 c 0,0 -0.47,0.26 -0.57,0.1 -1.01,-1.63 -0.84,-3.74 -1.27,-5.61 -0.06,-0.29 -0.3,-0.94 0.27,-0.89 0.28,0.02 0.29,0.48 0.33,0.69 0.38,1.67 0.76,3.35 1.14,5.02 0.05,0.25 0.27,0.81 -0.07,0.92"
       fill="#000000" /><path
       id="path3339"
       d="m 936.67,182 c 0,0 -0.65,-0.21 -0.73,-0.49 -0.67,-2.53 -1.34,-5.07 -2.01,-7.61 -0.03,-0.1 0.31,-0.77 0.47,-0.6 1.93,1.99 1.43,5.35 2.14,8.02 0.07,0.25 0.31,0.8 -0.04,0.91"
       fill="#000000" /><path
       id="path3341"
       d="m 941.17,185 c 0,0 -0.73,-0.26 -0.81,-0.59 -0.54,-2.31 -1.08,-4.61 -1.62,-6.92 -0.06,-0.25 -0.38,-1.39 0.06,-1.39 0.34,0 0.39,0.66 0.44,0.89 0.61,2.44 1.21,4.88 1.82,7.32 0.06,0.25 0.29,0.81 -0.06,0.92"
       fill="#000000" /><path
       id="path3343"
       d="m 944.55,188.5 c 0,0 -0.59,-0.39 -0.63,-0.7 -0.26,-2 -0.46,-4.09 -0.83,-6.1 -0.18,-1.02 -1.11,-3.27 -0.09,-3.1 0.37,0.06 0.34,0.52 0.38,0.8 0.38,2.8 0.76,5.6 1.14,8.4 0.03,0.25 0.2,0.73 -0.12,0.83"
       fill="#000000" /><path
       id="path3345"
       d="m 946.75,181.8 c 0,0 -0.06,0.24 -0.15,0.3 -0.1,0 -1.15,1.72 -1.92,2.33 -0.08,0.07 -0.68,0.18 -0.78,-0.03 -0.1,-0.21 0.15,-0.53 0.3,-0.6 0,0 0.55,-0.31 0.7,-0.57 0.35,-0.61 0.64,-1.17 1.13,-1.66 0.07,-0.07 0.6,-0.47 0.67,-0.27 0,0.2 0.02,0.55 -0.05,0.7 m -2.05,2.5 c 0,0 0,0 0,0 0,0 0,0 0,0 m 2.1,-2.7 c 0,0 0.13,0 0.1,0"
       fill="#000000" /><path
       id="path3347"
       d="m 948.57,192.2 c 0,0 -0.47,0.26 -0.57,0.1 -1.1,-1.8 -1.26,-5.76 -1.49,-6.81 -0.11,-0.49 -0.77,-2.76 -0.11,-2.79 0.34,-0.02 0.38,0.57 0.42,0.79 0.55,2.67 1.11,5.35 1.66,8.02 0.05,0.25 0.26,0.81 -0.08,0.92"
       fill="#000000" /><path
       id="path3349"
       d="m 952.1,195.8 c 0,0 -0.41,0.25 -0.5,0.1 -0.44,-0.72 -0.46,-1.85 -0.6,-2.7 -0.35,-2.07 -0.59,-5.28 -0.73,-6.5 -0.05,-0.47 -0.82,-4.17 0.16,-2.7 0.07,0.1 0.55,1.62 0.64,2.4 0.32,2.9 0.64,5.8 0.96,8.7 0.03,0.21 0.19,0.86 -0.03,0.93 m -1.5,-11.93 c 0,0 0,0 0,0"
       fill="#000000" /><path
       id="path3351"
       d="m 956.4,195.45 c 0,0 -0.54,-0.36 -0.58,-0.65 -0.25,-1.8 -0.49,-3.6 -0.74,-5.4 -0.03,-0.26 -0.23,-0.96 0.22,-1 0.51,-0.04 0.53,0.86 0.57,1.2 0.19,1.73 0.37,3.47 0.56,5.2 0.03,0.23 0.15,0.92 -0.33,0.8"
       fill="#000000" /><path
       id="path3353"
       d="m 960.67,198 c 0,0 -0.48,0.27 -0.57,0.1 -0.66,-1.19 -0.63,-5.79 -0.69,-6.3 -0.03,-0.29 -1.07,-2.64 -0.21,-2.5 0.67,0.11 0.9,1.91 0.95,2.5 0.17,1.83 0.33,3.67 0.5,5.5 0.02,0.25 0.16,0.83 -0.15,0.93"
       fill="#000000" /><path
       id="path3355"
       d="m 964.77,204.1 c 0,0 -0.61,-0.39 -0.64,-0.7 -0.39,-3.13 -0.77,-6.27 -1.16,-9.4 -0.03,-0.27 -0.17,-1.23 0.43,-1 1.11,0.42 0.83,3.74 0.95,5.2 0.13,1.73 0.27,3.47 0.4,5.2 0.02,0.21 0.15,0.9 -0.15,0.9"
       fill="#000000" /><path
       id="path3357"
       d="m 967.13,207.8 c 0,0 -0.54,-0.4 -0.56,-0.7 -0.12,-2.63 -0.24,-5.27 -0.37,-7.9 -0.01,-0.3 -0.89,-3.49 -0.1,-3.3 0.76,0.18 0.8,2.47 0.82,3.2 0.09,2.67 0.17,5.33 0.26,8 0.01,0.25 0.11,0.9 -0.28,0.9"
       fill="#000000" /><path
       id="path3359"
       d="m 970.47,211.3 c 0,0 -0.59,-0.32 -0.6,-0.6 -0.15,-2.5 -0.29,-5 -0.44,-7.5 -0.03,-0.63 -0.86,-2.95 -0.13,-3.1 0.66,-0.14 0.71,1.47 0.73,1.9 0.15,2.87 0.29,5.73 0.44,8.6 0.01,0.21 0.13,0.9 -0.17,0.9"
       fill="#000000" /><path
       id="path3361"
       d="m 974.97,217.3 c 0,0 -0.55,0.29 -0.67,0.1 -0.9,-1.45 -0.07,-4.17 -0.26,-6.1 -0.16,-1.7 -0.32,-3.4 -0.48,-5.1 -0.04,-0.38 -0.19,-0.94 0.34,-1 0.45,-0.05 0.43,0.58 0.46,0.9 0.41,4.26 0.55,6.32 0.63,10.5 0,0.25 0.1,0.84 -0.19,0.93"
       fill="#000000" /><path
       id="path3363"
       d="m 978.9,221.7 c 0,0 -0.51,-0.41 -0.52,-0.7 -0.09,-2.57 -0.17,-5.13 -0.26,-7.7 -0.02,-0.57 -0.65,-3 -0.02,-3 0.61,0 0.7,1.71 0.71,2.2 0.06,2.83 0.12,5.67 0.18,8.5 0,0.33 0.1,0.7 -0.29,0.83"
       fill="#000000" /><path
       id="path3365"
       d="m 982.1,226.1 c 0,0 -0.6,-0.54 -0.61,-0.9 -0.03,-2.2 -0.06,-4.4 -0.09,-6.6 0,-0.25 -0.61,-3.02 0.2,-2.7 0.57,0.23 0.6,2.15 0.6,2.71 0,2.26 0,4.52 0,6.78 0,0.27 0.1,0.81 -0.3,0.81"
       fill="#000000" /><path
       id="path3367"
       d="m 986.89,216 c 0,0 -0.6,4.27 -0.45,6.4 0.07,1.03 0.15,2.07 0.22,3.1 0.02,0.27 0.21,1.1 -0.26,1.1 -0.37,0 -0.34,-0.56 -0.37,-0.8 -0.47,-4.24 -0.4,-4.23 0.02,-8.8 0.03,-0.41 -0.23,-2.48 0.25,-2.4 0.6,0.1 0.59,1.47 0.55,1.9 -0.37,4.34 -0.45,5.33 -0.16,9.4"
       fill="#000000" /><path
       id="path3369"
       d="m 992,223.6 c 0,0 -0.84,-0.78 -0.9,-1.3 -0.2,-1.86 0.06,-3.73 0.09,-5.6 0.01,-0.38 -0.32,-2.4 0.21,-2.4 0.55,0 0.6,1.26 0.6,1.61 0,2.39 0,4.79 0,7.19 0,0.1 -0.21,0.58 -0.4,0.54 m 0.3,-0.54 c 0,0 0,0 0,0"
       fill="#000000" /><path
       id="path3371"
       d="m 996.69,214.5 c 0,0 -0.36,4.8 -0.54,7.2 -0.02,0.19 0.02,0.77 -0.15,0.9 -0.5,0.37 -0.47,-0.71 -0.45,-0.9 0.14,-1.9 0.29,-3.8 0.43,-5.7 0.05,-0.63 -0.54,-2.04 -0.08,-2.5 0.64,-0.64 0.78,1.21 0.75,1.5 -0.18,2.47 0.2,5.05 -0.58,7.4"
       fill="#000000" /><path
       id="path3373"
       d="m 1002.5,209.6 c 0,0 -0.02,0.33 -0.02,0.5 -0.12,3.07 -0.24,6.13 -0.36,9.2 0,0.19 0.06,0.77 -0.12,0.9 -0.47,0.36 -0.51,-0.59 -0.51,-0.8 -0.03,-1.67 -0.05,-3.33 -0.08,-5 -0.02,-1.52 -0.18,-3.55 0.49,-4.9 0.13,-0.25 0.53,-0.31 0.6,0 0.04,0.17 -0.02,0.42 -0.02,0.6 -0.12,3.07 -0.24,6.13 -0.36,9.2 -0.01,0.23 0.02,0.48 -0.05,0.7"
       fill="#000000" /><path
       id="path3375"
       d="m 1006.6,217.5 c 0,0 -0.34,0.42 -0.5,0.3 -0.25,-0.19 -0.2,-0.93 -0.21,-1.2 -0.04,-2.66 -0.01,-5.19 -0.18,-7.8 -0.01,-0.1 0.56,-0.62 0.69,-0.4 1.3,2.22 1.06,6.53 0.17,9.2"
       fill="#000000" /><path
       id="path3377"
       d="m 1010.59,206.3 c 0,0 -0.25,1.73 -0.35,2.6 -0.19,1.63 -0.38,3.27 -0.57,4.9 -0.03,0.23 0.01,0.71 -0.27,0.8 -0.52,0.17 -0.37,-0.43 -0.34,-0.7 0.23,-2.33 0.45,-4.67 0.68,-7 0.02,-0.14 0,-1.06 0.06,-1.1 1.2,-0.8 0.64,1.55 0.58,2 -0.05,0.4 -0.1,0.8 -0.15,1.2 -0.2,1.73 -0.4,3.47 -0.61,5.2"
       fill="#000000" /><path
       id="path3379"
       d="m 1013.1,208.5 c 0,0 -0.12,4.93 -0.19,7.4 0,0.27 0.08,0.66 -0.21,0.8 -0.49,0.25 -0.4,-0.66 -0.39,-0.9 0.03,-2.27 0.05,-4.53 0.08,-6.8 0,-0.17 -0.07,-0.79 0.11,-0.9 0.59,-0.36 0.59,0.61 0.59,0.9 -0.07,2.5 0.95,5.27 -0.19,7.5"
       fill="#000000" /><path
       id="path3381"
       d="m 949.7,133.2 c 0,0 0,0 0,0 m -0.1,0.07 c 0,0 -0.2,0.16 -0.3,0.23 0,0 -1.17,2.63 -1.8,2 -0.51,-0.51 1.25,-2.54 1.7,-2.9 0,0 2.02,-2 2.74,-3.2 0.06,-0.1 0.18,-0.52 0.36,-0.6 0.1,0 0.1,0 0.1,0 0.1,0 0.49,0.14 0.6,0.3 0,0 0,0 0,0 0,0 0,0 0,0 0,0.2 -0.04,0.19 -0.05,0.2 -0.05,0.1 -0.07,0.34 -0.15,0.4 -0.1,0 -1.01,1.47 -1.6,2.1 -0.27,0.29 -1.67,1.19 -1.6,1.4"
       fill="#000000" /><path
       id="path3383"
       d="m 949.87,144.2 c 0,0 -1.17,-0.2 -1.57,-0.6 -1.23,-1.23 -2.6,-1.41 -2.6,-3.3 0,-0.1 -0.88,-0.26 -1.3,-0.4 -0.76,-0.25 -2.6,-0.6 -2.78,-1.5 -0.02,-0.1 -1.42,0.79 -1.42,0.3 0,-1.01 2.34,-2.54 2.11,-0.5 -0.01,0.1 1.34,0.62 2.01,0.88 1.27,0.49 1.94,0.44 2.17,2.02 0.01,0.1 0.77,0.54 1.11,0.8 0.6,0.46 1.03,1.1 1.59,1.57 0.13,0.11 1.11,0.93 0.51,0.93"
       fill="#000000" /><path
       id="path3385"
       d="m 965.67,156.7 c 0,0 -1.08,0.03 -1.53,-0.22 -0.88,-0.46 -1.51,-1.12 -2.28,-1.79 -0.68,-0.58 -3.63,-3.59 -4.36,-3.59 -0.1,0 -0.52,0.05 -0.6,-0.1 -0.16,-0.31 0.36,-0.54 0.6,-0.6 0.93,-0.23 1.14,0.42 1.55,1.11 0.05,0.09 1.21,0.78 1.7,1.23 1.04,0.95 2.01,1.83 3.13,2.65 0.4,0.29 2.22,1.17 1.62,1.58"
       fill="#000000" /><path
       id="path3387"
       d="m 945.9,148.7 c 0,0 -1.43,0.11 -2.1,-0.1 -0.98,-0.32 -2.07,-1.52 -2.92,-2.14 -0.08,-0.06 -0.77,-1.65 -1.48,-1.66 -0.31,-0.01 -1.6,1.88 -1.6,0.9 0,-2.32 2.65,-1.5 3.35,-0.1 0.05,0.1 0.58,0.65 0.89,0.88 0.63,0.45 1.25,0.91 1.88,1.36 0.08,0.06 2.42,0.96 1.78,0.96 m -4.9,-2.4 c 0,0 0,0 0,0 0,0 0,0 0,0"
       fill="#000000" /><path
       id="path3389"
       d="m 958.5,157.6 c 0,0 -0.13,0.39 -0.3,0.4 -0.59,0.04 -1.47,-0.91 -2.01,-1.25 -0.58,-0.35 -0.83,-1.19 -1.39,-1.55 -0.8,-0.52 -1.85,-0.27 -2.71,-0.75 -0.09,-0.05 -0.54,-0.61 -0.39,-0.85 0.18,-0.3 0.53,-0.15 0.65,0.1 0.05,0.1 1.61,0.42 2.35,0.7 1.24,0.46 1.51,1.78 2.5,2.5 0.2,0.14 1.82,0.55 1.2,0.97 M 952,154.4 c 0,0 0,0 0,0 0,0 0,0 0,0"
       fill="#000000" /><path
       id="path3391"
       d="m 965.1,167.45 c 0,0 -2.79,-1.07 -2.4,-2.05 0.36,-0.91 3.58,2.2 2,2.2"
       fill="#000000" /><path
       id="path3393"
       d="m 943.6,156.2 c 0,0 -1.76,-0.48 -2.56,-0.91 -0.72,-0.38 -1.23,-1.15 -1.94,-1.49 -0.28,-0.14 -2.19,-0.14 -1.9,-0.6 1.09,-1.74 5.42,2.16 5.71,2.36 0.16,0.11 1.08,0.71 0.59,0.87"
       fill="#000000" /><path
       id="path3395"
       d="m 949.15,159.2 c 0,0 -0.76,0.01 -1.05,-0.2 -0.55,-0.4 -1.26,-1.14 -1.65,-1.49 -0.15,-0.14 -0.89,-0.76 -0.45,-1.01 0.49,-0.28 3.25,2.72 3.1,2.8"
       fill="#000000" /><path
       id="path3397"
       d="m 961.63,169.3 c 0,0 -1.32,-0.58 -1.89,-1.01 -0.56,-0.43 -1.57,-0.32 -2.04,-0.89 -0.4,-0.49 -0.48,-1.2 -0.93,-1.72 -0.07,-0.08 -0.14,-0.95 0.13,-0.88 0.73,0.18 1.17,1.44 1.45,2.01 0.05,0.09 0.74,0.23 1.05,0.39 0.62,0.32 1.35,1.04 1.79,1.39 0.18,0.13 0.81,1.08 0.21,0.88 m -4.7,-3.87 c 0,0 0,0 0,0"
       fill="#000000" /><path
       id="path3399"
       d="m 989.55,168.1 c 0,0 -2.19,-0.93 -3.35,-1.17 -1.81,-0.38 -3.53,0.36 -5.2,0.94 -0.1,0.03 -0.92,-0.05 -0.8,-0.27 0.74,-1.31 4.09,-1.67 5.5,-1.6 0.54,0.03 4.6,1.14 3.8,2.2"
       fill="#000000" /><path
       id="path3401"
       d="m 1005.75,175.7 c 0,0 -0.16,0.3 -0.3,0.3 -0.15,0 -0.05,0.05 -0.05,0.1 -0.1,0 -0.18,0.02 -0.2,0 0,-0.1 0,-0.1 0,-0.1 0,0 0,0 0,0 -0.1,0 -0.84,-0.37 -1.21,-0.55 -0.09,-0.05 -1.32,-0.67 -1.94,-0.97 -1.19,-0.6 -2.44,-1.31 -3.75,-1.55 -0.43,-0.08 -3.18,-0.49 -2.5,-1.13 0.39,-0.37 1.19,0.51 1.4,0.3 0.54,-0.54 2.51,0.5 2.92,0.67 1.68,0.67 3.68,2.43 5.28,2.43 0.1,0.1 0.1,0.2 0.1,0.2 0,0 0.28,0.51 0.1,0.6"
       fill="#000000" /><path
       id="path3403"
       d="m 1012.13,181.48 c 0,0 -2.71,-0.64 -2.33,-1.48 0.28,-0.63 2.77,1.16 2,0.9 0,0 0.02,0.77 -0.2,0.68"
       fill="#000000" /><path
       id="path3405"
       d="m 986.7,173.55 c 0,0 -1.12,0.25 -1.69,0.25 -0.11,0 -0.51,0.11 -0.71,0.17 -0.1,0.03 -1.5,-0.88 -2.2,-1.34 -0.72,-0.48 -1.33,-0.91 -2.2,-1.02 -0.1,-0.01 -0.84,0.06 -0.9,-0.21 -0.08,-0.35 0.41,-0.65 0.7,-0.7 1.53,-0.27 3.83,1.87 4.82,2.54 0.08,0.06 0.29,-0.1 0.4,-0.18 0.08,-0.06 2.24,0.49 1.68,0.67 m -2.4,0.27 c 0,0 0,0 0,0 0,0 0,0 0,0 m 0.8,-1 c 0,0 0,0 0,0"
       fill="#000000" /><path
       id="path3407"
       d="m 1002,182.8 c 0,0 -1.45,-0.77 -2.22,-1.06 -0.57,-0.21 -1.26,0.07 -1.78,-0.14 -0.75,-0.31 -1.3,-1.35 -2.1,-1.75 -0.46,-0.23 -2.4,0.44 -2.4,-0.15 0,-0.6 1,-0.68 1.4,-0.62 1.75,0.3 1.82,0.32 3.42,1.75 0.08,0.07 1.39,-0.17 1.98,0.07 0.4,0.17 1.96,1.73 1.6,1.97 m -3.5,-1.97 c 0,0 0,0 0,0"
       fill="#000000" /><path
       id="path3409"
       d="m 985.8,180.4 c 0,0 -1,-0.27 -1.45,-0.51 -0.92,-0.49 -1.78,-1.08 -2.66,-1.64 -0.09,-0.05 -1.37,0.2 -1.99,0.05 -0.9,-0.22 -1.41,-0.8 -2.4,-0.89 -0.1,-0.01 -0.45,0.57 -0.7,0.49 -0.27,-0.09 -0.2,-0.47 -0.2,-0.68 0,-0.12 1.34,-0.7 2,-0.52 2.14,0.59 3.7,0.88 5.67,2.08 0.35,0.21 2.13,1.22 1.73,1.62 m -9.4,-3.3 c 0,0 0,0 0,0"
       fill="#000000" /><path
       id="path3411"
       d="m 992.75,186.6 c 0,0 -0.61,0.02 -0.84,-0.15 -0.97,-0.7 -1.95,-1.4 -2.92,-2.1 -0.19,-0.14 -0.84,-0.51 -0.59,-0.85 0.82,-1.09 4.78,3.04 4.2,3.23"
       fill="#000000" /><path
       id="path3413"
       d="m 958.7,139.2 c 0,0 0,0 0,0 m 0.2,0 c 0,0 -0.64,-0.24 -0.87,-0.47 -0.47,-0.47 -0.94,-1.24 -1.53,-1.53 -0.49,-0.24 -2.13,0.12 -2.5,-0.4 -0.59,-0.84 -1.8,-1.9 -2.25,-2.8 -0.05,-0.1 -0.66,0.11 -0.75,-0.1 -0.16,-0.37 0.49,-0.85 0.8,-0.7 1.29,0.64 1.94,1.74 2.74,2.92 0.06,0.08 1.66,0.05 2.36,0.38 0.64,0.3 2.06,1.61 2,1.9 -0.05,0.26 0.72,0.73 0.6,0.5 -0.05,-0.11 1.1,0.08 1.2,0.3 0.29,0.64 -1.67,0.33 -1.92,0.08"
       fill="#000000" /></g></svg>
