<?xml version="1.0" encoding="UTF-8" standalone="no"?>
<!DOCTYPE svg PUBLIC "-//W3C//DTD SVG 1.1//EN" "http://www.w3.org/Graphics/SVG/1.1/DTD/svg11.dtd">
<svg width="461.04" height="312.48" viewBox="0.00 0.00 1921.00 1302.00" xmlns="http://www.w3.org/2000/svg" xmlns:xlink="http://www.w3.org/1999/xlink">
<g stroke-linecap="round" transform="translate(-355.00, -163.00)" id="Layer_2">
<path d="M381.97,1330.60 C380.76,1330.24 379.46,1328.34 379.53,1326.68 C379.70,1323.86 382.91,1315.39 384.58,1312.59 C391.44,1301.10 403.79,1286.16 419.43,1268.08 C429.26,1256.84 450.90,1232.18 462.70,1218.76 C473.76,1205.79 499.65,1174.80 504.72,1168.21 C515.10,1154.32 533.13,1128.38 540.74,1116.00 C548.19,1103.47 562.98,1076.98 569.72,1064.08 C575.84,1051.63 588.08,1025.94 594.19,1012.69 C597.21,1005.75 603.01,990.89 605.77,982.97 C611.12,966.44 619.33,933.87 623.00,915.58 C625.74,900.53 630.77,868.33 633.06,851.19 C637.03,816.33 644.29,753.74 647.59,726.01 C652.86,684.94 661.30,638.05 666.25,602.86 C667.24,595.26 669.27,579.70 670.32,571.74 C671.59,563.73 674.70,547.75 676.53,539.78 C679.31,528.79 683.04,516.66 685.56,509.15 C688.25,501.60 694.21,486.37 697.47,478.68 C700.88,471.02 707.85,456.41 711.40,449.46 C715.01,442.75 722.59,429.55 727.25,422.46 C732.88,414.20 742.55,401.61 747.87,395.62 C758.02,384.66 775.66,365.90 790.05,352.37 C798.07,345.15 818.06,328.25 835.44,315.15 C851.21,303.63 868.72,291.92 887.26,281.05 C903.48,272.02 928.24,260.04 944.54,253.16 C958.47,247.60 988.78,236.43 1003.90,231.40 C1022.48,225.74 1051.31,218.59 1067.68,215.56 C1082.60,213.11 1109.91,208.71 1127.94,206.30 C1142.62,204.64 1161.62,202.52 1183.27,200.70 C1197.72,199.52 1236.46,197.57 1248.80,197.25 C1262.68,197.01 1292.48,196.62 1308.40,196.47 C1325.56,196.63 1360.72,197.37 1378.72,197.95 C1394.86,198.80 1427.40,200.79 1443.81,201.93 C1460.84,203.36 1494.21,206.39 1510.55,207.99 C1525.36,209.69 1553.85,213.16 1573.08,215.97 C1596.40,219.90 1624.06,225.93 1638.26,229.20 C1674.95,237.71 1723.41,250.54 1747.77,257.60 C1751.69,258.73 1786.95,269.85 1799.59,273.89 C1812.59,278.15 1849.21,291.97 1864.40,298.22 C1880.06,305.03 1907.50,317.12 1919.29,322.41 C1930.56,327.85 1947.29,336.74 1970.01,349.51 C1984.71,358.15 2001.29,368.65 2015.92,378.58 C2025.35,384.83 2028.71,387.32 2037.61,394.49 C2056.05,409.74 2071.64,424.48 2081.41,433.74 C2092.33,444.20 2113.54,468.11 2123.41,479.54 C2129.24,486.63 2146.03,509.14 2160.65,531.42 C2165.06,538.16 2182.79,569.46 2185.20,574.65 C2192.05,589.55 2206.90,622.89 2210.56,633.56 C2214.76,646.36 2222.49,676.30 2226.15,691.23 C2227.67,697.42 2234.45,742.86 2234.98,749.70 C2235.24,753.15 2234.84,792.58 2234.21,804.64 C2233.39,816.69 2229.89,847.75 2228.17,862.17 C2225.90,878.34 2218.42,914.86 2214.44,930.16 C2210.66,943.99 2201.73,973.61 2196.98,988.84 C2191.66,1004.73 2180.17,1035.45 2174.01,1050.22 C2165.99,1068.12 2152.31,1095.03 2143.72,1109.84 C2134.94,1124.42 2116.27,1151.61 2107.19,1164.11 C2102.77,1169.95 2094.06,1181.21 2089.77,1186.63 C2086.00,1191.26 2072.68,1206.24 2066.43,1212.79 C2055.98,1223.18 2032.84,1243.03 2022.83,1251.54 C2019.05,1254.75 1981.58,1283.13 1974.49,1287.84 C1961.93,1296.05 1935.45,1312.90 1923.81,1319.68 C1907.01,1329.22 1881.27,1342.50 1866.39,1349.17 C1852.27,1355.20 1822.34,1367.55 1806.51,1373.87 C1791.48,1379.55 1764.93,1388.89 1745.40,1394.82 C1734.65,1397.84 1695.21,1407.59 1688.68,1409.01 C1674.63,1411.91 1646.41,1417.42 1630.72,1419.90 C1613.38,1422.24 1583.87,1425.02 1568.30,1426.36 C1551.32,1427.53 1518.20,1429.56 1502.07,1430.42 C1494.24,1430.76 1457.57,1431.09 1443.15,1431.07 C1428.17,1430.70 1393.29,1428.76 1375.07,1427.56 C1346.27,1424.74 1284.46,1418.21 1250.84,1413.85 C1234.41,1411.33 1201.78,1405.91 1185.57,1403.01 C1168.57,1399.41 1134.82,1391.88 1118.25,1387.75 C1102.03,1383.33 1070.53,1374.41 1056.04,1369.92 C1042.35,1365.43 1014.38,1355.45 997.07,1347.91 C988.71,1344.03 973.43,1336.24 966.79,1332.33 C954.23,1324.65 929.18,1308.39 918.79,1300.69 C912.27,1295.69 900.45,1286.12 894.98,1281.37 C889.68,1276.51 879.64,1266.61 874.45,1260.72 C869.38,1254.76 857.19,1239.50 854.41,1236.24 C849.32,1230.31 838.16,1219.25 832.31,1214.48 C826.26,1209.59 812.98,1200.88 806.53,1197.28 C799.31,1193.28 785.77,1187.70 778.52,1185.85 C774.73,1184.89 757.65,1181.54 750.18,1180.88 C743.96,1180.40 722.90,1180.43 719.28,1180.79 C698.13,1183.02 677.22,1186.47 660.75,1190.92 C654.83,1192.64 642.65,1196.37 636.39,1198.36 C628.93,1200.88 617.20,1205.77 605.69,1211.17 C591.43,1218.28 560.80,1235.42 547.42,1243.12 C532.29,1252.30 501.93,1270.82 486.69,1280.16 C473.46,1287.98 443.40,1305.39 428.68,1313.21 C417.30,1318.99 405.06,1324.26 397.15,1326.94 C391.43,1328.81 382.27,1330.67 381.97,1330.60 Z" fill="none" stroke="rgb(255, 255, 255)" stroke-width="3.00" stroke-opacity="1.00" stroke-linejoin="miter"/>
<path d="M1074.10,606.62 L1045.04,606.00 L1038.97,613.18 L1025.72,628.85 L1020.47,635.05 L989.77,671.37 L955.83,711.50 L944.57,724.82 L910.63,764.96 L831.70,858.29 L826.14,900.96 L856.28,901.48 L926.27,902.67 L970.83,903.43 L963.07,955.01 L955.38,1006.08 L973.72,1005.89 L1014.12,1005.46 L1024.48,941.77 L1030.82,902.82 L1062.35,902.81 L1067.62,861.58 L1069.77,844.69 L1039.47,843.45 L1042.75,821.04 L1045.80,800.18 L1055.93,730.91 L1069.54,637.81 L1072.51,617.51 L1074.10,606.62 Z" fill="none" stroke="rgb(255, 255, 255)" stroke-width="5.00" stroke-opacity="1.00" stroke-linejoin="miter"/>
<path d="M991.86,748.84 L978.26,842.83 L950.43,843.10 L930.53,843.29 L913.95,843.45 L919.17,837.11 L935.25,817.58 L947.91,802.22 L984.22,758.12 L991.86,748.84 Z" fill="none" stroke="rgb(255, 255, 255)" stroke-width="5.00" stroke-opacity="1.00" stroke-linejoin="miter"/>
<path d="M1598.48,604.76 L1572.50,604.14 L1410.02,795.67 L1398.68,809.02 L1384.43,825.82 L1364.73,849.05 L1357.93,857.06 L1353.99,885.83 L1353.65,888.31 L1351.75,902.20 L1365.29,902.26 L1407.73,902.44 L1415.74,902.47 L1435.29,902.56 L1495.21,902.82 L1479.13,1006.70 L1540.35,1006.70 L1555.81,903.43 L1587.35,902.20 L1596.62,845.31 L1564.47,844.07 L1598.48,604.76 Z" fill="none" stroke="rgb(255, 255, 255)" stroke-width="5.00" stroke-opacity="1.00" stroke-linejoin="miter"/>
<path d="M1517.47,747.61 L1502.63,843.45 L1437.08,844.69 L1517.47,747.61 Z" fill="none" stroke="rgb(255, 255, 255)" stroke-width="5.00" stroke-opacity="1.00" stroke-linejoin="miter"/>
<path d="M1840.76,600.37 L1906.54,601.22 L1893.04,702.40 L1855.97,840.81 L1842.45,891.29 L1824.74,890.22 L1814.62,889.60 L1816.44,815.61 L1817.99,752.16 L1840.76,600.37 Z" fill="none" stroke="rgb(255, 255, 255)" stroke-width="5.00" stroke-opacity="1.00" stroke-linejoin="miter"/>
<path d="M1937.73,627.36 L1954.60,613.02 L1981.58,603.75 L2006.04,599.53 L2031.34,601.22 L2052.41,610.50 L2066.75,623.99 L2078.55,640.85 L2082.77,661.93 L2084.46,682.17 L2083.61,704.94 L2078.55,726.02 L2070.12,745.41 L2059.16,763.96 L2043.14,779.98 L2022.05,804.44 L1995.91,833.95 L1983.27,850.82 L1975.68,877.80" fill="none" stroke="rgb(255, 255, 255)" stroke-width="5.00" stroke-opacity="1.00" stroke-linejoin="miter"/>
<path d="M1976.52,876.11 L1977.36,892.97 L1945.32,893.82 L1940.27,867.68 L1941.95,849.97 L1947.01,827.21 L1956.29,807.81 L1965.56,793.48 L1992.55,758.90 L2015.31,731.08 L2029.65,705.78 L2033.86,683.86 L2032.18,669.52 L2024.58,661.09 L2013.62,656.03 L2001.82,655.18 L1988.33,656.03 L1975.68,660.25 L1966.40,666.99 L1957.97,674.58 L1936.89,626.51" fill="none" stroke="rgb(255, 255, 255)" stroke-width="5.00" stroke-opacity="1.00" stroke-linejoin="miter"/>
<path d="M1824.02,922.79 C1827.36,923.20 1834.97,926.23 1838.22,928.45 C1841.29,930.59 1846.03,936.01 1847.87,938.90 C1849.75,941.90 1852.73,948.64 1853.59,952.29 C1854.45,956.06 1855.20,963.73 1855.10,967.70 C1854.97,971.56 1853.40,979.24 1852.17,982.89 C1850.91,986.53 1847.53,993.36 1845.35,996.27 C1843.08,999.23 1838.11,1004.11 1835.18,1006.24 C1832.26,1008.30 1825.10,1011.09 1821.21,1011.70 C1817.00,1012.29 1810.30,1011.52 1806.35,1009.97 C1802.70,1008.48 1796.37,1004.13 1794.00,1001.45 C1791.64,998.71 1787.92,992.82 1786.39,989.41 C1784.94,986.08 1783.21,978.66 1782.83,974.82 C1782.46,970.99 1782.70,963.16 1783.46,959.37 C1784.27,955.48 1786.76,948.19 1788.46,944.72 C1790.14,941.36 1794.58,935.49 1797.11,932.99 C1799.56,930.61 1805.41,926.41 1808.90,925.04 C1812.57,923.63 1820.67,922.42 1824.02,922.79 Z" fill="none" stroke="rgb(255, 255, 255)" stroke-width="5.00" stroke-opacity="1.00" stroke-linejoin="round"/>
<path d="M1250.65,713.81 C1253.60,714.71 1260.70,718.36 1263.85,720.61 C1266.90,722.83 1272.47,728.19 1274.65,731.17 C1276.90,734.29 1280.60,740.63 1282.27,744.22 C1283.88,747.71 1286.61,755.29 1287.49,759.05 C1289.25,766.65 1290.97,783.28 1290.78,790.89 C1290.59,797.49 1288.27,814.06 1286.46,821.74 C1284.64,829.37 1279.25,844.16 1275.85,851.35 C1272.08,859.27 1264.58,871.35 1259.02,878.17 C1256.43,881.33 1251.27,886.89 1248.35,889.68 C1245.54,892.32 1239.09,897.16 1235.83,899.19 C1232.46,901.27 1225.89,904.53 1222.29,905.90 C1218.83,907.19 1211.22,908.60 1207.46,908.77 C1203.60,908.92 1195.66,908.06 1192.70,907.19 C1189.75,906.29 1182.65,902.64 1179.51,900.39 C1176.46,898.18 1170.88,892.82 1168.70,889.84 C1166.46,886.72 1162.76,880.38 1161.09,876.79 C1159.48,873.30 1156.75,865.72 1155.86,861.96 C1154.11,854.35 1152.39,837.73 1152.58,830.12 C1152.77,823.51 1155.09,806.95 1156.90,799.27 C1158.72,791.64 1164.11,776.85 1167.51,769.66 C1171.28,761.74 1178.78,749.66 1184.34,742.84 C1186.93,739.68 1192.08,734.12 1195.01,731.33 C1197.82,728.68 1204.27,723.85 1207.53,721.82 C1210.90,719.74 1217.47,716.48 1221.06,715.11 C1224.53,713.82 1232.13,712.41 1235.90,712.24 C1239.76,712.09 1247.70,712.94 1250.65,713.81 Z" fill="none" stroke="rgb(255, 255, 255)" stroke-width="5.57" stroke-opacity="1.00" stroke-linejoin="round"/>
<path d="M1269.94,651.27 C1272.76,652.12 1280.49,655.56 1283.87,657.47 C1287.26,659.41 1293.80,664.00 1296.86,666.58 C1299.81,669.10 1305.53,674.87 1307.76,677.80 C1312.30,683.80 1319.77,696.72 1322.96,704.05 C1326.47,712.18 1330.23,724.93 1331.87,733.61 C1333.26,741.08 1335.00,756.93 1335.30,764.95 C1335.63,774.10 1334.74,788.60 1333.86,796.46 C1332.86,804.37 1330.00,820.34 1328.18,828.16 C1325.76,837.95 1321.36,851.14 1318.46,858.64 C1315.44,866.13 1308.65,880.78 1304.98,887.72 C1300.23,896.36 1291.94,908.76 1287.72,914.27 C1282.83,920.62 1272.42,932.29 1267.07,937.40 C1260.92,943.15 1248.75,952.12 1241.94,956.05 C1235.10,959.98 1220.47,966.18 1214.22,967.52 C1210.13,968.37 1202.30,969.32 1198.32,969.45 C1194.32,969.56 1186.54,969.05 1182.77,968.44 C1178.20,967.67 1172.56,965.98 1168.31,964.11 C1164.83,962.55 1158.06,958.69 1154.78,956.40 C1151.52,954.11 1145.50,949.01 1142.56,946.04 C1138.07,941.49 1129.26,928.27 1125.71,921.22 C1122.19,914.19 1116.95,900.00 1114.98,891.82 C1113.32,884.61 1111.05,869.14 1110.46,861.15 C1109.96,854.22 1109.85,839.31 1110.64,829.48 C1111.39,821.67 1113.78,805.70 1115.37,797.78 C1117.08,789.92 1120.66,776.48 1124.01,766.98 C1126.80,759.45 1133.20,744.53 1136.71,737.38 C1140.30,730.33 1147.53,717.73 1152.84,710.27 C1157.50,703.74 1167.67,691.46 1172.94,685.98 C1179.08,679.63 1189.23,671.06 1196.64,666.19 C1203.33,661.83 1216.68,655.15 1223.77,652.63 C1227.24,651.41 1235.19,649.73 1239.05,649.25 C1243.02,648.78 1251.00,648.55 1254.90,648.79 C1258.78,649.05 1267.12,650.43 1269.94,651.27 Z" fill="none" stroke="rgb(255, 255, 255)" stroke-width="9.08" stroke-opacity="1.00" stroke-linejoin="round"/>
<path d="M1966.02,924.79 C1969.36,925.20 1976.97,928.23 1980.22,930.45 C1983.29,932.59 1988.03,938.01 1989.87,940.90 C1991.75,943.90 1994.73,950.64 1995.59,954.29 C1996.45,958.06 1997.20,965.73 1997.10,969.70 C1996.97,973.56 1995.40,981.24 1994.17,984.89 C1992.91,988.53 1989.53,995.36 1987.35,998.27 C1985.08,1001.23 1980.11,1006.11 1977.18,1008.24 C1974.26,1010.30 1967.10,1013.09 1963.21,1013.70 C1959.00,1014.29 1952.30,1013.52 1948.35,1011.97 C1944.70,1010.48 1938.37,1006.13 1936.00,1003.45 C1933.64,1000.71 1929.92,994.82 1928.39,991.41 C1926.94,988.08 1925.21,980.66 1924.83,976.82 C1924.46,972.99 1924.70,965.16 1925.46,961.37 C1926.27,957.48 1928.76,950.19 1930.46,946.72 C1932.14,943.36 1936.58,937.49 1939.11,934.99 C1941.56,932.61 1947.41,928.41 1950.90,927.04 C1954.57,925.63 1962.67,924.42 1966.02,924.79 Z" fill="none" stroke="rgb(255, 255, 255)" stroke-width="5.00" stroke-opacity="1.00" stroke-linejoin="round"/>
</g>
</svg>
