<?xml version="1.0" encoding="UTF-8" standalone="no"?>
<svg
   xmlns:dc="http://purl.org/dc/elements/1.1/"
   xmlns:cc="http://creativecommons.org/ns#"
   xmlns:rdf="http://www.w3.org/1999/02/22-rdf-syntax-ns#"
   xmlns:svg="http://www.w3.org/2000/svg"
   xmlns="http://www.w3.org/2000/svg"
   xmlns:sodipodi="http://sodipodi.sourceforge.net/DTD/sodipodi-0.dtd"
   xmlns:inkscape="http://www.inkscape.org/namespaces/inkscape"
   inkscape:version="1.0 (4035a4f, 2020-05-01)"
   sodipodi:docname="cat.svg"
   id="svg602"
   height="59.404243"
   width="83.484398"
   version="1.1"
   xml:space="preserve"><metadata
     id="metadata608"><rdf:RDF><cc:Work
         rdf:about=""><dc:format>image/svg+xml</dc:format><dc:type
           rdf:resource="http://purl.org/dc/dcmitype/StillImage" /><dc:title></dc:title></cc:Work></rdf:RDF></metadata><defs
     id="defs606" /><sodipodi:namedview
     inkscape:current-layer="svg602"
     inkscape:window-maximized="0"
     inkscape:window-y="23"
     inkscape:window-x="0"
     inkscape:cy="96.684638"
     inkscape:cx="-303.9"
     inkscape:zoom="0.85069444"
     fit-margin-bottom="0"
     fit-margin-right="0"
     fit-margin-left="0"
     fit-margin-top="0"
     showgrid="false"
     id="namedview604"
     inkscape:window-height="480"
     inkscape:window-width="693"
     inkscape:pageshadow="2"
     inkscape:pageopacity="0"
     guidetolerance="10"
     gridtolerance="10"
     objecttolerance="10"
     borderopacity="1"
     bordercolor="#666666"
     pagecolor="#ffffff" /><g
     transform="translate(-897.9,-335.31536)"
     id="g600"><path
       id="path566"
       d="m 919,347 c 0,0 0,-0.1 0,-0.1 m -2.9,2.9 c 0,0 0,0 0,0 m 3.1,-2.9 c 0,0 0,0.1 0,0.1 m 43.3,33.1 c 0,0 0,0 0,0 0,0 0.1,0 0.1,0 m 18.7,-1.5 c 0,0 0,0 0,0 0,0 0,0 0,0 m -62.7,-31.2 c 0,0 0,0 0,0 m 0.7,-0.57 c 0,0 0,0 0,0 -0.1,0.07 -0.1,0.07 -0.1,0.07 m -2.1,2.8 c 0,0 0,0 0,0 M 897.9,381 c 0,0 0,0 0,0 m 0.02,-0.1 c 0,0 0.11,-1.57 0.54,-2.18 1.05,-1.51 2.16,-2.66 3.94,-3.32 4.7,-1.74 8.59,-0.53 13.4,0.22 14.85,2.31 31.05,8.61 46,4.01 0.1,-0.03 0.87,-0.17 0.82,0.07 -0.02,0.1 0.01,0.2 -0.02,0.2 0,0 -0.03,0.07 -0.05,0.1 -0.05,0.1 -1.22,0.69 -1.85,0.84 -2.73,0.61 -4.29,0.86 -7.1,1.19 -4.24,0.49 -8.96,-0.32 -13.2,-0.77 -1.28,-0.13 -2.44,-0.75 -3.7,-0.96 -6.07,-1.04 -12.2,-2.02 -18.29,-3.22 -2.8,-0.55 -8.53,-2.45 -11.61,-1.98 -1.84,0.28 -3.61,1.12 -5.4,1.67 -0.1,0.03 -0.94,0.59 -1.14,1.02 -0.5,1.02 -1.56,2.2 -1.56,3.31 0,0.1 0.48,1.66 0.99,2.27 1.4,1.72 2.84,3.39 4.55,4.83 0.33,0.28 1.2,1.4 1.76,1.4 0.1,0 2.37,0.4 3.5,0.6 1.43,0.24 2.87,0.42 4.3,0.62 4.2,0.58 8.41,0.27 12.6,0.75 3.53,0.41 7.06,0.74 10.6,1.09 3.05,0.3 6.02,0.13 9.1,0.34 4.02,0.27 8.13,1.36 12.2,1 9.26,-0.81 19.67,-5.78 22.08,-15.4 0.02,-0.1 0.18,-1.7 0.26,-2.5 0.11,-1.07 -0.1,-2.13 -0.2,-3.2 -0.13,-1.37 -0.25,-2.73 -0.38,-4.1 -0.01,-0.05 -0.05,-0.6 -0.06,-0.6 -0.01,0 0.02,-0.78 -0.01,-1.1 -0.08,-0.87 -0.16,-1.73 -0.24,-2.6 -0.14,-1.59 -0.18,-3.26 -0.65,-4.8 -1.67,-5.52 -5.89,-11.1 -10.1,-14.9 -5.72,-5.16 -13.38,-5.88 -20.59,-7.72 -3.24,-0.84 -8.48,-2.05 -11.81,-0.78 -1.95,0.74 -4.08,1.34 -5.9,2.4 -0.91,0.53 -3.04,2.4 -4.2,2.4 -0.1,0 -1.75,1.67 -2.69,2.37 -1.28,0.96 -2.69,3.27 -3.81,3.83 -0.1,0 -0.13,0.17 -0.2,0.2 -0.2,0 -1.31,0.99 -1.86,1.49 -0.09,0.07 -0.96,0.66 -0.94,0.71 0.1,0 -0.67,1.13 -1.05,1.69 -0.51,0.74 -1.27,1.92 -1.45,2.81 -0.08,0.4 -0.47,2.37 -1,1.9 -0.34,-0.3 0.07,-1.15 0.17,-1.5 0.53,-1.83 1.37,-3.06 2.38,-4.71 0.05,-0.09 0.48,-0.72 0.75,-0.99 0.53,-0.53 1.23,-0.98 1.8,-1.5 0,0 0.22,-0.22 0.32,-0.32 0.08,-0.08 0.15,-0.11 0.18,-0.13 0.1,-0.05 0.1,-0.05 0.1,-0.05 0,0 0.15,-0.33 0.3,-0.4 0.1,0 0.82,-0.93 1.22,-1.36 0.94,-1.02 1.61,-1.61 2.66,-2.4 2.92,-2.19 5.81,-4.64 9.32,-5.94 7.92,-2.93 15.62,-1.02 23.5,1.4 2.3,0.71 4.86,0.98 7.1,1.8 5.59,2.05 9.98,7.28 12.91,12.23 1.4,2.37 3.35,5.17 3.99,7.97 0.43,1.86 0.51,5.86 0.64,7.3 0.32,3.39 0.71,7.49 0.47,11 -0.01,0.1 -0.47,1.78 -0.7,2.61 -0.42,1.52 -1.5,3.45 -2.61,4.69 -2.86,3.2 -7.97,6.39 -12.1,7.7 -6.76,2.14 -12.95,0.92 -19.8,0.4 -6.75,-0.52 -13.55,-1.01 -20.3,-1.5 -4.05,-0.3 -7.89,-0.1 -11.9,-0.67 -2.17,-0.31 -4.17,-0.62 -6.3,-1.02 -0.4,-0.07 -1.61,-0.05 -1.9,-0.31 -2.91,-2.61 -6.9,-5.21 -7.78,-9.3"
       fill="#000000" /><path
       id="path568"
       d="m 913.17,355.3 c 0,0 -0.63,0.21 -0.77,0 0,0 -1.73,-0.35 -2.59,-0.51 -1.94,-0.36 -3.87,-0.71 -5.81,-1.07 -0.1,-0.02 -0.38,0.71 -0.6,0.58 -0.23,-0.14 -0.26,-0.99 -0.1,-1.2 0.69,-0.87 3.22,0.21 4.3,0.42 0.55,0.11 2.8,0.43 4,0.78 0.39,0.11 2.42,1.02 1.2,1.26"
       fill="#000000" /><path
       id="path570"
       d="m 906.6,362.2 c 0,0 -0.57,0.19 -0.7,0 -0.56,-0.83 -1.11,-1.67 -1.67,-2.5 -1.02,-1.53 -1.95,-3.13 -2.91,-4.69 -0.24,-0.38 -1.07,-1.23 -0.92,-1.71 0.13,-0.41 0.55,-0.29 0.7,0 0,0 0.82,1.27 1.23,1.91 1.25,1.96 2.49,3.92 3.74,5.88 0.17,0.26 0.67,0.9 0.46,1.21"
       fill="#000000" /><path
       id="path572"
       d="m 909.9,366.55 c 0,0 -0.75,-0.3 -1.02,-0.59 -1.15,-1.21 -2.31,-2.41 -3.46,-3.62 -0.15,-0.16 -0.5,-0.4 -0.42,-0.64 0.17,-0.52 0.76,0.15 0.93,0.32 1.2,1.17 2.4,2.34 3.6,3.51 0.07,0.07 0.39,0.22 0.44,0.37 0.03,0.1 0.03,0.1 0.03,0.1 0,0 -0.37,0.73 -0.55,0.55"
       fill="#000000" /><path
       id="path574"
       d="m 912.87,374 c 0,0 -0.49,0.62 -0.77,0.5 -0.58,-0.26 -1.28,-0.44 -1.8,-0.8 -2,-1.37 -2.57,-3.75 -3.23,-5.92 -0.16,-0.55 -0.37,-2.36 0.23,-2.68 1.05,-0.55 0.25,1.63 0.33,1.9 0.43,1.54 0.86,2.85 1.49,4.31 0.58,1.36 4.42,2.57 3.18,3.1"
       fill="#000000" /><path
       id="path576"
       d="m 933.77,372.8 c 0,0 -1.17,8.15 -2.41,6.29 C 931.3,379 931.3,379 931.3,379 c 0,0 0.04,-0.28 0.1,-0.4 0,0 0.1,-0.39 0.15,-0.58 0.43,-1.65 0.87,-3.29 1.3,-4.94 0.24,-0.94 0.11,-2.05 -0.15,-2.98 -0.57,-2.03 -2.66,-3.83 -3.2,-5.6 -0.04,-0.13 0.19,-0.46 0.3,-0.5 1.02,-0.34 2.66,3.4 2.91,4.08 1.65,4.48 0.77,5.84 -0.58,11.02"
       fill="#000000" /><path
       id="path578"
       d="m 933.39,354.3 c 0,0 -0.46,1.76 -0.74,2.62 -0.48,1.51 -0.51,5.3 -2.25,5.88 -0.76,0.25 0.11,-1.48 0.17,-1.68 0.67,-2.36 1.09,-4.22 1.99,-6.33 0.04,-0.09 -1.17,0.01 -1.74,0.19 -1.59,0.49 -3.14,0.95 -4.62,1.72 -0.55,0.29 -2.62,1.67 -2.33,0.8 0.03,-0.1 0.8,-0.84 1.26,-1.08 2.02,-1.08 3.75,-2.01 6.07,-2.42 0.95,-0.17 2.29,-0.42 2.11,0.8"
       fill="#000000" /><path
       id="path580"
       d="m 940,371.9 c 0,0 0,0 0,0 m -5.7,1.2 c 0,0 0,0 0,0 m 7.2,-1.3 c 0,0 0,0 0,0 0.1,0.1 0.1,0.1 0.1,0.1 m -1.5,0 c 0,0 -1.32,0.1 -1.98,0.1 -0.12,0 -1.45,0.31 -2.12,0.46 -0.6,0.14 -1.13,0.36 -1.7,0.6 -0.1,0.04 -0.52,0.47 -0.7,0.34 -0.13,-0.1 -0.11,-0.49 0,-0.6 1.67,-1.67 4.71,-1.7 6.7,-1.7 0,0 0.26,-0.1 0.4,-0.1 0.1,0 -0.55,-0.52 -0.87,-0.79 -0.95,-0.81 -1.91,-1.61 -2.86,-2.42 -0.2,-0.16 -0.77,-0.56 -0.67,-0.89 0.1,-0.1 0.88,-0.04 1.16,0.2 1.52,1.3 3.06,2.52 4.46,3.92 0.08,0.08 0.31,0.38 0.48,0.38 0.1,0 0.1,0 0.1,0 0,0.1 -0.2,0.75 -0.4,0.65 -0.1,-0.05 -0.25,0 -0.3,-0.05 -0.1,-0.1 -0.17,-0.1 -0.2,-0.1 0,0 -0.6,-0.06 -0.9,-0.09 -0.1,-0.01 -0.37,0.04 -0.5,0.07 m 1.5,0.02"
       fill="#000000" /><path
       id="path582"
       d="m 932.7,376.8 c 0,0 0,0 0,0 m 6.7,4.1 c 0,0 0,0 0,0 0,0 0,0 0,0 m 0.2,-0.8 c 0,0 0,0 0,0 m -6.9,-3.5 c 0,0 -0.25,-0.66 -0.34,-1 -0.18,-0.66 -0.1,-1.34 0.14,-2 0.53,-1.5 2.82,-2.97 4.4,-2.2 0.83,0.4 -1.9,0.75 -2.2,0.9 -1.25,0.61 -1.61,1.42 -1.51,2.7 0.01,0.1 1.17,-1.58 1.91,-1.3 0.7,0.26 -0.48,0.76 -0.7,0.8 -0.1,0 -0.73,1.14 -1.05,1.71 -0.05,0.09 0.77,1.36 1.37,1.8 1.35,1.01 2.25,1.13 3.68,1.84 0.1,0.05 0.7,0.15 1,0.23 0.1,0.02 0.5,0.11 0.5,0.27 0,0.15 0.1,0.15 0.1,0.15 -0.1,0 -0.19,0.26 -0.3,0.3 -0.2,0 -0.2,0 -0.2,0 -0.1,0.1 -0.57,-0.02 -0.8,-0.07 -0.1,-0.03 -1.6,-0.08 -2.3,-0.33 -1.66,-0.6 -2.95,-1.99 -3.66,-3.51"
       fill="#000000" /><path
       id="path584"
       d="m 948.88,377.7 c 0,0 -0.12,0.75 -0.27,1.1 -0.3,0.7 -0.86,1.31 -1.51,1.7 0,0 -0.87,0.27 -1.3,0.4 0,0 -0.75,0.6 -1.2,0.6 -0.23,0 -1.41,-0.62 -1.3,-0.9 0.09,-0.21 1.35,-0.11 1.7,-0.2 1.31,-0.33 3,-0.84 3.1,-2.6 0.11,-1.94 -0.68,-5.34 -1.6,-7.2 -0.63,-1.27 -2.05,-2.36 -2.5,-3.7 0,-0.1 0.09,-0.63 0.3,-0.7 0.1,0 0.1,0 0.1,0 0.1,0.1 0.19,0.07 0.2,0.1 0,0.2 0.37,0.66 0.54,0.91 0.61,0.94 1.23,1.88 1.85,2.82 1.51,2.3 2.61,6.48 1.5,9.07 m -1.39,1.4 c 0,0 0,0 0,0 0,0 0,0 0,0"
       fill="#000000" /><path
       id="path586"
       d="m 954.2,371.9 c 0,0 0,0 0,0 0,0 -0.06,0.08 -0.1,0.1 -0.1,0 -1.11,0.01 -1.6,0.1 -1.04,0.18 -2.07,0.44 -3.1,0.7 0,0 -0.55,0.67 -0.67,1.08 -0.31,1.04 -0.63,1.79 -0.63,2.82 0,0.1 0.56,1.98 0.87,2.9 0.03,0.1 3.95,0.88 3.13,1.7 -0.77,0.77 -3.44,-1.04 -3.7,-1.16 -0.1,-0.04 -0.69,-1.62 -0.9,-2.44 -0.41,-1.59 0.15,-2.94 0.57,-4.5 0.03,-0.1 0.1,-0.17 0.13,-0.2 0.1,-0.1 0.1,-0.1 0.1,-0.1 -0.1,0 -0.78,-0.05 -0.8,-0.3 -0.04,-0.46 0.43,-0.36 0.7,-0.32 0.1,0.02 0.1,0.02 0.1,0.02 0,0 4.41,-2.39 5.8,-1 0,0 0.33,0.37 0.2,0.5 m -6.2,1.3 c 0,0 0,0 0,0 m 0.2,7 c 0,0 0,0 0,0 0,0 0,0.1 0,0.1"
       fill="#000000" /><path
       id="path588"
       d="m 960.2,356.85 c 0,0 -1.75,-1.53 -2.7,-2.2 -1.47,-1.03 -3.1,-1.05 -4.8,-1.05 -0.1,0 -2.48,0.24 -3.5,0.8 -2.31,1.28 -4.45,5.23 -3.6,7.7 1.09,3.14 3.33,5.33 5.58,7.67 0.38,0.39 3.87,2.34 3.22,2.73 -1,0.6 -4.68,-3.07 -5.05,-3.39 -3.38,-3.03 -6.75,-8.41 -3.25,-12.41 0.1,-0.1 0.63,-0.74 0.9,-1.06 0.52,-0.62 1.03,-1.52 1.7,-1.94 1.19,-0.75 3.77,-1.04 5.1,-1.1 2.1,-0.1 3.94,1.19 5.52,2.34 0.27,0.2 1.11,1.98 0.78,2.09"
       fill="#000000" /><path
       id="path590"
       d="m 928.1,367.2 c 0,0 -0.21,0.21 -0.32,0.32 -0.08,0.08 -1.08,0.38 -1.58,0.55 -0.86,0.28 -2.11,0.47 -3,0.43 -0.49,-0.02 -1.85,-0.2 -2.2,-0.6 -0.34,-0.39 0.21,-0.84 0.6,-0.6 0.1,0.1 1.9,0.15 2.8,0.18 1.45,0.05 2.35,-0.89 3.4,-0.98 0.7,-0.06 0.29,0.71 0.06,0.94 m -0.26,0.16 c 0,0 0,0 0,0 0.1,0 0.13,-0.1 0.1,-0.1 m 0.4,-0.3 c 0,0 0,0 0,0 0,0 0,-0.1 0,-0.1"
       fill="#000000" /><path
       id="path592"
       d="m 917.27,367.6 c 0,0 -1.37,1.79 -2.37,2.2 -1.06,0.44 -2.12,-0.19 -2.73,-1 -0.07,-0.1 -0.08,-0.67 0.13,-0.8 0.19,-0.12 0.72,-0.05 0.6,0.3 -0.1,0.1 0.25,0.45 0.42,0.62 0.08,0.08 0.88,0.5 1.18,0.28 0.77,-0.58 1.55,-1.16 2.32,-1.74 0.08,-0.06 0.38,0.34 0.31,0.54 m -0.33,-0.5 c 0,0 0.07,-0.07 0.1,-0.1 m 0,0 c 0,0 0,0 0,0 0,0 0,0 0,0"
       fill="#000000" /><path
       id="path594"
       d="m 907.17,364.3 c 0,0 -0.52,0.27 -0.67,0.1 -0.87,-1.02 -0.99,-2.49 -1.48,-3.74 -0.94,-2.38 -3.48,-5 -3.22,-7.46 0.22,-2.04 4.46,0.36 3.7,0.7 -0.45,0.2 -2.09,-0.58 -2.8,-0.51 -0.1,0.01 -0.19,1.71 0.4,1.71 0.68,0 2.26,3.97 2.9,5.77 0.33,0.92 0.67,1.84 1,2.76 0.08,0.24 0.37,0.78 0,0.9"
       fill="#000000" /><path
       id="path596"
       d="m 910.1,374 c 0,0 -0.68,0.14 -0.8,-0.1 0,0 -0.58,-0.75 -0.7,-1.2 0,-0.1 -1.18,-1.53 -1.21,-2.4 -0.03,-0.8 -0.25,-1.71 -0.09,-2.5 0.07,-0.32 0.68,-1.83 1.1,-1.1 0.16,0.27 -0.15,0.65 -0.2,0.9 0,0.1 0.28,0.61 0.35,0.89 0.37,1.47 0.75,2.94 1.12,4.41 0.03,0.1 0.53,0.44 0.53,0.7 0,0.1 0,0.1 0,0.1 0,0 -0.13,0.33 -0.25,0.45 m 0.15,-0.35 c 0,0 0,0 0,0"
       fill="#000000" /><path
       id="path598"
       d="m 929.5,363.7 c 0,0 0,-0.1 0,-0.1 m -5.1,-7.1 c 0,0 0,0 0,0 m 5.23,7.2 c 0,0 -0.36,-0.22 -0.43,-0.4 -0.19,-0.51 0.59,-1.97 0.82,-2.57 0.82,-2.12 1.88,-4.13 2.74,-6.23 0.04,-0.1 0.04,-0.1 0.04,-0.1 0,0 -1.88,0.11 -2.8,0.31 -2.03,0.47 -2.96,1.15 -4.91,2.34 -0.09,0.05 -0.16,0.18 -0.19,0.25 0,0 0,0 0,0 0,0 -0.2,0.07 -0.3,0.1 0,0 -0.32,-0.54 -0.23,-0.8 0.03,-0.1 1.35,-0.95 2.01,-1.37 1.17,-0.75 2.6,-0.98 3.92,-1.4 0.1,-0.03 3.21,-0.51 3.3,0.57 0.05,0.57 -0.51,1.52 -0.76,2.04 -1.02,2.08 -1.68,4.55 -2.69,6.56 -0.05,0.1 -0.05,0.1 -0.05,0.1 0.1,0 0.88,0.64 1.19,1.04 0.64,0.83 1.29,1.65 1.93,2.48 1.2,1.53 1.27,3.95 0.99,5.78 -0.18,1.18 0.42,3.12 -0.71,3.5 -0.49,0.16 -0.38,-0.78 -0.37,-1 0.17,-3.35 0.45,-4.33 -0.11,-7 -0.02,-0.1 -0.98,-1.43 -1.46,-2.1 -0.54,-0.75 -1.16,-1.56 -1.96,-2.04"
       fill="#000000" /></g></svg>
