<?xml version="1.0" encoding="UTF-8" standalone="no"?>
<svg
   xmlns:dc="http://purl.org/dc/elements/1.1/"
   xmlns:cc="http://creativecommons.org/ns#"
   xmlns:rdf="http://www.w3.org/1999/02/22-rdf-syntax-ns#"
   xmlns:svg="http://www.w3.org/2000/svg"
   xmlns="http://www.w3.org/2000/svg"
   xmlns:sodipodi="http://sodipodi.sourceforge.net/DTD/sodipodi-0.dtd"
   xmlns:inkscape="http://www.inkscape.org/namespaces/inkscape"
   inkscape:version="1.0 (4035a4f, 2020-05-01)"
   sodipodi:docname="code.svg"
   id="svg996"
   height="67.290985"
   width="81.339714"
   version="1.1"
   xml:space="preserve"><metadata
     id="metadata1002"><rdf:RDF><cc:Work
         rdf:about=""><dc:format>image/svg+xml</dc:format><dc:type
           rdf:resource="http://purl.org/dc/dcmitype/StillImage" /><dc:title></dc:title></cc:Work></rdf:RDF></metadata><defs
     id="defs1000" /><sodipodi:namedview
     inkscape:current-layer="svg996"
     inkscape:window-maximized="0"
     inkscape:window-y="23"
     inkscape:window-x="0"
     inkscape:cy="146.1"
     inkscape:cx="244.51518"
     inkscape:zoom="0.85069444"
     fit-margin-bottom="0"
     fit-margin-right="0"
     fit-margin-left="0"
     fit-margin-top="0"
     showgrid="false"
     id="namedview998"
     inkscape:window-height="480"
     inkscape:window-width="716"
     inkscape:pageshadow="2"
     inkscape:pageopacity="0"
     guidetolerance="10"
     gridtolerance="10"
     objecttolerance="10"
     borderopacity="1"
     bordercolor="#666666"
     pagecolor="#ffffff" /><g
     transform="translate(-349.48482,-285.9)"
     id="g994"><path
       id="path976"
       d="m 353.1,319.6 c 0,0 0,0 0,0 0,0 0,0 0,0 m -0.2,-0.1 c 0,0 0,0 0,0 0,0 0,0 0,0 0,0 0,0 0,0 0,0 -0.1,-0.1 -0.08,-0.08 m 1.78,-0.52 c 0,0 0,0 0,0 m 3.4,32.8 c 0,0 0,0 0,0 0,0 0,0.1 0,0.1 m 2.7,0.6 c 0,0 0,0 0,0 0,0 0,0 0,0 m 1.1,-0.7 c 0,0 0,0 0,0 0,0 0,0 0,0 m 2.7,-3.1 c 0,0 -0.07,0.2 0,0.2 m -11.4,-29.2 c 0,0 -0.07,0 -0.1,0 -0.1,0 -0.1,0 -0.1,0 0,0 -0.37,-0.53 -0.2,-0.7 0.1,-0.1 1.36,-0.37 1.8,-0.8 1.49,-1.44 1.5,-4.14 1,-5.7 -1.46,-4.54 -3.83,-8.71 -5.4,-13.22 -0.62,-1.78 -0.91,-4.24 -0.2,-6.08 0.83,-2.15 4.17,-5.26 6.3,-2.9 0.43,0.47 1.07,3.51 -0.2,3.3 -0.61,-0.1 0.05,-1.03 0,-1.4 -0.1,-0.68 -0.76,-1.38 -1.1,-2 0,0 -0.71,-0.11 -1,0.06 -0.81,0.49 -1.58,0.89 -2.2,1.64 -1.53,1.86 -1.52,3.94 -0.95,6.19 1.33,5.33 4.59,9.81 5.72,15.21 0.32,1.49 -0.1,5.39 -1.97,5.7 -0.1,0 -0.03,0 0,0 0.1,0 2.5,0.39 2.3,1.2 -0.06,0.24 0.95,0.89 1.1,1.6 0.25,1.2 -0.3,2.43 -0.5,3.6 -0.73,4.21 -1.13,8.35 -1.5,12.6 -0.42,4.87 -0.82,8.85 2.34,12.92 0.06,0.08 1.15,0.7 1.76,0.75 0.27,0.03 1.07,-0.07 0.8,-0.07 0,0 1.09,-1.03 1.26,-1.19 0.71,-0.66 1.56,-2.01 2.52,-2.01 0.12,0 0.12,0 0.12,0 0,0 -0.02,-0.08 0,-0.1 0.1,0 0.31,-0.04 0.4,0 0,0 0.5,0.55 0.3,0.7 -0.2,0 -0.4,0.17 -0.5,0.13 -0.1,-0.03 -1.06,0.83 -1.54,1.26 -0.5,0.44 -0.99,0.89 -1.48,1.34 -0.08,0.07 -0.76,0.5 -1.1,0.72 -0.08,0.05 -1.84,-0.32 -2.68,-0.62 -0.1,-0.03 -1.38,-1.36 -1.76,-2.19 -1.03,-2.22 -2.11,-4.71 -1.8,-7.24 0.5,-4.1 0.58,-8.43 1.28,-12.5 0.34,-2 0.88,-4.34 1.03,-6.2 0.05,-0.67 0.54,-1.46 0.15,-2 -0.69,-0.97 -1.43,-1.31 -2.71,-1.86 -0.09,-0.04 -0.49,-0.09 -0.69,-0.12 -0.1,-0.02 -0.33,0.15 -0.4,0.08 -0.1,-0.1 -0.1,0 -0.1,0 m -0.2,-0.2 c 0,0 0,0 0,0 0,0 0,0 0,0 0,0 0,0 0,0 m 0,0 c 0,0 0,0 0,0 0,0 0,0 0,0"
       fill="#000000" /><path
       id="path978"
       d="m 377.55,320.69 c 0,0 -0.5,1.18 -0.95,1.61 -1.04,0.99 -4.01,2 -5.4,1.3 -4.16,-2.11 -3.46,-6.7 -1.07,-9.72 0.46,-0.6 0.74,-1.3 1.47,-1.55 0.1,-0.03 2.28,1.15 1.7,1.67 -0.4,0.35 -0.91,-1.13 -1.5,-0.93 -0.1,0.03 -1.21,1.42 -1.73,2.13 -0.78,1.06 -0.9,2.44 -1.24,3.7 -0.03,0.1 0.23,1.07 0.47,1.5 0.35,0.63 1.69,2.37 2.5,2.6 2.26,0.65 3.86,-2.08 5.4,-2.7 0.71,-0.28 -0.37,1.78 -0.6,2 -0.49,0.47 -1.32,0.69 -1.92,1 m -3.08,-10.2 c 0,0 0,0 0,0 m 0.1,-0.8 c 0,0 0.1,0 0.1,0"
       fill="#000000" /><path
       id="path980"
       d="m 386.89,317.2 c 0,0 -0.15,1.43 -0.49,2.03 -0.65,1.16 -2.56,3.07 -4.1,2.07 -2.01,-1.3 -1.63,-5.45 -0.6,-7.2 0.53,-0.9 1.75,-2.56 2.6,-1.5 0,0 0.78,-0.15 1,0.1 0.56,0.65 0.92,1.68 1.2,2.5 0.64,1.88 0.33,3.26 -0.6,4.92 m 0.16,-3.41 c 0,0 -1.14,-4.55 -1.71,-3.41 -0.05,0.1 -0.54,2.57 -1.35,2.3 -0.56,-0.19 0.32,-1.48 0.46,-1.8 0.04,-0.1 0,-0.31 0.04,-0.4 0.1,-0.1 0.14,-0.23 0.17,-0.3 0.03,-0.1 -0.94,0.82 -1.27,1.4 -0.69,1.21 -1.42,5.51 0.5,6.1 1.91,0.59 3.45,-2.27 3.2,-3.8 -0.21,-1.28 -1.05,-2.49 -1.56,-3.71 m -0.24,0.21 c 0,0 0,0 0,0"
       fill="#000000" /><path
       id="path982"
       d="m 393.85,320.8 c 0,0 -0.1,0.2 -0.15,0.3 0,0 -0.71,0.06 -0.8,-0.2 -0.61,-1.7 -0.49,-4.38 -0.64,-5.7 -0.06,-0.48 -0.06,-1.49 0.24,-1.9 0.36,-0.49 0.86,-0.09 0.7,0.4 0,0 -0.21,1.34 -0.12,2 0.2,1.53 0.4,3.07 0.61,4.6 0.01,0.1 0.15,0.52 0.06,0.7"
       fill="#000000" /><path
       id="path984"
       d="m 399.79,314.9 c 0,0 -0.11,1.57 -0.41,2.28 -0.62,1.51 -1.26,3.41 -2.28,4.62 -0.27,0.31 -2.87,2.76 -3.2,1.1 -0.08,-0.4 0.45,-0.69 0.65,-0.3 0.05,0.1 0.93,-0.24 1.17,-0.61 0.62,-0.99 1.24,-1.99 1.86,-2.98 1.13,-1.81 1.56,-3.52 1.14,-5.61 -0.02,-0.1 -1.72,-1.68 -2.72,-1.5 -1.73,0.31 -1.88,1.8 -3,2.7 -0.3,0.25 -0.67,-0.06 -0.6,-0.4 0.66,-3.12 5.7,-4.16 7.1,-1.1 0.76,1.67 0.02,3.76 -0.62,5.31"
       fill="#000000" /><path
       id="path986"
       d="m 411.44,322.68 c 0,0 -0.65,0.77 -1.08,0.99 -1.09,0.53 -2.18,1.06 -3.27,1.59 -0.09,0.04 -0.83,0.4 -0.89,0.14 0,-0.2 -0.44,-1.92 -0.63,-2.78 -0.36,-1.56 -1.13,-4.01 -1.17,-5.72 -0.06,-2.63 2.47,-4.6 4.98,-4.6 0.12,0 0.42,0.75 0.22,0.65 -0.1,-0.05 -1.24,0.17 -1.75,0.42 -1.11,0.56 -2.33,1.3 -2.65,2.63 -0.64,2.67 0.9,5.83 1.67,8.4 0.03,0.1 0.71,-0.38 1.09,-0.55 0.35,-0.15 2.6,-1.54 3.24,-1.65 0.75,-0.12 -0.11,0.95 -0.24,1.12"
       fill="#000000" /><path
       id="path988"
       d="m 412.27,316.8 c 0,0 -1,0.97 -1.63,1.23 -1.66,0.68 -3.32,1.36 -4.98,2.04 -0.29,0.12 -1,0.72 -1.16,0.23 -0.16,-0.48 1,-0.93 1.26,-1.03 0.93,-0.4 3.06,-1.19 4.44,-1.87 0.32,-0.16 2.35,-1.44 2.03,-0.5"
       fill="#000000" /><path
       id="path990"
       d="m 419.7,285.9 c 0,0 0,0 0,0 m -1.8,1.4 c 0,0 0,0 0,0 0,0.1 0,0.1 0,0.1 m 2.1,-0.9 c 0,0 -0.02,0.08 0,0.1 m 1.3,-0.7 c 0,0 0,0 0,0 m -1.49,0 c 0,0 0.93,0 1.39,0 0.1,0 0.84,0.09 1.2,0.2 0.74,0.23 1.26,0.7 1.83,1.2 1.51,1.3 3.13,3.82 3.49,5.7 0.72,3.8 0.78,7.45 0.28,11.3 -0.39,3.02 -1.4,6.04 -1.4,9.1 0,1.39 0.11,3.84 1,4.7 0.33,0.32 1.37,0.31 1.79,0.55 0.26,0.15 1.36,0.95 0.41,0.95 -4.73,0 -3.95,-5.95 -3.52,-9.3 0.89,-6.99 3.97,-19.89 -4.58,-23.56 -0.1,-0.04 -1.04,-0.07 -1.5,-0.13 -0.1,-0.01 -1.56,0.38 -2.21,0.74 -0.09,0.05 -0.26,0.73 -0.49,0.65 -0.23,-0.08 -0.39,-0.32 -0.4,-0.6 -0.05,-0.92 1.92,-1.5 2.6,-1.5"
       fill="#000000" /><path
       id="path992"
       d="m 428,347.1 c 0,0 0,0 0,0 m -0.2,-28.2 c 0,0 0,0 0,0 m 1,-0.7 c 0,0 0,0 0,0 m 0.3,26 c 0,0 0.12,-1.47 0.03,-2.2 -0.3,-2.45 -0.66,-4.51 -1.12,-7 -1.01,-5.49 -2.86,-10.81 -0.26,-16.01 0.05,-0.09 0.66,-0.52 0.97,-0.73 0.08,-0.06 1.86,0.14 2.08,0.84 0.15,0.47 -0.43,0.7 -0.6,0.2 0,0 -0.54,-0.3 -0.81,-0.45 -0.09,-0.05 -0.79,0.26 -1.01,0.55 -0.08,0.1 -1.14,2.1 -1.2,3.2 -0.14,2.47 0.27,4.06 0.64,6.9 0.53,4.01 1.44,8.28 2.08,12.21 0.15,0.87 0.22,2.09 -0.1,2.89 -1.15,2.89 -2.35,6.37 -5.4,7.7 -1.49,0.65 -3.08,1.09 -4.7,0.8 -0.48,-0.09 -2.39,-0.78 -1.9,-1.6 0.03,-0.05 3.02,0.98 3.6,0.9 3.46,-0.45 4.96,-2.67 6.6,-5.4"
       fill="#000000" /></g></svg>
