<?xml version="1.0" encoding="UTF-8" standalone="no"?>
<!DOCTYPE svg PUBLIC "-//W3C//DTD SVG 1.1//EN" "http://www.w3.org/Graphics/SVG/1.1/DTD/svg11.dtd">
<svg width="370.00" height="370.00" viewBox="0.00 0.00 740.00 740.00" xmlns="http://www.w3.org/2000/svg" xmlns:xlink="http://www.w3.org/1999/xlink">
<g stroke-linecap="round" id="1">
<path d="M451.66,76.44 C460.17,73.95 469.25,72.30 479.26,71.03 C486.99,70.20 503.16,68.94 511.62,68.50 C522.94,68.10 534.19,68.15 541.93,69.28 C549.07,70.34 562.42,73.31 568.08,75.19 C575.15,77.57 589.69,84.02 596.18,87.79 C600.62,90.39 613.04,98.90 618.95,103.98 C624.16,108.48 634.24,118.82 638.95,124.89 C642.94,130.05 650.67,143.26 653.35,150.41 C655.96,157.48 658.33,173.01 658.45,178.19 C658.52,182.38 656.11,199.36 654.48,204.83 C653.10,209.39 645.41,226.97 643.19,231.43 C639.21,239.36 620.30,270.11 612.86,281.95 C607.21,291.40 601.51,301.74 598.43,308.46 C596.62,312.42 590.43,327.72 588.78,334.07 C586.88,341.57 585.07,354.10 584.59,362.46 C584.23,369.61 585.55,386.40 586.11,390.86 C587.09,398.59 589.67,410.24 592.45,420.20 C596.36,433.53 608.14,461.39 615.71,475.47 C621.30,485.51 639.54,515.66 647.56,528.84 C651.25,535.22 658.32,548.17 661.74,554.83 C666.11,563.79 669.83,572.43 673.37,581.61 C675.89,588.29 679.19,602.44 679.82,607.71 C680.46,613.39 679.48,625.83 677.65,631.11 C676.63,633.97 673.69,639.93 671.68,642.70 C667.89,647.87 658.40,656.27 652.84,659.70 C648.16,662.57 635.74,668.43 628.34,671.09 C619.78,674.06 605.15,678.14 600.42,679.20 C590.45,681.30 579.80,683.00 573.43,683.98 C564.19,685.10 555.52,685.83 545.17,686.32 C536.98,686.56 524.34,686.51 514.09,686.01 C506.53,685.49 493.91,684.25 482.78,682.58 C474.68,681.14 459.74,678.39 453.13,677.00 C440.82,674.20 378.52,654.25 363.19,649.35 C356.08,647.22 346.20,644.72 337.42,642.86 C329.81,641.41 315.98,639.03 309.92,638.64 C304.33,638.32 288.29,638.29 284.36,638.53 C277.67,638.96 261.54,641.34 257.30,642.11 C246.14,644.19 183.58,663.90 172.60,666.94 C165.35,668.83 151.98,671.23 142.29,672.61 C132.34,673.91 120.01,673.80 112.81,672.88 C105.59,671.93 92.53,667.76 86.18,664.13 C83.07,662.34 77.31,658.14 75.20,656.22 C70.57,651.97 62.89,640.40 60.72,635.59 C58.56,630.74 54.39,616.25 53.24,609.25 C52.40,604.02 51.07,590.54 50.83,581.80 C50.76,576.65 51.15,561.12 51.76,553.69 C52.61,545.09 54.27,533.19 55.85,525.80 C57.49,518.58 61.58,501.75 63.21,496.16 C67.47,482.35 76.94,457.28 84.86,438.80 C91.02,424.64 104.81,392.05 108.64,382.12 C110.45,377.25 115.34,360.60 116.25,356.67 C117.90,349.43 119.41,335.28 119.42,328.55 C119.41,321.59 118.30,308.45 116.73,299.72 C114.92,290.37 113.04,282.74 109.65,272.07 C104.35,256.10 94.25,227.63 89.54,213.92 C82.91,192.86 77.45,171.86 76.27,159.98 C75.61,153.15 75.81,139.10 76.63,133.20 C77.72,125.64 82.58,111.94 85.42,106.57 C88.60,100.61 97.56,88.99 101.92,84.82 C106.45,80.51 118.86,71.52 125.00,68.27 C130.75,65.24 142.52,60.36 150.66,57.77 C157.17,55.77 169.89,52.59 177.45,51.50 C185.12,50.46 201.76,48.68 209.41,48.35 C215.84,48.12 230.50,48.50 239.58,49.09 C255.88,50.43 280.52,54.44 299.42,58.22 C310.12,60.46 317.24,62.16 327.96,65.19 C334.63,67.19 351.05,72.21 356.63,73.79 C365.43,76.14 379.85,79.17 387.84,80.26 C392.73,80.92 412.99,82.49 416.30,82.53 C433.39,82.71 447.57,77.95 448.77,77.57 C449.74,77.26 450.71,76.95 451.69,76.65" fill="none" stroke="rgb(255, 255, 255)" stroke-width="1.00" stroke-opacity="1.00" stroke-linejoin="round"/>
<path d="M572.96,120.33 C570.29,117.93 567.45,115.74 563.84,113.38 C561.57,111.87 550.60,104.55 541.62,99.51 C528.02,92.05 500.13,76.95 485.96,70.42 C478.61,67.20 463.83,61.29 456.44,58.65 C448.96,56.17 433.49,51.41 428.21,49.96 C422.19,48.35 403.60,44.80 399.82,44.22 C393.91,43.34 377.73,42.09 373.65,42.04 C366.69,41.98 351.78,42.87 345.62,43.75 C337.66,44.90 326.28,47.34 316.69,49.94 C307.69,52.67 298.49,56.00 292.11,58.77 C285.36,61.71 270.92,69.80 267.63,71.77 C262.46,74.90 250.63,83.95 244.40,88.77 C237.70,94.20 229.63,101.31 224.42,106.74 C213.33,118.73 191.69,142.20 181.13,153.70 C176.80,158.26 149.25,183.96 137.01,195.31 C121.64,209.79 101.94,230.49 95.84,238.20 C91.57,243.62 81.44,259.57 80.05,262.04 C76.95,267.61 71.93,281.03 70.52,286.28 C68.90,292.35 66.94,305.28 66.58,311.98 C66.24,318.52 66.74,332.15 67.58,339.27 C68.36,345.85 70.44,356.28 72.96,366.71 C75.21,375.15 78.46,384.08 83.12,395.72 C91.53,415.78 97.80,428.44 109.94,449.91 C118.50,464.83 134.52,492.71 141.96,505.69 C147.17,515.29 160.30,540.75 167.04,554.67 C173.71,568.80 191.68,604.41 194.74,609.51 C196.80,612.93 207.71,629.31 209.84,632.17 C212.79,636.13 224.39,649.50 228.44,653.46 C233.83,658.70 245.74,668.38 249.94,671.25 C255.27,674.88 268.11,682.08 275.32,685.29 C281.90,688.15 295.95,693.20 302.77,694.92 C313.22,697.42 324.06,699.29 332.76,700.16 C340.14,700.79 354.13,701.28 361.79,700.98 C369.01,700.58 382.87,699.37 390.56,698.10 C400.95,696.28 408.47,694.75 417.70,692.47 C422.21,691.28 439.11,686.21 446.12,683.69 C453.49,680.92 468.67,674.79 476.05,671.52 C491.07,664.54 518.02,649.77 529.89,642.72 C540.47,636.08 569.49,616.08 582.55,606.95 C594.84,598.08 618.36,580.67 631.00,570.66 C638.10,564.90 644.84,559.11 650.92,553.35 C658.86,545.44 664.15,539.45 670.07,531.86 C674.40,526.19 682.31,512.59 684.74,507.01 C687.73,500.08 691.74,486.20 692.76,479.37 C693.88,471.72 694.01,460.76 693.30,451.94 C692.77,445.87 689.92,432.19 687.87,425.15 C686.13,419.21 678.91,401.21 676.62,396.28 C674.64,392.05 667.24,378.31 663.59,372.04 C655.05,358.11 635.29,327.85 628.31,318.18 C618.53,305.28 597.10,281.68 589.30,272.36 C584.10,265.97 576.69,255.29 574.08,249.21 C572.77,246.11 570.93,239.17 570.43,235.48 C569.61,229.13 570.01,210.46 571.50,203.85 C573.09,197.05 579.93,184.31 583.03,178.28 C584.52,175.22 587.72,168.34 588.43,165.62 C589.28,162.23 589.54,154.80 588.95,150.78 C588.36,147.02 585.96,138.82 584.43,134.92 C582.68,130.66 578.78,125.39 574.69,121.92 C574.28,121.58 573.70,121.09 572.96,120.43" fill="none" stroke="rgb(255, 255, 255)" stroke-width="1.00" stroke-opacity="1.00" stroke-linejoin="round"/>
</g>
</svg>
