<?xml version="1.0" encoding="UTF-8" standalone="no"?>
<svg
   xmlns:dc="http://purl.org/dc/elements/1.1/"
   xmlns:cc="http://creativecommons.org/ns#"
   xmlns:rdf="http://www.w3.org/1999/02/22-rdf-syntax-ns#"
   xmlns:svg="http://www.w3.org/2000/svg"
   xmlns="http://www.w3.org/2000/svg"
   xmlns:sodipodi="http://sodipodi.sourceforge.net/DTD/sodipodi-0.dtd"
   xmlns:inkscape="http://www.inkscape.org/namespaces/inkscape"
   inkscape:version="1.0 (4035a4f, 2020-05-01)"
   sodipodi:docname="game.svg"
   id="svg1494"
   height="89.104401"
   width="103.26604"
   version="1.1"
   xml:space="preserve"><metadata
     id="metadata1500"><rdf:RDF><cc:Work
         rdf:about=""><dc:format>image/svg+xml</dc:format><dc:type
           rdf:resource="http://purl.org/dc/dcmitype/StillImage" /><dc:title></dc:title></cc:Work></rdf:RDF></metadata><defs
     id="defs1498" /><sodipodi:namedview
     inkscape:current-layer="svg1494"
     inkscape:window-maximized="0"
     inkscape:window-y="23"
     inkscape:window-x="0"
     inkscape:cy="148.27574"
     inkscape:cx="54.886036"
     inkscape:zoom="0.85069444"
     fit-margin-bottom="0"
     fit-margin-right="0"
     fit-margin-left="0"
     fit-margin-top="0"
     showgrid="false"
     id="namedview1496"
     inkscape:window-height="480"
     inkscape:window-width="716"
     inkscape:pageshadow="2"
     inkscape:pageopacity="0"
     guidetolerance="10"
     gridtolerance="10"
     objecttolerance="10"
     borderopacity="1"
     bordercolor="#666666"
     pagecolor="#ffffff" /><g
     transform="translate(-539.11396,-283.72426)"
     id="g1492"><path
       id="path1422"
       d="m 539.24,309.8 c 0,0 0.35,-0.99 0.5,-1.5 0.32,-1.05 0.85,-1.73 1.44,-2.62 1.53,-2.29 4.21,-4.03 6.22,-5.81 1.57,-1.4 3.55,-2.18 5.3,-3.37 5.56,-3.77 10.31,-7.09 16.37,-10.22 2.24,-1.17 4.53,-2.16 7.13,-2.05 3.46,0.14 5.87,0.22 8.94,1.7 0.62,0.3 2.01,0.99 2.26,1.67 0.43,1.14 -4.57,-1.96 -4.7,-2 -3.18,-1.03 -6.9,-0.55 -10.1,0.03 -1.5,0.27 -2.88,1.23 -4.23,1.96 -7.06,3.76 -13.73,8.13 -20.27,12.71 0,0 -1.58,1.51 -2.44,2.19 -1.75,1.41 -3.33,2.99 -4.66,4.81 0,0 -0.38,1.07 -0.58,1.6 -0.38,1.03 -0.39,2.11 -0.51,3.2 -0.01,0.1 0.35,1.51 0.59,2.2 0.44,1.23 1.45,3.75 2.8,4.4 5.55,2.68 12.43,3.8 18.6,2.8 2.78,-0.45 6.37,-1.46 8.9,-2.8 1.35,-0.72 2.5,-1.72 3.99,-2.23 1.61,-0.56 3.21,-1.1 4.83,-1.64 0.31,-0.11 1.38,-0.83 1.38,-0.13 0,0.77 -1.55,1.29 -2.2,1.46 -3.25,0.88 -5.84,2.58 -8.9,3.74 -6.98,2.65 -12.98,2.66 -20.3,2.05 -2.44,-0.2 -6.17,-1.59 -7.9,-3.45 -1.43,-1.55 -2.01,-3.93 -2.57,-5.9 -0.03,-0.1 -0.06,-2.36 0.33,-3.4"
       fill="#000000" /><path
       id="path1424"
       d="m 593.6,324.5 c 0,0 0,0 0,0 0,0 0.49,0.38 0.4,0.6 -0.1,0.1 -0.23,0.23 -0.3,0.3 0,0 -0.28,0.28 -0.4,0.2 0,-0.1 -0.39,0.02 -0.58,0.09 -1.58,0.5 -3.15,1.01 -4.73,1.52 -3.06,0.98 -5.84,-0.76 -7.79,-2.91 -1.55,-1.71 -2.91,-3.69 -2,-6.1 0.39,-1.03 2.19,-3.38 3.4,-3.2 0.32,0.05 0.37,0.51 0.1,0.65 -0.1,0.05 -0.99,0.79 -1.43,1.16 -0.51,0.42 -1.13,1.07 -1.37,1.69 -0.92,2.39 1.24,4.87 2.8,6.3 3.33,3.07 7.85,1.4 11.51,-0.06 0.09,-0.04 0.49,-0.39 0.49,-0.24 m -0.25,0.1 c 0,0 0,0 0,0 0.15,0 0.15,0 0.15,0"
       fill="#000000" /><path
       id="path1426"
       d="m 606.38,336 c 0,0 -0.72,0.64 -1.17,0.76 -1.11,0.29 -2.21,0.59 -3.32,0.88 -1.83,0.49 -3.67,1.03 -5.59,0.76 -3.66,-0.51 -8.88,-4.66 -7.4,-8.9 0.41,-1.19 1.83,-2.99 3,-3.41 0.32,-0.11 2,-0.77 2,0.11 0,0.25 -1.64,0.46 -2,0.7 -1.03,0.7 -2.06,2.04 -2.3,3.3 -0.22,1.17 0.33,2.18 0.76,3.22 2.55,6.12 10.42,3.67 14.94,2.41 0.1,-0.03 0.66,-0.36 0.9,-0.23 0.45,0.23 0.08,0.81 -0.2,0.92"
       fill="#000000" /><path
       id="path1428"
       d="m 641.9,337.7 c 0,0 -1.05,1.05 -1.57,1.57 -0.78,0.78 -1.16,1.74 -1.79,2.61 -2.06,2.86 -4.38,5.61 -6.64,8.3 -6.24,7.41 -11.83,14.83 -20.37,19.72 -3.03,1.73 -6.78,3.15 -10.03,2.9 -2.04,-0.16 -4.08,-1.15 -5.56,-2.53 -1.32,-1.24 -3.01,-3.02 -3.74,-5.07 -2.18,-6.11 3.17,-15.14 5.73,-20.26 0.58,-1.17 1.35,-2.24 2.05,-3.33 1.2,-1.89 2.83,-3.22 4.64,-4.45 0.08,-0.06 0.85,0.24 0.68,0.44 -0.1,0.1 -1.74,1.23 -2.42,1.94 -1.69,1.76 -2.83,3.08 -4.08,5.26 -3.15,5.52 -5.14,11.42 -6.18,17.6 -0.02,0.1 0.13,1.23 0.2,1.8 0.17,1.28 1.97,4.51 2.38,4.4 0.29,-0.08 2.79,2.26 3.1,2.4 2.38,1.08 4.17,1.25 6.4,0.8 4.38,-0.88 8.45,-3.7 11.81,-6.48 6.42,-5.31 11.16,-11.65 16.39,-18.12 1.94,-2.4 4.07,-4.48 5.75,-7.12 0.05,-0.08 0.46,-0.79 0.74,-1.07 0.6,-0.6 1.21,-1.21 1.81,-1.81 0.1,-0.1 0.71,-0.42 0.8,-0.2 0.37,0.85 -1.71,2.31 -1.96,2.56 m 1.86,-1.86 c 0,0 0,0 0,0 0,0 0.1,0 0.1,0"
       fill="#000000" /><path
       id="path1430"
       d="m 603.17,301.3 c 0,0 0.04,3.5 -0.97,3.1 -0.84,-0.34 0.11,-2.67 0.2,-3.4 0.11,-0.91 -0.98,-2.49 -1.4,-3.1 -4.32,-6.25 -10.7,-11.02 -18.1,-12.58 -0.1,-0.02 -1.04,-0.39 -1.51,-0.58 -0.09,-0.04 -0.49,-0.14 -0.69,-0.21 -0.1,-0.03 -0.42,-0.52 -0.3,-0.73 0.07,-0.12 0.72,-0.08 0.8,0 0,0.1 0.72,0.31 1.08,0.41 0.71,0.21 1.41,0.43 2.12,0.62 2.36,0.62 3.55,1.31 6.06,2.51 4.31,2.07 6.2,4.82 9.42,8.04 1.35,1.35 3.32,3.69 3.32,5.7 M 580.6,284.4 c 0,0 0,0 0,0 0,0.1 0.1,0.13 0.1,0.1 m 0.4,-0.6 c 0,0 0,0 0,0 0,0 0,0 0,0 0.1,0 0.1,0 0.1,0 m 1.6,1.4 c 0,0 0,0 0,0 0,0 0,0 0,0 m 20.4,15.9 c 0,0 0,0 0,0"
       fill="#000000" /><path
       id="path1432"
       d="m 609.8,314 c 0,0 0.03,0.1 0,0.1 -0.1,-0.1 -0.55,-0.04 -0.6,-0.2 0,-0.2 -0.74,-0.73 -1.1,-1 -0.71,-0.53 -1.41,-1.09 -2.11,-1.63 -1.98,-1.52 -3.31,-3.62 -4.63,-5.68 -0.32,-0.5 -0.87,-1.55 -0.46,-2.09 0.3,-0.39 0.6,-1.02 1,-1.3 0.29,-0.2 1.17,-0.17 0.7,0.3 -0.1,0.1 -0.73,0.98 -1.04,1.42 -0.06,0.08 0.35,1.02 0.56,1.49 0.38,0.89 1.11,1.64 1.66,2.42 1.6,2.26 4.19,3.97 6.44,5.51 0.08,0.06 -0.09,0.61 -0.32,0.65 m 0.4,-0.59 c 0,0 0,0 0,0"
       fill="#000000" /><path
       id="path1434"
       d="m 641.89,331.1 c 0,0 0.03,1.03 -0.18,1.49 -0.73,1.59 -1.42,2.02 -2.88,3.48 -0.14,0.14 -0.49,0.61 -0.73,0.53 -0.62,-0.21 -0.06,-0.71 0.16,-0.92 1.15,-1.03 2.38,-2.08 2.7,-3.68 0.59,-2.97 -2.01,-7.03 -3.16,-8.9 -3.31,-5.37 -11.56,-10.68 -18.1,-9.49 -1.23,0.22 -4.44,0.53 -5.4,1.49 -0.1,0 -0.1,0.1 -0.1,0.1 0,-0.1 -0.12,0.06 -0.2,0.1 -0.1,0 -0.1,0 -0.1,0 0,0 0,0 0,0 -0.1,0 -0.35,-0.01 -0.4,-0.1 0,-0.1 -0.84,-0.61 -1.3,-0.77 -0.1,-0.03 -0.79,0.31 -1.1,0.17 -0.1,-0.1 -0.05,-1.03 0.2,-0.9 0.1,0.1 0.63,-0.1 0.9,-0.1 0.1,0 1.28,0.38 1.7,0.8 0.1,0.1 2.23,-1.02 3.4,-1.22 2.68,-0.44 5.28,-0.89 7.9,0.02 7.79,2.71 17.28,9.74 16.61,19.1 M 612.3,313.6 c 0,0 0,0 0,0 m 1.2,1.2 c 0,0 0,0.07 0,0.1"
       fill="#000000" /><path
       id="path1436"
       d="m 642.38,336.4 c 0,0 -0.17,0.73 -0.26,1.1 -0.18,0.78 -0.48,1.4 -0.76,2.1 -0.09,0.23 -0.51,1.05 -0.76,0.8 -0.1,-0.1 -1.12,-1.57 -1.06,-2.4 0.1,-1.55 1.2,-2.57 1.72,-4 0.04,-0.1 0.06,-0.57 0.24,-0.6 0.36,-0.06 0.45,0.81 0.35,1 -0.05,0.1 0.22,0.9 0.35,1.3 0.22,0.67 0.08,1.12 -0.08,1.8 m -0.72,-2.1 c 0,0 -0.95,0.97 -1.1,1.6 -0.15,0.64 0.27,1.54 0.38,2.2 0.02,0.1 0.33,-0.99 0.52,-1.53 0.22,-0.62 0.45,-1.53 0.23,-2.17 m -0.83,4.1 c 0,0 0,0 0,0 0,0 0,0 0,0"
       fill="#000000" /><path
       id="path1438"
       d="m 592.39,293.5 c 0,0 -0.32,1.5 -0.78,2.09 -0.97,1.27 -2.58,2.5 -4.11,2.89 -0.1,0.02 -0.15,0.12 -0.2,0.12 -0.1,-0.1 -0.34,-0.11 -0.37,-0.2 -0.03,-0.1 -0.03,-0.17 -0.03,-0.2 0,0 2.66,-1.62 3.71,-2.74 0.17,-0.18 1.46,-1.39 0.99,-1.86 -1.9,-1.9 -3.12,-2.77 -6,-2.3 -0.61,0.1 -1.14,0.5 -1.77,0.5 -0.13,0 -0.64,-0.56 -0.43,-0.7 0.1,0 1.95,-1.07 2.88,-1.6 0.15,-0.09 0.42,-0.47 0.42,-0.3 0.1,0.1 0.48,-0.4 0.7,-0.3 0.31,0.14 0.12,0.5 0.04,0.7 -0.04,0.1 -0.92,0.6 -1.35,0.85 -0.09,0.05 1.03,0.05 1.58,0.05 0.74,0 1.55,0.18 2.23,0.5 2.36,1.12 3.09,2.8 1.52,4.84 M 583.8,291 c 0,0 0,0 0,0 m 3.6,-1.3 c 0,0 0,0 0,0 0,0 0,0 0,0"
       fill="#000000" /><path
       id="path1440"
       d="m 587.9,298.5 c 0,0 -0.61,-0.2 -0.83,-0.42 -1.15,-1.12 -2.29,-2.24 -3.44,-3.36 -0.22,-0.21 -0.77,-0.68 -0.43,-1.02 0.38,-0.38 1.59,0.79 1.87,1.1 0.84,0.95 1.69,1.9 2.53,2.85 0.13,0.15 0.75,1.13 0.1,0.92"
       fill="#000000" /><path
       id="path1442"
       d="m 591.68,303.8 c 0,0 -0.02,0.7 -0.18,1 -0.12,0.23 -3.25,4.15 -4,3.4 -0.57,-0.57 3.16,-3.32 3.3,-3.6 1.3,-2.66 -4.12,-3.1 -5.5,-2.82 -0.1,0.02 -1.78,1.24 -2.1,0.62 -0.4,-0.76 1.73,-1.34 2.1,-1.47 0.1,-0.03 1.11,-0.72 1.7,-0.83 0.38,-0.07 0.54,0.38 0.2,0.55 -0.1,0.05 1.34,0.37 2.03,0.63 0.91,0.35 2.29,1.34 2.47,2.42 0.28,1.7 -2.77,3.67 -3.36,4.26"
       fill="#000000" /><path
       id="path1444"
       d="m 587.9,307.2 c 0,0 -0.78,-0.06 -1.06,-0.29 -1.26,-1.07 -2.52,-2.15 -3.78,-3.22 -0.22,-0.18 -0.64,-0.43 -0.46,-0.79 0.25,-0.5 0.83,0.1 1.06,0.3 0.89,0.79 2.07,1.73 2.99,2.65 0.17,0.17 1.54,1.26 1.15,1.52"
       fill="#000000" /><path
       id="path1446"
       d="m 579.24,293.68 c 0,0 -0.59,0.83 -0.88,1.24 -0.59,0.82 -2.69,2.17 -3.46,1.98 -0.45,-0.11 -1.22,-0.27 -1.4,-0.8 -0.28,-0.85 0.87,-0.19 1.11,-0.05 0.09,0.05 1.45,-0.58 2.13,-0.89 0.78,-0.36 1.16,-1.01 1.7,-1.68 0.06,-0.08 -0.44,-0.63 -0.7,-0.9 -0.49,-0.55 -1.04,-1.16 -1.64,-1.58 -0.19,-0.13 -1.72,-0.72 -0.9,-1.1 0.98,-0.45 4.24,2.88 4.1,3.7 -0.25,1.54 -3.5,2.8 -4.22,3.2 m 3.42,-3.4 c 0,0 0,0 0,0"
       fill="#000000" /><path
       id="path1448"
       d="m 575.4,289.3 c 0,0 -0.12,0.16 -0.2,0.2 -0.1,0 -0.6,0.32 -0.87,0.43 -0.78,0.31 -1.53,0.6 -2.33,0.85 -0.27,0.08 -1.55,0.57 -1.4,0.92 0.79,1.89 1.56,2.23 3.36,3.97 0.13,0.13 0.63,0.5 0.54,0.73 -0.06,0.15 -0.45,0.26 -0.6,0.2 -0.5,-0.21 -4.69,-3.63 -4,-5.4 0.52,-1.35 5.5,-2.37 5.5,-2.02 0,0.12 0.1,0.12 0.1,0.12"
       fill="#000000" /><path
       id="path1450"
       d="m 578.89,301.4 c 0,0 0.04,0.69 -0.09,1 -0.2,0.5 -0.78,1.15 -1.2,1.5 -0.54,0.46 -2.08,1.39 -2.9,1 -0.36,-0.17 -0.12,-0.6 0.2,-0.6 0.1,0 2.95,-1.11 3.3,-2.4 0.61,-2.26 -3.1,-2.94 -4.5,-2.34 -0.1,0.04 -1.5,0.41 -1.5,-0.06 0,-0.37 0.84,-0.56 1.1,-0.66 0.1,-0.04 3.03,-1.03 2.57,-0.34 -0.07,0.1 0.66,0.33 1.03,0.44 0.55,0.17 1.28,0.89 1.6,1.36 0.91,1.34 0.07,2.39 -0.77,3.44 m -5.13,-4.64 c 0,0 0,0.1 0,0.1"
       fill="#000000" /><path
       id="path1452"
       d="m 575.7,304.3 c 0,0 -0.61,-0.21 -0.84,-0.42 -0.77,-0.75 -1.55,-1.51 -2.32,-2.26 -0.2,-0.19 -0.89,-0.79 -0.34,-1.02 1.51,-0.65 3.63,3.88 3.3,3.77"
       fill="#000000" /><path
       id="path1454"
       d="m 574.6,308.83 c 0,0 -2.83,-0.85 -4.15,-1.5 -3.29,-1.6 -5.16,-2.96 -7.55,-5.68 -1.27,-1.44 -1.87,-3.19 -2.09,-5.05 -0.05,-0.43 0.85,-1.8 1.39,-1.4 0.35,0.26 -0.26,0.76 -0.42,0.93 -0.08,0.07 -0.24,0.87 -0.18,1.27 0.09,0.59 0.43,1.38 0.76,1.89 1.36,2.1 2.89,4.33 5.04,5.71 1.82,1.17 3.54,1.39 5.3,2.2 0.16,0.07 2.44,1.72 1.8,1.93"
       fill="#000000" /><path
       id="path1456"
       d="m 596.29,314.8 c 0,0 -0.21,1.91 -0.69,2.7 -0.86,1.41 -2.57,2.88 -4.4,2.8 -2.16,-0.09 -4.31,-3.42 -5.06,-5.1 -0.04,-0.1 -0.26,1.39 -0.84,1.7 -0.74,0.4 -0.35,-1.25 -0.31,-1.5 0.01,-0.1 0.44,-0.71 0.65,-1.02 0.06,-0.08 0.39,-2.36 1.16,-2.18 0.9,0.21 -0.62,1.16 -0.45,1.5 0.05,0.1 1.29,-0.68 1.9,-1.07 1.16,-0.76 3.08,-1.62 4.55,-1.43 3.01,0.38 3.97,3.77 2.89,6.11 M 585,315.3 c 0,0 0,0 0,0 m 10.45,-0.49 c 0,0 -0.37,-0.76 -0.56,-1.13 -0.3,-0.6 -1.4,-1.53 -2.09,-1.68 -2.01,-0.43 -4.49,1.52 -6,2.53 -0.1,0.07 0.36,0.96 0.65,1.38 0.8,1.18 2.18,3.55 3.85,3.59 3.49,0.08 5.43,-4.62 2.66,-6.77"
       fill="#000000" /><path
       id="path1458"
       d="m 593.56,320.09 c 0,0 -0.29,1.96 -1.06,2.31 -0.24,0.11 -1.14,-0.12 -1.4,-0.2 -3.41,-1.04 -7.3,-3.99 -7.3,-7.79 0,-0.11 0.3,-0.72 0.45,-1.02 0.05,-0.09 2.06,-1.39 3.06,-2.03 0.09,-0.06 1.34,-0.3 1.59,0.14 0.32,0.56 -0.55,0.47 -0.8,0.35 -0.1,-0.05 -1.13,0.52 -1.65,0.8 -1.28,0.7 -2.21,1.28 -1.85,2.85 0.81,3.54 4.49,4.96 7.5,6.06 0.1,0.04 0.79,-2.32 1.4,-1.86 0.45,0.34 -0.6,2.11 -0.89,2.53 m -8.81,-7.93 c 0,0 0,0 0,0 m 0.5,-1 c 0,0 0,0 0,0 m 3.1,-2 c 0,0 0,0 0,0"
       fill="#000000" /><path
       id="path1460"
       d="m 587.05,318.6 c 0,0 -1.43,0.67 -2.07,1.14 -0.08,0.06 -0.51,0.27 -0.68,0.16 -0.29,-0.19 0.14,-0.67 0.3,-0.8 0.41,-0.34 1.69,-1.1 1.9,-1.1 0.29,0 0.87,0.33 0.5,0.7 m -2.3,0.6 c 0,0 -0.1,0 -0.1,0"
       fill="#000000" /><path
       id="path1462"
       d="m 588.78,319.9 c 0,0 -2.36,2.44 -2.38,1.5 -0.01,-0.49 2.59,-2.36 2.32,-1.3"
       fill="#000000" /><path
       id="path1464"
       d="m 587.03,321.5 c 0,0 -3.32,-1.04 -2.93,-2.2 0.26,-0.77 3.35,1.57 2.87,2.3"
       fill="#000000" /><path
       id="path1466"
       d="m 608.28,328.1 c 0,0 -0.07,0.91 -0.28,1.3 -0.48,0.88 -1.51,1.51 -2.23,2.23 -0.19,0.19 -0.07,1.3 -0.67,0.97 -0.58,-0.32 1.91,-2.75 2.2,-3.4 1.66,-3.75 -3.4,-5.7 -6.1,-5.7 -0.1,0 -0.1,0 -0.1,0 0,0 -0.59,0.31 -0.7,0.1 -0.13,-0.27 0.16,-0.68 0.4,-0.8 1.96,-0.95 5.25,0.71 6.4,2.3 1.97,2.74 0.75,4.35 -1.36,6.46"
       fill="#000000" /><path
       id="path1468"
       d="m 606.2,331.1 c 0,0 -0.56,0.52 -0.9,0.47 -1.03,-0.13 -1.84,-0.33 -2.7,-0.97 -1.26,-0.94 -5.85,-5.52 -3,-6.95 0.1,-0.05 0.83,-0.29 1.2,-0.42 0.56,-0.18 2.74,0.14 2.6,0.97 -0.12,0.71 -2.07,-0.09 -2.4,-0.18 -0.1,-0.02 -0.97,0.29 -1.4,0.44 -0.1,0.04 0.75,2.13 1.17,3.17 0.48,1.19 3.41,3.83 4.83,3.12 0.1,-0.05 0.59,-0.66 0.7,-0.45 0.25,0.47 -0.33,0.96 -0.63,1.18 m -6.27,-6.88 c 0,0 0,-0.07 0,-0.1 m 0.3,-0.9 c 0,0 0,0 0,0 m 6.5,7.5 c 0,0 0,0 0,0 0,0 0,0 0,0"
       fill="#000000" /><path
       id="path1470"
       d="m 605.8,332.38 c 0,0 -1.34,0.29 -2,0.17 -1.27,-0.23 -2.58,-1.09 -3.6,-1.85 -1.42,-1.06 -2.88,-2.71 -3.29,-4.5 -0.23,-1 -0.07,-2.11 1.09,-1.92 0.1,0.02 0.05,0.78 -0.2,0.72 -0.1,0 0.09,2.1 0.7,2.9 1.79,2.36 3.72,3.39 6.5,3.88 0.1,0.02 0.17,-1.11 0.5,-0.98 1.11,0.45 0.05,1.79 -0.7,1.88 m -7.1,-7.88 c 0,0 0,0.07 0,0.1 m 0.4,-0.6 c 0,0 0,0 0,0"
       fill="#000000" /><path
       id="path1472"
       d="m 597,328.5 c 0,0 -1.41,0.9 -2.12,1.35 -0.08,0.05 0.43,1.43 1.02,1.75 0.17,0.09 0.51,-0.05 0.7,0 0.3,0.08 0.38,0.44 0.1,0.6 -1.17,0.67 -2.89,-1.34 -2.7,-2.4 0.15,-0.82 1.98,-1.55 2.5,-1.9 0,0 0.74,0.05 0.7,0.3 -0.11,0.68 -1.85,1.35 -2.23,1.59 M 594.8,330 c 0,0 0,0 0,0 m 2.2,-1.5 c 0,0 0,0 0,0 0,0 0,0 0,0"
       fill="#000000" /><path
       id="path1474"
       d="m 598.85,329.8 c 0,0 -2.23,3.07 -2.95,2.1 -0.75,-1 3.26,-2.73 2.95,-2.1"
       fill="#000000" /><path
       id="path1476"
       d="m 633.68,323.2 c 0,0 -0.17,0.73 -0.25,1.1 -0.17,0.77 -0.53,1.21 -0.99,1.89 -0.91,1.36 -3.31,2.42 -4.94,1.71 -2.02,-0.88 -4.24,-5.66 -2.47,-7.43 0.07,-0.07 0.19,-0.29 0.27,-0.37 0.1,-0.1 0.37,-0.3 0.5,-0.4 0,0 1.3,-0.58 2,-0.6 1.47,-0.05 3.61,0.52 4.8,1.5 2.03,1.68 0.78,4.18 -0.39,5.93 m 0.63,-4.21 c 0,0 -0.63,-0.91 -1.09,-1.17 -1.1,-0.6 -2.34,-1.38 -3.65,-1.17 -0.1,0.02 -1.42,0.14 -2,0.42 -0.38,0.18 -0.8,1 -0.8,1 0,0 0.18,1.6 0.27,2.4 0.16,1.51 1.64,3.56 3.33,3.5 2.15,-0.07 4.58,-2.65 4,-4.9 -0.27,-1.03 -1.76,-1.58 -2.52,-2"
       fill="#000000" /><path
       id="path1478"
       d="m 636.06,336.19 c 0,0 -0.43,1.22 -0.9,1.61 -1.08,0.9 -2.41,1.55 -3.86,1 -1.62,-0.61 -3.92,-3.67 -2.29,-5.03 0.09,-0.07 0.76,-1.39 1.39,-1.67 1.45,-0.66 3.47,-0.18 4.6,0.9 1.86,1.79 1.07,4.04 -0.64,5.47 m 1,-2.67 c 0,0 -0.35,-1.6 -0.86,-2.2 -1.08,-1.26 -2.99,-1 -4.3,-0.5 0,0 0.81,0.16 0.7,0.4 -0.2,0.43 -1.35,0.9 -1.72,1.14 -0.08,0.06 0.47,1.53 0.92,2.16 0.7,0.99 2.15,1.78 3.4,1.3 2.78,-1.06 1.79,-4.05 -0.23,-5.2"
       fill="#000000" /><path
       id="path1480"
       d="m 623.2,332.73 c 0,0 -0.14,0.79 -0.27,1.17 -0.22,0.68 -0.78,1.55 -1.33,2 -0.95,0.77 -2.66,0.79 -3.8,0.6 -1.28,-0.22 -3.05,-2.92 -2.7,-4.2 0.17,-0.63 1.01,-1.21 1.43,-1.72 0.07,-0.08 0.2,-0.12 0.27,-0.15 0.1,-0.03 0.33,-0.5 0.45,-0.73 0.05,-0.1 0.68,-0.53 1.05,-0.6 0.56,-0.11 1.37,0.08 1.87,0.32 1.96,0.91 3.41,2.53 2.7,4.68 m -0.43,-1.48 c 0,0 -0.82,-1.22 -1.34,-1.72 -0.95,-0.92 -2.11,-1.17 -3.3,-0.64 -0.1,0.04 -0.1,0.11 -0.1,0.14 0,0 -1.77,1.18 -1.8,2.1 -0.03,0.93 0.92,2.5 1.72,3.13 0.08,0.07 1.08,0.17 1.58,0.25 0.1,0.02 0.97,-0.23 1.4,-0.39 0.7,-0.26 1.28,-1 1.6,-1.69 0.72,-1.57 -0.85,-2.72 -2.03,-3.58 m -3.57,0.28 c 0,0 0,0 0,0 m 0.7,-0.9 c 0,0 0,0 0,0"
       fill="#000000" /><path
       id="path1482"
       d="m 621.08,324 c 0,0 -0.46,1.43 -0.91,2.01 -0.74,0.97 -2.35,1.6 -3.57,1.19 -2.74,-0.92 -4.04,-3.92 -2.65,-6.31 0.05,-0.09 0.18,-0.51 0.35,-0.62 0.1,-0.07 0.52,-0.67 0.8,-0.59 0.1,0.02 0.75,-0.31 1.1,-0.4 0.75,-0.17 1.51,-0.12 2.2,0.32 2.52,1.6 3.28,4.46 1.52,6.74 m 0.33,-2.43 c 0,0 -0.97,-1.72 -1.45,-2.58 -0.58,-1.02 -1.35,-1.51 -2.5,-1.25 -0.1,0.02 -0.57,0.33 -0.8,0.25 -0.1,-0.03 -0.23,0.06 -0.3,0.1 -0.1,0.07 -1.28,1.51 -1.3,2.37 -0.02,0.88 0.78,2.24 1.4,2.8 2.04,1.84 4.06,0.66 4.96,-1.51"
       fill="#000000" /><path
       id="path1484"
       d="m 625,349.1 c 0,0 -0.52,0.29 -0.8,0.29 -2.58,-0.06 -3.25,0.15 -5.23,-0.58 -4.41,-1.62 -8.49,-4.96 -10.59,-9.16 -0.41,-0.81 -1.23,-2.76 -0.78,-3.65 0.43,-0.86 1.25,2.69 1.34,2.89 1.02,2.14 2.25,4.04 4.16,5.51 2.53,1.95 5.1,3.22 8.02,4.29 0.81,0.29 4.31,-0.04 3.88,0.61"
       fill="#000000" /><path
       id="path1486"
       d="m 578.4,322.2 c 0,0 -0.38,0.12 -0.5,0 -0.1,-0.1 -0.08,-0.02 -0.1,0 -0.1,0 -0.97,-0.12 -1.4,-0.19 -0.83,-0.11 -1.67,-0.22 -2.5,-0.33 -1.92,-0.26 -3.84,-0.37 -5.8,-0.45 -0.37,-0.02 -1.48,-0.29 -1.7,-0.18 -0.1,0.05 -0.88,0.03 -0.9,-0.25 -0.02,-0.29 0.42,-0.34 0.6,-0.38 0.1,-0.02 1.83,0.2 2.7,0.14 1.85,-0.1 3.77,0.15 5.6,0.43 1,0.16 2,0.31 3,0.46 0.23,0.04 1.78,0.5 0.9,0.85 m -12.1,-1.9 c 0,0 0,0 0,0 m 11.5,1.8 c 0,0 0,0 0,0 0,0 0.1,0.1 0.1,0.1"
       fill="#000000" /><path
       id="path1488"
       d="m 589,330.2 c 0,0 -0.51,0.08 -0.6,-0.1 -0.1,-0.1 -0.68,-0.54 -0.97,-0.77 -1.55,-1.22 -3.11,-2.44 -4.66,-3.66 -0.19,-0.15 -0.62,-0.36 -0.47,-0.67 0.21,-0.41 0.65,0.09 0.89,0.26 1.54,1.13 3.08,2.25 4.62,3.38 0.44,0.32 1.76,1.16 1.09,1.66"
       fill="#000000" /><path
       id="path1490"
       d="m 600.53,340.4 c 0,0 -0.82,0.03 -1.2,-0.1 -1.31,-0.46 -3.83,-0.22 -3.83,-1.6 0,-0.9 4.44,1.08 4.7,1.17 0.1,0.03 0.1,0.03 0.1,0.03 0,0 0.1,0 0.1,0 -0.1,0 -0.08,0.68 -0.3,0.64"
       fill="#000000" /></g></svg>
