<svg xmlns="http://www.w3.org/2000/svg" xmlns:xlink="http://www.w3.org/1999/xlink" xml:space="preserve" version="1.1" width="1188" height="864"><g><path fill="#000000" d="M 219.40,163.70 C 219.40,163.70 219.58,165.06 219.10,165.10 C 218.62,165.14 218.52,163.68 218.38,163.34 C 217.16,160.16 215.63,157.08 214.70,153.80 C 213.91,151.00 213.68,148.10 212.40,145.40 C 209.30,138.83 205.30,132.79 201.05,126.89 C 199.75,125.08 198.31,122.97 196.50,121.80 C 190.96,118.21 185.34,116.29 178.70,116.50 C 178.60,116.50 176.67,116.94 175.70,117.16 C 175.50,117.21 174.91,117.21 175.10,117.30 C 175.31,117.39 172.12,118.60 170.94,119.17 C 167.60,120.77 164.35,121.85 161.68,124.52 C 161.60,124.60 161.20,125.18 160.95,125.42 C 160.11,126.18 159.31,126.97 158.43,127.68 C 156.02,129.60 153.93,131.37 151.73,133.57 C 145.71,139.59 143.09,147.46 148.73,154.52 C 148.80,154.60 149.11,154.87 149.26,155.00 C 150.19,155.80 151.11,156.60 152.04,157.40 C 152.56,157.85 154.32,159.00 155.66,159.75 C 161.37,162.97 166.24,165.73 173.10,165.20 C 177.74,164.84 179.83,162.21 183.30,159.20 C 187.50,155.56 194.86,151.78 196.90,146.10 C 197.81,143.58 197.23,141.00 196.43,138.60 C 196.40,138.50 196.09,138.25 195.93,138.12 C 194.84,137.24 193.76,136.36 192.67,135.48 C 191.68,134.68 190.40,134.19 189.20,133.80 C 187.32,133.18 185.01,133.61 183.20,133.68 C 182.88,133.69 182.11,133.93 181.95,133.60 C 181.90,133.50 181.81,133.53 181.80,133.50 C 181.80,133.30 181.80,133.20 181.80,133.20 C 181.80,133.30 181.78,133.16 181.80,133.10 C 181.90,133.00 182.09,132.76 182.20,132.80 C 182.20,132.90 182.25,132.80 182.30,132.80 C 182.30,132.90 182.30,132.90 182.30,132.90 C 182.40,132.90 183.73,132.83 184.40,132.79 C 185.68,132.73 187.04,132.42 188.30,132.60 C 192.93,133.27 197.93,137.04 198.20,141.90 C 198.68,150.49 189.32,155.04 183.80,159.80 C 180.92,162.28 178.92,164.94 175.30,165.80 C 167.92,167.56 160.90,164.15 154.90,160.23 C 153.45,159.28 152.10,158.45 151.33,157.81 C 150.55,157.16 149.76,156.51 148.98,155.86 C 148.68,155.62 147.93,154.97 148.00,155.00 C 148.19,155.08 147.76,154.67 147.63,154.50 C 147.14,153.84 146.68,153.29 146.36,152.55 C 145.56,150.76 144.36,148.68 144.30,146.60 C 144.10,140.02 150.07,134.05 154.23,129.77 C 154.30,129.70 155.63,128.74 156.30,128.26 C 157.48,127.41 158.65,126.53 159.82,125.66 C 159.90,125.60 160.46,124.81 160.74,124.41 C 161.21,123.74 161.83,123.24 162.46,122.71 C 164.96,120.64 167.87,119.72 170.75,118.27 C 177.69,114.80 185.33,114.72 193.10,118.60 C 198.18,121.13 201.36,125.88 204.64,130.32 C 210.02,137.58 213.33,145.03 215.50,153.60 C 216.26,156.61 217.93,160.13 219.16,163.04 C 219.31,163.39 219.69,164.70 219.30,164.97 M 148.80,154.60 C 148.80,154.60 148.80,154.60 148.80,154.60 M 154.30,129.70 C 154.30,129.70 154.30,129.70 154.30,129.70"/><path fill="#000000" d="M 159.50,170.00 C 159.50,170.00 159.43,169.93 159.40,169.90 C 159.40,169.90 159.40,169.90 159.40,169.90 M 159.53,170.10 C 159.53,170.10 159.24,170.69 159.00,170.63 C 158.90,170.60 158.83,170.53 158.80,170.50 C 158.70,170.40 158.70,170.40 158.70,170.40 C 158.70,170.30 157.97,169.46 157.64,169.02 C 156.85,167.97 156.05,166.93 155.26,165.88 C 154.36,164.68 153.99,163.17 153.20,161.90 C 153.02,161.61 150.77,159.38 151.60,159.10 C 152.12,158.93 153.18,160.55 153.50,161.00 C 155.50,163.85 157.00,166.86 159.13,169.70 C 159.20,169.80 159.34,169.86 159.40,169.90 C 159.50,170.00 159.50,170.00 159.50,170.00"/><path fill="#000000" d="M 186.36,172.00 C 186.36,172.00 186.08,172.95 185.85,173.39 C 185.37,174.31 184.97,175.27 184.32,176.08 C 181.66,179.37 178.34,181.57 175.81,184.79 C 175.13,185.66 173.54,187.97 172.30,187.70 C 171.58,187.55 172.51,186.84 172.72,186.67 C 173.97,185.66 174.94,184.36 176.13,183.17 C 179.39,179.91 184.30,176.86 185.50,172.10 C 187.32,164.85 176.05,165.18 172.00,166.08 C 171.90,166.10 170.32,166.97 169.53,167.41 C 168.74,167.84 167.97,168.04 167.28,168.63 C 167.20,168.70 167.20,168.77 167.20,168.80 C 167.20,168.80 167.20,168.80 167.20,168.80 C 167.20,168.80 166.57,168.72 166.60,168.50 C 166.64,168.23 167.11,167.61 167.40,167.40 C 168.04,166.94 169.33,166.49 170.08,166.11 C 172.47,164.92 175.70,164.33 178.40,164.50 C 182.09,164.74 187.20,167.45 186.40,171.90 C 186.19,173.10 185.33,174.39 184.80,175.42 M 167.20,168.80 C 167.20,168.80 167.20,168.80 167.20,168.80 C 167.20,168.80 167.20,168.80 167.20,168.80 C 167.20,168.80 167.20,168.80 167.20,168.80"/><path fill="#000000" d="M 192.28,201.40 C 192.28,201.40 192.44,202.38 192.10,202.60 C 191.29,203.13 190.28,201.95 189.38,201.61 C 187.19,200.81 185.16,200.27 182.90,199.82 C 182.80,199.80 182.40,199.73 182.20,199.69 C 181.80,199.62 179.17,199.26 177.90,198.90 C 175.12,198.11 170.80,196.18 168.50,195.00 C 161.79,191.55 156.82,186.83 155.41,179.20 C 155.01,177.02 156.40,172.00 158.40,171.00 C 158.75,170.83 159.04,171.46 158.80,171.70 C 158.33,172.17 156.44,175.86 156.20,177.60 C 155.56,182.18 159.37,187.62 162.70,190.30 C 168.46,194.93 175.77,197.80 183.00,199.00 C 185.10,199.35 187.16,199.93 189.20,200.57 C 189.97,200.81 190.91,201.29 191.54,201.56 C 191.73,201.64 192.26,201.93 192.10,201.80 C 191.92,201.65 191.27,200.83 192.00,201.00 C 192.52,201.12 192.22,202.63 191.90,202.55"/><path fill="#000000" d="M 227.30,184.50 C 227.30,184.50 227.30,184.50 227.30,184.50 C 227.20,184.40 227.20,184.40 227.20,184.40 M 227.10,184.40 C 227.10,184.40 227.03,184.27 227.00,184.20 C 227.00,184.20 226.13,183.15 225.77,182.58 C 224.80,181.00 223.86,179.41 222.91,177.82 C 221.04,174.68 219.88,171.77 218.61,168.37 C 218.36,167.69 217.33,164.64 218.00,164.70 C 218.46,164.74 218.67,166.38 218.81,166.77 C 220.39,171.06 222.20,174.80 224.41,178.77 C 225.40,180.56 227.01,182.51 227.90,184.00 C 228.09,184.32 227.75,184.95 227.40,184.60 C 227.30,184.50 227.23,184.50 227.20,184.50"/><path fill="#000000" d="M 226.70,185.35 C 226.70,185.35 226.23,185.37 226.15,185.20 C 226.10,185.10 225.67,186.03 225.31,186.39 C 224.54,187.16 223.71,187.85 222.88,188.57 C 220.56,190.59 217.48,192.67 215.38,194.24 C 212.53,196.38 209.54,199.03 206.40,200.70 C 204.97,201.46 203.33,201.83 201.90,202.60 C 200.21,203.50 198.74,204.85 196.90,205.47 C 196.80,205.50 194.81,206.07 195.00,205.50 C 195.18,204.97 196.87,204.57 197.36,204.34 C 197.58,204.24 199.45,203.08 199.50,203.10 C 199.89,203.29 202.23,201.53 203.08,201.19 C 207.98,199.23 212.21,195.55 216.40,192.40 C 218.47,190.85 220.55,189.30 222.62,187.76 C 223.37,187.20 225.38,185.72 225.30,185.10 C 225.20,184.37 225.11,183.63 225.01,182.90 C 225.00,182.80 224.37,181.43 224.02,180.76 C 221.70,176.35 221.14,175.32 219.63,171.00 C 219.60,170.90 218.39,168.59 217.78,167.43 C 217.36,166.63 217.07,165.47 216.50,164.90 C 216.17,164.57 216.97,164.36 217.33,164.82 C 217.40,164.90 217.77,165.70 217.96,166.11 C 218.00,166.20 217.91,165.67 217.84,165.42 C 217.48,164.10 217.14,163.01 216.97,161.70 C 216.94,161.43 216.79,160.12 217.50,160.50 C 218.70,161.14 218.57,164.75 219.06,166.29 C 220.88,172.00 224.08,177.05 225.97,182.70 C 226.00,182.80 226.31,183.53 226.46,183.90 C 226.50,184.00 226.67,184.33 226.75,184.50 C 226.80,184.60 226.80,184.60 226.80,184.60 C 226.80,184.80 226.80,184.80 226.80,184.80 C 226.80,184.80 226.62,185.40 226.40,185.35 M 217.40,164.90 C 217.40,164.90 217.40,164.90 217.40,164.90 M 226.80,184.60 C 226.80,184.60 226.80,184.60 226.80,184.60"/><path fill="#000000" d="M 194.20,205.67 C 194.20,205.67 193.56,205.61 193.29,205.45 C 193.20,205.40 191.65,203.85 190.87,203.07 C 190.80,203.00 190.45,202.79 190.28,202.68 C 189.16,201.99 188.04,201.31 186.92,200.62 C 186.73,200.50 186.20,200.27 186.20,200.00 C 186.20,199.05 189.60,201.44 189.61,201.45 C 189.70,201.50 190.40,201.90 190.72,202.14 C 190.80,202.20 191.66,202.77 192.09,203.06 C 192.88,203.58 193.43,204.33 194.10,205.00 C 194.20,205.10 194.20,205.10 194.20,205.10 C 194.20,205.10 194.13,205.84 193.90,205.77 M 193.20,205.40 C 193.20,205.40 193.20,205.40 193.20,205.40 C 193.20,205.40 193.20,205.50 193.20,205.50 M 193.60,205.60 C 193.60,205.60 193.60,205.60 193.60,205.60"/><path fill="#000000" d="M 246.70,209.50 C 246.70,209.50 245.86,211.12 245.44,211.93 C 244.67,213.42 243.26,214.62 242.08,215.83 C 236.82,221.22 233.23,228.28 225.70,231.00 C 222.92,232.00 218.93,231.71 216.33,230.67 C 215.26,230.24 213.39,230.34 213.20,229.20 C 213.04,228.22 217.13,230.04 217.21,230.07 C 219.16,230.75 223.06,231.07 225.30,230.30 C 231.15,228.29 233.76,223.91 237.40,219.50 C 240.27,216.02 244.05,213.39 245.96,209.19 C 246.00,209.10 245.46,208.40 245.17,208.08 C 244.59,207.44 244.02,206.80 243.47,206.14 C 241.73,204.05 240.19,202.26 238.55,199.99 C 237.19,198.09 236.01,196.05 234.90,194.00 C 233.13,190.73 231.60,185.36 227.40,184.52 C 227.30,184.50 226.82,184.98 226.57,185.23 C 226.50,185.30 226.50,185.30 226.50,185.30 C 226.50,185.30 226.70,185.23 226.70,185.30 C 226.70,185.30 227.05,185.54 227.00,185.70 C 226.88,186.07 226.42,185.81 226.20,185.73 C 226.10,185.70 226.72,183.67 227.50,183.80 C 229.00,184.05 229.95,184.43 231.00,185.60 C 233.16,188.02 234.29,190.99 235.80,193.80 C 237.57,197.09 239.50,199.80 241.65,202.81 C 242.81,204.43 244.37,205.91 245.70,207.40 C 246.10,207.85 247.13,208.67 246.80,209.40 M 226.10,185.70 C 226.10,185.70 226.10,185.70 226.10,185.70 C 226.10,185.70 226.10,185.70 226.10,185.70 M 226.50,185.30 C 226.50,185.30 226.37,185.43 226.40,185.40 M 246.10,209.00 C 246.10,209.00 246.10,209.00 246.10,209.00 C 246.10,209.00 246.10,209.00 246.10,209.00"/><path fill="#000000" d="M 215.77,227.40 C 215.77,227.40 214.51,228.73 213.70,229.10 C 212.46,229.67 210.38,229.56 209.30,228.70 C 207.42,227.20 206.59,224.28 205.10,222.40 C 202.29,218.86 198.24,216.14 195.04,212.94 C 192.76,210.66 191.90,208.72 193.84,206.08 C 193.90,206.00 194.36,205.62 194.60,205.70 C 194.85,205.79 194.79,206.19 194.60,206.30 C 194.50,206.30 194.50,206.30 194.50,206.30 C 194.50,206.30 194.05,206.92 193.90,207.27 C 193.60,207.96 193.28,208.82 193.50,209.60 C 193.83,210.77 195.20,211.92 196.02,212.71 C 198.99,215.59 202.62,218.15 205.30,221.30 C 206.73,222.98 208.04,225.57 209.15,227.41 C 209.20,227.50 209.81,228.11 210.20,228.23 C 211.11,228.51 212.15,228.81 213.10,228.50 C 213.70,228.31 214.98,226.75 215.60,227.00 C 216.41,227.33 214.57,228.45 213.87,228.98 M 193.90,206.00 C 193.90,206.00 193.90,206.00 193.90,206.00 M 194.50,206.30 C 194.50,206.30 194.50,206.30 194.50,206.30 C 194.50,206.30 194.50,206.30 194.50,206.30 M 194.50,206.30 C 194.50,206.30 194.60,206.30 194.60,206.30"/><path fill="#000000" d="M 201.90,214.90 C 201.90,214.90 201.90,214.90 201.90,214.90 M 198.90,214.40 C 198.90,214.40 198.87,214.50 198.90,214.50 M 201.50,215.10 C 201.50,215.10 201.50,215.10 201.50,215.10 C 201.50,215.10 201.60,215.10 201.60,215.10 M 225.60,205.10 C 225.60,205.10 225.60,205.10 225.60,205.10 M 231.70,214.40 C 231.70,214.40 231.70,214.50 231.70,214.50 M 231.70,214.40 C 231.70,214.40 230.48,215.64 229.77,216.13 C 228.36,217.12 226.90,218.08 225.63,219.24 C 222.61,221.99 219.62,224.07 216.40,226.60 C 215.41,227.38 214.64,228.58 213.50,229.15 C 213.40,229.20 212.91,229.58 212.80,229.40 C 212.51,228.90 213.19,228.45 213.50,228.26 C 213.60,228.20 214.07,227.64 214.34,227.38 C 214.85,226.90 215.43,226.24 216.05,225.83 C 218.24,224.39 219.95,223.26 221.92,221.66 C 222.00,221.60 223.17,220.48 223.76,219.92 C 224.39,219.32 225.03,218.72 225.66,218.12 C 227.09,216.76 230.13,214.97 230.90,214.20 C 231.00,214.10 230.82,213.42 230.65,213.11 C 230.26,212.42 229.91,211.74 229.41,211.13 C 228.39,209.91 225.59,207.31 224.90,205.50 C 224.90,205.40 224.24,205.13 223.97,204.91 C 223.37,204.43 222.77,203.95 222.18,203.46 C 222.10,203.40 220.71,204.40 219.99,204.85 C 218.62,205.68 217.56,207.05 216.19,207.93 C 211.92,210.67 206.94,213.71 202.00,214.88 C 201.90,214.90 201.69,214.98 201.60,215.04 C 201.50,215.10 200.01,215.40 199.30,215.23 C 199.20,215.20 198.44,214.90 198.50,214.60 C 198.56,214.33 199.01,214.13 199.15,214.40 C 199.20,214.50 200.90,213.93 200.90,214.50 C 200.90,214.72 201.50,213.98 201.50,214.20 C 201.50,215.06 203.17,213.83 204.00,213.60 C 205.87,213.08 209.40,210.74 210.85,210.06 C 214.03,208.57 216.78,206.50 219.45,204.23 C 219.74,203.98 221.89,202.30 222.40,202.70 C 223.55,203.59 225.04,204.82 225.50,205.05 C 225.60,205.10 226.00,205.69 226.21,205.98 C 226.64,206.60 227.17,207.13 227.66,207.71 C 228.56,208.79 232.37,212.38 231.73,214.30"/><path fill="#000000" d="M 231.80,109.80 C 231.80,109.80 231.80,109.80 231.80,109.80 M 210.40,140.60 C 210.40,140.60 210.40,140.60 210.40,140.60 M 210.44,140.50 C 210.44,140.50 211.37,137.59 212.09,136.25 C 213.54,133.53 215.00,130.81 216.45,128.09 C 216.50,128.00 216.68,127.64 216.77,127.45 C 217.59,125.78 218.41,124.12 219.23,122.45 C 220.43,120.00 221.41,117.42 223.30,115.40 C 224.79,113.81 226.62,111.95 228.70,111.00 C 229.46,110.65 232.04,110.01 232.00,109.80 C 231.90,109.80 232.70,109.72 233.10,109.76 C 234.14,109.86 235.39,109.95 236.50,110.10 C 239.55,110.52 242.41,111.47 245.30,112.54 C 250.91,114.62 255.57,117.75 260.47,121.22 C 263.39,123.29 266.58,125.33 269.00,128.00 C 269.99,129.10 271.78,131.30 272.20,133.00 C 273.21,137.08 271.11,141.84 269.68,145.57 C 269.24,146.73 268.23,151.02 266.70,151.70 C 266.60,151.70 265.63,152.62 265.21,153.14 C 264.48,154.03 263.71,155.69 262.60,156.25 C 262.50,156.30 262.14,156.84 261.96,157.11 C 261.90,157.20 261.10,157.29 261.00,157.00 C 261.00,157.00 261.13,156.80 261.20,156.70 C 261.20,156.70 261.90,155.70 262.30,155.24 C 263.40,153.97 264.43,152.77 265.60,151.60 C 268.36,148.84 268.96,144.69 270.46,141.10 C 270.50,141.00 270.89,139.13 271.08,138.20 C 271.50,136.15 271.88,133.91 270.80,132.00 C 267.50,126.15 259.95,121.39 254.40,117.90 C 249.57,114.86 245.02,113.23 239.78,111.67 C 238.18,111.20 236.55,110.90 234.90,110.74 C 234.23,110.68 233.57,110.62 232.90,110.56 C 232.85,110.55 232.30,110.51 232.30,110.50 C 232.30,110.29 231.70,110.49 231.70,110.70 C 231.70,110.73 229.92,111.43 229.40,111.70 C 227.09,112.90 225.43,114.45 223.50,116.60 C 221.40,118.94 220.60,122.05 219.20,124.80 C 216.44,130.20 213.41,135.10 211.24,140.80 C 211.20,140.90 211.20,140.90 211.20,140.90 C 211.20,140.90 211.20,140.90 211.20,140.90 C 211.20,140.90 211.20,140.90 211.20,140.90 C 211.20,141.00 211.24,141.27 211.20,141.40 C 211.20,141.40 211.20,141.40 211.20,141.40 C 211.10,141.40 210.97,141.48 210.90,141.50 C 210.80,141.50 210.80,141.50 210.80,141.50 C 210.70,141.40 210.49,140.94 210.42,140.70"/><path fill="#000000" d="M 261.20,158.30 C 261.20,158.30 261.20,158.30 261.20,158.30 M 245.20,179.70 C 245.20,179.70 245.20,179.70 245.20,179.70 M 247.60,178.50 C 247.60,178.50 247.47,178.54 247.50,178.53 M 247.70,177.80 C 247.70,177.80 247.70,177.80 247.70,177.80 C 247.60,177.90 247.67,177.90 247.70,177.90 M 247.60,178.50 C 247.60,178.50 247.60,178.50 247.60,178.50 M 247.90,178.40 C 247.90,178.40 247.90,178.40 247.90,178.40 M 260.50,177.40 C 260.50,177.40 260.50,177.40 260.50,177.40 C 260.50,177.40 260.60,177.40 260.60,177.40 M 244.70,179.30 C 244.70,179.30 244.70,179.30 244.70,179.30 C 244.70,179.30 244.70,179.30 244.70,179.30 M 237.30,188.80 C 237.30,188.80 237.30,188.80 237.30,188.80 M 247.60,178.50 C 247.60,178.50 247.60,178.50 247.60,178.50 C 247.60,178.50 247.69,178.60 247.65,178.60 M 247.40,178.67 C 247.40,178.67 247.28,178.81 247.20,178.80 C 247.10,178.70 246.09,179.43 245.50,179.58 C 245.40,179.60 243.70,180.42 243.70,181.20 C 243.70,181.56 241.70,183.02 241.70,183.50 C 241.70,183.66 241.30,184.56 240.59,185.04 C 240.50,185.10 240.03,186.38 239.60,186.90 C 239.00,187.62 238.00,190.89 237.33,188.90 C 237.30,188.80 237.97,187.65 238.33,187.10 C 238.37,187.04 239.00,186.48 239.00,186.50 C 239.00,186.99 239.24,184.75 240.20,184.43 C 240.30,184.40 240.89,183.58 241.18,183.17 C 241.34,182.94 242.08,182.60 241.80,182.60 C 241.39,182.60 243.98,179.96 244.62,179.37 C 244.70,179.30 244.70,179.30 244.70,179.30 C 244.70,179.30 244.80,179.20 244.80,179.20 C 244.70,179.30 244.91,178.90 245.10,178.90 C 245.20,178.90 246.20,178.40 246.71,178.15 C 246.80,178.10 246.92,177.94 247.00,177.90 C 247.10,177.90 247.53,177.72 247.70,177.83 C 247.80,177.90 249.80,177.87 250.80,177.95 C 253.22,178.15 255.50,178.34 257.90,177.70 C 261.94,176.62 264.08,172.92 265.90,169.10 C 267.39,165.97 266.31,163.78 263.64,161.39 C 263.06,160.87 261.19,158.80 260.50,158.80 C 260.30,158.80 260.29,158.30 260.40,158.20 C 260.66,157.97 260.96,158.18 261.20,158.30 C 261.20,158.30 262.03,158.72 262.40,159.00 C 262.97,159.44 263.92,160.52 264.17,160.77 C 265.31,161.91 267.64,164.42 267.70,166.30 C 267.78,168.70 264.58,173.43 263.50,174.65 C 262.94,175.29 261.71,177.08 260.60,177.40 C 260.50,177.40 259.82,177.79 259.48,177.99 C 258.86,178.36 258.11,178.59 257.40,178.67 C 254.32,179.02 251.27,179.13 248.20,178.52 C 248.10,178.50 247.85,178.50 247.72,178.50 C 247.60,178.50 247.60,178.50 247.60,178.50 C 247.60,178.50 247.60,178.50 247.60,178.50 C 247.60,178.50 247.53,178.57 247.50,178.60"/><path fill="#000000" d="M 236.10,190.40 C 236.10,190.40 236.23,190.47 236.20,190.45 M 233.30,189.10 C 233.30,189.10 233.30,189.10 233.30,189.10 M 236.00,190.50 C 236.00,190.50 236.10,190.50 236.15,190.50 C 236.30,190.50 236.80,188.66 237.40,188.90 C 238.06,189.16 236.98,191.49 236.30,191.15 C 236.20,191.10 234.40,190.90 233.70,190.40 C 233.47,190.23 232.02,189.10 233.20,189.10 C 233.30,189.10 233.91,189.81 233.80,189.60 C 233.74,189.47 234.23,189.76 234.50,189.90 C 234.98,190.14 235.48,190.25 236.00,190.38"/><path fill="#000000" d="M 235.66,190.89 C 235.66,190.89 235.16,194.19 234.00,194.00 C 233.16,193.86 234.34,192.31 234.72,191.55 C 234.82,191.37 234.86,190.86 235.00,191.00 C 235.10,191.10 235.67,190.58 235.70,190.80 C 235.80,191.56 234.90,193.40 234.20,193.87"/><path fill="#000000" d="M 205.50,228.40 C 205.50,228.40 205.50,228.40 205.50,228.40 M 197.90,227.50 C 197.90,227.50 197.90,227.50 197.90,227.50 M 198.00,227.50 C 198.00,227.50 195.98,226.77 194.97,226.41 C 193.11,225.74 191.21,224.30 189.54,223.22 C 183.93,219.59 177.27,215.91 174.30,209.50 C 172.93,206.53 174.21,203.61 175.95,201.10 C 176.51,200.28 176.71,198.70 177.70,198.70 C 177.80,198.70 177.93,198.57 178.00,198.50 C 178.00,198.50 178.07,198.49 178.10,198.50 C 178.20,198.60 178.27,198.60 178.30,198.60 C 178.30,198.60 178.30,198.60 178.30,198.60 C 178.40,198.70 178.40,198.77 178.40,198.80 C 178.40,198.90 178.38,199.14 178.30,199.20 C 178.20,199.20 177.06,200.88 176.46,201.70 C 175.38,203.19 174.91,204.87 174.33,206.60 C 174.30,206.70 174.53,207.57 174.64,208.00 C 174.82,208.68 175.13,209.30 175.50,209.90 C 176.83,212.09 178.15,213.50 179.89,215.36 C 181.78,217.39 185.49,219.73 186.82,220.73 C 189.45,222.73 195.01,226.47 198.30,226.80 C 198.40,226.80 200.16,227.52 201.10,227.60 C 201.93,227.67 203.86,228.50 205.40,228.50 C 205.50,228.50 205.50,228.43 205.50,228.40 C 205.50,228.40 205.93,227.79 206.14,227.48 C 206.47,227.01 207.16,226.70 207.62,226.36 C 207.70,226.30 207.90,225.73 208.10,225.80 C 208.31,225.87 208.57,226.38 208.50,226.60 C 208.32,227.15 206.38,228.46 206.10,228.60 C 206.00,228.65 206.17,229.21 206.10,229.30 C 205.93,229.51 205.30,229.20 205.30,229.20 C 205.30,229.20 202.71,228.90 201.50,228.44 C 201.40,228.40 199.12,227.85 198.00,227.53"/><path fill="#000000" d="M 252.11,150.05 C 252.11,150.05 251.44,150.17 251.50,150.40 C 251.54,150.57 249.61,151.16 248.97,151.39 C 247.68,151.86 246.65,151.94 245.30,151.60 C 240.56,150.42 237.04,146.62 232.59,144.64 C 232.50,144.60 231.51,143.87 231.01,143.50 C 230.00,142.76 228.94,142.06 227.91,141.35 C 224.93,139.30 222.02,137.12 220.00,134.10 C 216.91,129.49 217.95,125.39 220.26,120.55 C 221.24,118.50 222.48,116.11 224.30,115.20 C 224.59,115.06 224.75,115.60 224.60,115.80 C 224.00,116.60 222.52,117.75 221.82,119.16 C 220.29,122.22 217.53,127.03 218.95,130.57 C 221.66,137.36 229.26,141.51 235.20,145.00 C 239.40,147.47 242.15,150.13 247.00,150.98 C 247.10,151.00 247.48,150.87 247.67,150.80 C 248.14,150.65 250.41,149.60 251.58,149.60 C 251.70,149.60 252.24,149.79 252.20,150.00 C 252.18,150.10 251.48,150.31 251.50,150.40 M 232.50,144.60 C 232.50,144.60 232.50,144.60 232.50,144.60 C 232.50,144.60 232.50,144.60 232.50,144.60"/><path fill="#000000" d="M 234.00,161.40 C 234.00,161.40 234.00,161.40 234.00,161.40 M 239.70,169.30 C 239.70,169.30 239.80,169.30 239.80,169.30 M 255.70,158.00 C 255.70,158.00 255.96,157.97 255.90,158.00 M 234.01,161.30 C 234.01,161.30 234.55,159.84 234.91,159.15 C 235.01,158.97 235.20,158.39 235.20,158.60 C 235.20,158.99 235.70,157.98 236.03,157.79 C 236.99,157.22 239.58,155.25 240.80,155.40 C 242.36,155.59 244.34,155.57 246.20,155.60 C 249.23,155.65 252.20,156.95 255.10,157.68 C 255.20,157.70 255.49,157.84 255.62,157.94 C 255.70,158.00 255.71,158.63 255.50,158.60 C 255.40,158.60 253.47,158.00 252.50,157.73 C 250.40,157.14 248.53,156.64 246.30,156.50 C 244.99,156.42 243.73,156.36 242.40,156.24 C 242.28,156.23 241.00,156.17 241.00,156.10 C 241.00,155.75 240.39,156.46 240.06,156.59 C 239.18,156.92 238.39,157.43 237.57,157.90 C 237.22,158.10 236.88,158.30 236.53,158.50 C 236.35,158.60 236.00,159.00 236.00,158.80 C 236.00,158.73 235.05,160.80 234.80,161.30 C 234.44,162.01 236.11,165.52 236.54,166.21 C 236.60,166.30 238.62,168.25 239.63,169.23 C 239.70,169.30 239.93,169.39 239.97,169.50 C 240.00,169.60 240.00,169.60 240.00,169.60 C 240.00,169.70 239.88,169.86 239.80,169.90 C 239.70,169.90 238.91,169.72 238.63,169.46 C 237.95,168.83 237.05,168.14 236.40,167.40 C 234.97,165.77 234.70,163.50 234.03,161.50"/><path fill="#000000" d="M 263.53,161.60 C 263.53,161.60 261.93,161.02 261.20,160.60 C 259.85,159.82 257.73,159.18 256.20,158.90 C 255.49,158.77 252.00,158.51 252.20,157.90 C 252.32,157.55 253.49,157.90 254.30,157.90 C 256.28,157.90 259.16,158.99 261.30,159.70 C 261.75,159.85 264.00,161.52 263.40,161.80"/><path fill="#000000" d="M 168.90,166.70 C 168.90,166.70 168.81,166.96 168.70,167.03 C 168.60,167.10 168.60,167.10 168.60,167.10 C 168.60,167.10 167.88,167.50 167.52,167.70 C 167.24,167.86 165.30,168.81 165.30,169.10 C 165.30,169.32 163.62,170.51 163.12,170.83 C 162.17,171.44 160.64,173.31 158.70,173.70 C 158.60,173.70 157.63,174.19 157.30,174.60 C 156.69,175.35 155.51,177.76 155.40,176.80 C 155.35,176.39 156.34,174.83 156.43,174.65 C 156.59,174.32 157.26,173.48 157.10,173.80 C 157.08,173.84 157.72,173.29 158.10,173.13 C 158.64,172.90 159.50,172.24 160.19,171.74 C 162.21,170.26 163.85,168.81 166.01,167.55 C 166.74,167.13 167.47,166.40 168.10,166.40 C 168.20,166.40 168.27,166.40 168.30,166.40 C 168.30,166.40 168.30,166.40 168.30,166.40 C 168.40,166.40 168.99,166.84 168.80,166.97 M 158.30,173.60 C 158.30,173.60 158.30,173.60 158.30,173.60 M 161.60,170.90 C 161.60,170.90 161.60,170.90 161.60,170.90 M 162.10,170.60 C 162.10,170.60 162.10,170.60 162.10,170.60 M 164.70,168.50 C 164.70,168.50 164.70,168.50 164.70,168.50 C 164.70,168.50 164.70,168.50 164.70,168.50 M 168.40,166.40 C 168.40,166.40 168.40,166.40 168.40,166.40"/></g></svg>