<?xml version="1.0" encoding="UTF-8" standalone="no"?>
<svg
   xmlns:dc="http://purl.org/dc/elements/1.1/"
   xmlns:cc="http://creativecommons.org/ns#"
   xmlns:rdf="http://www.w3.org/1999/02/22-rdf-syntax-ns#"
   xmlns:svg="http://www.w3.org/2000/svg"
   xmlns="http://www.w3.org/2000/svg"
   xmlns:sodipodi="http://sodipodi.sourceforge.net/DTD/sodipodi-0.dtd"
   xmlns:inkscape="http://www.inkscape.org/namespaces/inkscape"
   inkscape:version="1.0 (4035a4f, 2020-05-01)"
   sodipodi:docname="gloves2.svg"
   id="svg564"
   height="547.52283"
   width="710.23071"
   version="1.1"
   xml:space="preserve"><metadata
     id="metadata570"><rdf:RDF><cc:Work
         rdf:about=""><dc:format>image/svg+xml</dc:format><dc:type
           rdf:resource="http://purl.org/dc/dcmitype/StillImage" /><dc:title></dc:title></cc:Work></rdf:RDF></metadata><defs
     id="defs568" /><sodipodi:namedview
     inkscape:current-layer="svg564"
     inkscape:window-maximized="0"
     inkscape:window-y="23"
     inkscape:window-x="0"
     inkscape:cy="352.47134"
     inkscape:cx="428.25689"
     inkscape:zoom="0.85069444"
     fit-margin-bottom="0"
     fit-margin-right="0"
     fit-margin-left="0"
     fit-margin-top="0"
     showgrid="false"
     id="namedview566"
     inkscape:window-height="480"
     inkscape:window-width="709"
     inkscape:pageshadow="2"
     inkscape:pageopacity="0"
     guidetolerance="10"
     gridtolerance="10"
     objecttolerance="10"
     borderopacity="1"
     bordercolor="#666666"
     pagecolor="#ffffff" /><g
     transform="translate(-165.74311,-79.528661)"
     id="g562"><path
       id="path442"
       d="m 562.9,325 c 0,0 -0.16,0.59 -0.4,0.6 -0.4,0.02 -0.6,-0.89 -0.67,-1.1 -0.03,-0.1 -0.25,-0.44 -0.36,-0.61 -1.33,-2.06 -2.71,-4.41 -4.22,-6.47 -3.37,-4.59 -7.5,-9.68 -10.46,-14.53 -11.07,-18.1 -22.85,-35.66 -34.14,-53.61 -6.29,-9.99 -11.18,-21.44 -16.55,-31.88 -9.22,-17.95 -19.66,-35.12 -29.7,-52.6 -5.52,-9.6 -8.82,-16.29 -14.9,-25.4 -9.63,-14.43 -21.81,-28.34 -35.6,-38.9 -10,-7.66 -21.32,-13.83 -33.5,-17.2 -15.25,-4.22 -31.58,-3.13 -47.1,-1.56 -14.83,1.5 -29.78,4.08 -44,8.66 -5.2,1.67 -12.21,4.84 -16.74,6.71 -8.2,3.39 -14.9,6.1 -23.36,10.29 -9.43,4.66 -18.39,10.57 -27.2,16.27 -11.13,7.21 -22.47,13.96 -31.9,23.43 -21.48,21.58 -28.06,55.39 -24.6,84.7 1.48,12.56 5.02,25.43 8.78,37.48 3.38,10.83 6.49,22.01 11.32,32.32 1.93,4.13 4.3,7.44 6.6,11.4 3.99,6.88 7.12,14.16 11.4,20.9 4.93,7.77 11.9,13.7 18.75,19.7 3.16,2.77 7.05,5.65 11.05,7.3 6.05,2.5 12.35,2.02 18.7,1.55 7.41,-0.56 14.39,-2.28 21.1,-5.45 6.25,-2.96 12.1,-6.87 18.35,-9.86 13.31,-6.38 26.65,-12.59 39.35,-20.14 19.13,-11.37 36.3,-25.3 52.24,-40.75 4.49,-4.35 9.73,-8.33 14.59,-12.27 1.7,-1.38 3.75,-2.68 5.07,-4.48 1.49,-2.04 3.28,-4.71 4.6,-6.8 2.53,-4.01 3.39,-8.89 5.06,-13.31 0.04,-0.09 0.56,-0.35 0.74,-0.19 0.27,0.24 0.23,1 -0.1,1.2 -0.1,0 -1.01,2.3 -1.39,3.48 -1.01,3.13 -1.77,6.81 -3.76,9.62 -1.17,1.64 -2.3,3.23 -3.41,4.9 -0.28,0.41 -0.58,0.82 -0.88,1.22 -0.12,0.16 -0.54,0.57 -0.36,0.48 0.19,-0.1 -0.6,0.59 -0.5,0.4 0.15,-0.29 -0.21,0.24 -0.3,0.35 -0.7,0.77 -1.4,1.53 -2.1,2.3 -1.98,2.19 -4.95,3.82 -7.18,5.78 -6.89,6.1 -13.66,12.31 -20.66,18.28 -17.4,14.82 -35.58,28.62 -56.06,39.09 -8.22,4.2 -16.84,7.73 -25.1,11.9 -5.57,2.81 -12.01,6.86 -17.8,9.6 -6.86,3.25 -13.92,4.98 -21.5,5.55 -4.57,0.34 -7.81,0.87 -12.2,0.15 -6.98,-1.14 -12.48,-4.46 -17.86,-9.09 -6.94,-5.99 -13.93,-11.91 -18.94,-19.71 -3.51,-5.47 -6.49,-11.61 -9.5,-17.4 -2.82,-5.42 -6.56,-10.34 -9.1,-15.9 -4.79,-10.51 -8.37,-21.99 -11.46,-33.08 -3.34,-11.96 -6.99,-24.04 -8.44,-36.42 -3.08,-26.3 2.05,-53.57 16.9,-75.7 11.83,-17.62 32.12,-28.29 49.49,-39.38 12.89,-8.22 26.63,-14.64 40.81,-20.32 5.43,-2.18 11.38,-5.06 17.1,-6.9 14.28,-4.6 29.49,-7.39 44.4,-8.76 15.63,-1.43 32.15,-2.61 47.5,1.66 12.13,3.37 23.77,9.63 33.7,17.3 13.81,10.67 25.99,24.64 35.7,39.1 6.61,9.83 8.98,15.11 15,25.6 10.95,19.07 14.61,24.41 25.5,44.6 7.05,13.07 13.09,26.68 20.6,39.5 7.41,12.64 16.12,24.55 24,36.9 3.65,5.73 6.86,11.74 10.6,17.4 3.39,5.13 7.51,9.83 10.82,15.01 1.33,2.07 3.38,3.88 3.86,6.29 0.02,0.1 0.59,0.53 0.42,0.7 M 414.5,249.3 c 0,0 0,0 0,0"
       fill="#000000" /><path
       id="path444"
       d="m 388.19,373.5 c 0,0 -0.23,3.8 -0.35,5.7 -0.21,3.4 -0.81,7.14 -1.84,10.4 -3.43,10.83 -9.64,18.21 -17.7,26 -17.54,16.94 -41.74,21.47 -63.56,30.33 -7.6,3.08 -15.23,5.56 -23.06,7.99 -3.38,1.05 -7.78,1.68 -11.48,1.28 -7.73,-0.83 -14.81,-5.4 -20.67,-10.18 -5.3,-4.33 -10.53,-8.56 -14.63,-14.12 -5.24,-7.1 -9.49,-15.93 -10.3,-24.8 -0.92,-10.03 1.23,-20.07 3.86,-29.68 1.06,-3.88 2.18,-11.64 4.29,-15.33 0.05,-0.09 0.75,-0.23 0.75,0.01 0,0.76 -1.35,4.46 -1.52,5.01 -1.05,3.4 -1.79,7.21 -2.72,10.61 -2.61,9.47 -4.83,19.51 -3.86,29.38 1.58,16.07 12.73,28.62 24.73,38.22 5.9,4.72 12.55,9.17 20.27,9.98 3.38,0.36 7.92,-0.54 10.8,-1.2 13.17,-3.02 25.85,-9.08 38.5,-13.7 12.54,-4.57 24.92,-8.14 36.3,-15.4 6.83,-4.36 11.57,-8.97 17.18,-14.58 2.71,-2.71 5.4,-5.76 7.32,-9.12 2.79,-4.87 5.12,-10.72 5.88,-16.3 0.68,-4.91 1.33,-9.77 0.42,-14.7 -3.59,-19.53 -25.72,-23.6 -42.59,-23.6 -3.86,0 -8.09,0.4 -11.81,1.6 -6.38,2.06 -12.81,5.6 -18.61,8.75 -0.09,0.05 -0.95,0.15 -0.99,-0.15 -0.12,-0.99 2.59,-1.99 3.54,-2.48 3.38,-1.71 6.56,-3.03 10,-4.48 1.93,-0.82 3.78,-1.89 5.76,-2.54 6.79,-2.23 14.97,-2.08 22,-1.2 15,1.87 30.6,7.69 33.6,24.1 0.95,5.19 0.12,10.34 -0.57,15.5"
       fill="#000000" /><path
       id="path446"
       d="m 400.52,506.88 c 0,0 -0.81,0.11 -1.15,-0.08 -2.15,-1.2 -4.29,-2.4 -6.44,-3.6 -2.11,-1.18 -4.65,-2.14 -6.68,-3.05 -7.85,-3.52 -15.8,-6.83 -23.79,-10.02 -10.03,-4.02 -18.75,-10.11 -28.29,-15 -9.24,-4.73 -18.52,-9.25 -27.5,-14.44 -5.03,-2.9 -10.01,-5.69 -14.39,-9.52 -0.08,-0.07 -0.81,-1.27 -0.38,-1.37 0.25,-0.06 0.4,0.84 0.5,0.6 0.15,-0.38 2.35,1.9 3.3,2.6 2.42,1.77 5.03,3.34 7.65,4.8 7.9,4.38 15.79,8.62 23.82,12.74 3.7,1.89 8.6,4.19 12.33,6.46 4.83,2.94 9.5,6.28 14.7,8.6 15.18,6.77 30.95,12.24 45.51,20.35 0.09,0.05 0.55,0.16 0.64,0.35 0.05,0.1 0.15,0.07 0.15,0.1 -0.1,0.1 -0.25,0.81 -0.5,0.75 M 292.2,451.1 c 0,0 0,0 0,0 0,0 0,0 0,0"
       fill="#000000" /><path
       id="path448"
       d="m 561.8,325.6 c 0,0 -0.74,1.91 -1.25,2.79 -1.03,1.78 -2.1,3.55 -3.09,5.35 -3.09,5.57 -5.87,10.7 -8.88,16.33 -3.9,7.31 -6.02,15.68 -9.78,23.13 -3.42,6.78 -7.42,13.02 -11.39,19.49 -5.23,8.53 -14.48,21.62 -21.3,29.77 -4.83,5.78 -18.12,22.31 -25.51,29.94 -3.94,4.07 -8.41,7.27 -12.43,11.23 -8.99,8.84 -18.49,16.45 -28.3,24.49 -2.56,2.09 -6.5,4.74 -9.57,6.08 -2.46,1.08 -5.01,2.03 -7.5,3.1 -7.91,3.41 -14.9,7.6 -23.5,8.88 -0.1,0.02 -0.49,-0.58 -0.3,-0.78 0.25,-0.26 2.12,-0.86 2.35,-0.4 0.05,0.1 1.58,-0.25 2.32,-0.48 1.64,-0.52 3.2,-0.97 4.77,-1.59 4.57,-1.83 8.96,-4.08 13.41,-6.17 5.93,-2.79 11.69,-4.98 17.05,-8.96 5.56,-4.13 10.69,-8.81 16.04,-13.22 4.73,-3.9 8.52,-7.98 13.06,-12.08 4.44,-4.01 7.87,-6.38 12,-10.7 17.19,-17.99 33.73,-38.55 46.81,-59.81 4.05,-6.58 7.73,-12.31 11.19,-19.19 4.06,-8.08 6.48,-16.77 10.68,-24.73 3.62,-6.87 5.2,-10.18 8.61,-15.76 1.12,-1.83 2.11,-3.82 3.12,-5.68 0.18,-0.32 1.39,-2.39 1.39,-0.93 M 399.2,506.2 c 0,0 0,0 0,0 0,0 0,0 0,0 m 0.4,-0.8 c 0,0 -0.07,0 -0.1,0 0.1,0 0.1,0 0.1,0"
       fill="#000000" /><path
       id="path450"
       d="m 561.2,326.2 c 0,0 0,0 0,0 m 91.3,63.1 c 0,0 0.1,0 0.1,0 m -0.1,0 c 0,0 0,0 0,0 0,0 -0.53,-0.37 -0.73,-0.62 -0.07,-0.08 -0.38,-0.33 -0.53,-0.46 -1.12,-0.92 -2.33,-1.81 -3.37,-2.85 -3.11,-3.11 -6.35,-6.02 -9.62,-8.98 -10.61,-9.6 -20.98,-19.15 -32.85,-27.19 -6.9,-4.67 -14.34,-8.83 -20.9,-14 -5.46,-4.31 -8.61,-8.16 -14.8,-12 -2.22,-1.38 -4.67,-0.77 -6.4,1.2 -0.09,0.1 -1.59,3.19 -1.7,3.2 -0.44,0.02 -0.37,-1.02 -0.39,-1.3 -0.01,-0.1 0.3,-0.77 0.45,-1.11 0.27,-0.59 0.78,-1.24 1.24,-1.69 1.87,-1.86 4.56,-2.65 6.9,-1.3 5.73,3.29 10.23,8.49 15.4,12.5 3.05,2.36 8.08,5.48 11,7.46 6.46,4.4 13.14,8.44 19.4,13.14 5.14,3.86 9.46,8.29 14.3,12.6 7.43,6.62 14.87,13.21 22.03,20.13 0.07,0.07 0.76,0.43 0.87,0.77 0,0.1 0.15,0.25 0.1,0.3 -0.1,0 -0.1,0 -0.1,0 -0.1,0.1 -0.17,0.13 -0.2,0.15 -0.1,0.05 -0.1,0.05 -0.1,0.05 0,0 0,0 0,0 0,0 0,0 0,0"
       fill="#000000" /><path
       id="path452"
       d="m 480.27,571.9 c 0,0 -0.64,0.16 -0.91,0.02 -3.35,-1.72 -5.69,-2.84 -8.63,-4.65 -6.24,-3.85 -11.84,-7.64 -17.75,-12.11 -5.48,-4.14 -11.65,-7.26 -17.18,-11.46 -8.36,-6.35 -16.15,-13.54 -24.43,-20.03 -4.37,-3.43 -9.87,-7.42 -13.17,-11.87 -0.59,-0.8 -1.54,-2.19 -1.5,-3.3 0.07,-1.9 3.16,-3.28 4.7,-2.36 0.1,0.06 0.17,0.06 0.2,0.06 0,0 0,0.07 0,0.1 0,0 -4.3,1.04 -4,2.6 0.31,1.61 1.79,3.28 2.95,4.3 3.6,3.16 7.22,6.29 10.85,9.4 13.19,11.3 27.06,21.84 41.49,31.46 3.36,2.24 6.34,5.02 9.71,7.24 2.69,1.78 5.64,3.32 8.36,5.07 2.93,1.87 5.27,3.06 8.61,4.85 0.21,0.11 1.18,0.7 0.53,0.91"
       fill="#000000" /><path
       id="path454"
       d="m 651.89,395.6 c 0,0 -0.16,2.27 -0.25,3.4 -0.12,1.64 -0.73,3.41 -1.1,4.91 -1.39,5.68 -3.46,10.27 -5.79,15.44 -7.52,16.75 -15.05,33.27 -24.15,49.23 -5.95,10.43 -14.29,19.21 -22.3,28.02 -4.17,4.59 -8.16,9.35 -12.7,13.6 -6.41,6 -13.58,10.84 -20.7,15.9 -11.23,7.98 -22.08,16.4 -33.5,24.16 -6.09,4.14 -12.24,7.87 -18.66,11.44 -4.39,2.44 -8.35,4.85 -13.34,6.3 -2.95,0.86 -6.11,0.25 -9,1.1 -1.21,0.35 -2.4,0.49 -3.6,0.8 -1.33,0.35 -2.62,2.1 -3.97,2.1 -0.13,0 -1.62,1.12 -2.33,0.8 -0.1,-0.1 -0.12,-0.69 0.1,-0.77 0.1,-0.03 1.39,-0.73 2.1,-0.73 0.1,0 1.11,-0.57 1.61,-0.85 0.09,-0.05 1.04,-0.67 1.56,-0.87 0.41,-0.16 1.29,-0.04 1.23,-0.48 -0.01,-0.04 0.95,-0.21 1.3,-0.28 1.45,-0.29 2.79,-0.71 4.3,-0.86 6.05,-0.61 10.73,-2.31 16.41,-4.72 0.09,-0.04 1.43,-1.12 2.11,-1.66 0.8,-0.64 1.75,-1.03 2.64,-1.53 3.27,-1.83 6.61,-3.62 9.74,-5.68 9.44,-6.2 19.5,-12.3 28.27,-19.35 10.84,-8.71 22.96,-15.9 33.13,-25.42 15.93,-14.92 29.52,-32.16 40.3,-51.08 5.28,-9.26 9.44,-19.2 13.8,-28.92 2.41,-5.38 5.76,-10.97 7.59,-16.58 1.17,-3.59 3.71,-9.86 4.06,-14.12 0.34,-4.04 0.31,-4.89 0.08,-9.1 -0.01,-0.32 -0.12,-1.28 0.47,-1.2 0.58,0.08 0.5,2.03 0.51,2.5 0.1,4.74 -0.23,8.58 -1.36,13.2 M 482.5,572.1 c 0,0 0.08,0.02 0.1,0 m 0.3,-0.8 c 0,0 0,0 0,0 0,0 0,0 0,0 m 1.5,-0.9 c 0,0 0,0 0,0"
       fill="#000000" /><path
       id="path456"
       d="m 477.7,574.8 c 0,0 0,-0.1 0,-0.1 m 2.2,4.4 c 0,0 -0.07,-0.13 -0.1,-0.1 0.1,0.1 0.1,0.1 0.1,0.1 m 0.7,-0.3 c 0,0 0,0 0,0 m 171,-188.6 c 0,0 0,0 0,0 M 477.73,574.7 c 0,0 0.28,-1 0.41,-1.5 0.21,-0.74 1.02,-1.38 1.49,-2 0.12,-0.16 0.8,-1.1 1.07,-0.6 0.44,0.81 -2.11,3.46 -2.28,4.3 -0.02,0.1 0.1,0.99 0.36,1.35 0.58,0.82 1.14,1.65 1.74,2.45 0.08,0.1 2.28,1.86 3.49,2.55 0.09,0.05 1.68,0.47 2.49,0.64 1.55,0.33 3.31,1.09 4.9,0.91 4.38,-0.51 9.23,-2.9 12.97,-5.14 13.49,-8.09 26.18,-17.69 39.8,-25.55 4.42,-2.56 8.7,-5.33 13.16,-7.8 7.11,-3.94 14.32,-7.52 20.57,-12.81 10.47,-8.86 18.79,-19.89 28.3,-29.7 12.7,-13.1 25.75,-26.7 34.12,-43.16 2.23,-4.37 3.76,-9.09 5.95,-13.48 6.1,-12.21 13.38,-25.05 14.23,-38.96 0.31,-5.05 0.33,-9.62 -2.38,-14.07 -1.14,-1.87 -2.76,-3.59 -5.02,-3.25 -0.1,0.02 -0.62,0.71 -0.7,1.12 -0.07,0.33 0.2,0.95 -0.1,1.1 -0.39,0.2 -0.66,-0.39 -0.7,-0.7 0,-0.2 0.4,-1.94 1.1,-2.3 1.84,-0.96 4.22,1.07 5.3,2.3 4.36,4.98 3.74,12.43 3.1,18.5 -1.26,11.89 -7.25,22.88 -12.5,33.4 -2.64,5.29 -4.75,10.83 -7.2,16.2 -8.87,19.46 -26.03,34.55 -40.3,49.9 -9.12,9.81 -17.33,20.61 -28.5,28.3 -4.74,3.26 -10.23,5.64 -15.2,8.5 -8.83,5.07 -17.62,10.24 -25.9,16.16 -3.27,2.34 -6.77,4.34 -10.09,6.59 -3.46,2.35 -6.86,4.28 -10.44,6.36 -9.14,5.3 -21.34,14.52 -31,4.87 -0.07,-0.08 -0.75,-0.9 -1.04,-1.34 -0.77,-1.16 -1.04,-1.62 -1.22,-2.94"
       fill="#000000" /><path
       id="path458"
       d="m 415.89,245 c 0,0 -0.22,2.47 -0.34,3.7 -0.06,0.66 -0.15,1.34 -0.15,2 0,0.1 0.21,0.7 0,0.8 -0.24,0.11 -0.8,-0.45 -0.8,-0.7 0,-3.73 1.15,-7.69 0.14,-11.38 -1.62,-5.96 -2.45,-12.54 -4.84,-18.22 -1.15,-2.74 -2.97,-5.21 -4.45,-7.81 -0.05,-0.09 -0.79,-0.85 -1.11,-1.27 -0.72,-0.96 -1.44,-1.92 -2.16,-2.88 -1.95,-2.6 -5.12,-5.19 -7.71,-6.97 -9.19,-6.3 -19,-12.54 -30.17,-14.25 -0.1,-0.02 -0.7,0.08 -0.7,-0.12 0.1,0 0.1,0 0.1,0 0,0 -0.6,-0.08 -0.6,-0.3 0,-0.1 0,-0.1 0,-0.1 0,0 0.43,-0.44 0.7,-0.4 0.76,0.13 1.54,0.15 2.3,0.29 2.36,0.45 3.98,0.99 6.17,1.83 7.1,2.7 13.68,5.97 19.94,10.37 3.44,2.41 6.85,4.89 9.69,8.01 10.34,11.37 14.77,27.66 13.52,42.7"
       fill="#000000" /><path
       id="path460"
       d="m 875.89,267.2 c 0,0 -0.37,5.53 -0.55,8.3 -0.2,2.99 -0.81,5.95 -1.34,8.9 -2,11.05 -6.15,21.99 -10.64,32.26 -4.35,9.93 -9.19,19.55 -14.96,28.74 -4.73,7.52 -10.47,14 -15.9,21 -6.09,7.84 -12.04,15.31 -18.6,22.7 -8.4,9.45 -17.47,19.21 -29.8,23.5 -14.65,5.1 -33.2,-1.04 -45.71,-8.71 -2.96,-1.82 -9.81,-5.56 -13.39,-8.59 -4.77,-4.03 -9.31,-8.62 -14.06,-12.69 -11.82,-10.14 -23.6,-20.14 -34.94,-30.81 -5.46,-5.14 -10.3,-10.92 -16.1,-15.7 -7.07,-5.83 -14.25,-10.3 -21,-16.5 -8.8,-8.09 -14.44,-19.87 -15.2,-31.8 -1.18,-18.46 9.32,-32.7 23.03,-43.91 2.74,-2.25 6.26,-4.95 8.37,-6.44 1.04,-0.74 2.37,-2.82 3.3,-1.95 0.37,0.35 -0.35,0.8 -0.58,0.98 -2.75,2.2 -3.98,3.17 -6.75,5.34 -4.25,3.36 -8.5,6.42 -12.27,10.38 -4.59,4.82 -9.14,10.95 -11.7,17.1 -3.51,8.44 -3.53,19.07 -1,27.8 1.96,6.76 5.71,13.59 10.4,18.8 7.02,7.79 16.46,13.13 24.36,19.89 11.43,9.8 21.32,21.35 32.74,31.21 6.12,5.28 12.52,10.33 18.66,15.59 5.37,4.6 10.57,10.4 16.44,14.41 3.2,2.19 6.66,3.99 9.98,5.99 12.4,7.44 30.36,13.84 44.92,8.91 15.2,-5.15 26.03,-18.94 36.09,-30.56 4.83,-5.56 7.27,-9.21 12.11,-15.44 3.86,-4.97 7.87,-9.39 11.5,-14.5 9.07,-12.77 16.66,-27.24 22,-41.97 6.44,-17.74 11.83,-35.88 9.2,-55.03 -0.92,-6.69 -4.06,-12.86 -6.76,-18.95 -6.08,-13.73 -13.93,-25.24 -23.01,-37.13 -4.72,-6.18 -9.47,-12.64 -15.03,-18.12 -7.26,-7.15 -15.82,-13.83 -23.44,-20.41 -13.58,-11.72 -28.52,-21.16 -45.16,-27.99 -29.97,-12.29 -62.32,-13.78 -94.2,-10.17 -11.55,1.31 -23.33,3.57 -34.4,7.07 -23.04,7.29 -46.85,20.05 -63.7,37.6 -12.38,12.89 -21.84,27.59 -33,41.4 -1.65,2.04 -3.6,3.83 -5.2,5.9 -1.93,2.51 -3.36,5.4 -5.3,7.9 -5.21,6.68 -12.05,12.58 -16.44,19.9 -0.06,0.1 -0.72,-0.36 -0.56,-0.6 0,0 0.5,-1.11 0.88,-1.57 1,-1.23 1.99,-2.48 3.01,-3.69 3.41,-4.01 6.64,-8.15 10.11,-12.1 3.01,-3.42 4.77,-6.63 7.7,-10.44 7,-9.09 14.08,-18.1 20.94,-27.32 8.45,-11.35 18.25,-22.37 29.56,-30.98 24.07,-18.31 52.43,-29.18 82.2,-33.5 17.6,-2.55 35.06,-2.8 52.7,-1.16 9.48,0.89 18.8,2.08 28,4.66 16.12,4.52 31.94,11.72 46,20.8 10.73,6.93 20.47,16.18 30.05,24.5 10.08,8.78 18.81,17.92 26.7,28.79 2.65,3.64 8.11,10.56 11.25,15.11 4.59,6.65 7.71,13.3 10.94,20.65 2.76,6.28 5.95,12.67 6.96,19.55 1.48,10.02 0.28,20.19 -1.27,30.1"
       fill="#000000" /><path
       id="path462"
       d="m 633.4,488.6 c 0,0 0.01,0.06 0,0.05 m -7.1,-5.55 c 0,0 0,0 0,0 -0.1,0 -0.03,0 0,0 m 117,-76.5 c 0,0 0,0.1 0,0.1 m -110,81.8 c 0,0 1.25,0.98 1.86,1.49 1.95,1.64 4.94,4.44 7.24,5.81 6.57,3.92 13.61,6.04 21.4,6.2 16.36,0.34 29.84,-8.71 42.61,-17.85 4.85,-3.47 9.55,-6.34 13.69,-10.75 11.17,-11.92 14.57,-27.83 17.2,-43.39 0.52,-3.08 1.14,-8.15 2.2,-11.41 0.51,-1.57 1.42,-3.01 1.87,-4.6 0.63,-2.21 0.78,-3.9 1.14,-6.4 0.06,-0.38 0.06,-2.09 0.72,-1.1 0.07,0.1 0.14,0.97 0.07,1.4 -0.4,2.38 -0.62,4.4 -1.23,6.6 -0.43,1.53 -1.28,2.9 -1.77,4.4 -1.08,3.3 -1.67,8.15 -2.2,11.31 -2.23,13.22 -4.81,27.47 -13,38.59 -5.03,6.82 -11.45,11.21 -18.19,16.05 -6.62,4.77 -13.4,9.89 -20.91,13.25 -14.36,6.43 -30.43,6.54 -44,-1.6 -2.39,-1.44 -5.43,-4.24 -7.33,-5.81 -2.09,-1.73 -4.77,-3.52 -6.71,-6.11 -0.06,-0.08 -0.34,-0.3 -0.48,-0.41 -0.08,-0.07 -0.82,-0.69 -1.19,-1 -0.09,-0.07 -1.65,-1.58 -1.29,-2.37 0.35,-0.76 1.24,1.12 1.35,1.31 0.05,0.09 0.16,0.22 0.2,0.29 0.05,0.1 0.42,0.82 0.75,1 1.04,0.58 1.07,0.67 2.02,1.62 0.08,0.08 0.91,0.84 1.34,1.19 0.87,0.73 1.69,1.57 2.56,2.32"
       fill="#000000" /><path
       id="path464"
       d="m 630,368.9 c 0,0 0,0 0,0 m 4.4,-0.4 c 0,0 0,0 0,0 0,0 0,0 0,0 m 2.6,-0.97 c 0,0 2.41,0.67 3.61,1.01 1.35,0.37 2.73,0.91 3.89,1.7 4.83,3.29 9.86,6.42 13.69,10.92 6.97,8.17 14.08,16.16 20.81,24.54 6.12,7.62 11.14,15.58 17.14,23.22 0.06,0.08 0.67,0.65 0.56,0.98 -0.19,0.58 -0.78,0.12 -1.02,-0.12 -0.08,-0.08 -1.2,-0.74 -0.88,-0.98 0.1,0 -0.92,-1.48 -1.49,-2.18 -1.41,-1.7 -2.56,-3.27 -3.87,-5.09 -3.57,-4.94 -7,-9.95 -10.77,-14.75 -4.74,-6.06 -9.7,-12.08 -14.87,-17.78 -5.35,-5.9 -9.25,-10.94 -15.79,-15.36 -4.09,-2.76 -8.29,-5.62 -13.51,-5.15 -0.1,0.01 -0.76,0 -1.07,0.1 -0.61,0.22 -2.58,0.91 -2.93,0.91 -0.1,0 -0.42,0.52 -0.6,0.4 -0.22,-0.15 0.03,-0.7 0.07,-0.9 0.03,-0.1 1.05,-0.5 1.57,-0.69 0.92,-0.34 1.98,-0.71 2.96,-0.71 0,0 2.03,-0.2 2.99,0.06 2.55,0.72 3.99,1.16 6.32,2.16"
       fill="#000000" /><path
       id="path466"
       d="m 597.5,553.6 c 0,0 0,0 0,0 m -4.7,3.3 c 0,0 0,0 0,0 0,0 0.1,0 0.1,0 m 3.4,-3.4 c 0,0 0.1,0 0.1,0 m 56,-52.5 c 0,0 0,0 0,0 m 0,0.4 c 0,0 0,0 0,0 0,0 0,0 0,0 m -54.97,52.28 c 0,0 -1.13,0.19 -1.13,0.62 0,0.24 -2.95,2.19 -3.5,2.6 0,0 0,0 0,0 0,0 0,0.1 0,0.1 0,-0.1 -0.2,-0.05 -0.3,-0.03 -0.1,0.03 -0.6,-0.21 -0.5,-0.37 0.1,-0.1 0.1,-0.1 0.1,-0.1 0,0 0,0 0,0 0,0 0.05,-0.1 0.1,-0.1 0,0.1 0.13,0.01 0.2,-0.03 0.1,-0.07 0.8,-0.83 1.2,-1.17 0.76,-0.65 1.7,-1.2 2.6,-1.65 0.1,-0.05 1.27,-1.26 1.81,-1.91 1.06,-1.27 1.95,-2.7 3.12,-3.87 4.48,-4.48 9.12,-8.82 13.91,-12.97 9.06,-7.84 17.35,-16.54 26.22,-24.6 3.51,-3.19 7,-6.65 11.05,-9.15 0.09,-0.05 0.87,-0.03 0.89,0.25 0.03,0.33 -0.37,0.93 -0.7,0.6 -0.1,-0.1 -0.89,0.47 -1.27,0.78 -1.02,0.81 -2.04,1.63 -3.06,2.44 -1.16,0.93 -2.23,1.98 -3.32,2.97 -4.53,4.12 -9.02,8.22 -13.42,12.49 -11.3,10.97 -24.09,20.71 -33.93,33.02"
       fill="#000000" /><path
       id="path468"
       d="m 590.9,562.4 c 0,0 -0.79,1.2 -1.3,1.7 -0.84,0.82 -2.21,1.6 -3.1,2.24 -2.99,2.15 -6.05,4.25 -9.1,6.32 -2.85,1.93 -4.81,5.1 -7.2,7.54 -4.41,4.49 -9.58,9.43 -14.58,13.27 -4.6,3.54 -8.34,6.26 -12.46,9.74 -1.2,1.01 -2.46,1.96 -3.69,2.92 -0.55,0.44 -2.06,1.82 -1.77,1.17 0.08,-0.19 -0.33,0.25 -0.5,0.37 -0.33,0.25 -0.67,0.5 -1,0.75 -0.76,0.58 -1.57,1.05 -2.39,1.56 -2.83,1.77 -5.84,3.22 -8.68,4.99 -1.32,0.83 -2.88,1.37 -4.28,1.99 -0.18,0.08 -0.55,0.44 -0.55,0.24 0,-0.03 -1.42,0.2 -1.7,0.2 -1.2,0 -2.85,0.19 -4,-0.1 -4.31,-1.07 -7.61,-4.84 -10.4,-8 -4,-4.52 -7.52,-9.5 -11.3,-14.2 -1.57,-1.96 -3.66,-3.48 -5.16,-5.48 -2.15,-2.87 -2.84,-3.31 -3.57,-5.62 -0.09,-0.29 -1.29,-2.96 -0.87,-3.1 0.97,-0.32 1.51,3 1.7,3.6 0.42,1.36 2.77,3.75 3.74,5.02 0.06,0.08 0.34,0.37 0.48,0.51 0.95,0.98 1.91,1.96 2.86,2.94 1.89,1.94 3.28,4.26 5.05,6.31 4.91,5.71 9.92,14.87 17.67,17.22 1.2,0.36 3.18,0.06 4.4,0 0.1,0 1.23,-0.22 1.74,-0.47 2.48,-1.21 4.7,-2.2 6.97,-3.67 2.76,-1.8 5.69,-3.08 8.39,-4.96 2.68,-1.86 5.09,-4.08 7.68,-6.07 7.34,-5.64 14.42,-11.22 21.16,-17.54 3.84,-3.61 7.2,-8.03 11.26,-11.39 4.33,-3.59 10.08,-5.85 13.63,-10.22 0.07,-0.08 0.44,-0.82 0.62,-1.19 0.05,-0.09 0.15,-1.36 0.07,-1.99 -0.17,-1.27 -0.34,-2.53 -0.51,-3.8 -0.01,-0.1 -1.35,-1.72 -2.02,-2.53 -0.68,-0.82 -1.47,-1.53 -2.27,-2.2 -3.48,-2.91 -6.22,-5.95 -8.99,-9.55 -0.75,-0.98 -1.51,-1.96 -2.26,-2.94 -0.24,-0.31 -0.74,-0.88 -0.67,-1.08 0.05,-0.14 -1.35,-0.74 -0.6,-1.1 0.51,-0.25 1.22,0.65 1.46,0.98 0.96,1.34 1.88,2.71 2.92,3.99 2.62,3.18 4.72,5.42 7.68,8.21 0.54,0.51 1.83,2.02 2.14,1.92 0.23,-0.08 1.36,1.41 1.57,1.68 0.61,0.81 1.71,1.42 1.83,2.42 0.2,1.6 0.39,3.2 0.59,4.8 m -0.69,2.6 c 0,0 0,0 0,0 0,0 0,0 0,0 m 0.7,-2.5 c 0,0 0,0 0,0"
       fill="#000000" /><path
       id="path470"
       d="m 485.47,585.6 c 0,0 -0.31,0.33 -0.47,0.25 -0.1,-0.05 -0.87,-0.72 -1.23,-1.08 -0.07,-0.07 -2.95,-1.78 -2.07,-2.22 0.1,-0.05 0.01,-0.18 -0.03,-0.25 -0.07,-0.1 -0.07,-0.1 -0.07,-0.1 -0.1,-0.1 -0.33,-0.53 -0.5,-0.7 -0.1,-0.1 -0.1,-0.1 -0.1,-0.1 0,0 0.06,-0.79 0.3,-0.7 0.1,0.1 0.26,0.31 0.34,0.42 0.06,0.08 0.32,0.39 0.45,0.55 0.83,0.99 1.65,1.98 2.48,2.97 0.16,0.2 1.4,0.97 0.73,1.19"
       fill="#000000" /><path
       id="path472"
       d="m 477.17,573.7 c 0,0 -0.35,0.32 -0.47,0.2 -0.1,-0.1 -1.97,-1.87 -2.87,-2.77 -0.19,-0.19 -1.05,-0.84 -0.93,-1.13 0.22,-0.54 0.85,0.15 1.03,0.33 0.07,0.07 0.58,0.39 0.79,0.61 0.54,0.56 1.07,1.12 1.61,1.69 0.07,0.07 1.1,1.16 0.67,1.3"
       fill="#000000" /><path
       id="path474"
       d="m 476.94,572.58 c 0,0 -0.49,0.17 -0.64,0.02 -0.1,-0.1 -1.66,-2.17 -2.7,-2.9 -0.3,-0.21 -1.66,-0.53 -0.9,-1.03 0.1,-0.07 -0.75,-0.93 -0.4,-1.07 1.16,-0.46 3.62,3.28 4.14,3.92 0.06,0.08 0.12,0.22 0.16,0.28 0.1,0.1 0.42,0.26 0.4,0.4 -0.1,0.1 -0.23,0.75 -0.4,0.63"
       fill="#000000" /><path
       id="path476"
       d="m 517.57,623.3 c 0,0 -0.34,1.81 -0.97,2.4 -0.85,0.79 -3.5,1.56 -4.6,1.3 -0.89,-0.21 -1.72,-1.05 -2.57,-1.49 -4.62,-2.43 -8.19,-6.77 -11.56,-10.7 -4.19,-4.89 -7.82,-10.26 -12.07,-15.11 -9.09,-10.37 -18.45,-20.52 -27.69,-30.75 -5.49,-6.07 -11.17,-11.78 -16.42,-18.08 -1.03,-1.24 -4.05,-3.45 -3.49,-4.57 0.31,-0.62 2.12,1.8 2.33,2.02 1.47,1.62 2.74,3.41 4.18,5.04 4.36,4.94 8.76,9.69 13.37,14.41 5.27,5.39 10.03,11.29 15.09,16.88 8.93,9.89 17.81,19.55 25.77,30.27 2.36,3.17 6.42,7.25 9.98,9.4 1.09,0.64 2.03,2.04 3.28,1.88 1.37,-0.17 2.56,-0.58 3.81,-1.16 0.09,-0.04 0.72,-1.2 0.79,-1.84 0.18,-1.6 -0.58,-3.71 -1.3,-4.9 -0.69,-1.14 -2.21,-3.05 -2.54,-3.51 -0.14,-0.18 -0.7,-0.98 -0.16,-1.09 0.22,-0.04 0.55,0.54 0.66,0.68 0.99,1.35 1.99,2.69 2.98,4.04 0.06,0.08 0.56,1.42 0.82,2.1 0.49,1.31 0.48,3.01 -0.16,4.28 m -0.6,-6.3 c 0,0 0.1,0 0.1,0"
       fill="#000000" /><path
       id="path478"
       d="m 406.27,518 c 0,0 -0.62,-0.3 -0.68,-0.59 -0.69,-3.81 -1.39,-7.61 -2.08,-11.42 -0.04,-0.19 -0.23,-0.85 -0.01,-0.99 0.53,-0.34 0.65,0.6 0.7,0.9 0.67,3.8 1.33,7.6 2,11.4 0.03,0.21 0.23,0.9 -0.1,0.9"
       fill="#000000" /><path
       id="path480"
       d="m 413.8,523 c 0,0 -0.6,-0.21 -0.69,-0.47 -0.94,-2.75 -1.88,-5.51 -2.82,-8.26 -0.58,-1.71 -0.73,-3.86 -0.99,-5.47 -0.18,-1.08 -0.85,-3.95 -0.1,-4.4 0.77,-0.46 0.59,1.29 0.6,1.6 0.05,1.17 0.25,2.59 0.34,3.6 0.04,0.4 0.1,0.79 0.18,1.19 0.32,1.54 0.56,3.24 1.07,4.78 0.82,2.5 3.59,5.17 2.41,7.53"
       fill="#000000" /><path
       id="path482"
       d="m 420.5,527.4 c 0,0 -1.16,-1.21 -1.33,-1.99 -0.55,-2.54 -1.09,-5.08 -1.64,-7.62 -0.79,-3.64 -2.12,-9.48 -1.54,-13.49 0.01,-0.1 0.01,-0.17 0.01,-0.2 0,0 0.55,-0.4 0.65,-0.2 0.05,0.1 0.05,0.17 0.05,0.2 0,0.1 0.1,0.07 0.1,0.1 -0.1,0.1 -0.04,2.37 -0.02,3.5 0.06,2.11 0.57,4.49 0.84,6.4 0.61,4.39 4.55,10.05 2.88,13.4"
       fill="#000000" /><path
       id="path484"
       d="m 426.97,533 c 0,0 -0.72,-0.19 -0.77,-0.49 -0.97,-5.57 -1.93,-11.15 -2.9,-16.72 -0.99,-5.72 -0.92,-11.57 -1.98,-17.29 -0.02,-0.1 0.04,-0.87 0.28,-0.8 1.26,0.38 1.02,3.78 1.16,5.1 0.4,3.76 0.71,9.02 1.44,13.39 0.9,5.37 1.8,10.75 2.7,16.12 0.03,0.18 0.22,0.87 0,0.99"
       fill="#000000" /><path
       id="path486"
       d="m 433.88,531.6 c 0,0 -0.47,0.37 -0.58,0.2 -1.29,-2.07 -1.44,-5.14 -1.78,-7.7 -1.3,-9.79 -2.62,-19.23 -2.62,-29.1 0,-0.1 0.48,-0.59 0.6,-0.4 0.34,0.51 0.2,1.83 0.22,2.5 0.09,2.87 0.17,5.73 0.26,8.6 0.18,5.8 1.8,14.24 2.54,19.71 0.25,1.84 0.83,3.76 1.24,5.5 0.06,0.25 0.29,0.91 -0.06,1.02"
       fill="#000000" /><path
       id="path488"
       d="m 443.57,545 c 0,0 -0.26,0.59 -0.47,0.5 -0.37,-0.16 -0.68,-1.13 -0.79,-1.48 -1.05,-3.15 -2.22,-6.29 -2.57,-9.62 -0.99,-9.38 -1.64,-18.07 -1.64,-27.7 0,-3.09 0.17,-6.84 -0.04,-10.2 -0.08,-1.4 -0.16,-2.8 -0.25,-4.2 -0.02,-0.39 -0.64,-1.8 -0.11,-2 0.63,-0.23 0.81,1.35 0.84,1.7 0.08,1.37 0.16,2.73 0.24,4.1 0.24,3.99 0.02,8 0.12,12 0.3,12.5 0.3,24.59 4.47,36.41 0.03,0.09 0.29,0.85 0.03,0.99"
       fill="#000000" /><path
       id="path490"
       d="m 434.82,541.58 c 0,0 -0.39,0.13 -0.52,0.02 -0.1,-0.1 -0.18,-0.5 -0.21,-0.69 -0.49,-2.57 -0.99,-5.15 -1.48,-7.72 -0.03,-0.17 -0.23,-0.77 -0.01,-0.89 0.48,-0.26 0.57,0.53 0.62,0.79 0.52,2.61 1.04,5.21 1.56,7.82 0.04,0.18 0.16,1.12 -0.28,0.82"
       fill="#000000" /><path
       id="path492"
       d="m 459,553.1 c 0,0 -1.21,-0.86 -1.5,-1.5 -0.45,-1 -0.57,-2.21 -0.86,-3.28 -1.19,-4.35 -2.08,-8.36 -3.14,-12.71 -2.91,-12.04 -3.9,-23.98 -5.52,-36.21 -0.53,-4.01 -0.84,-8.22 -1.22,-12.1 -0.14,-1.36 -0.22,-2.73 -0.32,-4.1 -0.01,-0.25 -0.16,-1.22 0.36,-1.1 0.78,0.19 0.58,2.61 0.66,3.4 0.23,2.5 0.45,5 0.68,7.5 0.83,8.94 1.53,18.03 2.96,26.9 1.19,7.38 2.7,15.05 4.66,22.28 0.95,3.51 1.78,6.41 2.86,9.84 0.09,0.31 0.62,1.04 0.28,1.18"
       fill="#000000" /><path
       id="path494"
       d="m 468.23,564.77 c 0,0 -0.68,0.37 -0.83,0.13 -0.93,-1.49 -0.97,-4.69 -1.18,-6.3 -0.64,-4.96 -1.66,-9.95 -2.18,-14.9 -1.7,-15.96 -5.34,-31.6 -6.59,-47.6 -0.39,-4.91 -2.07,-9.68 -2.39,-14.6 -0.11,-1.77 -0.55,-4.34 0.07,-6.2 0.11,-0.32 0.26,-1.3 0.67,-1.4 0.71,-0.17 -0.1,2.97 -0.14,3.4 -0.19,2.02 0.08,4.1 0.43,6.09 1.92,10.97 1.74,11.36 2.91,21.01 1.1,9.03 3.23,18.12 4.5,27.1 1.54,10.91 2.54,21.86 4.58,32.7 0.02,0.1 -0.28,1 -0.52,0.82"
       fill="#000000" /><path
       id="path496"
       d="m 478,568.8 c 0,0 0.07,0.2 0,0.2 -0.1,-0.1 -0.29,0.39 -0.5,0.4 -0.29,0.01 -0.38,-0.91 -0.41,-1.09 -0.89,-4.64 -1.79,-9.28 -2.68,-13.92 -0.75,-3.95 -1.9,-8.13 -2.77,-11.8 -3.43,-14.46 -5.98,-30.05 -7.82,-44.69 -0.82,-6.56 -2.32,-15.29 -2.21,-22 0.03,-1.95 0.04,-3.94 0.1,-5.9 0.04,-1.01 -0.5,-3.23 0.49,-3 0.69,0.16 0.31,2.22 0.3,2.8 -0.03,1.73 -0.06,3.47 -0.09,5.2 -0.11,6.8 1.1,14.31 1.92,21 2.97,24.41 9.26,48.15 13.55,72.3 0.02,0.1 0.12,0.36 0.12,0.5"
       fill="#000000" /><path
       id="path498"
       d="m 485.18,568.4 c 0,0 0.2,2.14 -0.58,2.4 -0.66,0.22 -0.31,-2.38 -0.3,-2.5 0,-0.1 -0.06,-0.5 -0.1,-0.69 -0.57,-3.54 -1.13,-7.08 -1.7,-10.62 -0.53,-3.24 -1.32,-6.44 -1.79,-9.69 -2.24,-15.71 -4.42,-31.4 -6.8,-47.09 -1.02,-6.75 -2.05,-15.01 -3.42,-22.4 -0.59,-3.21 -1.19,-6.41 -1.78,-9.62 -0.22,-1.2 -0.67,-2.38 -0.81,-3.59 -0.08,-0.65 0.49,-0.73 0.75,-0.2 0.05,0.1 0.13,0.5 0.17,0.69 0.64,3.17 1.44,6.59 1.98,9.9 1.7,10.62 3.35,20.99 5.01,31.61 2.47,15.82 4.51,31.68 7,47.51 0.72,4.56 1.77,8.99 2.32,13.59 0.1,0.85 0.09,2.19 -0.33,2.9 M 468.7,464.5 c 0,0 0,0 0,0"
       fill="#000000" /><path
       id="path500"
       d="m 495.7,565.8 c 0,0 -0.09,0.06 -0.1,0.1 0,0 0,0 0,0 0,0.1 -0.13,0.18 -0.2,0.2 -0.1,0 -0.1,0 -0.1,0 0,0 -0.3,-0.08 -0.3,-0.2 0,-0.1 -0.1,-0.63 -0.1,-0.9 0,-0.1 0.01,-1.64 -0.05,-2.4 -0.12,-1.59 -0.1,-3.39 -0.34,-5 -1.07,-7.44 -2.46,-14.64 -3.99,-22.01 -3.35,-16.17 -6.29,-32.32 -9.12,-48.6 -1.15,-6.63 -1.65,-15.37 -2.24,-21.49 -0.18,-1.84 -0.39,-3.67 -0.59,-5.5 -0.03,-0.2 -0.19,-1.17 0.33,-1 0.86,0.29 0.65,3.1 0.76,4.2 0.75,7.47 1.48,14.78 2.28,22.2 1.88,17.52 6.15,35.1 9.83,52.31 1.97,9.2 3.86,18.45 3.93,27.89"
       fill="#000000" /><path
       id="path502"
       d="m 507.06,564.5 c 0,0 -0.58,1.08 -0.86,0.8 -0.26,-0.26 0.09,-0.92 0.17,-1.2 0.03,-0.1 -0.16,-2.03 -0.26,-3 -0.01,-0.1 -0.39,-1.76 -0.47,-2.6 -0.18,-1.87 -0.36,-3.73 -0.53,-5.6 -0.5,-5.46 -0.67,-11.02 -1.95,-16.38 -2.48,-10.4 -3.8,-20.37 -5.76,-30.92 -1.71,-9.19 -4.03,-18.14 -5.49,-27.39 -1.07,-6.75 -1.9,-13.13 -2.46,-20.01 -0.33,-4.1 -0.67,-8.2 -1,-12.3 -0.02,-0.28 -0.16,-1.1 0.35,-1.1 0.55,0 0.51,1.95 0.55,2.4 0.32,4.05 0.58,8.28 1.01,12.4 1.28,12.22 3.26,23.71 5.74,35.8 2.1,10.23 3.42,20.57 5.5,30.8 1.66,8.17 3.52,15.81 4.15,24.1 0.1,1.27 0.15,2.53 0.22,3.8 0.11,2.1 0.89,5.73 1.04,8.5 0.03,0.6 0.37,2.21 -0.31,2.67"
       fill="#000000" /><path
       id="path504"
       d="m 516.27,560.6 c 0,0 -0.5,0.18 -0.57,0 -0.41,-1.04 -0.37,-2.91 -0.41,-4 -0.09,-3.1 -0.57,-6.11 -0.75,-9.2 -0.51,-8.65 -2.89,-17.14 -4.02,-25.7 -2.98,-22.58 -7.57,-45 -10.22,-67.6 -0.83,-7.04 -1.04,-14.15 -1.89,-21.2 -0.01,-0.1 0.17,-0.8 0.39,-0.7 1.28,0.57 0.83,3.9 0.95,5.4 0.67,8.72 1.06,13.84 2.24,21.7 3.14,20.85 6.1,41.76 9.31,62.6 0.92,5.98 2.32,11.92 3.2,17.9 0.64,4.34 0.77,8.76 1.41,13.1 0.34,2.29 0.31,4.68 0.37,7 0.01,0.25 0.12,0.83 -0.18,0.93"
       fill="#000000" /><path
       id="path506"
       d="m 526.78,550.9 c 0,0 -0.48,0.57 -0.68,0.4 -0.57,-0.5 -0.39,-2.37 -0.43,-3.2 -0.11,-2.72 -0.06,-6.4 -0.45,-9.5 -1.18,-9.49 -3.36,-18.5 -5.77,-27.78 -5.69,-21.93 -10.16,-44.69 -11.85,-67.32 -0.7,-9.4 -0.25,-14.67 -1.39,-23 -0.01,-0.1 0.57,-0.38 0.72,-0.18 0.07,0.08 0.12,0.48 0.15,0.68 0.24,1.92 0.68,4.15 0.74,6.2 0.15,5.1 0.31,10.2 0.46,15.3 0.25,8.18 2.16,17.98 3.34,26.31 1.4,9.89 3.64,21.7 5.98,31.79 1.78,7.67 4.21,15.11 5.9,22.8 1.11,5.05 2.16,10.6 2.6,15.8 0.32,3.83 0.08,7.7 0.68,11.5 M 507,420.4 c 0,0 0,0 0,0 m 19.8,130.4 c 0,0 0,0 0,0"
       fill="#000000" /><path
       id="path508"
       d="m 535.1,546 c 0,0 -0.04,0.22 -0.1,0.3 -0.1,0.1 -0.17,0.17 -0.2,0.15 -0.1,-0.05 -0.17,-0.05 -0.2,-0.05 0,0 -0.13,-0.6 -0.15,-0.9 -0.12,-1.33 -0.17,-2.67 -0.3,-4 -0.31,-3.17 -0.21,-6.57 -0.76,-9.7 -1.72,-9.75 -2.94,-19.6 -4.48,-29.39 -1.88,-11.92 -4.22,-28.66 -6.31,-40.91 -1.59,-9.32 -3.77,-18.16 -4.9,-27.5 -0.95,-7.83 -1.04,-15.7 -2.28,-23.5 -0.02,-0.1 0.4,-0.79 0.58,-0.6 1.21,1.33 0.7,3.53 1,5.3 0.57,3.43 0.45,6.94 0.75,10.4 1.06,11.9 3.24,23.27 5.53,35.01 1.25,6.37 1.78,12.87 2.82,19.28 2.44,15.13 5.14,30.29 6.99,45.51 0.65,5.37 1.33,10.51 1.85,15.9 0.13,1.37 0.75,3.52 0.21,4.6"
       fill="#000000" /><path
       id="path510"
       d="m 544.09,534.5 c 0,0 -0.09,1.13 -0.12,1.7 -0.05,1.33 0.24,3.8 -0.67,3.8 -0.17,0 -0.1,-1.46 -0.1,-1.6 0,-1.07 0.05,-2.13 0.08,-3.2 0.09,-2.55 -0.56,-7.54 -0.64,-8.6 -0.56,-7.77 -1.01,-15.47 -2.02,-23.2 -2.98,-22.83 -7.92,-45.31 -10.75,-68.2 -0.99,-8.07 -2.5,-16.48 -3.22,-24.5 -0.4,-4.4 -0.8,-8.8 -1.2,-13.2 -0.03,-0.41 -0.23,-2.15 0.35,-2.2 0.63,-0.05 0.41,1.76 0.45,2.2 0.4,4.37 0.8,8.73 1.2,13.1 1.13,12.49 3.34,25.35 4.97,37.8 2.74,20.89 7.41,41.37 9.78,62.3 1.02,8.98 2.08,18.21 1.71,27.1"
       fill="#000000" /><path
       id="path512"
       d="m 554.8,529.8 c 0,0 0,0.1 0,0.1 m 0.2,3.9 c 0,0 0,0 0,0 0,0 0,0 0,0 m -0.2,-3.89 c 0,0 0,1.06 0,1.59 0,0.1 0.24,1.5 0.21,2.2 -0.01,0.1 -0.76,0.36 -0.81,0.1 -0.27,-1.33 -0.04,-2.64 -0.1,-4 -0.01,-0.22 -0.29,-1.37 -0.2,-1.5 0.23,-0.35 -0.2,-1.68 -0.23,-2.3 -0.17,-2.97 -0.34,-5.93 -0.48,-8.9 -0.54,-11.44 -2,-22.73 -3.99,-34.01 -0.87,-4.98 -0.97,-10.08 -1.7,-15.09 -1.2,-8.23 -3.19,-16.34 -4.2,-24.6 -0.56,-4.55 -0.55,-8.25 -1.3,-12.7 -2.67,-15.78 -7.66,-31.54 -8.89,-47.5 -0.01,-0.1 0.42,-0.67 0.59,-0.5 0.69,0.69 0.82,4.65 1.06,5.7 0.74,3.19 0.9,6.49 1.56,9.69 2.45,11.85 5.03,23.69 7.08,35.62 0.57,3.35 0.37,6.81 0.8,10.19 2.31,18.34 6.33,36.5 8.4,54.9 1.16,10.28 1.26,20.61 2.19,30.9"
       fill="#000000" /><path
       id="path514"
       d="m 565.8,524.3 c 0,0 0,0 0,0 -0.1,0 -0.1,0 -0.1,0 0,0 0,0 0,0 m 0.2,0.1 c 0,0 0,0.07 0,0.1 0,0.1 0.26,0.36 0.2,0.5 -0.1,0.1 -0.1,0.1 -0.1,0.1 0,0 -0.19,0.49 -0.4,0.5 -0.29,0.01 -0.4,-0.84 -0.4,-1 0,-0.1 0,-0.1 0,-0.1 0,0 -0.1,-0.05 -0.1,-0.1 0.1,0 0.1,0 0.1,0 0,0 -0.1,-0.93 -0.1,-1.39 0,-0.89 -0.08,-1.82 -0.14,-2.71 -0.18,-2.91 -0.46,-5.69 -0.87,-8.6 -1.08,-7.55 -1.49,-15.17 -2.79,-22.69 -4.38,-25.3 -8.98,-50.49 -13.81,-75.7 -2.01,-10.49 -3.9,-21 -5.78,-31.52 -0.53,-2.92 -0.79,-6.09 -1.14,-8.89 -0.03,-0.28 -0.2,-1.44 0.43,-1.2 0.35,0.13 0.34,0.81 0.37,1.1 0.17,1.43 0.3,2.87 0.52,4.3 1.76,11.64 3.89,23.14 6.1,34.71 4.88,25.62 9.68,51.18 14.01,76.9 1.22,7.25 1.91,14.58 2.73,21.89 0.48,4.21 1.52,9.21 0.98,13.5 -0.01,0.1 -0.01,0.1 -0.01,0.1 0.1,0.1 0.2,0.1 0.2,0.1"
       fill="#000000" /><path
       id="path516"
       d="m 576,513 c 0,0 -0.06,2.13 -0.08,3.2 -0.01,0.35 0.19,1.78 -0.02,2 -0.1,0 -0.63,0.19 -0.68,0 -0.02,-0.1 -0.12,-0.15 -0.12,-0.2 0.1,0 0,-0.26 0,-0.4 0,-0.1 0,-0.17 0,-0.2 0,0 0.1,-0.87 0.11,-1.3 0.03,-0.9 0.06,-1.8 0.09,-2.7 0,-0.1 -0.05,-0.5 -0.08,-0.7 -0.28,-2.23 -0.56,-4.47 -0.84,-6.7 -0.25,-1.93 -0.36,-3.87 -0.68,-5.79 -1.5,-9.23 -3.04,-18.3 -5.07,-27.42 -0.91,-4.08 -1.25,-8.28 -2.03,-12.39 -0.92,-4.83 -2.29,-9.57 -3.2,-14.4 -3.22,-17.04 -5.59,-34.29 -8.5,-51.39 -1.68,-9.88 -3.26,-19.75 -5,-29.61 -0.58,-3.29 -1.49,-6.57 -1.71,-9.9 -0.09,-1.23 -0.17,-2.47 -0.25,-3.7 -0.03,-0.44 0.03,-1.63 0.69,-0.98 0.07,0.08 0.45,0.73 0.27,0.98 -0.1,0.1 -0.07,0.5 -0.05,0.7 0.1,1.3 0.13,2.61 0.35,3.89 0.57,3.23 1.15,6.47 1.7,9.71 2.32,13.71 4.61,27.44 6.66,41.2 3.24,21.83 7.75,43.53 11.84,65.2 2.75,14.58 6.89,29.66 6.5,44.6 M 548.7,350.5 c 0,0 0,0 0,0"
       fill="#000000" /><path
       id="path518"
       d="m 584.8,511.3 c 0,0 -0.34,0.54 -0.5,0.4 -0.35,-0.31 -0.21,-1 -0.3,-1.4 -0.38,-1.75 -0.74,-3.31 -0.89,-5.1 -0.01,-0.1 -0.13,-0.7 -0.15,-1 -0.06,-1.13 -0.11,-2.27 -0.21,-3.4 -0.3,-3.28 -0.59,-6.53 -0.92,-9.8 -0.87,-8.7 -2.75,-18.44 -4.18,-27.4 -4.41,-27.62 -9.52,-55.19 -13.33,-82.89 -1.44,-10.46 -2.55,-17.99 -4.12,-27.5 -0.98,-5.95 -1.7,-10.67 -2.52,-16.61 -0.09,-0.67 -0.73,-3.05 -0.08,-3.1 0.6,-0.05 0.62,0.96 0.68,1.4 0.98,7.42 1.49,10.69 2.81,18.01 1.65,9.13 2.75,18.45 4.03,27.6 4.42,31.7 10.2,63.31 15.48,94.89 1.11,6.62 1.97,13.41 2.6,20.1 0.48,5.11 0.49,11.35 1.65,16"
       fill="#000000" /><path
       id="path520"
       d="m 592.75,503.4 c 0,0 -0.36,0.38 -0.55,0.3 -0.1,-0.1 -0.44,-0.82 -0.52,-1.2 -0.21,-1.06 -0.38,-2.11 -0.38,-3.2 0,-3.12 -0.4,-6.18 -0.65,-9.3 -0.8,-10.2 -1.48,-20.49 -3.17,-30.6 -3.31,-19.87 -6.96,-39.66 -9.88,-59.6 -1.37,-9.32 -1.98,-19.66 -3.61,-28.79 -2.08,-11.69 -3.81,-23.4 -5.69,-35.12 -0.69,-4.28 -1.23,-8.67 -1.82,-12.89 -0.07,-0.55 -0.49,-1.48 -0.18,-2 0.39,-0.67 0.7,0.13 0.7,0.5 0,0.1 0.06,0.5 0.09,0.7 0.23,1.53 0.47,3.06 0.7,4.59 0.86,5.63 1.65,11.29 2.53,16.91 2.28,14.74 4.81,29.26 6.41,44.1 2.61,24.05 8.16,47.68 11.57,71.6 1.05,7.36 2.09,14.8 2.8,22.2 0.68,7.04 0.38,14.23 1.48,21.2 0.02,0.1 0.16,0.9 -0.11,0.9"
       fill="#000000" /><path
       id="path522"
       d="m 600.8,494.4 c 0,0 -0.15,0.81 -0.4,0.7 -0.51,-0.22 -0.32,-1.22 -0.39,-1.7 -0.01,-0.1 -0.01,-0.1 -0.01,-0.1 0,0 -0.1,-1.13 -0.15,-1.7 -0.08,-0.97 -0.29,-1.94 -0.45,-2.9 -0.44,-2.67 -0.33,-5.73 -0.39,-8.4 -0.2,-8.64 -1.8,-17.32 -2.74,-25.9 -0.68,-6.14 -0.87,-12.35 -1.57,-18.5 -0.87,-7.7 -2.2,-15.08 -3.5,-22.7 -1.97,-11.53 -3.24,-23.18 -5.31,-34.69 -1.34,-7.48 -1.48,-15.03 -2.69,-22.51 -0.61,-3.79 -1.88,-7.48 -2.38,-11.3 -0.53,-4.05 -0.93,-9.26 -2,-13.19 -0.22,-0.81 -0.44,-1.62 -0.66,-2.43 -0.08,-0.28 -0.42,-1.33 0.14,-1.38 1.14,-0.11 0.94,2.11 1.24,3.22 0.6,2.21 0.82,4.55 1.19,6.78 1.83,10.96 3.67,21.62 4.62,32.7 0.5,5.83 2.14,12.6 3.05,18.3 1.74,10.88 3.38,21.74 5.2,32.6 2.31,13.78 2.81,27.66 4.4,41.5 0.9,7.86 1.46,15.34 2,23.2 0.19,2.73 0.8,6.76 0.8,8.8"
       fill="#000000" /><path
       id="path524"
       d="m 609.5,483.1 c 0,0 0.04,0.45 -0.1,0.6 -0.25,0.27 -1.02,-0.15 -0.9,-0.5 0.1,-0.1 -0.21,-2.76 -0.31,-4.1 -0.19,-2.73 -0.46,-5.36 -0.73,-8.1 -0.72,-7.2 -1.46,-14.4 -2.22,-21.6 -2.56,-23.94 -6.74,-47.74 -9.3,-71.7 -0.91,-8.48 -1.84,-16.93 -2.81,-25.4 -0.28,-2.44 -0.46,-5.32 -0.94,-7.9 -0.23,-1.2 -0.45,-2.4 -0.68,-3.6 -0.04,-0.22 -0.44,-1.61 0.19,-1.4 0.76,0.25 0.86,2.62 0.99,3.5 0.34,2.4 0.68,4.8 1.02,7.2 1.35,9.45 2.06,19.02 3.22,28.5 3.18,26.21 7.59,52.31 9.92,78.6 0.57,6.44 1.3,12.88 1.95,19.3 0.23,2.31 1.02,4.71 0.63,7"
       fill="#000000" /><path
       id="path526"
       d="m 616.97,475.1 c 0,0 -0.07,0.06 -0.07,0.1 0,0 -0.36,0.31 -0.5,0.2 -0.2,-0.15 -0.23,-0.95 -0.27,-1.2 -0.19,-1.47 -0.4,-2.93 -0.63,-4.4 0,0 -0.01,-0.67 -0.02,-1 -0.05,-1.23 -0.11,-2.47 -0.16,-3.7 -0.04,-1.13 -0.11,-2.27 -0.13,-3.4 -0.13,-6.74 -0.4,-13.27 -0.85,-20 -1.23,-18.41 -4.75,-36.76 -6.7,-55.1 -0.99,-9.26 -1.71,-19.96 -2.92,-29.3 -0.35,-2.7 -0.69,-5.4 -1.04,-8.1 -0.05,-0.39 -0.48,-1.56 -0.08,-1.8 0.55,-0.33 0.64,0.7 0.69,1 0.35,2.35 0.85,4.93 1.06,7.4 0.82,9.55 1.66,17.54 2.69,27.5 1.68,16.31 4.27,32.49 5.9,48.8 0.32,3.21 1.12,6.38 1.29,9.6 0.17,3.02 0.9,7.38 0.86,10.6 -0.03,4 -0.85,8.1 0.02,12 0.51,2.28 -0.16,5.19 0.36,7.3 0.25,0.96 0.38,1.81 0.47,2.8 0.03,0.24 -0.04,1.2 -0.04,0.65"
       fill="#000000" /><path
       id="path528"
       d="m 628.7,453.7 c 0,0 0.02,1.27 -0.02,1.9 -0.02,0.28 0.47,4.03 -0.48,4.5 -0.67,0.34 -0.21,-3.3 -0.21,-3.4 0.01,-0.1 -0.09,-1.5 -0.09,-2.2 0,-0.2 0,-0.8 0,-0.6 0,0.21 -0.04,-0.38 -0.05,-0.5 -0.18,-1.97 -0.37,-3.36 -0.28,-5.2 0.25,-4.97 -0.83,-11.21 -1.56,-15.89 -2.66,-17 -5.6,-33.99 -7.21,-51.11 -0.7,-7.42 -1.73,-12.73 -3.09,-20.01 -0.07,-0.39 -0.15,-0.78 -0.24,-1.18 -0.32,-1.44 -0.63,-2.87 -0.95,-4.31 -0.08,-0.38 -0.99,-2.2 -0.12,-2.2 0.86,0 1.33,3.33 1.51,4.29 2.02,10.89 2.29,12.27 3.61,22.71 1.39,10.92 2.61,21.89 4.18,32.8 1.99,13.82 5,28.08 5,41.8"
       fill="#000000" /><path
       id="path530"
       d="m 634.6,448.7 c 0,0 -0.6,0.42 -0.7,0.2 0,-0.2 -0.33,-2.4 -0.44,-3.5 -0.12,-1.16 -0.17,-2.33 -0.23,-3.5 -0.26,-4.6 -0.7,-9.2 -1.08,-13.8 -1.01,-12.37 -3.11,-24.65 -4.41,-37 -0.46,-4.3 -1.04,-8.87 -1.39,-13.3 -0.33,-4.27 -0.67,-8.53 -1,-12.8 -0.05,-0.55 -1.24,-4.1 -0.45,-4.1 0.55,0 0.88,1.84 0.93,2.3 0.16,1.4 0.35,2.8 0.48,4.2 0.38,4.13 0.73,8.27 1.15,12.4 1.59,15.8 3.88,31.51 5.44,47.3 0.7,7.07 0.98,14.14 1.69,21.2 0.01,0.1 0.01,0.17 0.01,0.2 0,0 0,0.13 0,0.2"
       fill="#000000" /><path
       id="path532"
       d="m 640.3,429.1 c 0,0 0,0.1 0,0.1 m 0,-0.1 c 0,0 0,0 0,0 0,0 0,0 0,0 m 0,0 c 0,0 0,0 0,0 0,0 0.11,1.07 0.19,1.6 0.17,1.12 0.54,1.41 0.61,2.4 0.02,0.3 -0.44,1.78 -0.9,1.2 -0.13,-0.16 -0.14,-1.92 -0.21,-2.3 -0.63,-3.35 -0.26,-6.61 -0.62,-10 -1.35,-12.43 -2.54,-24.87 -3.9,-37.3 -0.4,-3.56 -1.16,-7.07 -1.75,-10.6 -0.23,-1.38 -0.38,-2.91 -0.54,-4.2 -0.04,-0.26 -0.28,-1.18 0.22,-1.1 0.64,0.11 0.7,2.02 0.79,2.6 0.66,4.68 1.2,8.42 2,12.9 1.48,8.18 1.94,16.85 2.66,25.2 0.57,6.64 1.45,12.88 1.45,19.5"
       fill="#000000" /><path
       id="path534"
       d="m 646.97,420.3 c 0,0 -0.7,2.6 -1.37,2.1 -0.23,-0.17 0.55,-1.53 0.6,-1.9 0.2,-1.38 -0.17,-2.93 -0.4,-4.3 -1.25,-7.47 -0.82,-15.09 -2.1,-22.59 -1.12,-6.52 -1.24,-7.51 -1.75,-14.11 -0.02,-0.26 -0.18,-0.86 0.25,-0.9 0.52,-0.04 0.52,0.86 0.54,1.2 0.3,4.09 0.56,6.27 1.17,10.4 1.33,9 1.38,18.16 2.87,27.1 0.02,0.1 0.12,1.57 0.18,2.3 0.05,0.78 -0.13,2.18 -0.76,2.65 m 0.6,-4.85 c 0,0 0,0.1 0,0.1"
       fill="#000000" /><path
       id="path536"
       d="m 652,408.7 c 0,0 -0.5,0.49 -0.63,0.3 -0.07,-0.1 -0.07,-0.1 -0.07,-0.1 0,0 -0.1,-0.33 -0.1,-0.5 0,0 -0.06,-1.6 -0.11,-2.4 -0.1,-1.63 -0.16,-3.27 -0.29,-4.9 -0.27,-3.49 -0.74,-7.43 -1.04,-10.5 -0.13,-1.26 -0.81,-4.23 0.14,-4.7 0.49,-0.24 0.42,0.65 0.44,0.9 0.13,1.93 0.24,3.87 0.42,5.8 0.33,3.54 2.03,12.15 1.18,16.4"
       fill="#000000" /><path
       id="path538"
       d="m 532.8,612.9 c 0,0 -0.86,0.19 -1.3,0.15 -0.96,-0.07 -1.92,-0.05 -2.87,-0.05 -0.13,0 -0.86,0.08 -1.23,0.06 -0.87,-0.06 -2.68,-0.08 -3.9,-0.28 -3.62,-0.57 -6.59,-0.98 -10.2,-1.32 -1.11,-0.11 -2.92,-0.03 -3.8,-0.66 -0.35,-0.25 -0.17,-0.74 0.2,-0.8 0.1,0 1.77,0.34 2.6,0.52 1.67,0.34 3.41,0.39 5.1,0.56 5.14,0.52 9.83,0.93 14.7,1.21 0.1,0.01 0.1,0.01 0.1,0.01 0,0 0.49,-0.27 0.6,-0.1 0.3,0.46 -0.17,0.75 -0.5,0.84 m 0.5,-0.14 c 0,0 0,0 0,0 0,0 0,0 0,0"
       fill="#000000" /><path
       id="path540"
       d="m 539.03,606.8 c 0,0 -1.62,0.26 -2.43,0.21 -1.15,-0.07 -3.05,-0.34 -4.5,-0.46 -5.61,-0.47 -11.33,-0.69 -16.9,-1.43 -2.6,-0.35 -5.2,-0.69 -7.8,-1.04 -0.58,-0.08 -2.76,-0.46 -2.6,-1.08 0.12,-0.47 3.91,0.45 4.1,0.48 2.62,0.44 5.79,0.76 8,1.04 3.48,0.45 7,0.48 10.5,0.78 3.39,0.29 6.79,1 10.19,1 0.11,0 1.64,0.21 1.38,0.6 m -0.57,-0.6 c 0,0 0,0 0,0 0,0 0.1,0.1 0.1,0.1"
       fill="#000000" /><path
       id="path542"
       d="m 544.5,602.9 c 0,0 -0.14,0.37 -0.3,0.45 -0.1,0.05 -1.37,0 -2,-0.03 -0.85,-0.03 -1.99,-0.02 -3.1,-0.1 -3.37,-0.24 -6.65,-0.44 -10,-0.97 -10.06,-1.59 -20.31,-2.53 -30.3,-4.53 -0.1,-0.02 -0.66,-0.38 -0.5,-0.52 1.02,-0.9 3.39,0.19 4.7,0.39 3.75,0.56 7.4,1.03 11.2,1.53 9.99,1.31 19.72,3.29 29.8,3.48 0.1,0 0.1,0 0.1,0 0.1,0 0.1,0 0.1,0 0,0 0.13,0.07 0.2,0.1 0,0 0.08,0.51 -0.1,0.6 m -0.2,0.1 c 0,0 0,0 0,0 0,0 0,0 0,0 m 0.1,-0.8 c 0,0 0.13,0.07 0.1,0.05"
       fill="#000000" /><path
       id="path544"
       d="m 552,597.03 c 0,0 -0.81,0.43 -1.2,0.3 -0.1,-0.03 -1.97,-0.14 -2.9,-0.19 -1.47,-0.09 -2.93,-0.15 -4.4,-0.21 -3.15,-0.15 -6.28,-0.61 -9.4,-1.01 -11.51,-1.48 -23.07,-2.27 -34.6,-3.74 -1.48,-0.19 -2.91,-0.69 -4.4,-0.84 -0.15,-0.02 -1.47,-0.01 -1.6,-0.34 -0.28,-0.7 1.66,-0.43 1.9,-0.4 1.28,0.17 2.52,0.55 3.8,0.73 3.8,0.51 7.59,1.15 11.4,1.53 8.63,0.87 17.26,1.78 25.9,2.6 4.63,0.43 10.02,0.2 14.6,1.22 0.1,0.02 0.92,0.61 0.66,0.8 m -1.06,-0.18 c 0,0 0,0 0,0 0,0 0,0 0,0"
       fill="#000000" /><path
       id="path546"
       d="m 562.23,591.6 c 0,0 -0.75,0.27 -1.13,0.23 -0.42,-0.05 -2.74,0.02 -3.12,-0.27 -0.08,-0.06 -0.08,-0.06 -0.08,-0.06 0,0 -1.61,0.48 -2.4,0.32 -0.1,-0.02 -1,-0.53 -1,-0.22 0,0.29 -4.38,0.2 -5,0.2 -3.76,0 -8.07,-0.59 -11.8,-1.32 -12.3,-2.4 -24.72,-3.02 -37.2,-4.03 -2.73,-0.22 -5.47,-0.41 -8.2,-0.61 -0.74,-0.05 -3.82,0.1 -3.6,-0.74 0.15,-0.56 1.71,-0.19 2.2,-0.16 3.02,0.2 6.07,0.36 9.1,0.61 16.19,1.34 19.66,1.53 33.2,3.18 8.21,1 16.48,2.65 24.5,2.18 0.1,-0.01 0.9,-0.18 0.9,0.09 0,0.17 0.33,-0.09 0.5,-0.08 0.67,0.02 1.33,0.05 2,0.08 0.1,0 1.24,0.8 0.87,0.8 m -4.07,-0.3 c 0,0 0,0 0,0 0,0 0,0 0,0 m 0,0 c 0,0 0.67,-0.27 0.5,-0.2 -0.13,0.05 -0.27,0.11 -0.4,0.16"
       fill="#000000" /><path
       id="path548"
       d="m 565.02,586.58 c 0,0 -1.14,0.28 -1.72,0.31 -1.04,0.07 -2.15,-0.24 -3.2,-0.35 -2.64,-0.26 -6.09,-0.39 -9.2,-0.77 -9.14,-1.09 -18.24,-2.67 -27.4,-3.8 -3.27,-0.4 -6.54,-0.86 -9.8,-1.29 -1.31,-0.17 -2.6,-0.44 -3.9,-0.67 -0.28,-0.05 -1.04,-0.1 -0.8,-0.61 0.15,-0.31 0.66,-0.14 0.9,-0.1 1.33,0.21 2.67,0.42 4,0.64 3.05,0.48 6.13,0.79 9.2,1.17 13.69,1.71 27.56,4.04 41,4.88 0.1,0.01 0.53,-0.31 0.7,-0.19 0.31,0.22 0.27,0.73 0.08,0.92"
       fill="#000000" /><path
       id="path550"
       d="m 574.57,580 c 0,0 -0.59,0.59 -0.97,0.58 -1.2,-0.05 -2.4,-0.1 -3.6,-0.15 -1.4,-0.06 -2.8,-0.27 -4.2,-0.35 -0.41,-0.03 -3.3,-0.24 -3.3,-0.58 0,-0.02 -0.78,-0.15 -1.1,-0.21 -1.43,-0.27 -2.88,-0.5 -4.3,-0.83 -8,-1.8 -16.25,-2.14 -24.29,-3.78 -5.84,-1.19 -6.96,-1.13 -14.31,-1.82 -0.47,-0.05 -0.93,-0.18 -1.3,-0.46 -0.25,-0.18 -0.02,-0.77 0.3,-0.7 0.15,0.03 0.26,0.25 0.4,0.3 0.1,0 0.5,0.04 0.7,0.06 3.13,0.29 6.27,0.59 9.4,0.88 2.83,0.27 5.69,0.99 8.5,1.47 6.03,1.04 12.18,1.48 18.2,2.59 6.43,1.19 12.17,2.32 18.7,2.69 0.1,0.01 1.04,-0.13 1.2,0.21 0.1,0.21 -0.21,0.48 -0.34,0.58"
       fill="#000000" /><path
       id="path552"
       d="m 577.72,573.46 c 0,0 -0.81,0.24 -1.22,0.24 -0.83,0 -1.67,0 -2.5,0 -2.47,0 -5.35,0.1 -7.68,-0.56 -8.18,-2.32 -16.8,-3.31 -25.12,-5.14 -3.2,-0.7 -8.71,-1.48 -10.01,-1.7 -0.48,-0.08 -2.62,0.03 -2.19,-0.9 0.13,-0.28 1.33,0.02 1.79,0.1 3.21,0.51 6.41,1.02 9.61,1.54 12.12,1.94 24.06,5.86 36.39,5.86 0.11,0 0.84,-0.25 1.01,0 0.46,0.69 -0.74,0.8 -1.08,0.8"
       fill="#000000" /><path
       id="path554"
       d="m 588.72,567.68 c 0,0 -0.82,0.13 -1.22,0.07 -0.93,-0.15 -1.87,-0.21 -2.8,-0.31 -2.55,-0.26 -5.03,-1.09 -7.6,-1.45 -6.05,-0.87 -11.94,-2.77 -18,-3.69 -5.61,-0.86 -9.34,-1.25 -14.8,-2.36 -1.15,-0.23 -3.97,-0.06 -4.3,-1.04 -0.23,-0.69 3.14,0.17 3.89,0.31 5.56,1.01 8.98,1.54 14.61,2.31 9.72,1.32 19.15,4.09 28.8,5.47 0.1,0.01 1.24,-0.09 1.5,0.31 0.5,0.75 -1.18,0.46 -1.4,0.43"
       fill="#000000" /><path
       id="path556"
       d="m 592,561.2 c 0,0 0,0 0,0 m -0.1,0 c 0,0 0.74,0.17 1.1,0.11 0.1,-0.01 1.89,0.5 1.5,0.89 -0.12,0.12 -1.7,-0.09 -1.7,-0.1 0,-0.21 -0.6,0.02 -0.6,0 0,-0.15 -1.28,-0.4 -1.52,-0.4 -2.3,0 -5.08,-0.43 -7.38,-0.93 -7.42,-1.59 -14.8,-3.05 -22.3,-4.38 -4.1,-0.72 -8.13,-1.88 -12.21,-2.76 -0.3,-0.07 -2.41,-0.14 -1.89,-0.83 0.21,-0.27 1.21,0.03 1.5,0.08 0.87,0.14 1.73,0.28 2.6,0.42 2.45,0.4 4.87,1.17 7.3,1.73 4.53,1.05 9.31,1.23 13.8,2.37 2.99,0.76 4.7,1.81 7.9,2.1 3.78,0.34 8.07,0.74 11.8,1.68"
       fill="#000000" /><path
       id="path558"
       d="m 590.9,553.3 c 0,0 0,0 0,0 m 0.4,0.7 c 0,0 0,0 0,0 m -0.1,0.04 c 0,0 -1.16,-0.04 -1.73,-0.04 -0.26,0 -0.99,0.03 -0.77,-0.1 0.32,-0.19 -1.68,-0.17 -2.6,-0.38 -2.1,-0.47 -4.47,-0.84 -6.41,-1.21 -4.8,-0.9 -9.59,-1.47 -14.38,-2.58 -2.51,-0.58 -6.66,-0.52 -8.91,-1.73 -0.53,-0.28 -0.44,-0.91 0.2,-0.7 0,0 1.2,0.2 1.8,0.29 2.11,0.34 4.19,0.72 6.29,1.12 7.17,1.39 19.18,3.16 25.21,4.67 0.1,0.02 0.77,0.22 1,0.02 0,-0.1 0.73,-0.1 1.1,-0.1 0.1,0 0.32,-0.06 0.4,0 0,0.1 0.1,0.1 0.1,0.1 -0.1,0 0.25,0.31 0.2,0.5 -0.08,0.35 -1.34,0.1 -1.5,0.1"
       fill="#000000" /><path
       id="path560"
       d="m 585.47,547.7 c 0,0 -1,0.01 -1.47,-0.12 -1.07,-0.32 -2.11,-0.57 -3.2,-0.81 -3.44,-0.77 -6.87,-1.54 -10.29,-2.36 -1.34,-0.33 -2.68,-0.65 -4.02,-0.97 -0.4,-0.09 -2.05,-0.16 -2.09,-0.64 -0.04,-0.46 0.71,-0.23 0.9,-0.19 1.07,0.19 2.13,0.39 3.2,0.58 3.91,0.71 7.82,1.8 11.71,2.68 1.38,0.31 3.08,0.62 4.16,1.09 0.1,0.04 1.66,0.6 1.03,0.94"
       fill="#000000" /></g></svg>
