<?xml version="1.0" encoding="UTF-8" standalone="no"?>
<svg
   xmlns:dc="http://purl.org/dc/elements/1.1/"
   xmlns:cc="http://creativecommons.org/ns#"
   xmlns:rdf="http://www.w3.org/1999/02/22-rdf-syntax-ns#"
   xmlns:svg="http://www.w3.org/2000/svg"
   xmlns="http://www.w3.org/2000/svg"
   xmlns:sodipodi="http://sodipodi.sourceforge.net/DTD/sodipodi-0.dtd"
   xmlns:inkscape="http://www.inkscape.org/namespaces/inkscape"
   inkscape:version="1.0 (4035a4f, 2020-05-01)"
   sodipodi:docname="paci.svg"
   id="svg2282"
   height="85.933418"
   width="77.586639"
   version="1.1"
   xml:space="preserve"><metadata
     id="metadata2288"><rdf:RDF><cc:Work
         rdf:about=""><dc:format>image/svg+xml</dc:format><dc:type
           rdf:resource="http://purl.org/dc/dcmitype/StillImage" /><dc:title></dc:title></cc:Work></rdf:RDF></metadata><defs
     id="defs2286" /><sodipodi:namedview
     inkscape:current-layer="svg2282"
     inkscape:window-maximized="0"
     inkscape:window-y="23"
     inkscape:window-x="0"
     inkscape:cy="163.39336"
     inkscape:cx="-52.358935"
     inkscape:zoom="0.85069444"
     fit-margin-bottom="0"
     fit-margin-right="0"
     fit-margin-left="0"
     fit-margin-top="0"
     showgrid="false"
     id="namedview2284"
     inkscape:window-height="480"
     inkscape:window-width="697"
     inkscape:pageshadow="2"
     inkscape:pageopacity="0"
     guidetolerance="10"
     gridtolerance="10"
     objecttolerance="10"
     borderopacity="1"
     bordercolor="#666666"
     pagecolor="#ffffff" /><g
     transform="translate(-711.012,-114.61481)"
     id="g2280"><path
       id="path2258"
       d="m 777.1,151.5 c 0,0 0,0 0,0 m -35.6,-3 c 0,0 0.1,-0.1 0.1,-0.1 m 0.1,0.1 c 0,0 -0.1,0.05 -0.1,0.1 m 0.9,-1.1 c 0,0 0,0 0,0 0,0 0,0 0,0 m 33.7,4.9 c 0,0 0,0 0,0 0,0 0,0 0,0 m 2.7,-0.2 c 0,0 0,0 0,0 0,0 0,0 0,0 m -1.7,-0.68 c 0,0 0.72,-0.02 1.09,-0.02 0.11,0 1.1,-0.33 1.61,-0.47 1.09,-0.3 1.89,-0.72 2.91,-1.28 0.09,-0.05 0.89,-1 1.29,-1.48 0.48,-0.56 0.91,-1.17 1.4,-1.73 2,-2.28 2.71,-5.31 2.4,-8.14 -0.85,-7.91 -6.35,-15.43 -14.3,-17.4 -4.42,-1.1 -13.15,1.34 -15.5,5.8 -1.78,3.38 -2.52,7.14 -4.7,10.3 -2.94,4.25 -7.08,7.68 -10.7,11.3 -0.1,0.1 -0.19,0.86 -0.4,0.75 -0.1,-0.05 -0.93,-0.27 -0.83,-0.55 0.03,-0.1 0.61,-0.75 0.94,-1.03 0.09,-0.07 0.37,-0.35 0.52,-0.5 0.95,-0.95 1.89,-1.89 2.84,-2.84 2.09,-2.09 4.32,-4.23 6.15,-6.55 2.4,-3.04 2.92,-7.83 5.28,-11.28 3.15,-4.6 11.32,-7.66 16.7,-6.2 4.4,1.19 9.05,4.51 11.6,8.3 5.71,8.49 3.52,20.58 -6.5,23.67 -0.1,0.03 -1.89,-0.13 -2.7,0.19 -0.1,0.04 -0.97,0.23 -1.4,0.34 -0.9,0.22 -1.79,0.3 -2.7,0.57 -0.1,0.03 -0.85,0.41 -1.23,0.59 -0.77,0.39 -1.39,0.82 -2.07,1.27 -2.56,1.71 -4.93,3.51 -7.61,5.02 -0.09,0.05 -0.7,0.48 -1.01,0.69 -0.62,0.44 -1.33,0.84 -1.97,1.24 -1.13,0.7 -2,1.56 -3.03,2.42 -0.37,0.3 -0.7,0.51 -1.13,0.72 -0.18,0.1 -0.71,0.15 -0.55,0.28 0.12,0.09 0.52,0.12 0.4,0.2 -0.28,0.19 -0.79,-0.35 -0.8,-0.6 -0.02,-0.39 1.23,-0.81 1.7,-1.2 1.18,-0.98 2.59,-1.81 4.3,-3.1 4.91,-3.72 11.26,-9.3 17.9,-9.3"
       fill="#000000" /><path
       id="path2260"
       d="m 754.5,165.3 c 0,0 0,0 0,0 0,0.1 0,0.1 0,0.1 m -0.6,0.1 c 0,0 0,0 0,0 m 0,0.5 c 0,0 0,0 0,0 0.1,0 0.1,0 0.1,0 m 0.55,-0.5 c 0,0 0.03,0.07 0.05,0.1 0,0 -0.27,0.4 -0.47,0.4 -0.13,0 -0.73,-0.43 -1.04,-0.64 -1.27,-0.85 -2.56,-1.69 -3.82,-2.56 -3.21,-2.22 -5.82,-5.27 -7.42,-8.86 -0.45,-1.01 -1.23,-2.41 -1.56,-3.64 -0.12,-0.46 -0.66,-1.71 0.01,-2 0.61,-0.26 0.69,1.52 0.78,2 0.3,1.62 1.95,4.37 2.92,5.9 1.53,2.42 3.43,4.13 5.6,5.9 1.45,1.18 3.47,1.87 4.8,3.2 0,0 0.07,0 0.1,0 0,0 0.1,0.05 0.1,0.1"
       fill="#000000" /><path
       id="path2262"
       d="m 779.28,192.1 c 0,0 -0.16,0.67 -0.23,1 -0.15,0.63 -0.56,1.87 -1.05,2.2 -1.88,1.27 -3.97,2.88 -6.2,3.5 -4.71,1.32 -10.03,-1.64 -13.6,-4.3 -7.18,-5.34 -9.74,-13.06 -14.13,-19.64 -6.49,-9.74 -13.85,-18.81 -20.15,-28.75 -1.75,-2.77 -3.12,-5.74 -4.84,-8.53 -2.46,-3.98 -4.95,-6.72 -4.78,-11.48 0.43,-11.63 15.65,-14.55 23.6,-8.2 5.87,4.69 5.71,14.2 6.98,21 0.29,1.53 1.49,3.11 2.52,4.34 0.05,0.06 1.65,1.52 1.5,1.96 -0.31,0.94 -2.27,-1.62 -2.4,-1.8 -1.89,-2.68 -2.29,-4.07 -2.88,-7 -1.22,-6.12 -1.21,-14.28 -6.82,-18.3 -4.12,-2.95 -12.58,-3.6 -16.9,-0.9 -4.49,2.8 -5.57,9.18 -3.93,13.81 0.03,0.09 0.94,1.53 1.39,2.25 0.93,1.45 1.86,2.9 2.79,4.35 0.05,0.09 0.73,1.4 1.07,2.05 0.42,0.81 0.92,1.57 1.39,2.36 2.3,3.93 4.68,7.71 7.25,11.48 3.97,5.83 8.11,11.46 12.19,17.19 1.98,2.78 5.83,7.24 7.02,10.81 0.03,0.1 0.31,0.52 0.43,0.74 0.57,1.02 1.07,1.93 1.77,2.84 1.74,2.29 3.47,4.71 5.43,6.82 3.46,3.71 9.57,7.56 14.9,6 1.93,-0.56 3.8,-1.8 5.51,-2.85 0.09,-0.05 0.49,-0.76 0.69,-1.12 0.41,-0.73 0.72,-1.48 0.66,-2.33 -0.24,-3.55 -0.63,-6.3 -2.16,-9.6 -1.11,-2.38 -4.13,-7.19 -6.9,-8.2 -2.08,-0.76 -4.84,-0.95 -6.33,-2.82 -0.07,-0.08 -0.57,-0.73 -0.82,-1.05 -0.51,-0.67 -1,-1.36 -1.49,-2.04 -1.06,-1.45 -2.27,-2.89 -3.11,-4.47 -0.13,-0.24 -0.84,-1.19 -0.65,-1.52 0.37,-0.64 1.21,0.92 1.27,1 0.73,1.1 1.8,2.51 2.67,3.81 0.06,0.09 1,1.37 1.48,2 0.96,1.24 1.71,2.23 3,3.13 0.08,0.06 0.75,0.24 1.08,0.33 0.1,0.03 1.92,0.47 2.8,0.76 1.53,0.51 2.9,2 4.01,3.23 3.97,4.35 7.07,11.17 5.71,17.04 M 720.2,137.7 c 0,0 0,0 0,0 m 42.8,33.2 c 0,0 0,0 0,0 0,0 0,0.1 0,0.1 m -42.8,-33.3 c 0,0 0,0 0,0 0,0 0,0 0,0"
       fill="#000000" /><path
       id="path2264"
       d="m 723.5,145.6 c 0,0 -2.13,1.35 -3.12,2.13 -0.08,0.07 -0.27,1.58 -0.58,1.27 -0.1,-0.1 -0.2,-0.4 -0.3,-0.3 -0.19,0.19 0.47,0.8 0.2,0.8 -0.1,-0.1 -0.69,-0.26 -0.7,-0.5 -0.02,-0.36 0.47,-1.42 0.7,-1.7 0.82,-1.02 2.13,-1.36 3.2,-2 0,0 0.2,-0.07 0.3,-0.1 0,0 0.14,0.06 0.2,0.1 0.1,0.1 0.1,0.17 0.1,0.2 0,0.1 0,0.1 0,0.1"
       fill="#000000" /><path
       id="path2266"
       d="m 735.57,174.5 c 0,0 -1.27,-0.1 -1.75,-0.47 -1.6,-1.21 -3.38,-2.46 -4.65,-3.99 -3.55,-4.26 -6.44,-9.21 -8.63,-14.28 -0.16,-0.38 -0.3,-0.75 -0.41,-1.14 -0.13,-0.43 -1.87,-5.62 -0.93,-5.62 0.52,0 0.69,1.74 0.75,2 0.3,1.28 0.61,2.57 1.05,3.8 1.34,3.78 3.44,6.92 5.64,10.21 2.99,4.49 2.47,3.58 7.31,7.98 0.54,0.49 2.49,1.71 1.05,1.71"
       fill="#000000" /><path
       id="path2268"
       d="m 746.67,180 c 0,0 -0.08,0.21 -0.17,0.25 -0.1,0.05 -0.1,0.05 -0.1,0.05 -0.1,0.1 -0.85,0.69 -1.3,0.8 -0.1,0 -0.17,0.03 -0.2,0.05 -0.1,0.05 -3.13,1.95 -3.5,0.85 -0.07,-0.22 2.73,-1.33 3.01,-1.46 0.09,-0.04 0.4,-0.39 0.59,-0.34 0.1,0.1 0.89,-0.93 1.4,-0.8 0.22,0.05 0.34,0.64 0.2,0.8 m -1.8,1.1 c 0,0 0,0 0,0 0,-0.1 0.1,-0.13 0.1,-0.1 m 0.4,-0.8 c 0,0 0,0 0,0 -0.1,0 -0.05,0.1 0,0.1 m 1,-0.1 c 0,0 0,0 0,0 0,0 0.1,0 0.1,0"
       fill="#000000" /><path
       id="path2270"
       d="m 740.5,181.1 c 0,0 -0.08,0.02 -0.1,0 m -0.1,-0.14 c 0,0 -1.26,-0.43 -1.77,-0.84 -2.05,-1.67 -3.49,-2.98 -5.36,-4.85 -0.07,-0.07 -0.32,-0.16 -0.37,-0.27 0,-0.1 -0.24,-0.43 -0.36,-0.59 -1.06,-1.45 -2.13,-3.07 -3.34,-4.47 -3.5,-4.04 -6.09,-8.74 -8.34,-13.59 -0.98,-2.11 -1.49,-4.08 -1.94,-6.35 -0.04,-0.19 -0.23,-0.66 -0.02,-0.8 0.66,-0.44 1.29,3.08 1.4,3.4 0.71,2.18 1.64,4.24 2.56,6.34 2.48,5.7 7.06,11.08 10.97,15.78 0.07,0.08 0.38,0.34 0.54,0.47 1.45,1.18 2.9,2.45 4.42,3.57 0.84,0.63 3.16,2.34 2.11,2.34 -0.1,0 -0.1,0 -0.1,0 -0.1,-0.1 -0.23,-0.1 -0.3,-0.1"
       fill="#000000" /><path
       id="path2272"
       d="m 746.88,191.2 c 0,0 -0.49,1.88 -0.73,2.82 -0.27,1.06 -0.96,2.39 -1.75,3.18 -2.34,2.34 -7.88,3.84 -11.5,3.2 -7.8,-1.39 -12.23,-7.86 -15.1,-14.8 -1.27,-3.07 -1.59,-5.65 -2.5,-8.8 -2.49,-8.58 -5.83,-19.15 -3.5,-28.2 0.65,-2.54 3,-5.88 5.7,-6.6 1.43,-0.38 3.16,0.34 3.97,1.55 0.12,0.19 1.16,1.36 0.73,1.65 -0.32,0.22 -2.39,-2.11 -2.92,-2.45 -0.08,-0.05 -1.6,0 -2.21,0.38 -1.55,0.97 -2.68,1.81 -3.57,3.47 -1.71,3.19 -1.3,7.23 -1.3,10.69 0,6.61 2.17,13.04 3.9,19.31 1.97,7.13 3.87,14.07 9.32,19.53 0.08,0.07 1.14,0.85 1.72,1.14 1.37,0.69 2.81,1.09 4.23,1.66 3.51,1.4 8.37,0.41 11.03,-1.36 0.1,-0.07 0.84,-0.57 1.21,-0.81 0.09,-0.06 0.93,-1.33 1.34,-1.98 0.3,-0.48 0.81,-2.74 0.99,-3.4 0.79,-2.87 -0.34,-5.96 -0.34,-8.85 0,-0.13 -0.99,-1.07 -0.6,-1.23 1.12,-0.45 1.5,1.57 1.53,2.1 0.2,4.15 1.07,8 -0.83,11.8"
       fill="#000000" /><path
       id="path2274"
       d="m 738.15,193.7 c 0,0 0.03,-0.07 0.05,-0.1 m -4.8,2.9 c 0,0 0,0 0,0 m 3.1,-0.8 c 0,0 0,0 0,0 0,0 0.1,0 0.1,0 m 1.1,-1.5 c 0,0 0,0 0,0 m 1.1,-0.3 c 0,0 0,0 0,0 0,0 0,0 0,0 m 2.2,-12.5 c 0,0 0,0 0,0 m -12.4,14 c 0,0 0,0 0,0 m 9.7,-1 c 0,0 0,0 0,0 m -0.07,0.08 c 0,0 -1.14,0.95 -0.73,1.02 0.22,0.04 -1.35,1.93 -2.7,1.8 -1.92,-0.19 -3.92,-0.53 -6.1,-1.84 -0.1,-0.06 -0.76,-1.04 -0.4,-1.16 0.13,-0.04 1.33,0.79 1.53,0.92 1.25,0.83 1.95,1.12 3.47,1.27 0.1,0.01 1,-0.19 1,0.11 0,0.12 1.8,-0.64 2.1,-0.83 0.1,-0.07 0.39,-0.36 0.53,-0.5 0.07,-0.07 0.49,-0.68 0.71,-0.98 0.06,-0.09 0.75,-0.42 0.66,-0.69 -0.1,0 0.19,-0.41 0.34,-0.61 0.06,-0.09 0.59,-1.33 0.74,-1.99 0.2,-0.83 0.56,-2 1.07,-3.13 0.95,-2.14 -0.26,-4.25 0.51,-6.37 0.04,-0.1 1.15,-0.42 1.04,-0.1 -0.14,0.42 -0.65,0.59 -0.7,1.2 -0.1,1.17 0.57,2.41 0.4,3.6 -0.21,1.51 -1.2,2.95 -1.48,4.5 -0.02,0.1 -0.18,0.9 -0.26,1.3 -0.13,0.63 -0.7,1.44 -1.16,1.9 0,0 -0.65,0.24 -0.6,0.5"
       fill="#000000" /><path
       id="path2276"
       d="m 718.1,150.05 c 0,0 -0.45,-0.67 -0.2,-0.75 0.45,-0.15 0.39,0.87 0.1,0.8"
       fill="#000000" /><path
       id="path2278"
       d="m 731.57,196 c 0,0 -1.23,0.34 -1.67,0 -1.39,-1.06 -2.27,-1.97 -3.43,-3.32 -0.07,-0.08 -1.75,-1.62 -1.17,-1.48 0.19,0.05 -0.08,-0.2 -0.22,-0.42 -1.08,-1.76 -1.33,-2.03 -2.03,-3.29 -0.24,-0.42 -1.2,-2.04 -1.05,-2.19 0.02,-0.02 -1.38,-4.28 -1.66,-5.28 -2.05,-7.32 -3.53,-14.42 -3.91,-22.02 -0.13,-2.5 -0.68,-4.9 -0.22,-7.4 0.19,-1.05 0.06,-3.26 1.09,-3 0.57,0.14 0.08,1.09 0.02,1.4 -0.28,1.46 -0.43,2.54 -0.5,4 -0.12,3.06 0.43,6.69 0.64,9.7 0.51,7.4 3.21,15.25 5.11,21.9 0.03,0.1 0.79,1.76 1.23,2.56 0.04,0.08 0.45,0.94 0.5,0.94 0.38,0 1.22,1.9 1.71,2.67 1.02,1.61 2.4,2.88 3.72,4.26 0.07,0.07 2.29,1 1.67,1.2 m -1.6,-1.13 c 0,0 -0.13,0 -0.1,0"
       fill="#000000" /></g></svg>
