<?xml version="1.0" standalone="no"?>
<!DOCTYPE svg PUBLIC "-//W3C//DTD SVG 20010904//EN" "http://www.w3.org/TR/2001/REC-SVG-20010904/DTD/svg10.dtd">
<!-- Created using Krita: http://krita.org -->
<svg xmlns="http://www.w3.org/2000/svg" 
    xmlns:xlink="http://www.w3.org/1999/xlink"
    xmlns:krita="http://krita.org/namespaces/svg/krita"
    xmlns:sodipodi="http://sodipodi.sourceforge.net/DTD/sodipodi-0.dtd"
    width="54pt"
    height="54pt"
    viewBox="0 0 54 54">
<defs/>
<path id="shape0" transform="translate(3.95595284836243, 8.74843748759434)" fill="none" stroke="#ffffff" stroke-width="0.9" stroke-linecap="round" stroke-linejoin="round" d="M23.13 10.7771C24.1531 0.109382 29.3735 -2.63876 38.7914 2.53271L44.5095 0.285449L40.8328 5.2686L45.6099 4.20896L41.3146 8.96351C39.2575 36.814 14.5999 40.6853 0 32.8624C4.81037 32.6097 9.76927 32.8353 13.3867 28.7402C9.19203 28.2156 7.02011 25.526 5.18894 22.4716L9.01792 22.0712C5.19658 19.9847 2.51745 17.1353 1.83136 12.9547L5.87399 14.0901C3.606 10.3447 0.626743 6.82029 3.11402 1.59751C10.9027 9.25473 17.5747 12.3146 23.13 10.7771Z"/>
</svg>
